<?xml version="1.0" encoding="UTF-8" standalone="no"?><svg xmlns="http://www.w3.org/2000/svg" xmlns:xlink="http://www.w3.org/1999/xlink" contentScriptType="application/ecmascript" contentStyleType="text/css" height="566px" preserveAspectRatio="none" style="width:2527px;height:566px;" version="1.1" viewBox="0 0 2527 566" width="2527px" zoomAndPan="magnify"><defs><filter height="300%" id="fxqfe1j3puenm" width="300%" x="-1" y="-1"><feGaussianBlur result="blurOut" stdDeviation="2.0"/><feColorMatrix in="blurOut" result="blurOut2" type="matrix" values="0 0 0 0 0 0 0 0 0 0 0 0 0 0 0 0 0 0 .4 0"/><feOffset dx="4.0" dy="4.0" in="blurOut2" result="blurOut3"/><feBlend in="SourceGraphic" in2="blurOut3" mode="normal"/></filter></defs><g><text fill="#888888" font-family="sans-serif" font-size="10" lengthAdjust="spacingAndGlyphs" textLength="223" x="2292" y="9.2822">Creator: Simon J.D.Cox (simon.cox@csiro.au)</text><text fill="#000000" font-family="sans-serif" font-size="18" lengthAdjust="spacingAndGlyphs" textLength="171" x="1172" y="28.3486">The PLOT ontology</text><!--MD5=[271020f0bd72f99a9c4b6587d81e43ae]
class :EnvironmentalContinuant--><a href="http://linked.data.gov.au/def/plot/x/EnvironmentalContinuant" target="_top" title="http://linked.data.gov.au/def/plot/x/EnvironmentalContinuant" xlink:actuate="onRequest" xlink:href="http://linked.data.gov.au/def/plot/x/EnvironmentalContinuant" xlink:show="new" xlink:title="http://linked.data.gov.au/def/plot/x/EnvironmentalContinuant" xlink:type="simple"><rect fill="#FEFECE" filter="url(#fxqfe1j3puenm)" height="48" id=":EnvironmentalContinuant" style="stroke: #A80036; stroke-width: 1.5;" width="194" x="559.5" y="155.0938"/><ellipse cx="574.5" cy="171.0938" fill="#ADD1B2" rx="11" ry="11" style="stroke: #A80036; stroke-width: 1.0;"/><path d="M576.8438,166.7656 L577.0156,166.8438 C577.2344,166.5313 577.4375,166.4375 577.7344,166.4375 C578.0313,166.4375 578.3125,166.5781 578.4688,166.8438 C578.5625,167 578.5781,167.125 578.5781,167.5625 L578.5781,168.9844 C578.5781,169.4063 578.5469,169.5938 578.4375,169.75 C578.2656,169.9688 578,170.1094 577.7344,170.1094 C577.5156,170.1094 577.2813,170 577.1406,169.8594 C577,169.7344 576.9688,169.6094 576.9063,169.2031 C576.8125,168.7969 576.6406,168.5781 576.1563,168.2969 C575.6875,168.0469 575.0781,167.8906 574.5,167.8906 C572.7656,167.8906 571.5156,169.2031 571.5156,170.9844 L571.5156,172.0781 C571.5156,173.7813 572.8125,174.875 574.8594,174.875 C575.625,174.875 576.3125,174.75 576.7344,174.4844 C576.9219,174.3906 576.9219,174.3906 577.375,173.9063 C577.5625,173.7188 577.7656,173.6406 577.9844,173.6406 C578.4531,173.6406 578.8438,174.0313 578.8438,174.4844 C578.8438,174.875 578.5156,175.3281 577.9375,175.7344 C577.1875,176.2813 576.0313,176.5781 574.8125,176.5781 C571.9219,176.5781 569.8125,174.6875 569.8125,172.1094 L569.8125,170.9844 C569.8125,168.2656 571.8125,166.1875 574.4375,166.1875 C575.3125,166.1875 575.9063,166.3281 576.8438,166.7656 Z "/><text fill="#000000" font-family="sans-serif" font-size="12" lengthAdjust="spacingAndGlyphs" textLength="162" x="588.5" y="175.248">:EnvironmentalContinuant</text><line style="stroke: #A80036; stroke-width: 1.5;" x1="560.5" x2="752.5" y1="187.0938" y2="187.0938"/><line style="stroke: #A80036; stroke-width: 1.5;" x1="560.5" x2="752.5" y1="195.0938" y2="195.0938"/></a><!--MD5=[fc541faf7941394647775b46ff936e10]
class :EnvironmentalSystem--><a href="http://linked.data.gov.au/def/plot/x/EnvironmentalSystem" target="_top" title="http://linked.data.gov.au/def/plot/x/EnvironmentalSystem" xlink:actuate="onRequest" xlink:href="http://linked.data.gov.au/def/plot/x/EnvironmentalSystem" xlink:show="new" xlink:title="http://linked.data.gov.au/def/plot/x/EnvironmentalSystem" xlink:type="simple"><rect fill="#FEFECE" filter="url(#fxqfe1j3puenm)" height="48" id=":EnvironmentalSystem" style="stroke: #A80036; stroke-width: 1.5;" width="170" x="377.5" y="269.5938"/><ellipse cx="392.5" cy="285.5938" fill="#ADD1B2" rx="11" ry="11" style="stroke: #A80036; stroke-width: 1.0;"/><path d="M394.8438,281.2656 L395.0156,281.3438 C395.2344,281.0313 395.4375,280.9375 395.7344,280.9375 C396.0313,280.9375 396.3125,281.0781 396.4688,281.3438 C396.5625,281.5 396.5781,281.625 396.5781,282.0625 L396.5781,283.4844 C396.5781,283.9063 396.5469,284.0938 396.4375,284.25 C396.2656,284.4688 396,284.6094 395.7344,284.6094 C395.5156,284.6094 395.2813,284.5 395.1406,284.3594 C395,284.2344 394.9688,284.1094 394.9063,283.7031 C394.8125,283.2969 394.6406,283.0781 394.1563,282.7969 C393.6875,282.5469 393.0781,282.3906 392.5,282.3906 C390.7656,282.3906 389.5156,283.7031 389.5156,285.4844 L389.5156,286.5781 C389.5156,288.2813 390.8125,289.375 392.8594,289.375 C393.625,289.375 394.3125,289.25 394.7344,288.9844 C394.9219,288.8906 394.9219,288.8906 395.375,288.4063 C395.5625,288.2188 395.7656,288.1406 395.9844,288.1406 C396.4531,288.1406 396.8438,288.5313 396.8438,288.9844 C396.8438,289.375 396.5156,289.8281 395.9375,290.2344 C395.1875,290.7813 394.0313,291.0781 392.8125,291.0781 C389.9219,291.0781 387.8125,289.1875 387.8125,286.6094 L387.8125,285.4844 C387.8125,282.7656 389.8125,280.6875 392.4375,280.6875 C393.3125,280.6875 393.9063,280.8281 394.8438,281.2656 Z "/><text fill="#000000" font-family="sans-serif" font-size="12" lengthAdjust="spacingAndGlyphs" textLength="138" x="406.5" y="289.748">:EnvironmentalSystem</text><line style="stroke: #A80036; stroke-width: 1.5;" x1="378.5" x2="546.5" y1="301.5938" y2="301.5938"/><line style="stroke: #A80036; stroke-width: 1.5;" x1="378.5" x2="546.5" y1="309.5938" y2="309.5938"/></a><!--MD5=[f071ecb23dbf121833784480fda18997]
class owl:Thing--><rect fill="#FEFECE" filter="url(#fxqfe1j3puenm)" height="48" id="owl:Thing" style="stroke: #A80036; stroke-width: 1.5;" width="90" x="423.5" y="155.0938"/><ellipse cx="438.5" cy="171.0938" fill="#ADD1B2" rx="11" ry="11" style="stroke: #A80036; stroke-width: 1.0;"/><path d="M440.8438,166.7656 L441.0156,166.8438 C441.2344,166.5313 441.4375,166.4375 441.7344,166.4375 C442.0313,166.4375 442.3125,166.5781 442.4688,166.8438 C442.5625,167 442.5781,167.125 442.5781,167.5625 L442.5781,168.9844 C442.5781,169.4063 442.5469,169.5938 442.4375,169.75 C442.2656,169.9688 442,170.1094 441.7344,170.1094 C441.5156,170.1094 441.2813,170 441.1406,169.8594 C441,169.7344 440.9688,169.6094 440.9063,169.2031 C440.8125,168.7969 440.6406,168.5781 440.1563,168.2969 C439.6875,168.0469 439.0781,167.8906 438.5,167.8906 C436.7656,167.8906 435.5156,169.2031 435.5156,170.9844 L435.5156,172.0781 C435.5156,173.7813 436.8125,174.875 438.8594,174.875 C439.625,174.875 440.3125,174.75 440.7344,174.4844 C440.9219,174.3906 440.9219,174.3906 441.375,173.9063 C441.5625,173.7188 441.7656,173.6406 441.9844,173.6406 C442.4531,173.6406 442.8438,174.0313 442.8438,174.4844 C442.8438,174.875 442.5156,175.3281 441.9375,175.7344 C441.1875,176.2813 440.0313,176.5781 438.8125,176.5781 C435.9219,176.5781 433.8125,174.6875 433.8125,172.1094 L433.8125,170.9844 C433.8125,168.2656 435.8125,166.1875 438.4375,166.1875 C439.3125,166.1875 439.9063,166.3281 440.8438,166.7656 Z "/><text fill="#000000" font-family="sans-serif" font-size="12" lengthAdjust="spacingAndGlyphs" textLength="58" x="452.5" y="175.248">owl:Thing</text><line style="stroke: #A80036; stroke-width: 1.5;" x1="424.5" x2="512.5" y1="187.0938" y2="187.0938"/><line style="stroke: #A80036; stroke-width: 1.5;" x1="424.5" x2="512.5" y1="195.0938" y2="195.0938"/><!--MD5=[bb6d9abb7e221430576ccc276aa8775d]
class sosa:Observation--><rect fill="#FEFECE" filter="url(#fxqfe1j3puenm)" height="48" id="sosa:Observation" style="stroke: #A80036; stroke-width: 1.5;" width="141" x="791" y="40.5938"/><ellipse cx="806" cy="56.5938" fill="#ADD1B2" rx="11" ry="11" style="stroke: #A80036; stroke-width: 1.0;"/><path d="M808.3438,52.2656 L808.5156,52.3438 C808.7344,52.0313 808.9375,51.9375 809.2344,51.9375 C809.5313,51.9375 809.8125,52.0781 809.9688,52.3438 C810.0625,52.5 810.0781,52.625 810.0781,53.0625 L810.0781,54.4844 C810.0781,54.9063 810.0469,55.0938 809.9375,55.25 C809.7656,55.4688 809.5,55.6094 809.2344,55.6094 C809.0156,55.6094 808.7813,55.5 808.6406,55.3594 C808.5,55.2344 808.4688,55.1094 808.4063,54.7031 C808.3125,54.2969 808.1406,54.0781 807.6563,53.7969 C807.1875,53.5469 806.5781,53.3906 806,53.3906 C804.2656,53.3906 803.0156,54.7031 803.0156,56.4844 L803.0156,57.5781 C803.0156,59.2813 804.3125,60.375 806.3594,60.375 C807.125,60.375 807.8125,60.25 808.2344,59.9844 C808.4219,59.8906 808.4219,59.8906 808.875,59.4063 C809.0625,59.2188 809.2656,59.1406 809.4844,59.1406 C809.9531,59.1406 810.3438,59.5313 810.3438,59.9844 C810.3438,60.375 810.0156,60.8281 809.4375,61.2344 C808.6875,61.7813 807.5313,62.0781 806.3125,62.0781 C803.4219,62.0781 801.3125,60.1875 801.3125,57.6094 L801.3125,56.4844 C801.3125,53.7656 803.3125,51.6875 805.9375,51.6875 C806.8125,51.6875 807.4063,51.8281 808.3438,52.2656 Z "/><text fill="#000000" font-family="sans-serif" font-size="12" lengthAdjust="spacingAndGlyphs" textLength="109" x="820" y="60.748">sosa:Observation</text><line style="stroke: #A80036; stroke-width: 1.5;" x1="792" x2="931" y1="72.5938" y2="72.5938"/><line style="stroke: #A80036; stroke-width: 1.5;" x1="792" x2="931" y1="80.5938" y2="80.5938"/><!--MD5=[b2a8d2e130b98aa952ed50aba61fd144]
class :TaxonAssignment--><a href="http://linked.data.gov.au/def/plot/x/TaxonAssignment" target="_top" title="http://linked.data.gov.au/def/plot/x/TaxonAssignment" xlink:actuate="onRequest" xlink:href="http://linked.data.gov.au/def/plot/x/TaxonAssignment" xlink:show="new" xlink:title="http://linked.data.gov.au/def/plot/x/TaxonAssignment" xlink:type="simple"><rect fill="#FEFECE" filter="url(#fxqfe1j3puenm)" height="48" id=":TaxonAssignment" style="stroke: #A80036; stroke-width: 1.5;" width="146" x="788.5" y="155.0938"/><ellipse cx="803.5" cy="171.0938" fill="#ADD1B2" rx="11" ry="11" style="stroke: #A80036; stroke-width: 1.0;"/><path d="M805.8438,166.7656 L806.0156,166.8438 C806.2344,166.5313 806.4375,166.4375 806.7344,166.4375 C807.0313,166.4375 807.3125,166.5781 807.4688,166.8438 C807.5625,167 807.5781,167.125 807.5781,167.5625 L807.5781,168.9844 C807.5781,169.4063 807.5469,169.5938 807.4375,169.75 C807.2656,169.9688 807,170.1094 806.7344,170.1094 C806.5156,170.1094 806.2813,170 806.1406,169.8594 C806,169.7344 805.9688,169.6094 805.9063,169.2031 C805.8125,168.7969 805.6406,168.5781 805.1563,168.2969 C804.6875,168.0469 804.0781,167.8906 803.5,167.8906 C801.7656,167.8906 800.5156,169.2031 800.5156,170.9844 L800.5156,172.0781 C800.5156,173.7813 801.8125,174.875 803.8594,174.875 C804.625,174.875 805.3125,174.75 805.7344,174.4844 C805.9219,174.3906 805.9219,174.3906 806.375,173.9063 C806.5625,173.7188 806.7656,173.6406 806.9844,173.6406 C807.4531,173.6406 807.8438,174.0313 807.8438,174.4844 C807.8438,174.875 807.5156,175.3281 806.9375,175.7344 C806.1875,176.2813 805.0313,176.5781 803.8125,176.5781 C800.9219,176.5781 798.8125,174.6875 798.8125,172.1094 L798.8125,170.9844 C798.8125,168.2656 800.8125,166.1875 803.4375,166.1875 C804.3125,166.1875 804.9063,166.3281 805.8438,166.7656 Z "/><text fill="#000000" font-family="sans-serif" font-size="12" lengthAdjust="spacingAndGlyphs" textLength="114" x="817.5" y="175.248">:TaxonAssignment</text><line style="stroke: #A80036; stroke-width: 1.5;" x1="789.5" x2="933.5" y1="187.0938" y2="187.0938"/><line style="stroke: #A80036; stroke-width: 1.5;" x1="789.5" x2="933.5" y1="195.0938" y2="195.0938"/></a><!--MD5=[50665e143bce30f6a1af9c952e41ca0e]
class sosa:Platform--><rect fill="#FEFECE" filter="url(#fxqfe1j3puenm)" height="48" id="sosa:Platform" style="stroke: #A80036; stroke-width: 1.5;" width="118" x="967.5" y="40.5938"/><ellipse cx="982.5" cy="56.5938" fill="#ADD1B2" rx="11" ry="11" style="stroke: #A80036; stroke-width: 1.0;"/><path d="M984.8438,52.2656 L985.0156,52.3438 C985.2344,52.0313 985.4375,51.9375 985.7344,51.9375 C986.0313,51.9375 986.3125,52.0781 986.4688,52.3438 C986.5625,52.5 986.5781,52.625 986.5781,53.0625 L986.5781,54.4844 C986.5781,54.9063 986.5469,55.0938 986.4375,55.25 C986.2656,55.4688 986,55.6094 985.7344,55.6094 C985.5156,55.6094 985.2813,55.5 985.1406,55.3594 C985,55.2344 984.9688,55.1094 984.9063,54.7031 C984.8125,54.2969 984.6406,54.0781 984.1563,53.7969 C983.6875,53.5469 983.0781,53.3906 982.5,53.3906 C980.7656,53.3906 979.5156,54.7031 979.5156,56.4844 L979.5156,57.5781 C979.5156,59.2813 980.8125,60.375 982.8594,60.375 C983.625,60.375 984.3125,60.25 984.7344,59.9844 C984.9219,59.8906 984.9219,59.8906 985.375,59.4063 C985.5625,59.2188 985.7656,59.1406 985.9844,59.1406 C986.4531,59.1406 986.8438,59.5313 986.8438,59.9844 C986.8438,60.375 986.5156,60.8281 985.9375,61.2344 C985.1875,61.7813 984.0313,62.0781 982.8125,62.0781 C979.9219,62.0781 977.8125,60.1875 977.8125,57.6094 L977.8125,56.4844 C977.8125,53.7656 979.8125,51.6875 982.4375,51.6875 C983.3125,51.6875 983.9063,51.8281 984.8438,52.2656 Z "/><text fill="#000000" font-family="sans-serif" font-size="12" lengthAdjust="spacingAndGlyphs" textLength="86" x="996.5" y="60.748">sosa:Platform</text><line style="stroke: #A80036; stroke-width: 1.5;" x1="968.5" x2="1084.5" y1="72.5938" y2="72.5938"/><line style="stroke: #A80036; stroke-width: 1.5;" x1="968.5" x2="1084.5" y1="80.5938" y2="80.5938"/><!--MD5=[3df895f3135a771803c07af651931204]
class :FluxTower--><a href="http://linked.data.gov.au/def/plot/x/FluxTower" target="_top" title="http://linked.data.gov.au/def/plot/x/FluxTower" xlink:actuate="onRequest" xlink:href="http://linked.data.gov.au/def/plot/x/FluxTower" xlink:show="new" xlink:title="http://linked.data.gov.au/def/plot/x/FluxTower" xlink:type="simple"><rect fill="#FEFECE" filter="url(#fxqfe1j3puenm)" height="48" id=":FluxTower" style="stroke: #A80036; stroke-width: 1.5;" width="97" x="978" y="155.0938"/><ellipse cx="993" cy="171.0938" fill="#ADD1B2" rx="11" ry="11" style="stroke: #A80036; stroke-width: 1.0;"/><path d="M995.3438,166.7656 L995.5156,166.8438 C995.7344,166.5313 995.9375,166.4375 996.2344,166.4375 C996.5313,166.4375 996.8125,166.5781 996.9688,166.8438 C997.0625,167 997.0781,167.125 997.0781,167.5625 L997.0781,168.9844 C997.0781,169.4063 997.0469,169.5938 996.9375,169.75 C996.7656,169.9688 996.5,170.1094 996.2344,170.1094 C996.0156,170.1094 995.7813,170 995.6406,169.8594 C995.5,169.7344 995.4688,169.6094 995.4063,169.2031 C995.3125,168.7969 995.1406,168.5781 994.6563,168.2969 C994.1875,168.0469 993.5781,167.8906 993,167.8906 C991.2656,167.8906 990.0156,169.2031 990.0156,170.9844 L990.0156,172.0781 C990.0156,173.7813 991.3125,174.875 993.3594,174.875 C994.125,174.875 994.8125,174.75 995.2344,174.4844 C995.4219,174.3906 995.4219,174.3906 995.875,173.9063 C996.0625,173.7188 996.2656,173.6406 996.4844,173.6406 C996.9531,173.6406 997.3438,174.0313 997.3438,174.4844 C997.3438,174.875 997.0156,175.3281 996.4375,175.7344 C995.6875,176.2813 994.5313,176.5781 993.3125,176.5781 C990.4219,176.5781 988.3125,174.6875 988.3125,172.1094 L988.3125,170.9844 C988.3125,168.2656 990.3125,166.1875 992.9375,166.1875 C993.8125,166.1875 994.4063,166.3281 995.3438,166.7656 Z "/><text fill="#000000" font-family="sans-serif" font-size="12" lengthAdjust="spacingAndGlyphs" textLength="65" x="1007" y="175.248">:FluxTower</text><line style="stroke: #A80036; stroke-width: 1.5;" x1="979" x2="1074" y1="187.0938" y2="187.0938"/><line style="stroke: #A80036; stroke-width: 1.5;" x1="979" x2="1074" y1="195.0938" y2="195.0938"/></a><!--MD5=[9655ad61792b4ed0d4f91a9adcbf26fa]
class dct:Location--><rect fill="#FEFECE" filter="url(#fxqfe1j3puenm)" height="48" id="dct:Location" style="stroke: #A80036; stroke-width: 1.5;" width="109" x="1121" y="40.5938"/><ellipse cx="1136" cy="56.5938" fill="#ADD1B2" rx="11" ry="11" style="stroke: #A80036; stroke-width: 1.0;"/><path d="M1138.3438,52.2656 L1138.5156,52.3438 C1138.7344,52.0313 1138.9375,51.9375 1139.2344,51.9375 C1139.5313,51.9375 1139.8125,52.0781 1139.9688,52.3438 C1140.0625,52.5 1140.0781,52.625 1140.0781,53.0625 L1140.0781,54.4844 C1140.0781,54.9063 1140.0469,55.0938 1139.9375,55.25 C1139.7656,55.4688 1139.5,55.6094 1139.2344,55.6094 C1139.0156,55.6094 1138.7813,55.5 1138.6406,55.3594 C1138.5,55.2344 1138.4688,55.1094 1138.4063,54.7031 C1138.3125,54.2969 1138.1406,54.0781 1137.6563,53.7969 C1137.1875,53.5469 1136.5781,53.3906 1136,53.3906 C1134.2656,53.3906 1133.0156,54.7031 1133.0156,56.4844 L1133.0156,57.5781 C1133.0156,59.2813 1134.3125,60.375 1136.3594,60.375 C1137.125,60.375 1137.8125,60.25 1138.2344,59.9844 C1138.4219,59.8906 1138.4219,59.8906 1138.875,59.4063 C1139.0625,59.2188 1139.2656,59.1406 1139.4844,59.1406 C1139.9531,59.1406 1140.3438,59.5313 1140.3438,59.9844 C1140.3438,60.375 1140.0156,60.8281 1139.4375,61.2344 C1138.6875,61.7813 1137.5313,62.0781 1136.3125,62.0781 C1133.4219,62.0781 1131.3125,60.1875 1131.3125,57.6094 L1131.3125,56.4844 C1131.3125,53.7656 1133.3125,51.6875 1135.9375,51.6875 C1136.8125,51.6875 1137.4063,51.8281 1138.3438,52.2656 Z "/><text fill="#000000" font-family="sans-serif" font-size="12" lengthAdjust="spacingAndGlyphs" textLength="77" x="1150" y="60.748">dct:Location</text><line style="stroke: #A80036; stroke-width: 1.5;" x1="1122" x2="1229" y1="72.5938" y2="72.5938"/><line style="stroke: #A80036; stroke-width: 1.5;" x1="1122" x2="1229" y1="80.5938" y2="80.5938"/><!--MD5=[0d2e18ac24d05bcb014024f64dd8f82f]
class :Location--><a href="http://linked.data.gov.au/def/plot/Location" target="_top" title="http://linked.data.gov.au/def/plot/Location" xlink:actuate="onRequest" xlink:href="http://linked.data.gov.au/def/plot/Location" xlink:show="new" xlink:title="http://linked.data.gov.au/def/plot/Location" xlink:type="simple"><rect fill="#FEFECE" filter="url(#fxqfe1j3puenm)" height="48" id=":Location" style="stroke: #A80036; stroke-width: 1.5;" width="89" x="1131" y="155.0938"/><ellipse cx="1146" cy="171.0938" fill="#ADD1B2" rx="11" ry="11" style="stroke: #A80036; stroke-width: 1.0;"/><path d="M1148.3438,166.7656 L1148.5156,166.8438 C1148.7344,166.5313 1148.9375,166.4375 1149.2344,166.4375 C1149.5313,166.4375 1149.8125,166.5781 1149.9688,166.8438 C1150.0625,167 1150.0781,167.125 1150.0781,167.5625 L1150.0781,168.9844 C1150.0781,169.4063 1150.0469,169.5938 1149.9375,169.75 C1149.7656,169.9688 1149.5,170.1094 1149.2344,170.1094 C1149.0156,170.1094 1148.7813,170 1148.6406,169.8594 C1148.5,169.7344 1148.4688,169.6094 1148.4063,169.2031 C1148.3125,168.7969 1148.1406,168.5781 1147.6563,168.2969 C1147.1875,168.0469 1146.5781,167.8906 1146,167.8906 C1144.2656,167.8906 1143.0156,169.2031 1143.0156,170.9844 L1143.0156,172.0781 C1143.0156,173.7813 1144.3125,174.875 1146.3594,174.875 C1147.125,174.875 1147.8125,174.75 1148.2344,174.4844 C1148.4219,174.3906 1148.4219,174.3906 1148.875,173.9063 C1149.0625,173.7188 1149.2656,173.6406 1149.4844,173.6406 C1149.9531,173.6406 1150.3438,174.0313 1150.3438,174.4844 C1150.3438,174.875 1150.0156,175.3281 1149.4375,175.7344 C1148.6875,176.2813 1147.5313,176.5781 1146.3125,176.5781 C1143.4219,176.5781 1141.3125,174.6875 1141.3125,172.1094 L1141.3125,170.9844 C1141.3125,168.2656 1143.3125,166.1875 1145.9375,166.1875 C1146.8125,166.1875 1147.4063,166.3281 1148.3438,166.7656 Z "/><text fill="#000000" font-family="sans-serif" font-size="12" lengthAdjust="spacingAndGlyphs" textLength="57" x="1160" y="175.248">:Location</text><line style="stroke: #A80036; stroke-width: 1.5;" x1="1132" x2="1219" y1="187.0938" y2="187.0938"/><line style="stroke: #A80036; stroke-width: 1.5;" x1="1132" x2="1219" y1="195.0938" y2="195.0938"/></a><!--MD5=[e26081150a54feee97befd454a48c707]
class skos:Concept--><rect fill="#FEFECE" filter="url(#fxqfe1j3puenm)" height="48" id="skos:Concept" style="stroke: #A80036; stroke-width: 1.5;" width="117" x="1265" y="40.5938"/><ellipse cx="1280" cy="56.5938" fill="#ADD1B2" rx="11" ry="11" style="stroke: #A80036; stroke-width: 1.0;"/><path d="M1282.3438,52.2656 L1282.5156,52.3438 C1282.7344,52.0313 1282.9375,51.9375 1283.2344,51.9375 C1283.5313,51.9375 1283.8125,52.0781 1283.9688,52.3438 C1284.0625,52.5 1284.0781,52.625 1284.0781,53.0625 L1284.0781,54.4844 C1284.0781,54.9063 1284.0469,55.0938 1283.9375,55.25 C1283.7656,55.4688 1283.5,55.6094 1283.2344,55.6094 C1283.0156,55.6094 1282.7813,55.5 1282.6406,55.3594 C1282.5,55.2344 1282.4688,55.1094 1282.4063,54.7031 C1282.3125,54.2969 1282.1406,54.0781 1281.6563,53.7969 C1281.1875,53.5469 1280.5781,53.3906 1280,53.3906 C1278.2656,53.3906 1277.0156,54.7031 1277.0156,56.4844 L1277.0156,57.5781 C1277.0156,59.2813 1278.3125,60.375 1280.3594,60.375 C1281.125,60.375 1281.8125,60.25 1282.2344,59.9844 C1282.4219,59.8906 1282.4219,59.8906 1282.875,59.4063 C1283.0625,59.2188 1283.2656,59.1406 1283.4844,59.1406 C1283.9531,59.1406 1284.3438,59.5313 1284.3438,59.9844 C1284.3438,60.375 1284.0156,60.8281 1283.4375,61.2344 C1282.6875,61.7813 1281.5313,62.0781 1280.3125,62.0781 C1277.4219,62.0781 1275.3125,60.1875 1275.3125,57.6094 L1275.3125,56.4844 C1275.3125,53.7656 1277.3125,51.6875 1279.9375,51.6875 C1280.8125,51.6875 1281.4063,51.8281 1282.3438,52.2656 Z "/><text fill="#000000" font-family="sans-serif" font-size="12" lengthAdjust="spacingAndGlyphs" textLength="85" x="1294" y="60.748">skos:Concept</text><line style="stroke: #A80036; stroke-width: 1.5;" x1="1266" x2="1381" y1="72.5938" y2="72.5938"/><line style="stroke: #A80036; stroke-width: 1.5;" x1="1266" x2="1381" y1="80.5938" y2="80.5938"/><!--MD5=[8caf7ff1d4b6933ec1e0effa27d8a38d]
class :Stratum--><a href="http://linked.data.gov.au/def/plot/Stratum" target="_top" title="http://linked.data.gov.au/def/plot/Stratum" xlink:actuate="onRequest" xlink:href="http://linked.data.gov.au/def/plot/Stratum" xlink:show="new" xlink:title="http://linked.data.gov.au/def/plot/Stratum" xlink:type="simple"><rect fill="#FEFECE" filter="url(#fxqfe1j3puenm)" height="48" id=":Stratum" style="stroke: #A80036; stroke-width: 1.5;" width="86" x="1280.5" y="155.0938"/><ellipse cx="1295.5" cy="171.0938" fill="#ADD1B2" rx="11" ry="11" style="stroke: #A80036; stroke-width: 1.0;"/><path d="M1297.8438,166.7656 L1298.0156,166.8438 C1298.2344,166.5313 1298.4375,166.4375 1298.7344,166.4375 C1299.0313,166.4375 1299.3125,166.5781 1299.4688,166.8438 C1299.5625,167 1299.5781,167.125 1299.5781,167.5625 L1299.5781,168.9844 C1299.5781,169.4063 1299.5469,169.5938 1299.4375,169.75 C1299.2656,169.9688 1299,170.1094 1298.7344,170.1094 C1298.5156,170.1094 1298.2813,170 1298.1406,169.8594 C1298,169.7344 1297.9688,169.6094 1297.9063,169.2031 C1297.8125,168.7969 1297.6406,168.5781 1297.1563,168.2969 C1296.6875,168.0469 1296.0781,167.8906 1295.5,167.8906 C1293.7656,167.8906 1292.5156,169.2031 1292.5156,170.9844 L1292.5156,172.0781 C1292.5156,173.7813 1293.8125,174.875 1295.8594,174.875 C1296.625,174.875 1297.3125,174.75 1297.7344,174.4844 C1297.9219,174.3906 1297.9219,174.3906 1298.375,173.9063 C1298.5625,173.7188 1298.7656,173.6406 1298.9844,173.6406 C1299.4531,173.6406 1299.8438,174.0313 1299.8438,174.4844 C1299.8438,174.875 1299.5156,175.3281 1298.9375,175.7344 C1298.1875,176.2813 1297.0313,176.5781 1295.8125,176.5781 C1292.9219,176.5781 1290.8125,174.6875 1290.8125,172.1094 L1290.8125,170.9844 C1290.8125,168.2656 1292.8125,166.1875 1295.4375,166.1875 C1296.3125,166.1875 1296.9063,166.3281 1297.8438,166.7656 Z "/><text fill="#000000" font-family="sans-serif" font-size="12" lengthAdjust="spacingAndGlyphs" textLength="54" x="1309.5" y="175.248">:Stratum</text><line style="stroke: #A80036; stroke-width: 1.5;" x1="1281.5" x2="1365.5" y1="187.0938" y2="187.0938"/><line style="stroke: #A80036; stroke-width: 1.5;" x1="1281.5" x2="1365.5" y1="195.0938" y2="195.0938"/></a><!--MD5=[0d584a71ebce8b757d02fdb0fcc922f5]
class prov:Activity--><rect fill="#FEFECE" filter="url(#fxqfe1j3puenm)" height="48" id="prov:Activity" style="stroke: #A80036; stroke-width: 1.5;" width="106" x="1463.5" y="40.5938"/><ellipse cx="1478.5" cy="56.5938" fill="#ADD1B2" rx="11" ry="11" style="stroke: #A80036; stroke-width: 1.0;"/><path d="M1480.8438,52.2656 L1481.0156,52.3438 C1481.2344,52.0313 1481.4375,51.9375 1481.7344,51.9375 C1482.0313,51.9375 1482.3125,52.0781 1482.4688,52.3438 C1482.5625,52.5 1482.5781,52.625 1482.5781,53.0625 L1482.5781,54.4844 C1482.5781,54.9063 1482.5469,55.0938 1482.4375,55.25 C1482.2656,55.4688 1482,55.6094 1481.7344,55.6094 C1481.5156,55.6094 1481.2813,55.5 1481.1406,55.3594 C1481,55.2344 1480.9688,55.1094 1480.9063,54.7031 C1480.8125,54.2969 1480.6406,54.0781 1480.1563,53.7969 C1479.6875,53.5469 1479.0781,53.3906 1478.5,53.3906 C1476.7656,53.3906 1475.5156,54.7031 1475.5156,56.4844 L1475.5156,57.5781 C1475.5156,59.2813 1476.8125,60.375 1478.8594,60.375 C1479.625,60.375 1480.3125,60.25 1480.7344,59.9844 C1480.9219,59.8906 1480.9219,59.8906 1481.375,59.4063 C1481.5625,59.2188 1481.7656,59.1406 1481.9844,59.1406 C1482.4531,59.1406 1482.8438,59.5313 1482.8438,59.9844 C1482.8438,60.375 1482.5156,60.8281 1481.9375,61.2344 C1481.1875,61.7813 1480.0313,62.0781 1478.8125,62.0781 C1475.9219,62.0781 1473.8125,60.1875 1473.8125,57.6094 L1473.8125,56.4844 C1473.8125,53.7656 1475.8125,51.6875 1478.4375,51.6875 C1479.3125,51.6875 1479.9063,51.8281 1480.8438,52.2656 Z "/><text fill="#000000" font-family="sans-serif" font-size="12" lengthAdjust="spacingAndGlyphs" textLength="74" x="1492.5" y="60.748">prov:Activity</text><line style="stroke: #A80036; stroke-width: 1.5;" x1="1464.5" x2="1568.5" y1="72.5938" y2="72.5938"/><line style="stroke: #A80036; stroke-width: 1.5;" x1="1464.5" x2="1568.5" y1="80.5938" y2="80.5938"/><!--MD5=[a7bef1571412352f70cef7962b9a3d10]
class :SiteVisit--><a href="http://linked.data.gov.au/def/plot/SiteVisit" target="_top" title="http://linked.data.gov.au/def/plot/SiteVisit" xlink:actuate="onRequest" xlink:href="http://linked.data.gov.au/def/plot/SiteVisit" xlink:show="new" xlink:title="http://linked.data.gov.au/def/plot/SiteVisit" xlink:type="simple"><rect fill="#FEFECE" filter="url(#fxqfe1j3puenm)" height="48" id=":SiteVisit" style="stroke: #A80036; stroke-width: 1.5;" width="86" x="1401.5" y="155.0938"/><ellipse cx="1416.5" cy="171.0938" fill="#ADD1B2" rx="11" ry="11" style="stroke: #A80036; stroke-width: 1.0;"/><path d="M1418.8438,166.7656 L1419.0156,166.8438 C1419.2344,166.5313 1419.4375,166.4375 1419.7344,166.4375 C1420.0313,166.4375 1420.3125,166.5781 1420.4688,166.8438 C1420.5625,167 1420.5781,167.125 1420.5781,167.5625 L1420.5781,168.9844 C1420.5781,169.4063 1420.5469,169.5938 1420.4375,169.75 C1420.2656,169.9688 1420,170.1094 1419.7344,170.1094 C1419.5156,170.1094 1419.2813,170 1419.1406,169.8594 C1419,169.7344 1418.9688,169.6094 1418.9063,169.2031 C1418.8125,168.7969 1418.6406,168.5781 1418.1563,168.2969 C1417.6875,168.0469 1417.0781,167.8906 1416.5,167.8906 C1414.7656,167.8906 1413.5156,169.2031 1413.5156,170.9844 L1413.5156,172.0781 C1413.5156,173.7813 1414.8125,174.875 1416.8594,174.875 C1417.625,174.875 1418.3125,174.75 1418.7344,174.4844 C1418.9219,174.3906 1418.9219,174.3906 1419.375,173.9063 C1419.5625,173.7188 1419.7656,173.6406 1419.9844,173.6406 C1420.4531,173.6406 1420.8438,174.0313 1420.8438,174.4844 C1420.8438,174.875 1420.5156,175.3281 1419.9375,175.7344 C1419.1875,176.2813 1418.0313,176.5781 1416.8125,176.5781 C1413.9219,176.5781 1411.8125,174.6875 1411.8125,172.1094 L1411.8125,170.9844 C1411.8125,168.2656 1413.8125,166.1875 1416.4375,166.1875 C1417.3125,166.1875 1417.9063,166.3281 1418.8438,166.7656 Z "/><text fill="#000000" font-family="sans-serif" font-size="12" lengthAdjust="spacingAndGlyphs" textLength="54" x="1430.5" y="175.248">:SiteVisit</text><line style="stroke: #A80036; stroke-width: 1.5;" x1="1402.5" x2="1486.5" y1="187.0938" y2="187.0938"/><line style="stroke: #A80036; stroke-width: 1.5;" x1="1402.5" x2="1486.5" y1="195.0938" y2="195.0938"/></a><!--MD5=[8b6ce312968107126c2336334b36ae49]
class sosa:Sample--><rect fill="#FEFECE" filter="url(#fxqfe1j3puenm)" height="48" id="sosa:Sample" style="stroke: #A80036; stroke-width: 1.5;" width="112" x="1809.5" y="40.5938"/><ellipse cx="1824.5" cy="56.5938" fill="#ADD1B2" rx="11" ry="11" style="stroke: #A80036; stroke-width: 1.0;"/><path d="M1826.8438,52.2656 L1827.0156,52.3438 C1827.2344,52.0313 1827.4375,51.9375 1827.7344,51.9375 C1828.0313,51.9375 1828.3125,52.0781 1828.4688,52.3438 C1828.5625,52.5 1828.5781,52.625 1828.5781,53.0625 L1828.5781,54.4844 C1828.5781,54.9063 1828.5469,55.0938 1828.4375,55.25 C1828.2656,55.4688 1828,55.6094 1827.7344,55.6094 C1827.5156,55.6094 1827.2813,55.5 1827.1406,55.3594 C1827,55.2344 1826.9688,55.1094 1826.9063,54.7031 C1826.8125,54.2969 1826.6406,54.0781 1826.1563,53.7969 C1825.6875,53.5469 1825.0781,53.3906 1824.5,53.3906 C1822.7656,53.3906 1821.5156,54.7031 1821.5156,56.4844 L1821.5156,57.5781 C1821.5156,59.2813 1822.8125,60.375 1824.8594,60.375 C1825.625,60.375 1826.3125,60.25 1826.7344,59.9844 C1826.9219,59.8906 1826.9219,59.8906 1827.375,59.4063 C1827.5625,59.2188 1827.7656,59.1406 1827.9844,59.1406 C1828.4531,59.1406 1828.8438,59.5313 1828.8438,59.9844 C1828.8438,60.375 1828.5156,60.8281 1827.9375,61.2344 C1827.1875,61.7813 1826.0313,62.0781 1824.8125,62.0781 C1821.9219,62.0781 1819.8125,60.1875 1819.8125,57.6094 L1819.8125,56.4844 C1819.8125,53.7656 1821.8125,51.6875 1824.4375,51.6875 C1825.3125,51.6875 1825.9063,51.8281 1826.8438,52.2656 Z "/><text fill="#000000" font-family="sans-serif" font-size="12" lengthAdjust="spacingAndGlyphs" textLength="80" x="1838.5" y="60.748">sosa:Sample</text><line style="stroke: #A80036; stroke-width: 1.5;" x1="1810.5" x2="1920.5" y1="72.5938" y2="72.5938"/><line style="stroke: #A80036; stroke-width: 1.5;" x1="1810.5" x2="1920.5" y1="80.5938" y2="80.5938"/><!--MD5=[05998431d8650f5302bbe94e4b45ca10]
class :SiteStratumTaxon--><a href="http://linked.data.gov.au/def/plot/SiteStratumTaxon" target="_top" title="http://linked.data.gov.au/def/plot/SiteStratumTaxon" xlink:actuate="onRequest" xlink:href="http://linked.data.gov.au/def/plot/SiteStratumTaxon" xlink:show="new" xlink:title="http://linked.data.gov.au/def/plot/SiteStratumTaxon" xlink:type="simple"><rect fill="#FEFECE" filter="url(#fxqfe1j3puenm)" height="48" id=":SiteStratumTaxon" style="stroke: #A80036; stroke-width: 1.5;" width="147" x="1635" y="155.0938"/><ellipse cx="1650" cy="171.0938" fill="#ADD1B2" rx="11" ry="11" style="stroke: #A80036; stroke-width: 1.0;"/><path d="M1652.3438,166.7656 L1652.5156,166.8438 C1652.7344,166.5313 1652.9375,166.4375 1653.2344,166.4375 C1653.5313,166.4375 1653.8125,166.5781 1653.9688,166.8438 C1654.0625,167 1654.0781,167.125 1654.0781,167.5625 L1654.0781,168.9844 C1654.0781,169.4063 1654.0469,169.5938 1653.9375,169.75 C1653.7656,169.9688 1653.5,170.1094 1653.2344,170.1094 C1653.0156,170.1094 1652.7813,170 1652.6406,169.8594 C1652.5,169.7344 1652.4688,169.6094 1652.4063,169.2031 C1652.3125,168.7969 1652.1406,168.5781 1651.6563,168.2969 C1651.1875,168.0469 1650.5781,167.8906 1650,167.8906 C1648.2656,167.8906 1647.0156,169.2031 1647.0156,170.9844 L1647.0156,172.0781 C1647.0156,173.7813 1648.3125,174.875 1650.3594,174.875 C1651.125,174.875 1651.8125,174.75 1652.2344,174.4844 C1652.4219,174.3906 1652.4219,174.3906 1652.875,173.9063 C1653.0625,173.7188 1653.2656,173.6406 1653.4844,173.6406 C1653.9531,173.6406 1654.3438,174.0313 1654.3438,174.4844 C1654.3438,174.875 1654.0156,175.3281 1653.4375,175.7344 C1652.6875,176.2813 1651.5313,176.5781 1650.3125,176.5781 C1647.4219,176.5781 1645.3125,174.6875 1645.3125,172.1094 L1645.3125,170.9844 C1645.3125,168.2656 1647.3125,166.1875 1649.9375,166.1875 C1650.8125,166.1875 1651.4063,166.3281 1652.3438,166.7656 Z "/><text fill="#000000" font-family="sans-serif" font-size="12" lengthAdjust="spacingAndGlyphs" textLength="115" x="1664" y="175.248">:SiteStratumTaxon</text><line style="stroke: #A80036; stroke-width: 1.5;" x1="1636" x2="1781" y1="187.0938" y2="187.0938"/><line style="stroke: #A80036; stroke-width: 1.5;" x1="1636" x2="1781" y1="195.0938" y2="195.0938"/></a><!--MD5=[3a2672805874e655d6e4cd0fc7e6c16f]
class :SiteTaxon--><a href="http://linked.data.gov.au/def/plot/SiteTaxon" target="_top" title="http://linked.data.gov.au/def/plot/SiteTaxon" xlink:actuate="onRequest" xlink:href="http://linked.data.gov.au/def/plot/SiteTaxon" xlink:show="new" xlink:title="http://linked.data.gov.au/def/plot/SiteTaxon" xlink:type="simple"><rect fill="#FEFECE" filter="url(#fxqfe1j3puenm)" height="48" id=":SiteTaxon" style="stroke: #A80036; stroke-width: 1.5;" width="97" x="1817" y="155.0938"/><ellipse cx="1832" cy="171.0938" fill="#ADD1B2" rx="11" ry="11" style="stroke: #A80036; stroke-width: 1.0;"/><path d="M1834.3438,166.7656 L1834.5156,166.8438 C1834.7344,166.5313 1834.9375,166.4375 1835.2344,166.4375 C1835.5313,166.4375 1835.8125,166.5781 1835.9688,166.8438 C1836.0625,167 1836.0781,167.125 1836.0781,167.5625 L1836.0781,168.9844 C1836.0781,169.4063 1836.0469,169.5938 1835.9375,169.75 C1835.7656,169.9688 1835.5,170.1094 1835.2344,170.1094 C1835.0156,170.1094 1834.7813,170 1834.6406,169.8594 C1834.5,169.7344 1834.4688,169.6094 1834.4063,169.2031 C1834.3125,168.7969 1834.1406,168.5781 1833.6563,168.2969 C1833.1875,168.0469 1832.5781,167.8906 1832,167.8906 C1830.2656,167.8906 1829.0156,169.2031 1829.0156,170.9844 L1829.0156,172.0781 C1829.0156,173.7813 1830.3125,174.875 1832.3594,174.875 C1833.125,174.875 1833.8125,174.75 1834.2344,174.4844 C1834.4219,174.3906 1834.4219,174.3906 1834.875,173.9063 C1835.0625,173.7188 1835.2656,173.6406 1835.4844,173.6406 C1835.9531,173.6406 1836.3438,174.0313 1836.3438,174.4844 C1836.3438,174.875 1836.0156,175.3281 1835.4375,175.7344 C1834.6875,176.2813 1833.5313,176.5781 1832.3125,176.5781 C1829.4219,176.5781 1827.3125,174.6875 1827.3125,172.1094 L1827.3125,170.9844 C1827.3125,168.2656 1829.3125,166.1875 1831.9375,166.1875 C1832.8125,166.1875 1833.4063,166.3281 1834.3438,166.7656 Z "/><text fill="#000000" font-family="sans-serif" font-size="12" lengthAdjust="spacingAndGlyphs" textLength="65" x="1846" y="175.248">:SiteTaxon</text><line style="stroke: #A80036; stroke-width: 1.5;" x1="1818" x2="1913" y1="187.0938" y2="187.0938"/><line style="stroke: #A80036; stroke-width: 1.5;" x1="1818" x2="1913" y1="195.0938" y2="195.0938"/></a><!--MD5=[f6742dd3b18cea425fa567171347bcdd]
class :EcologicalCommunity--><a href="http://linked.data.gov.au/def/plot/x/EcologicalCommunity" target="_top" title="http://linked.data.gov.au/def/plot/x/EcologicalCommunity" xlink:actuate="onRequest" xlink:href="http://linked.data.gov.au/def/plot/x/EcologicalCommunity" xlink:show="new" xlink:title="http://linked.data.gov.au/def/plot/x/EcologicalCommunity" xlink:type="simple"><rect fill="#FEFECE" filter="url(#fxqfe1j3puenm)" height="48" id=":EcologicalCommunity" style="stroke: #A80036; stroke-width: 1.5;" width="167" x="379" y="377.5938"/><ellipse cx="394" cy="393.5938" fill="#ADD1B2" rx="11" ry="11" style="stroke: #A80036; stroke-width: 1.0;"/><path d="M396.3438,389.2656 L396.5156,389.3438 C396.7344,389.0313 396.9375,388.9375 397.2344,388.9375 C397.5313,388.9375 397.8125,389.0781 397.9688,389.3438 C398.0625,389.5 398.0781,389.625 398.0781,390.0625 L398.0781,391.4844 C398.0781,391.9063 398.0469,392.0938 397.9375,392.25 C397.7656,392.4688 397.5,392.6094 397.2344,392.6094 C397.0156,392.6094 396.7813,392.5 396.6406,392.3594 C396.5,392.2344 396.4688,392.1094 396.4063,391.7031 C396.3125,391.2969 396.1406,391.0781 395.6563,390.7969 C395.1875,390.5469 394.5781,390.3906 394,390.3906 C392.2656,390.3906 391.0156,391.7031 391.0156,393.4844 L391.0156,394.5781 C391.0156,396.2813 392.3125,397.375 394.3594,397.375 C395.125,397.375 395.8125,397.25 396.2344,396.9844 C396.4219,396.8906 396.4219,396.8906 396.875,396.4063 C397.0625,396.2188 397.2656,396.1406 397.4844,396.1406 C397.9531,396.1406 398.3438,396.5313 398.3438,396.9844 C398.3438,397.375 398.0156,397.8281 397.4375,398.2344 C396.6875,398.7813 395.5313,399.0781 394.3125,399.0781 C391.4219,399.0781 389.3125,397.1875 389.3125,394.6094 L389.3125,393.4844 C389.3125,390.7656 391.3125,388.6875 393.9375,388.6875 C394.8125,388.6875 395.4063,388.8281 396.3438,389.2656 Z "/><text fill="#000000" font-family="sans-serif" font-size="12" lengthAdjust="spacingAndGlyphs" textLength="135" x="408" y="397.748">:EcologicalCommunity</text><line style="stroke: #A80036; stroke-width: 1.5;" x1="380" x2="545" y1="409.5938" y2="409.5938"/><line style="stroke: #A80036; stroke-width: 1.5;" x1="380" x2="545" y1="417.5938" y2="417.5938"/></a><!--MD5=[f6b9b747f08f3018e39ed94054dbb971]
class :Assemblage--><a href="http://linked.data.gov.au/def/plot/x/Assemblage" target="_top" title="http://linked.data.gov.au/def/plot/x/Assemblage" xlink:actuate="onRequest" xlink:href="http://linked.data.gov.au/def/plot/x/Assemblage" xlink:show="new" xlink:title="http://linked.data.gov.au/def/plot/x/Assemblage" xlink:type="simple"><rect fill="#FEFECE" filter="url(#fxqfe1j3puenm)" height="48" id=":Assemblage" style="stroke: #A80036; stroke-width: 1.5;" width="112" x="406.5" y="485.5938"/><ellipse cx="421.5" cy="501.5938" fill="#ADD1B2" rx="11" ry="11" style="stroke: #A80036; stroke-width: 1.0;"/><path d="M423.8438,497.2656 L424.0156,497.3438 C424.2344,497.0313 424.4375,496.9375 424.7344,496.9375 C425.0313,496.9375 425.3125,497.0781 425.4688,497.3438 C425.5625,497.5 425.5781,497.625 425.5781,498.0625 L425.5781,499.4844 C425.5781,499.9063 425.5469,500.0938 425.4375,500.25 C425.2656,500.4688 425,500.6094 424.7344,500.6094 C424.5156,500.6094 424.2813,500.5 424.1406,500.3594 C424,500.2344 423.9688,500.1094 423.9063,499.7031 C423.8125,499.2969 423.6406,499.0781 423.1563,498.7969 C422.6875,498.5469 422.0781,498.3906 421.5,498.3906 C419.7656,498.3906 418.5156,499.7031 418.5156,501.4844 L418.5156,502.5781 C418.5156,504.2813 419.8125,505.375 421.8594,505.375 C422.625,505.375 423.3125,505.25 423.7344,504.9844 C423.9219,504.8906 423.9219,504.8906 424.375,504.4063 C424.5625,504.2188 424.7656,504.1406 424.9844,504.1406 C425.4531,504.1406 425.8438,504.5313 425.8438,504.9844 C425.8438,505.375 425.5156,505.8281 424.9375,506.2344 C424.1875,506.7813 423.0313,507.0781 421.8125,507.0781 C418.9219,507.0781 416.8125,505.1875 416.8125,502.6094 L416.8125,501.4844 C416.8125,498.7656 418.8125,496.6875 421.4375,496.6875 C422.3125,496.6875 422.9063,496.8281 423.8438,497.2656 Z "/><text fill="#000000" font-family="sans-serif" font-size="12" lengthAdjust="spacingAndGlyphs" textLength="80" x="435.5" y="505.748">:Assemblage</text><line style="stroke: #A80036; stroke-width: 1.5;" x1="407.5" x2="517.5" y1="517.5938" y2="517.5938"/><line style="stroke: #A80036; stroke-width: 1.5;" x1="407.5" x2="517.5" y1="525.5938" y2="525.5938"/></a><!--MD5=[2b86ed209687f3341cf235cea84d7fb4]
class :Survey--><a href="http://linked.data.gov.au/def/plot/x/Survey" target="_top" title="http://linked.data.gov.au/def/plot/x/Survey" xlink:actuate="onRequest" xlink:href="http://linked.data.gov.au/def/plot/x/Survey" xlink:show="new" xlink:title="http://linked.data.gov.au/def/plot/x/Survey" xlink:type="simple"><rect fill="#FEFECE" filter="url(#fxqfe1j3puenm)" height="48" id=":Survey" style="stroke: #A80036; stroke-width: 1.5;" width="77" x="1523" y="155.0938"/><ellipse cx="1538" cy="171.0938" fill="#ADD1B2" rx="11" ry="11" style="stroke: #A80036; stroke-width: 1.0;"/><path d="M1540.3438,166.7656 L1540.5156,166.8438 C1540.7344,166.5313 1540.9375,166.4375 1541.2344,166.4375 C1541.5313,166.4375 1541.8125,166.5781 1541.9688,166.8438 C1542.0625,167 1542.0781,167.125 1542.0781,167.5625 L1542.0781,168.9844 C1542.0781,169.4063 1542.0469,169.5938 1541.9375,169.75 C1541.7656,169.9688 1541.5,170.1094 1541.2344,170.1094 C1541.0156,170.1094 1540.7813,170 1540.6406,169.8594 C1540.5,169.7344 1540.4688,169.6094 1540.4063,169.2031 C1540.3125,168.7969 1540.1406,168.5781 1539.6563,168.2969 C1539.1875,168.0469 1538.5781,167.8906 1538,167.8906 C1536.2656,167.8906 1535.0156,169.2031 1535.0156,170.9844 L1535.0156,172.0781 C1535.0156,173.7813 1536.3125,174.875 1538.3594,174.875 C1539.125,174.875 1539.8125,174.75 1540.2344,174.4844 C1540.4219,174.3906 1540.4219,174.3906 1540.875,173.9063 C1541.0625,173.7188 1541.2656,173.6406 1541.4844,173.6406 C1541.9531,173.6406 1542.3438,174.0313 1542.3438,174.4844 C1542.3438,174.875 1542.0156,175.3281 1541.4375,175.7344 C1540.6875,176.2813 1539.5313,176.5781 1538.3125,176.5781 C1535.4219,176.5781 1533.3125,174.6875 1533.3125,172.1094 L1533.3125,170.9844 C1533.3125,168.2656 1535.3125,166.1875 1537.9375,166.1875 C1538.8125,166.1875 1539.4063,166.3281 1540.3438,166.7656 Z "/><text fill="#000000" font-family="sans-serif" font-size="12" lengthAdjust="spacingAndGlyphs" textLength="45" x="1552" y="175.248">:Survey</text><line style="stroke: #A80036; stroke-width: 1.5;" x1="1524" x2="1599" y1="187.0938" y2="187.0938"/><line style="stroke: #A80036; stroke-width: 1.5;" x1="1524" x2="1599" y1="195.0938" y2="195.0938"/></a><!--MD5=[313751d88e530a9b19b67ace9347529e]
class :EnvironmentalZone--><a href="http://linked.data.gov.au/def/plot/x/EnvironmentalZone" target="_top" title="http://linked.data.gov.au/def/plot/x/EnvironmentalZone" xlink:actuate="onRequest" xlink:href="http://linked.data.gov.au/def/plot/x/EnvironmentalZone" xlink:show="new" xlink:title="http://linked.data.gov.au/def/plot/x/EnvironmentalZone" xlink:type="simple"><rect fill="#FEFECE" filter="url(#fxqfe1j3puenm)" height="48" id=":EnvironmentalZone" style="stroke: #A80036; stroke-width: 1.5;" width="158" x="582.5" y="269.5938"/><ellipse cx="597.5" cy="285.5938" fill="#ADD1B2" rx="11" ry="11" style="stroke: #A80036; stroke-width: 1.0;"/><path d="M599.8438,281.2656 L600.0156,281.3438 C600.2344,281.0313 600.4375,280.9375 600.7344,280.9375 C601.0313,280.9375 601.3125,281.0781 601.4688,281.3438 C601.5625,281.5 601.5781,281.625 601.5781,282.0625 L601.5781,283.4844 C601.5781,283.9063 601.5469,284.0938 601.4375,284.25 C601.2656,284.4688 601,284.6094 600.7344,284.6094 C600.5156,284.6094 600.2813,284.5 600.1406,284.3594 C600,284.2344 599.9688,284.1094 599.9063,283.7031 C599.8125,283.2969 599.6406,283.0781 599.1563,282.7969 C598.6875,282.5469 598.0781,282.3906 597.5,282.3906 C595.7656,282.3906 594.5156,283.7031 594.5156,285.4844 L594.5156,286.5781 C594.5156,288.2813 595.8125,289.375 597.8594,289.375 C598.625,289.375 599.3125,289.25 599.7344,288.9844 C599.9219,288.8906 599.9219,288.8906 600.375,288.4063 C600.5625,288.2188 600.7656,288.1406 600.9844,288.1406 C601.4531,288.1406 601.8438,288.5313 601.8438,288.9844 C601.8438,289.375 601.5156,289.8281 600.9375,290.2344 C600.1875,290.7813 599.0313,291.0781 597.8125,291.0781 C594.9219,291.0781 592.8125,289.1875 592.8125,286.6094 L592.8125,285.4844 C592.8125,282.7656 594.8125,280.6875 597.4375,280.6875 C598.3125,280.6875 598.9063,280.8281 599.8438,281.2656 Z "/><text fill="#000000" font-family="sans-serif" font-size="12" lengthAdjust="spacingAndGlyphs" textLength="126" x="611.5" y="289.748">:EnvironmentalZone</text><line style="stroke: #A80036; stroke-width: 1.5;" x1="583.5" x2="739.5" y1="301.5938" y2="301.5938"/><line style="stroke: #A80036; stroke-width: 1.5;" x1="583.5" x2="739.5" y1="309.5938" y2="309.5938"/></a><!--MD5=[a5045e2f80c39252163f54a3f2bf835a]
class :SiteStratum--><a href="http://linked.data.gov.au/def/plot/SiteStratum" target="_top" title="http://linked.data.gov.au/def/plot/SiteStratum" xlink:actuate="onRequest" xlink:href="http://linked.data.gov.au/def/plot/SiteStratum" xlink:show="new" xlink:title="http://linked.data.gov.au/def/plot/SiteStratum" xlink:type="simple"><rect fill="#FEFECE" filter="url(#fxqfe1j3puenm)" height="48" id=":SiteStratum" style="stroke: #A80036; stroke-width: 1.5;" width="110" x="1949.5" y="155.0938"/><ellipse cx="1964.5" cy="171.0938" fill="#ADD1B2" rx="11" ry="11" style="stroke: #A80036; stroke-width: 1.0;"/><path d="M1966.8438,166.7656 L1967.0156,166.8438 C1967.2344,166.5313 1967.4375,166.4375 1967.7344,166.4375 C1968.0313,166.4375 1968.3125,166.5781 1968.4688,166.8438 C1968.5625,167 1968.5781,167.125 1968.5781,167.5625 L1968.5781,168.9844 C1968.5781,169.4063 1968.5469,169.5938 1968.4375,169.75 C1968.2656,169.9688 1968,170.1094 1967.7344,170.1094 C1967.5156,170.1094 1967.2813,170 1967.1406,169.8594 C1967,169.7344 1966.9688,169.6094 1966.9063,169.2031 C1966.8125,168.7969 1966.6406,168.5781 1966.1563,168.2969 C1965.6875,168.0469 1965.0781,167.8906 1964.5,167.8906 C1962.7656,167.8906 1961.5156,169.2031 1961.5156,170.9844 L1961.5156,172.0781 C1961.5156,173.7813 1962.8125,174.875 1964.8594,174.875 C1965.625,174.875 1966.3125,174.75 1966.7344,174.4844 C1966.9219,174.3906 1966.9219,174.3906 1967.375,173.9063 C1967.5625,173.7188 1967.7656,173.6406 1967.9844,173.6406 C1968.4531,173.6406 1968.8438,174.0313 1968.8438,174.4844 C1968.8438,174.875 1968.5156,175.3281 1967.9375,175.7344 C1967.1875,176.2813 1966.0313,176.5781 1964.8125,176.5781 C1961.9219,176.5781 1959.8125,174.6875 1959.8125,172.1094 L1959.8125,170.9844 C1959.8125,168.2656 1961.8125,166.1875 1964.4375,166.1875 C1965.3125,166.1875 1965.9063,166.3281 1966.8438,166.7656 Z "/><text fill="#000000" font-family="sans-serif" font-size="12" lengthAdjust="spacingAndGlyphs" textLength="78" x="1978.5" y="175.248">:SiteStratum</text><line style="stroke: #A80036; stroke-width: 1.5;" x1="1950.5" x2="2058.5" y1="187.0938" y2="187.0938"/><line style="stroke: #A80036; stroke-width: 1.5;" x1="1950.5" x2="2058.5" y1="195.0938" y2="195.0938"/></a><!--MD5=[aec54989d0b5e1280b3fe804a99154c1]
class :OrganismOccurence--><a href="http://linked.data.gov.au/def/plot/OrganismOccurence" target="_top" title="http://linked.data.gov.au/def/plot/OrganismOccurence" xlink:actuate="onRequest" xlink:href="http://linked.data.gov.au/def/plot/OrganismOccurence" xlink:show="new" xlink:title="http://linked.data.gov.au/def/plot/OrganismOccurence" xlink:type="simple"><rect fill="#FEFECE" filter="url(#fxqfe1j3puenm)" height="48" id=":OrganismOccurence" style="stroke: #A80036; stroke-width: 1.5;" width="162" x="2132.5" y="155.0938"/><ellipse cx="2147.5" cy="171.0938" fill="#ADD1B2" rx="11" ry="11" style="stroke: #A80036; stroke-width: 1.0;"/><path d="M2149.8438,166.7656 L2150.0156,166.8438 C2150.2344,166.5313 2150.4375,166.4375 2150.7344,166.4375 C2151.0313,166.4375 2151.3125,166.5781 2151.4688,166.8438 C2151.5625,167 2151.5781,167.125 2151.5781,167.5625 L2151.5781,168.9844 C2151.5781,169.4063 2151.5469,169.5938 2151.4375,169.75 C2151.2656,169.9688 2151,170.1094 2150.7344,170.1094 C2150.5156,170.1094 2150.2813,170 2150.1406,169.8594 C2150,169.7344 2149.9688,169.6094 2149.9063,169.2031 C2149.8125,168.7969 2149.6406,168.5781 2149.1563,168.2969 C2148.6875,168.0469 2148.0781,167.8906 2147.5,167.8906 C2145.7656,167.8906 2144.5156,169.2031 2144.5156,170.9844 L2144.5156,172.0781 C2144.5156,173.7813 2145.8125,174.875 2147.8594,174.875 C2148.625,174.875 2149.3125,174.75 2149.7344,174.4844 C2149.9219,174.3906 2149.9219,174.3906 2150.375,173.9063 C2150.5625,173.7188 2150.7656,173.6406 2150.9844,173.6406 C2151.4531,173.6406 2151.8438,174.0313 2151.8438,174.4844 C2151.8438,174.875 2151.5156,175.3281 2150.9375,175.7344 C2150.1875,176.2813 2149.0313,176.5781 2147.8125,176.5781 C2144.9219,176.5781 2142.8125,174.6875 2142.8125,172.1094 L2142.8125,170.9844 C2142.8125,168.2656 2144.8125,166.1875 2147.4375,166.1875 C2148.3125,166.1875 2148.9063,166.3281 2149.8438,166.7656 Z "/><text fill="#000000" font-family="sans-serif" font-size="12" lengthAdjust="spacingAndGlyphs" textLength="130" x="2161.5" y="175.248">:OrganismOccurence</text><line style="stroke: #A80036; stroke-width: 1.5;" x1="2133.5" x2="2293.5" y1="187.0938" y2="187.0938"/><line style="stroke: #A80036; stroke-width: 1.5;" x1="2133.5" x2="2293.5" y1="195.0938" y2="195.0938"/></a><!--MD5=[9aaa16b4e45fc97314f609860701115f]
class geosparql:SpatialObject--><rect fill="#FEFECE" filter="url(#fxqfe1j3puenm)" height="48" id="geosparql:SpatialObject" style="stroke: #A80036; stroke-width: 1.5;" width="182" x="1956.5" y="40.5938"/><ellipse cx="1971.5" cy="56.5938" fill="#ADD1B2" rx="11" ry="11" style="stroke: #A80036; stroke-width: 1.0;"/><path d="M1973.8438,52.2656 L1974.0156,52.3438 C1974.2344,52.0313 1974.4375,51.9375 1974.7344,51.9375 C1975.0313,51.9375 1975.3125,52.0781 1975.4688,52.3438 C1975.5625,52.5 1975.5781,52.625 1975.5781,53.0625 L1975.5781,54.4844 C1975.5781,54.9063 1975.5469,55.0938 1975.4375,55.25 C1975.2656,55.4688 1975,55.6094 1974.7344,55.6094 C1974.5156,55.6094 1974.2813,55.5 1974.1406,55.3594 C1974,55.2344 1973.9688,55.1094 1973.9063,54.7031 C1973.8125,54.2969 1973.6406,54.0781 1973.1563,53.7969 C1972.6875,53.5469 1972.0781,53.3906 1971.5,53.3906 C1969.7656,53.3906 1968.5156,54.7031 1968.5156,56.4844 L1968.5156,57.5781 C1968.5156,59.2813 1969.8125,60.375 1971.8594,60.375 C1972.625,60.375 1973.3125,60.25 1973.7344,59.9844 C1973.9219,59.8906 1973.9219,59.8906 1974.375,59.4063 C1974.5625,59.2188 1974.7656,59.1406 1974.9844,59.1406 C1975.4531,59.1406 1975.8438,59.5313 1975.8438,59.9844 C1975.8438,60.375 1975.5156,60.8281 1974.9375,61.2344 C1974.1875,61.7813 1973.0313,62.0781 1971.8125,62.0781 C1968.9219,62.0781 1966.8125,60.1875 1966.8125,57.6094 L1966.8125,56.4844 C1966.8125,53.7656 1968.8125,51.6875 1971.4375,51.6875 C1972.3125,51.6875 1972.9063,51.8281 1973.8438,52.2656 Z "/><text fill="#000000" font-family="sans-serif" font-size="12" lengthAdjust="spacingAndGlyphs" textLength="150" x="1985.5" y="60.748">geosparql:SpatialObject</text><line style="stroke: #A80036; stroke-width: 1.5;" x1="1957.5" x2="2137.5" y1="72.5938" y2="72.5938"/><line style="stroke: #A80036; stroke-width: 1.5;" x1="1957.5" x2="2137.5" y1="80.5938" y2="80.5938"/><!--MD5=[cd57d364b5b3fdd499729d0748632540]
class time:TemporalEntity--><rect fill="#FEFECE" filter="url(#fxqfe1j3puenm)" height="48" id="time:TemporalEntity" style="stroke: #A80036; stroke-width: 1.5;" width="156" x="2173.5" y="40.5938"/><ellipse cx="2188.5" cy="56.5938" fill="#ADD1B2" rx="11" ry="11" style="stroke: #A80036; stroke-width: 1.0;"/><path d="M2190.8438,52.2656 L2191.0156,52.3438 C2191.2344,52.0313 2191.4375,51.9375 2191.7344,51.9375 C2192.0313,51.9375 2192.3125,52.0781 2192.4688,52.3438 C2192.5625,52.5 2192.5781,52.625 2192.5781,53.0625 L2192.5781,54.4844 C2192.5781,54.9063 2192.5469,55.0938 2192.4375,55.25 C2192.2656,55.4688 2192,55.6094 2191.7344,55.6094 C2191.5156,55.6094 2191.2813,55.5 2191.1406,55.3594 C2191,55.2344 2190.9688,55.1094 2190.9063,54.7031 C2190.8125,54.2969 2190.6406,54.0781 2190.1563,53.7969 C2189.6875,53.5469 2189.0781,53.3906 2188.5,53.3906 C2186.7656,53.3906 2185.5156,54.7031 2185.5156,56.4844 L2185.5156,57.5781 C2185.5156,59.2813 2186.8125,60.375 2188.8594,60.375 C2189.625,60.375 2190.3125,60.25 2190.7344,59.9844 C2190.9219,59.8906 2190.9219,59.8906 2191.375,59.4063 C2191.5625,59.2188 2191.7656,59.1406 2191.9844,59.1406 C2192.4531,59.1406 2192.8438,59.5313 2192.8438,59.9844 C2192.8438,60.375 2192.5156,60.8281 2191.9375,61.2344 C2191.1875,61.7813 2190.0313,62.0781 2188.8125,62.0781 C2185.9219,62.0781 2183.8125,60.1875 2183.8125,57.6094 L2183.8125,56.4844 C2183.8125,53.7656 2185.8125,51.6875 2188.4375,51.6875 C2189.3125,51.6875 2189.9063,51.8281 2190.8438,52.2656 Z "/><text fill="#000000" font-family="sans-serif" font-size="12" lengthAdjust="spacingAndGlyphs" textLength="124" x="2202.5" y="60.748">time:TemporalEntity</text><line style="stroke: #A80036; stroke-width: 1.5;" x1="2174.5" x2="2328.5" y1="72.5938" y2="72.5938"/><line style="stroke: #A80036; stroke-width: 1.5;" x1="2174.5" x2="2328.5" y1="80.5938" y2="80.5938"/><!--MD5=[cb944c6968791c6d805c849a01519e07]
class sosa:FeatureOfInterest--><rect fill="#FEFECE" filter="url(#fxqfe1j3puenm)" height="48" id="sosa:FeatureOfInterest" style="stroke: #A80036; stroke-width: 1.5;" width="177" x="568" y="40.5938"/><ellipse cx="583" cy="56.5938" fill="#ADD1B2" rx="11" ry="11" style="stroke: #A80036; stroke-width: 1.0;"/><path d="M585.3438,52.2656 L585.5156,52.3438 C585.7344,52.0313 585.9375,51.9375 586.2344,51.9375 C586.5313,51.9375 586.8125,52.0781 586.9688,52.3438 C587.0625,52.5 587.0781,52.625 587.0781,53.0625 L587.0781,54.4844 C587.0781,54.9063 587.0469,55.0938 586.9375,55.25 C586.7656,55.4688 586.5,55.6094 586.2344,55.6094 C586.0156,55.6094 585.7813,55.5 585.6406,55.3594 C585.5,55.2344 585.4688,55.1094 585.4063,54.7031 C585.3125,54.2969 585.1406,54.0781 584.6563,53.7969 C584.1875,53.5469 583.5781,53.3906 583,53.3906 C581.2656,53.3906 580.0156,54.7031 580.0156,56.4844 L580.0156,57.5781 C580.0156,59.2813 581.3125,60.375 583.3594,60.375 C584.125,60.375 584.8125,60.25 585.2344,59.9844 C585.4219,59.8906 585.4219,59.8906 585.875,59.4063 C586.0625,59.2188 586.2656,59.1406 586.4844,59.1406 C586.9531,59.1406 587.3438,59.5313 587.3438,59.9844 C587.3438,60.375 587.0156,60.8281 586.4375,61.2344 C585.6875,61.7813 584.5313,62.0781 583.3125,62.0781 C580.4219,62.0781 578.3125,60.1875 578.3125,57.6094 L578.3125,56.4844 C578.3125,53.7656 580.3125,51.6875 582.9375,51.6875 C583.8125,51.6875 584.4063,51.8281 585.3438,52.2656 Z "/><text fill="#000000" font-family="sans-serif" font-size="12" lengthAdjust="spacingAndGlyphs" textLength="145" x="597" y="60.748">sosa:FeatureOfInterest</text><line style="stroke: #A80036; stroke-width: 1.5;" x1="569" x2="744" y1="72.5938" y2="72.5938"/><line style="stroke: #A80036; stroke-width: 1.5;" x1="569" x2="744" y1="80.5938" y2="80.5938"/><!--MD5=[ac45ecb4fe0054274f018135938a801d]
class :ub1bL554C23--><a href="ub1bL554C23" target="_top" title="ub1bL554C23" xlink:actuate="onRequest" xlink:href="ub1bL554C23" xlink:show="new" xlink:title="ub1bL554C23" xlink:type="simple"><rect fill="#FEFECE" filter="url(#fxqfe1j3puenm)" height="48" id=":ub1bL554C23" style="stroke: #A80036; stroke-width: 1.5;" width="122" x="57.5" y="40.5938"/><ellipse cx="72.5" cy="56.5938" fill="#ADD1B2" rx="11" ry="11" style="stroke: #A80036; stroke-width: 1.0;"/><path d="M74.8438,52.2656 L75.0156,52.3438 C75.2344,52.0313 75.4375,51.9375 75.7344,51.9375 C76.0313,51.9375 76.3125,52.0781 76.4688,52.3438 C76.5625,52.5 76.5781,52.625 76.5781,53.0625 L76.5781,54.4844 C76.5781,54.9063 76.5469,55.0938 76.4375,55.25 C76.2656,55.4688 76,55.6094 75.7344,55.6094 C75.5156,55.6094 75.2813,55.5 75.1406,55.3594 C75,55.2344 74.9688,55.1094 74.9063,54.7031 C74.8125,54.2969 74.6406,54.0781 74.1563,53.7969 C73.6875,53.5469 73.0781,53.3906 72.5,53.3906 C70.7656,53.3906 69.5156,54.7031 69.5156,56.4844 L69.5156,57.5781 C69.5156,59.2813 70.8125,60.375 72.8594,60.375 C73.625,60.375 74.3125,60.25 74.7344,59.9844 C74.9219,59.8906 74.9219,59.8906 75.375,59.4063 C75.5625,59.2188 75.7656,59.1406 75.9844,59.1406 C76.4531,59.1406 76.8438,59.5313 76.8438,59.9844 C76.8438,60.375 76.5156,60.8281 75.9375,61.2344 C75.1875,61.7813 74.0313,62.0781 72.8125,62.0781 C69.9219,62.0781 67.8125,60.1875 67.8125,57.6094 L67.8125,56.4844 C67.8125,53.7656 69.8125,51.6875 72.4375,51.6875 C73.3125,51.6875 73.9063,51.8281 74.8438,52.2656 Z "/><text fill="#000000" font-family="sans-serif" font-size="12" lengthAdjust="spacingAndGlyphs" textLength="90" x="86.5" y="60.748">:ub1bL554C23</text><line style="stroke: #A80036; stroke-width: 1.5;" x1="58.5" x2="178.5" y1="72.5938" y2="72.5938"/><line style="stroke: #A80036; stroke-width: 1.5;" x1="58.5" x2="178.5" y1="80.5938" y2="80.5938"/></a><!--MD5=[0f25cf74e97785200e99d5888124f2b2]
class :ub1bL149C26--><a href="ub1bL149C26" target="_top" title="ub1bL149C26" xlink:actuate="onRequest" xlink:href="ub1bL149C26" xlink:show="new" xlink:title="ub1bL149C26" xlink:type="simple"><rect fill="#FEFECE" filter="url(#fxqfe1j3puenm)" height="48" id=":ub1bL149C26" style="stroke: #A80036; stroke-width: 1.5;" width="122" x="214.5" y="40.5938"/><ellipse cx="229.5" cy="56.5938" fill="#ADD1B2" rx="11" ry="11" style="stroke: #A80036; stroke-width: 1.0;"/><path d="M231.8438,52.2656 L232.0156,52.3438 C232.2344,52.0313 232.4375,51.9375 232.7344,51.9375 C233.0313,51.9375 233.3125,52.0781 233.4688,52.3438 C233.5625,52.5 233.5781,52.625 233.5781,53.0625 L233.5781,54.4844 C233.5781,54.9063 233.5469,55.0938 233.4375,55.25 C233.2656,55.4688 233,55.6094 232.7344,55.6094 C232.5156,55.6094 232.2813,55.5 232.1406,55.3594 C232,55.2344 231.9688,55.1094 231.9063,54.7031 C231.8125,54.2969 231.6406,54.0781 231.1563,53.7969 C230.6875,53.5469 230.0781,53.3906 229.5,53.3906 C227.7656,53.3906 226.5156,54.7031 226.5156,56.4844 L226.5156,57.5781 C226.5156,59.2813 227.8125,60.375 229.8594,60.375 C230.625,60.375 231.3125,60.25 231.7344,59.9844 C231.9219,59.8906 231.9219,59.8906 232.375,59.4063 C232.5625,59.2188 232.7656,59.1406 232.9844,59.1406 C233.4531,59.1406 233.8438,59.5313 233.8438,59.9844 C233.8438,60.375 233.5156,60.8281 232.9375,61.2344 C232.1875,61.7813 231.0313,62.0781 229.8125,62.0781 C226.9219,62.0781 224.8125,60.1875 224.8125,57.6094 L224.8125,56.4844 C224.8125,53.7656 226.8125,51.6875 229.4375,51.6875 C230.3125,51.6875 230.9063,51.8281 231.8438,52.2656 Z "/><text fill="#000000" font-family="sans-serif" font-size="12" lengthAdjust="spacingAndGlyphs" textLength="90" x="243.5" y="60.748">:ub1bL149C26</text><line style="stroke: #A80036; stroke-width: 1.5;" x1="215.5" x2="335.5" y1="72.5938" y2="72.5938"/><line style="stroke: #A80036; stroke-width: 1.5;" x1="215.5" x2="335.5" y1="80.5938" y2="80.5938"/></a><!--MD5=[d39fc9acfb97eea5012d0a1ecfd76de8]
class :ub1bL307C26--><a href="ub1bL307C26" target="_top" title="ub1bL307C26" xlink:actuate="onRequest" xlink:href="ub1bL307C26" xlink:show="new" xlink:title="ub1bL307C26" xlink:type="simple"><rect fill="#FEFECE" filter="url(#fxqfe1j3puenm)" height="48" id=":ub1bL307C26" style="stroke: #A80036; stroke-width: 1.5;" width="122" x="371.5" y="40.5938"/><ellipse cx="386.5" cy="56.5938" fill="#ADD1B2" rx="11" ry="11" style="stroke: #A80036; stroke-width: 1.0;"/><path d="M388.8438,52.2656 L389.0156,52.3438 C389.2344,52.0313 389.4375,51.9375 389.7344,51.9375 C390.0313,51.9375 390.3125,52.0781 390.4688,52.3438 C390.5625,52.5 390.5781,52.625 390.5781,53.0625 L390.5781,54.4844 C390.5781,54.9063 390.5469,55.0938 390.4375,55.25 C390.2656,55.4688 390,55.6094 389.7344,55.6094 C389.5156,55.6094 389.2813,55.5 389.1406,55.3594 C389,55.2344 388.9688,55.1094 388.9063,54.7031 C388.8125,54.2969 388.6406,54.0781 388.1563,53.7969 C387.6875,53.5469 387.0781,53.3906 386.5,53.3906 C384.7656,53.3906 383.5156,54.7031 383.5156,56.4844 L383.5156,57.5781 C383.5156,59.2813 384.8125,60.375 386.8594,60.375 C387.625,60.375 388.3125,60.25 388.7344,59.9844 C388.9219,59.8906 388.9219,59.8906 389.375,59.4063 C389.5625,59.2188 389.7656,59.1406 389.9844,59.1406 C390.4531,59.1406 390.8438,59.5313 390.8438,59.9844 C390.8438,60.375 390.5156,60.8281 389.9375,61.2344 C389.1875,61.7813 388.0313,62.0781 386.8125,62.0781 C383.9219,62.0781 381.8125,60.1875 381.8125,57.6094 L381.8125,56.4844 C381.8125,53.7656 383.8125,51.6875 386.4375,51.6875 C387.3125,51.6875 387.9063,51.8281 388.8438,52.2656 Z "/><text fill="#000000" font-family="sans-serif" font-size="12" lengthAdjust="spacingAndGlyphs" textLength="90" x="400.5" y="60.748">:ub1bL307C26</text><line style="stroke: #A80036; stroke-width: 1.5;" x1="372.5" x2="492.5" y1="72.5938" y2="72.5938"/><line style="stroke: #A80036; stroke-width: 1.5;" x1="372.5" x2="492.5" y1="80.5938" y2="80.5938"/></a><!--MD5=[a2628b293a9723f47390e4c57545d1ae]
class :ub1bL571C15--><a href="ub1bL571C15" target="_top" title="ub1bL571C15" xlink:actuate="onRequest" xlink:href="ub1bL571C15" xlink:show="new" xlink:title="ub1bL571C15" xlink:type="simple"><rect fill="#FEFECE" filter="url(#fxqfe1j3puenm)" height="60.8047" id=":ub1bL571C15" style="stroke: #A80036; stroke-width: 1.5;" width="225" x="6" y="148.5938"/><ellipse cx="69.25" cy="164.5938" fill="#ADD1B2" rx="11" ry="11" style="stroke: #A80036; stroke-width: 1.0;"/><path d="M71.5938,160.2656 L71.7656,160.3438 C71.9844,160.0313 72.1875,159.9375 72.4844,159.9375 C72.7813,159.9375 73.0625,160.0781 73.2188,160.3438 C73.3125,160.5 73.3281,160.625 73.3281,161.0625 L73.3281,162.4844 C73.3281,162.9063 73.2969,163.0938 73.1875,163.25 C73.0156,163.4688 72.75,163.6094 72.4844,163.6094 C72.2656,163.6094 72.0313,163.5 71.8906,163.3594 C71.75,163.2344 71.7188,163.1094 71.6563,162.7031 C71.5625,162.2969 71.3906,162.0781 70.9063,161.7969 C70.4375,161.5469 69.8281,161.3906 69.25,161.3906 C67.5156,161.3906 66.2656,162.7031 66.2656,164.4844 L66.2656,165.5781 C66.2656,167.2813 67.5625,168.375 69.6094,168.375 C70.375,168.375 71.0625,168.25 71.4844,167.9844 C71.6719,167.8906 71.6719,167.8906 72.125,167.4063 C72.3125,167.2188 72.5156,167.1406 72.7344,167.1406 C73.2031,167.1406 73.5938,167.5313 73.5938,167.9844 C73.5938,168.375 73.2656,168.8281 72.6875,169.2344 C71.9375,169.7813 70.7813,170.0781 69.5625,170.0781 C66.6719,170.0781 64.5625,168.1875 64.5625,165.6094 L64.5625,164.4844 C64.5625,161.7656 66.5625,159.6875 69.1875,159.6875 C70.0625,159.6875 70.6563,159.8281 71.5938,160.2656 Z "/><text fill="#000000" font-family="sans-serif" font-size="12" lengthAdjust="spacingAndGlyphs" textLength="90" x="89.75" y="168.748">:ub1bL571C15</text><line style="stroke: #A80036; stroke-width: 1.5;" x1="7" x2="230" y1="180.5938" y2="180.5938"/></a><a href="http://www.w3.org/ns/ssn/ext/isMemberOf" target="_top" title="http://www.w3.org/ns/ssn/ext/isMemberOf" xlink:actuate="onRequest" xlink:href="http://www.w3.org/ns/ssn/ext/isMemberOf" xlink:show="new" xlink:title="http://www.w3.org/ns/ssn/ext/isMemberOf" xlink:type="simple"><text fill="#0000FF" font-family="sans-serif" font-size="11" lengthAdjust="spacingAndGlyphs" text-decoration="underline" textLength="73" x="12" y="194.8042">:isMemberOf</text></a><text fill="#000000" font-family="sans-serif" font-size="11" lengthAdjust="spacingAndGlyphs" textLength="4" x="89" y="194.8042">:</text><a href="http://www.w3.org/ns/ssn/ext/ObservationCollection" target="_top" title="http://www.w3.org/ns/ssn/ext/ObservationCollection" xlink:actuate="onRequest" xlink:href="http://www.w3.org/ns/ssn/ext/ObservationCollection" xlink:show="new" xlink:title="http://www.w3.org/ns/ssn/ext/ObservationCollection" xlink:type="simple"><text fill="#0000FF" font-family="sans-serif" font-size="11" lengthAdjust="spacingAndGlyphs" text-decoration="underline" textLength="128" x="97" y="194.8042">:ObservationCollection</text></a><line style="stroke: #A80036; stroke-width: 1.5;" x1="7" x2="230" y1="201.3984" y2="201.3984"/><!--MD5=[64b2c2f1abdedb6345a6d1a18b1806eb]
class :ub1bL494C15--><a href="ub1bL494C15" target="_top" title="ub1bL494C15" xlink:actuate="onRequest" xlink:href="ub1bL494C15" xlink:show="new" xlink:title="ub1bL494C15" xlink:type="simple"><rect fill="#FEFECE" filter="url(#fxqfe1j3puenm)" height="48" id=":ub1bL494C15" style="stroke: #A80036; stroke-width: 1.5;" width="122" x="266.5" y="155.0938"/><ellipse cx="281.5" cy="171.0938" fill="#ADD1B2" rx="11" ry="11" style="stroke: #A80036; stroke-width: 1.0;"/><path d="M283.8438,166.7656 L284.0156,166.8438 C284.2344,166.5313 284.4375,166.4375 284.7344,166.4375 C285.0313,166.4375 285.3125,166.5781 285.4688,166.8438 C285.5625,167 285.5781,167.125 285.5781,167.5625 L285.5781,168.9844 C285.5781,169.4063 285.5469,169.5938 285.4375,169.75 C285.2656,169.9688 285,170.1094 284.7344,170.1094 C284.5156,170.1094 284.2813,170 284.1406,169.8594 C284,169.7344 283.9688,169.6094 283.9063,169.2031 C283.8125,168.7969 283.6406,168.5781 283.1563,168.2969 C282.6875,168.0469 282.0781,167.8906 281.5,167.8906 C279.7656,167.8906 278.5156,169.2031 278.5156,170.9844 L278.5156,172.0781 C278.5156,173.7813 279.8125,174.875 281.8594,174.875 C282.625,174.875 283.3125,174.75 283.7344,174.4844 C283.9219,174.3906 283.9219,174.3906 284.375,173.9063 C284.5625,173.7188 284.7656,173.6406 284.9844,173.6406 C285.4531,173.6406 285.8438,174.0313 285.8438,174.4844 C285.8438,174.875 285.5156,175.3281 284.9375,175.7344 C284.1875,176.2813 283.0313,176.5781 281.8125,176.5781 C278.9219,176.5781 276.8125,174.6875 276.8125,172.1094 L276.8125,170.9844 C276.8125,168.2656 278.8125,166.1875 281.4375,166.1875 C282.3125,166.1875 282.9063,166.3281 283.8438,166.7656 Z "/><text fill="#000000" font-family="sans-serif" font-size="12" lengthAdjust="spacingAndGlyphs" textLength="90" x="295.5" y="175.248">:ub1bL494C15</text><line style="stroke: #A80036; stroke-width: 1.5;" x1="267.5" x2="387.5" y1="187.0938" y2="187.0938"/><line style="stroke: #A80036; stroke-width: 1.5;" x1="267.5" x2="387.5" y1="195.0938" y2="195.0938"/></a><!--MD5=[6be681d58cb9eb648eb2301dc577ad8b]
class dwc:Occurrence--><rect fill="#FEFECE" filter="url(#fxqfe1j3puenm)" height="48" id="dwc:Occurrence" style="stroke: #A80036; stroke-width: 1.5;" width="132" x="2364.5" y="40.5938"/><ellipse cx="2379.5" cy="56.5938" fill="#ADD1B2" rx="11" ry="11" style="stroke: #A80036; stroke-width: 1.0;"/><path d="M2381.8438,52.2656 L2382.0156,52.3438 C2382.2344,52.0313 2382.4375,51.9375 2382.7344,51.9375 C2383.0313,51.9375 2383.3125,52.0781 2383.4688,52.3438 C2383.5625,52.5 2383.5781,52.625 2383.5781,53.0625 L2383.5781,54.4844 C2383.5781,54.9063 2383.5469,55.0938 2383.4375,55.25 C2383.2656,55.4688 2383,55.6094 2382.7344,55.6094 C2382.5156,55.6094 2382.2813,55.5 2382.1406,55.3594 C2382,55.2344 2381.9688,55.1094 2381.9063,54.7031 C2381.8125,54.2969 2381.6406,54.0781 2381.1563,53.7969 C2380.6875,53.5469 2380.0781,53.3906 2379.5,53.3906 C2377.7656,53.3906 2376.5156,54.7031 2376.5156,56.4844 L2376.5156,57.5781 C2376.5156,59.2813 2377.8125,60.375 2379.8594,60.375 C2380.625,60.375 2381.3125,60.25 2381.7344,59.9844 C2381.9219,59.8906 2381.9219,59.8906 2382.375,59.4063 C2382.5625,59.2188 2382.7656,59.1406 2382.9844,59.1406 C2383.4531,59.1406 2383.8438,59.5313 2383.8438,59.9844 C2383.8438,60.375 2383.5156,60.8281 2382.9375,61.2344 C2382.1875,61.7813 2381.0313,62.0781 2379.8125,62.0781 C2376.9219,62.0781 2374.8125,60.1875 2374.8125,57.6094 L2374.8125,56.4844 C2374.8125,53.7656 2376.8125,51.6875 2379.4375,51.6875 C2380.3125,51.6875 2380.9063,51.8281 2381.8438,52.2656 Z "/><text fill="#000000" font-family="sans-serif" font-size="12" lengthAdjust="spacingAndGlyphs" textLength="100" x="2393.5" y="60.748">dwc:Occurrence</text><line style="stroke: #A80036; stroke-width: 1.5;" x1="2365.5" x2="2495.5" y1="72.5938" y2="72.5938"/><line style="stroke: #A80036; stroke-width: 1.5;" x1="2365.5" x2="2495.5" y1="80.5938" y2="80.5938"/><!--MD5=[331f6ab8dfe00a12657b01b61bdd174c]
reverse link :EnvironmentalContinuant to :EnvironmentalSystem--><path d="M599.276,213.2778 C568.039,231.3918 530.147,253.3658 502.174,269.5868 " fill="none" id=":EnvironmentalContinuant&lt;-:EnvironmentalSystem" style="stroke: #A80036; stroke-width: 1.0;"/><polygon fill="none" points="595.96,207.1088,616.773,203.1318,602.983,219.2197,595.96,207.1088" style="stroke: #A80036; stroke-width: 1.0;"/><!--MD5=[a05182c24c0f2da3184069ea6995fffe]
reverse link owl:Thing to :EnvironmentalSystem--><path d="M466.199,223.2387 C465.358,239.0138 464.439,256.2458 463.727,269.5868 " fill="none" id="owl:Thing&lt;-:EnvironmentalSystem" style="stroke: #A80036; stroke-width: 1.0;"/><polygon fill="none" points="459.216,222.7298,467.271,203.1318,473.196,223.4758,459.216,222.7298" style="stroke: #A80036; stroke-width: 1.0;"/><!--MD5=[00eea72691b1165f8f067d3db328fbe4]
reverse link sosa:Observation to :TaxonAssignment--><path d="M861.5,108.7387 C861.5,124.5138 861.5,141.7458 861.5,155.0868 " fill="none" id="sosa:Observation&lt;-:TaxonAssignment" style="stroke: #A80036; stroke-width: 1.0;"/><polygon fill="none" points="854.5,108.6318,861.5,88.6318,868.5,108.6307,854.5,108.6318" style="stroke: #A80036; stroke-width: 1.0;"/><!--MD5=[b868cf3775c856207f62f10252ac689d]
reverse link sosa:Platform to :FluxTower--><path d="M1026.5,108.7387 C1026.5,124.5138 1026.5,141.7458 1026.5,155.0868 " fill="none" id="sosa:Platform&lt;-:FluxTower" style="stroke: #A80036; stroke-width: 1.0;"/><polygon fill="none" points="1019.5,108.6318,1026.5,88.6318,1033.5,108.6307,1019.5,108.6318" style="stroke: #A80036; stroke-width: 1.0;"/><!--MD5=[44e5cb1da9a681ab886e39901222d532]
reverse link dct:Location to :Location--><path d="M1175.5,108.7387 C1175.5,124.5138 1175.5,141.7458 1175.5,155.0868 " fill="none" id="dct:Location&lt;-:Location" style="stroke: #A80036; stroke-width: 1.0;"/><polygon fill="none" points="1168.5,108.6318,1175.5,88.6318,1182.5,108.6307,1168.5,108.6318" style="stroke: #A80036; stroke-width: 1.0;"/><!--MD5=[35c720b0d78d702b7d9d281cea18e765]
reverse link skos:Concept to :Stratum--><path d="M1323.5,108.7387 C1323.5,124.5138 1323.5,141.7458 1323.5,155.0868 " fill="none" id="skos:Concept&lt;-:Stratum" style="stroke: #A80036; stroke-width: 1.0;"/><polygon fill="none" points="1316.5,108.6318,1323.5,88.6318,1330.5,108.6307,1316.5,108.6318" style="stroke: #A80036; stroke-width: 1.0;"/><!--MD5=[275ba334fe22dfb021ff74c071397ab0]
reverse link prov:Activity to :SiteVisit--><path d="M1490.94,105.5338 C1480.31,122.1468 1468.34,140.8368 1459.22,155.0868 " fill="none" id="prov:Activity&lt;-:SiteVisit" style="stroke: #A80036; stroke-width: 1.0;"/><polygon fill="none" points="1485.08,101.7038,1501.76,88.6318,1496.87,109.2498,1485.08,101.7038" style="stroke: #A80036; stroke-width: 1.0;"/><!--MD5=[c800b92bc71a73c1356b74aba10f7cff]
reverse link sosa:Sample to :SiteStratumTaxon--><path d="M1817.05,100.3107 C1792.2,118.1198 1762.61,139.3207 1740.61,155.0868 " fill="none" id="sosa:Sample&lt;-:SiteStratumTaxon" style="stroke: #A80036; stroke-width: 1.0;"/><polygon fill="none" points="1813.02,94.5908,1833.35,88.6318,1821.17,105.9708,1813.02,94.5908" style="stroke: #A80036; stroke-width: 1.0;"/><!--MD5=[563ca3b286fc5313db7dffbb2b0328c9]
reverse link sosa:Sample to :SiteTaxon--><path d="M1865.5,108.7387 C1865.5,124.5138 1865.5,141.7458 1865.5,155.0868 " fill="none" id="sosa:Sample&lt;-:SiteTaxon" style="stroke: #A80036; stroke-width: 1.0;"/><polygon fill="none" points="1858.5,108.6318,1865.5,88.6318,1872.5,108.6307,1858.5,108.6318" style="stroke: #A80036; stroke-width: 1.0;"/><!--MD5=[094ffb1d677d3631456e9901c1475881]
reverse link :EcologicalCommunity to :Assemblage--><path d="M462.5,445.6174 C462.5,459.173 462.5,473.6319 462.5,485.2722 " fill="none" id=":EcologicalCommunity&lt;-:Assemblage" style="stroke: #A80036; stroke-width: 1.0;"/><polygon fill="none" points="455.5,445.5943,462.5,425.5938,469.5,445.5942,455.5,445.5943" style="stroke: #A80036; stroke-width: 1.0;"/><!--MD5=[c23c54f56d1ecb3574b631f735680183]
reverse link prov:Activity to :Survey--><path d="M1533.22,107.3977 C1539.68,123.5317 1546.81,141.3668 1552.3,155.0868 " fill="none" id="prov:Activity&lt;-:Survey" style="stroke: #A80036; stroke-width: 1.0;"/><polygon fill="none" points="1526.64,109.8008,1525.72,88.6318,1539.64,104.6008,1526.64,109.8008" style="stroke: #A80036; stroke-width: 1.0;"/><!--MD5=[c6ab8af9135bd6e784c73df634de44b2]
reverse link :EnvironmentalContinuant to :EnvironmentalZone--><path d="M658.418,223.2387 C659.119,239.0138 659.885,256.2458 660.477,269.5868 " fill="none" id=":EnvironmentalContinuant&lt;-:EnvironmentalZone" style="stroke: #A80036; stroke-width: 1.0;"/><polygon fill="none" points="651.419,223.4228,657.524,203.1318,665.405,222.8008,651.419,223.4228" style="stroke: #A80036; stroke-width: 1.0;"/><!--MD5=[909701d58657220eaef5f1b15ddec774]
reverse link owl:Thing to :EnvironmentalZone--><path d="M525.429,213.2778 C556.505,231.3918 594.202,253.3658 622.031,269.5868 " fill="none" id="owl:Thing&lt;-:EnvironmentalZone" style="stroke: #A80036; stroke-width: 1.0;"/><polygon fill="none" points="521.776,219.2507,508.022,203.1318,528.826,207.1558,521.776,219.2507" style="stroke: #A80036; stroke-width: 1.0;"/><!--MD5=[f104df006a5560d7d0e10e6497496b78]
reverse link sosa:Sample to :SiteStratum--><path d="M1909.67,101.3417 C1931.4,118.9328 1956.97,139.6237 1976.07,155.0868 " fill="none" id="sosa:Sample&lt;-:SiteStratum" style="stroke: #A80036; stroke-width: 1.0;"/><polygon fill="none" points="1905.11,106.6547,1893.96,88.6318,1913.91,95.7727,1905.11,106.6547" style="stroke: #A80036; stroke-width: 1.0;"/><!--MD5=[f9754e33c03ec009aca8f871ad818b23]
reverse link sosa:Sample to :OrganismOccurence--><path d="M1941.11,90.0358 C2000.84,109.3467 2083.63,136.1098 2142.22,155.0498 " fill="none" id="sosa:Sample&lt;-:OrganismOccurence" style="stroke: #A80036; stroke-width: 1.0;"/><polygon fill="none" points="1938.68,96.6067,1921.8,83.7937,1942.98,83.2858,1938.68,96.6067" style="stroke: #A80036; stroke-width: 1.0;"/><!--MD5=[19c1fa849aed3cc5802a7757a42ef5ee]
reverse link geosparql:SpatialObject to :OrganismOccurence--><path d="M2098.35,100.0537 C2124.7,117.9158 2156.18,139.2448 2179.55,155.0868 " fill="none" id="geosparql:SpatialObject&lt;-:OrganismOccurence" style="stroke: #A80036; stroke-width: 1.0;"/><polygon fill="none" points="2094.12,105.6458,2081.49,88.6318,2101.98,94.0568,2094.12,105.6458" style="stroke: #A80036; stroke-width: 1.0;"/><!--MD5=[d41ed85ec00667454d9621565d82d6d1]
reverse link time:TemporalEntity to :OrganismOccurence--><path d="M2237.29,107.6658 C2231.86,123.7287 2225.88,141.4428 2221.27,155.0868 " fill="none" id="time:TemporalEntity&lt;-:OrganismOccurence" style="stroke: #A80036; stroke-width: 1.0;"/><polygon fill="none" points="2230.69,105.3397,2243.72,88.6318,2243.95,109.8198,2230.69,105.3397" style="stroke: #A80036; stroke-width: 1.0;"/><!--MD5=[360ae85a8ddef6b242e05f837d25fa52]
reverse link sosa:FeatureOfInterest to :EnvironmentalContinuant--><path d="M656.5,108.7387 C656.5,124.5138 656.5,141.7458 656.5,155.0868 " fill="none" id="sosa:FeatureOfInterest&lt;-:EnvironmentalContinuant" style="stroke: #A80036; stroke-width: 1.0;"/><polygon fill="none" points="649.5,108.6318,656.5,88.6318,663.5,108.6307,649.5,108.6318" style="stroke: #A80036; stroke-width: 1.0;"/><!--MD5=[4afdbcc2aaa9793b213da55f0ac47a35]
reverse link :EnvironmentalSystem to :EcologicalCommunity--><path d="M462.5,337.6178 C462.5,351.1728 462.5,365.6318 462.5,377.2718 " fill="none" id=":EnvironmentalSystem&lt;-:EcologicalCommunity" style="stroke: #A80036; stroke-width: 1.0;"/><polygon fill="none" points="455.5,337.5938,462.5,317.5938,469.5,337.5938,455.5,337.5938" style="stroke: #A80036; stroke-width: 1.0;"/><!--MD5=[53ccb56f84498235ddbea6d9db34a729]
link dwc:Occurrence to :OrganismOccurence--><path d="M2386.06,88.6318 C2348.62,108.0448 2295.31,135.6818 2257.88,155.0868 " fill="none" id="dwc:Occurrence-:OrganismOccurence" style="stroke: #A80036; stroke-width: 1.0; stroke-dasharray: 7.0,7.0;"/><!--MD5=[5d3446591b700a68636d4a7371a2cb9e]
link :ub1bL554C23 to :ub1bL149C26--><!--MD5=[3b74e5ce5df470339196e00d1eb71cf2]
link :ub1bL149C26 to :ub1bL307C26--><!--MD5=[7b4638906e36021c1284b41c38988dcf]
link :ub1bL554C23 to :ub1bL571C15--><!--MD5=[0b872235b86f827b761d3c44845eeaeb]
link :ub1bL571C15 to :ub1bL494C15--><text fill="#888888" font-family="sans-serif" font-size="10" lengthAdjust="spacingAndGlyphs" textLength="67" x="1120.5" y="552.876">Generated by</text><a href="https://github.com/edmondchuc/ontogram" target="_top" title="https://github.com/edmondchuc/ontogram" xlink:actuate="onRequest" xlink:href="https://github.com/edmondchuc/ontogram" xlink:show="new" xlink:title="https://github.com/edmondchuc/ontogram" xlink:type="simple"><text fill="#0000FF" font-family="sans-serif" font-size="10" lengthAdjust="spacingAndGlyphs" text-decoration="underline" textLength="204" x="1190.5" y="552.876">https://github.com/edmondchuc/ontogram</text></a><!--MD5=[6d7b32879f682310f8f036ccd7d7131a]
@startuml
title The PLOT ontology
":EnvironmentalContinuant" <|- - ":EnvironmentalSystem"
"owl:Thing" <|- - ":EnvironmentalSystem"
"sosa:Observation" <|- - ":TaxonAssignment"
"sosa:Platform" <|- - ":FluxTower"
"dct:Location" <|- - ":Location"
"skos:Concept" <|- - ":Stratum"
"prov:Activity" <|- - ":SiteVisit"
"sosa:Sample" <|- - ":SiteStratumTaxon"
"sosa:Sample" <|- - ":SiteTaxon"
":EcologicalCommunity" <|- - ":Assemblage"
"prov:Activity" <|- - ":Survey"
":EnvironmentalContinuant" <|- - ":EnvironmentalZone"
"owl:Thing" <|- - ":EnvironmentalZone"
"sosa:Sample" <|- - ":SiteStratum"
"sosa:Sample" <|- - ":OrganismOccurence"
"geosparql:SpatialObject" <|- - ":OrganismOccurence"
"time:TemporalEntity" <|- - ":OrganismOccurence"
"sosa:FeatureOfInterest" <|- - ":EnvironmentalContinuant"
":EnvironmentalSystem" <|- - ":EcologicalCommunity"
Class ":EnvironmentalSystem" [[http://linked.data.gov.au/def/plot/x/EnvironmentalSystem]] {
}
Class ":ub1bL554C23" [[ub1bL554C23]] {
}
Class ":ub1bL149C26" [[ub1bL149C26]] {
}
Class ":ub1bL307C26" [[ub1bL307C26]] {
}
Class ":TaxonAssignment" [[http://linked.data.gov.au/def/plot/x/TaxonAssignment]] {
}
Class ":FluxTower" [[http://linked.data.gov.au/def/plot/x/FluxTower]] {
}
Class ":Location" [[http://linked.data.gov.au/def/plot/Location]] {
}
Class ":Stratum" [[http://linked.data.gov.au/def/plot/Stratum]] {
}
Class ":SiteVisit" [[http://linked.data.gov.au/def/plot/SiteVisit]] {
}
Class ":SiteStratumTaxon" [[http://linked.data.gov.au/def/plot/SiteStratumTaxon]] {
}
Class ":SiteTaxon" [[http://linked.data.gov.au/def/plot/SiteTaxon]] {
}
Class ":Assemblage" [[http://linked.data.gov.au/def/plot/x/Assemblage]] {
}
Class ":Survey" [[http://linked.data.gov.au/def/plot/x/Survey]] {
}
Class ":EnvironmentalZone" [[http://linked.data.gov.au/def/plot/x/EnvironmentalZone]] {
}
Class ":SiteStratum" [[http://linked.data.gov.au/def/plot/SiteStratum]] {
}
Class ":OrganismOccurence" [[http://linked.data.gov.au/def/plot/OrganismOccurence]] {
}
Class ":ub1bL571C15" [[ub1bL571C15]] {
[[http://www.w3.org/ns/ssn/ext/isMemberOf :isMemberOf]] : [[http://www.w3.org/ns/ssn/ext/ObservationCollection :ObservationCollection]]
}
Class ":EnvironmentalContinuant" [[http://linked.data.gov.au/def/plot/x/EnvironmentalContinuant]] {
}
Class ":ub1bL494C15" [[ub1bL494C15]] {
}
Class ":EcologicalCommunity" [[http://linked.data.gov.au/def/plot/x/EcologicalCommunity]] {
}
"dwc:Occurrence" .. ":OrganismOccurence"
header
Creator: Simon J.D.Cox (simon.cox@csiro.au) 
endheader
center footer Generated by [[https://github.com/edmondchuc/ontogram https://github.com/edmondchuc/ontogram]]
@enduml

PlantUML version 1.2020.01beta5(Unknown compile time)
(GPL source distribution)
Java Runtime: Java(TM) SE Runtime Environment
JVM: Java HotSpot(TM) 64-Bit Server VM
Java Version: 1.7.0_25-b15
Operating System: Linux
Default Encoding: UTF-8
Language: en
Country: US
--></g></svg>