<?xml version="1.0" encoding="UTF-8" standalone="no"?><svg xmlns="http://www.w3.org/2000/svg" xmlns:xlink="http://www.w3.org/1999/xlink" contentScriptType="application/ecmascript" contentStyleType="text/css" height="566px" preserveAspectRatio="none" style="width:2543px;height:566px;" version="1.1" viewBox="0 0 2543 566" width="2543px" zoomAndPan="magnify"><defs><filter height="300%" id="fbdve1td95bgo" width="300%" x="-1" y="-1"><feGaussianBlur result="blurOut" stdDeviation="2.0"/><feColorMatrix in="blurOut" result="blurOut2" type="matrix" values="0 0 0 0 0 0 0 0 0 0 0 0 0 0 0 0 0 0 .4 0"/><feOffset dx="4.0" dy="4.0" in="blurOut2" result="blurOut3"/><feBlend in="SourceGraphic" in2="blurOut3" mode="normal"/></filter></defs><g><text fill="#888888" font-family="sans-serif" font-size="10" lengthAdjust="spacingAndGlyphs" textLength="223" x="2308" y="9.2822">Creator: Simon J.D.Cox (simon.cox@csiro.au)</text><text fill="#000000" font-family="sans-serif" font-size="18" lengthAdjust="spacingAndGlyphs" textLength="171" x="1180" y="28.3486">The PLOT ontology</text><!--MD5=[50665e143bce30f6a1af9c952e41ca0e]
class sosa:Platform--><rect fill="#FEFECE" filter="url(#fbdve1td95bgo)" height="48" id="sosa:Platform" style="stroke: #A80036; stroke-width: 1.5;" width="118" x="477" y="40.5938"/><ellipse cx="492" cy="56.5938" fill="#ADD1B2" rx="11" ry="11" style="stroke: #A80036; stroke-width: 1.0;"/><path d="M494.3438,52.2656 L494.5156,52.3438 C494.7344,52.0313 494.9375,51.9375 495.2344,51.9375 C495.5313,51.9375 495.8125,52.0781 495.9688,52.3438 C496.0625,52.5 496.0781,52.625 496.0781,53.0625 L496.0781,54.4844 C496.0781,54.9063 496.0469,55.0938 495.9375,55.25 C495.7656,55.4688 495.5,55.6094 495.2344,55.6094 C495.0156,55.6094 494.7813,55.5 494.6406,55.3594 C494.5,55.2344 494.4688,55.1094 494.4063,54.7031 C494.3125,54.2969 494.1406,54.0781 493.6563,53.7969 C493.1875,53.5469 492.5781,53.3906 492,53.3906 C490.2656,53.3906 489.0156,54.7031 489.0156,56.4844 L489.0156,57.5781 C489.0156,59.2813 490.3125,60.375 492.3594,60.375 C493.125,60.375 493.8125,60.25 494.2344,59.9844 C494.4219,59.8906 494.4219,59.8906 494.875,59.4063 C495.0625,59.2188 495.2656,59.1406 495.4844,59.1406 C495.9531,59.1406 496.3438,59.5313 496.3438,59.9844 C496.3438,60.375 496.0156,60.8281 495.4375,61.2344 C494.6875,61.7813 493.5313,62.0781 492.3125,62.0781 C489.4219,62.0781 487.3125,60.1875 487.3125,57.6094 L487.3125,56.4844 C487.3125,53.7656 489.3125,51.6875 491.9375,51.6875 C492.8125,51.6875 493.4063,51.8281 494.3438,52.2656 Z "/><text fill="#000000" font-family="sans-serif" font-size="12" lengthAdjust="spacingAndGlyphs" textLength="86" x="506" y="60.748">sosa:Platform</text><line style="stroke: #A80036; stroke-width: 1.5;" x1="478" x2="594" y1="72.5938" y2="72.5938"/><line style="stroke: #A80036; stroke-width: 1.5;" x1="478" x2="594" y1="80.5938" y2="80.5938"/><!--MD5=[3df895f3135a771803c07af651931204]
class :FluxTower--><a href="http://linked.data.gov.au/def/plot/x/FluxTower" target="_top" title="http://linked.data.gov.au/def/plot/x/FluxTower" xlink:actuate="onRequest" xlink:href="http://linked.data.gov.au/def/plot/x/FluxTower" xlink:show="new" xlink:title="http://linked.data.gov.au/def/plot/x/FluxTower" xlink:type="simple"><rect fill="#FEFECE" filter="url(#fbdve1td95bgo)" height="48" id=":FluxTower" style="stroke: #A80036; stroke-width: 1.5;" width="97" x="487.5" y="155.0938"/><ellipse cx="502.5" cy="171.0938" fill="#ADD1B2" rx="11" ry="11" style="stroke: #A80036; stroke-width: 1.0;"/><path d="M504.8438,166.7656 L505.0156,166.8438 C505.2344,166.5313 505.4375,166.4375 505.7344,166.4375 C506.0313,166.4375 506.3125,166.5781 506.4688,166.8438 C506.5625,167 506.5781,167.125 506.5781,167.5625 L506.5781,168.9844 C506.5781,169.4063 506.5469,169.5938 506.4375,169.75 C506.2656,169.9688 506,170.1094 505.7344,170.1094 C505.5156,170.1094 505.2813,170 505.1406,169.8594 C505,169.7344 504.9688,169.6094 504.9063,169.2031 C504.8125,168.7969 504.6406,168.5781 504.1563,168.2969 C503.6875,168.0469 503.0781,167.8906 502.5,167.8906 C500.7656,167.8906 499.5156,169.2031 499.5156,170.9844 L499.5156,172.0781 C499.5156,173.7813 500.8125,174.875 502.8594,174.875 C503.625,174.875 504.3125,174.75 504.7344,174.4844 C504.9219,174.3906 504.9219,174.3906 505.375,173.9063 C505.5625,173.7188 505.7656,173.6406 505.9844,173.6406 C506.4531,173.6406 506.8438,174.0313 506.8438,174.4844 C506.8438,174.875 506.5156,175.3281 505.9375,175.7344 C505.1875,176.2813 504.0313,176.5781 502.8125,176.5781 C499.9219,176.5781 497.8125,174.6875 497.8125,172.1094 L497.8125,170.9844 C497.8125,168.2656 499.8125,166.1875 502.4375,166.1875 C503.3125,166.1875 503.9063,166.3281 504.8438,166.7656 Z "/><text fill="#000000" font-family="sans-serif" font-size="12" lengthAdjust="spacingAndGlyphs" textLength="65" x="516.5" y="175.248">:FluxTower</text><line style="stroke: #A80036; stroke-width: 1.5;" x1="488.5" x2="583.5" y1="187.0938" y2="187.0938"/><line style="stroke: #A80036; stroke-width: 1.5;" x1="488.5" x2="583.5" y1="195.0938" y2="195.0938"/></a><!--MD5=[bb6d9abb7e221430576ccc276aa8775d]
class sosa:Observation--><rect fill="#FEFECE" filter="url(#fbdve1td95bgo)" height="48" id="sosa:Observation" style="stroke: #A80036; stroke-width: 1.5;" width="141" x="630.5" y="40.5938"/><ellipse cx="645.5" cy="56.5938" fill="#ADD1B2" rx="11" ry="11" style="stroke: #A80036; stroke-width: 1.0;"/><path d="M647.8438,52.2656 L648.0156,52.3438 C648.2344,52.0313 648.4375,51.9375 648.7344,51.9375 C649.0313,51.9375 649.3125,52.0781 649.4688,52.3438 C649.5625,52.5 649.5781,52.625 649.5781,53.0625 L649.5781,54.4844 C649.5781,54.9063 649.5469,55.0938 649.4375,55.25 C649.2656,55.4688 649,55.6094 648.7344,55.6094 C648.5156,55.6094 648.2813,55.5 648.1406,55.3594 C648,55.2344 647.9688,55.1094 647.9063,54.7031 C647.8125,54.2969 647.6406,54.0781 647.1563,53.7969 C646.6875,53.5469 646.0781,53.3906 645.5,53.3906 C643.7656,53.3906 642.5156,54.7031 642.5156,56.4844 L642.5156,57.5781 C642.5156,59.2813 643.8125,60.375 645.8594,60.375 C646.625,60.375 647.3125,60.25 647.7344,59.9844 C647.9219,59.8906 647.9219,59.8906 648.375,59.4063 C648.5625,59.2188 648.7656,59.1406 648.9844,59.1406 C649.4531,59.1406 649.8438,59.5313 649.8438,59.9844 C649.8438,60.375 649.5156,60.8281 648.9375,61.2344 C648.1875,61.7813 647.0313,62.0781 645.8125,62.0781 C642.9219,62.0781 640.8125,60.1875 640.8125,57.6094 L640.8125,56.4844 C640.8125,53.7656 642.8125,51.6875 645.4375,51.6875 C646.3125,51.6875 646.9063,51.8281 647.8438,52.2656 Z "/><text fill="#000000" font-family="sans-serif" font-size="12" lengthAdjust="spacingAndGlyphs" textLength="109" x="659.5" y="60.748">sosa:Observation</text><line style="stroke: #A80036; stroke-width: 1.5;" x1="631.5" x2="770.5" y1="72.5938" y2="72.5938"/><line style="stroke: #A80036; stroke-width: 1.5;" x1="631.5" x2="770.5" y1="80.5938" y2="80.5938"/><!--MD5=[b2a8d2e130b98aa952ed50aba61fd144]
class :TaxonAssignment--><a href="http://linked.data.gov.au/def/plot/x/TaxonAssignment" target="_top" title="http://linked.data.gov.au/def/plot/x/TaxonAssignment" xlink:actuate="onRequest" xlink:href="http://linked.data.gov.au/def/plot/x/TaxonAssignment" xlink:show="new" xlink:title="http://linked.data.gov.au/def/plot/x/TaxonAssignment" xlink:type="simple"><rect fill="#FEFECE" filter="url(#fbdve1td95bgo)" height="48" id=":TaxonAssignment" style="stroke: #A80036; stroke-width: 1.5;" width="146" x="628" y="155.0938"/><ellipse cx="643" cy="171.0938" fill="#ADD1B2" rx="11" ry="11" style="stroke: #A80036; stroke-width: 1.0;"/><path d="M645.3438,166.7656 L645.5156,166.8438 C645.7344,166.5313 645.9375,166.4375 646.2344,166.4375 C646.5313,166.4375 646.8125,166.5781 646.9688,166.8438 C647.0625,167 647.0781,167.125 647.0781,167.5625 L647.0781,168.9844 C647.0781,169.4063 647.0469,169.5938 646.9375,169.75 C646.7656,169.9688 646.5,170.1094 646.2344,170.1094 C646.0156,170.1094 645.7813,170 645.6406,169.8594 C645.5,169.7344 645.4688,169.6094 645.4063,169.2031 C645.3125,168.7969 645.1406,168.5781 644.6563,168.2969 C644.1875,168.0469 643.5781,167.8906 643,167.8906 C641.2656,167.8906 640.0156,169.2031 640.0156,170.9844 L640.0156,172.0781 C640.0156,173.7813 641.3125,174.875 643.3594,174.875 C644.125,174.875 644.8125,174.75 645.2344,174.4844 C645.4219,174.3906 645.4219,174.3906 645.875,173.9063 C646.0625,173.7188 646.2656,173.6406 646.4844,173.6406 C646.9531,173.6406 647.3438,174.0313 647.3438,174.4844 C647.3438,174.875 647.0156,175.3281 646.4375,175.7344 C645.6875,176.2813 644.5313,176.5781 643.3125,176.5781 C640.4219,176.5781 638.3125,174.6875 638.3125,172.1094 L638.3125,170.9844 C638.3125,168.2656 640.3125,166.1875 642.9375,166.1875 C643.8125,166.1875 644.4063,166.3281 645.3438,166.7656 Z "/><text fill="#000000" font-family="sans-serif" font-size="12" lengthAdjust="spacingAndGlyphs" textLength="114" x="657" y="175.248">:TaxonAssignment</text><line style="stroke: #A80036; stroke-width: 1.5;" x1="629" x2="773" y1="187.0938" y2="187.0938"/><line style="stroke: #A80036; stroke-width: 1.5;" x1="629" x2="773" y1="195.0938" y2="195.0938"/></a><!--MD5=[0d584a71ebce8b757d02fdb0fcc922f5]
class prov:Activity--><rect fill="#FEFECE" filter="url(#fbdve1td95bgo)" height="48" id="prov:Activity" style="stroke: #A80036; stroke-width: 1.5;" width="106" x="859" y="40.5938"/><ellipse cx="874" cy="56.5938" fill="#ADD1B2" rx="11" ry="11" style="stroke: #A80036; stroke-width: 1.0;"/><path d="M876.3438,52.2656 L876.5156,52.3438 C876.7344,52.0313 876.9375,51.9375 877.2344,51.9375 C877.5313,51.9375 877.8125,52.0781 877.9688,52.3438 C878.0625,52.5 878.0781,52.625 878.0781,53.0625 L878.0781,54.4844 C878.0781,54.9063 878.0469,55.0938 877.9375,55.25 C877.7656,55.4688 877.5,55.6094 877.2344,55.6094 C877.0156,55.6094 876.7813,55.5 876.6406,55.3594 C876.5,55.2344 876.4688,55.1094 876.4063,54.7031 C876.3125,54.2969 876.1406,54.0781 875.6563,53.7969 C875.1875,53.5469 874.5781,53.3906 874,53.3906 C872.2656,53.3906 871.0156,54.7031 871.0156,56.4844 L871.0156,57.5781 C871.0156,59.2813 872.3125,60.375 874.3594,60.375 C875.125,60.375 875.8125,60.25 876.2344,59.9844 C876.4219,59.8906 876.4219,59.8906 876.875,59.4063 C877.0625,59.2188 877.2656,59.1406 877.4844,59.1406 C877.9531,59.1406 878.3438,59.5313 878.3438,59.9844 C878.3438,60.375 878.0156,60.8281 877.4375,61.2344 C876.6875,61.7813 875.5313,62.0781 874.3125,62.0781 C871.4219,62.0781 869.3125,60.1875 869.3125,57.6094 L869.3125,56.4844 C869.3125,53.7656 871.3125,51.6875 873.9375,51.6875 C874.8125,51.6875 875.4063,51.8281 876.3438,52.2656 Z "/><text fill="#000000" font-family="sans-serif" font-size="12" lengthAdjust="spacingAndGlyphs" textLength="74" x="888" y="60.748">prov:Activity</text><line style="stroke: #A80036; stroke-width: 1.5;" x1="860" x2="964" y1="72.5938" y2="72.5938"/><line style="stroke: #A80036; stroke-width: 1.5;" x1="860" x2="964" y1="80.5938" y2="80.5938"/><!--MD5=[2b86ed209687f3341cf235cea84d7fb4]
class :Survey--><a href="http://linked.data.gov.au/def/plot/x/Survey" target="_top" title="http://linked.data.gov.au/def/plot/x/Survey" xlink:actuate="onRequest" xlink:href="http://linked.data.gov.au/def/plot/x/Survey" xlink:show="new" xlink:title="http://linked.data.gov.au/def/plot/x/Survey" xlink:type="simple"><rect fill="#FEFECE" filter="url(#fbdve1td95bgo)" height="48" id=":Survey" style="stroke: #A80036; stroke-width: 1.5;" width="77" x="841.5" y="155.0938"/><ellipse cx="856.5" cy="171.0938" fill="#ADD1B2" rx="11" ry="11" style="stroke: #A80036; stroke-width: 1.0;"/><path d="M858.8438,166.7656 L859.0156,166.8438 C859.2344,166.5313 859.4375,166.4375 859.7344,166.4375 C860.0313,166.4375 860.3125,166.5781 860.4688,166.8438 C860.5625,167 860.5781,167.125 860.5781,167.5625 L860.5781,168.9844 C860.5781,169.4063 860.5469,169.5938 860.4375,169.75 C860.2656,169.9688 860,170.1094 859.7344,170.1094 C859.5156,170.1094 859.2813,170 859.1406,169.8594 C859,169.7344 858.9688,169.6094 858.9063,169.2031 C858.8125,168.7969 858.6406,168.5781 858.1563,168.2969 C857.6875,168.0469 857.0781,167.8906 856.5,167.8906 C854.7656,167.8906 853.5156,169.2031 853.5156,170.9844 L853.5156,172.0781 C853.5156,173.7813 854.8125,174.875 856.8594,174.875 C857.625,174.875 858.3125,174.75 858.7344,174.4844 C858.9219,174.3906 858.9219,174.3906 859.375,173.9063 C859.5625,173.7188 859.7656,173.6406 859.9844,173.6406 C860.4531,173.6406 860.8438,174.0313 860.8438,174.4844 C860.8438,174.875 860.5156,175.3281 859.9375,175.7344 C859.1875,176.2813 858.0313,176.5781 856.8125,176.5781 C853.9219,176.5781 851.8125,174.6875 851.8125,172.1094 L851.8125,170.9844 C851.8125,168.2656 853.8125,166.1875 856.4375,166.1875 C857.3125,166.1875 857.9063,166.3281 858.8438,166.7656 Z "/><text fill="#000000" font-family="sans-serif" font-size="12" lengthAdjust="spacingAndGlyphs" textLength="45" x="870.5" y="175.248">:Survey</text><line style="stroke: #A80036; stroke-width: 1.5;" x1="842.5" x2="917.5" y1="187.0938" y2="187.0938"/><line style="stroke: #A80036; stroke-width: 1.5;" x1="842.5" x2="917.5" y1="195.0938" y2="195.0938"/></a><!--MD5=[8b6ce312968107126c2336334b36ae49]
class sosa:Sample--><rect fill="#FEFECE" filter="url(#fbdve1td95bgo)" height="48" id="sosa:Sample" style="stroke: #A80036; stroke-width: 1.5;" width="112" x="1391" y="40.5938"/><ellipse cx="1406" cy="56.5938" fill="#ADD1B2" rx="11" ry="11" style="stroke: #A80036; stroke-width: 1.0;"/><path d="M1408.3438,52.2656 L1408.5156,52.3438 C1408.7344,52.0313 1408.9375,51.9375 1409.2344,51.9375 C1409.5313,51.9375 1409.8125,52.0781 1409.9688,52.3438 C1410.0625,52.5 1410.0781,52.625 1410.0781,53.0625 L1410.0781,54.4844 C1410.0781,54.9063 1410.0469,55.0938 1409.9375,55.25 C1409.7656,55.4688 1409.5,55.6094 1409.2344,55.6094 C1409.0156,55.6094 1408.7813,55.5 1408.6406,55.3594 C1408.5,55.2344 1408.4688,55.1094 1408.4063,54.7031 C1408.3125,54.2969 1408.1406,54.0781 1407.6563,53.7969 C1407.1875,53.5469 1406.5781,53.3906 1406,53.3906 C1404.2656,53.3906 1403.0156,54.7031 1403.0156,56.4844 L1403.0156,57.5781 C1403.0156,59.2813 1404.3125,60.375 1406.3594,60.375 C1407.125,60.375 1407.8125,60.25 1408.2344,59.9844 C1408.4219,59.8906 1408.4219,59.8906 1408.875,59.4063 C1409.0625,59.2188 1409.2656,59.1406 1409.4844,59.1406 C1409.9531,59.1406 1410.3438,59.5313 1410.3438,59.9844 C1410.3438,60.375 1410.0156,60.8281 1409.4375,61.2344 C1408.6875,61.7813 1407.5313,62.0781 1406.3125,62.0781 C1403.4219,62.0781 1401.3125,60.1875 1401.3125,57.6094 L1401.3125,56.4844 C1401.3125,53.7656 1403.3125,51.6875 1405.9375,51.6875 C1406.8125,51.6875 1407.4063,51.8281 1408.3438,52.2656 Z "/><text fill="#000000" font-family="sans-serif" font-size="12" lengthAdjust="spacingAndGlyphs" textLength="80" x="1420" y="60.748">sosa:Sample</text><line style="stroke: #A80036; stroke-width: 1.5;" x1="1392" x2="1502" y1="72.5938" y2="72.5938"/><line style="stroke: #A80036; stroke-width: 1.5;" x1="1392" x2="1502" y1="80.5938" y2="80.5938"/><!--MD5=[aec54989d0b5e1280b3fe804a99154c1]
class :OrganismOccurence--><a href="http://linked.data.gov.au/def/plot/OrganismOccurence" target="_top" title="http://linked.data.gov.au/def/plot/OrganismOccurence" xlink:actuate="onRequest" xlink:href="http://linked.data.gov.au/def/plot/OrganismOccurence" xlink:show="new" xlink:title="http://linked.data.gov.au/def/plot/OrganismOccurence" xlink:type="simple"><rect fill="#FEFECE" filter="url(#fbdve1td95bgo)" height="48" id=":OrganismOccurence" style="stroke: #A80036; stroke-width: 1.5;" width="162" x="1535" y="155.0938"/><ellipse cx="1550" cy="171.0938" fill="#ADD1B2" rx="11" ry="11" style="stroke: #A80036; stroke-width: 1.0;"/><path d="M1552.3438,166.7656 L1552.5156,166.8438 C1552.7344,166.5313 1552.9375,166.4375 1553.2344,166.4375 C1553.5313,166.4375 1553.8125,166.5781 1553.9688,166.8438 C1554.0625,167 1554.0781,167.125 1554.0781,167.5625 L1554.0781,168.9844 C1554.0781,169.4063 1554.0469,169.5938 1553.9375,169.75 C1553.7656,169.9688 1553.5,170.1094 1553.2344,170.1094 C1553.0156,170.1094 1552.7813,170 1552.6406,169.8594 C1552.5,169.7344 1552.4688,169.6094 1552.4063,169.2031 C1552.3125,168.7969 1552.1406,168.5781 1551.6563,168.2969 C1551.1875,168.0469 1550.5781,167.8906 1550,167.8906 C1548.2656,167.8906 1547.0156,169.2031 1547.0156,170.9844 L1547.0156,172.0781 C1547.0156,173.7813 1548.3125,174.875 1550.3594,174.875 C1551.125,174.875 1551.8125,174.75 1552.2344,174.4844 C1552.4219,174.3906 1552.4219,174.3906 1552.875,173.9063 C1553.0625,173.7188 1553.2656,173.6406 1553.4844,173.6406 C1553.9531,173.6406 1554.3438,174.0313 1554.3438,174.4844 C1554.3438,174.875 1554.0156,175.3281 1553.4375,175.7344 C1552.6875,176.2813 1551.5313,176.5781 1550.3125,176.5781 C1547.4219,176.5781 1545.3125,174.6875 1545.3125,172.1094 L1545.3125,170.9844 C1545.3125,168.2656 1547.3125,166.1875 1549.9375,166.1875 C1550.8125,166.1875 1551.4063,166.3281 1552.3438,166.7656 Z "/><text fill="#000000" font-family="sans-serif" font-size="12" lengthAdjust="spacingAndGlyphs" textLength="130" x="1564" y="175.248">:OrganismOccurence</text><line style="stroke: #A80036; stroke-width: 1.5;" x1="1536" x2="1696" y1="187.0938" y2="187.0938"/><line style="stroke: #A80036; stroke-width: 1.5;" x1="1536" x2="1696" y1="195.0938" y2="195.0938"/></a><!--MD5=[9aaa16b4e45fc97314f609860701115f]
class geosparql:SpatialObject--><rect fill="#FEFECE" filter="url(#fbdve1td95bgo)" height="48" id="geosparql:SpatialObject" style="stroke: #A80036; stroke-width: 1.5;" width="182" x="1174" y="40.5938"/><ellipse cx="1189" cy="56.5938" fill="#ADD1B2" rx="11" ry="11" style="stroke: #A80036; stroke-width: 1.0;"/><path d="M1191.3438,52.2656 L1191.5156,52.3438 C1191.7344,52.0313 1191.9375,51.9375 1192.2344,51.9375 C1192.5313,51.9375 1192.8125,52.0781 1192.9688,52.3438 C1193.0625,52.5 1193.0781,52.625 1193.0781,53.0625 L1193.0781,54.4844 C1193.0781,54.9063 1193.0469,55.0938 1192.9375,55.25 C1192.7656,55.4688 1192.5,55.6094 1192.2344,55.6094 C1192.0156,55.6094 1191.7813,55.5 1191.6406,55.3594 C1191.5,55.2344 1191.4688,55.1094 1191.4063,54.7031 C1191.3125,54.2969 1191.1406,54.0781 1190.6563,53.7969 C1190.1875,53.5469 1189.5781,53.3906 1189,53.3906 C1187.2656,53.3906 1186.0156,54.7031 1186.0156,56.4844 L1186.0156,57.5781 C1186.0156,59.2813 1187.3125,60.375 1189.3594,60.375 C1190.125,60.375 1190.8125,60.25 1191.2344,59.9844 C1191.4219,59.8906 1191.4219,59.8906 1191.875,59.4063 C1192.0625,59.2188 1192.2656,59.1406 1192.4844,59.1406 C1192.9531,59.1406 1193.3438,59.5313 1193.3438,59.9844 C1193.3438,60.375 1193.0156,60.8281 1192.4375,61.2344 C1191.6875,61.7813 1190.5313,62.0781 1189.3125,62.0781 C1186.4219,62.0781 1184.3125,60.1875 1184.3125,57.6094 L1184.3125,56.4844 C1184.3125,53.7656 1186.3125,51.6875 1188.9375,51.6875 C1189.8125,51.6875 1190.4063,51.8281 1191.3438,52.2656 Z "/><text fill="#000000" font-family="sans-serif" font-size="12" lengthAdjust="spacingAndGlyphs" textLength="150" x="1203" y="60.748">geosparql:SpatialObject</text><line style="stroke: #A80036; stroke-width: 1.5;" x1="1175" x2="1355" y1="72.5938" y2="72.5938"/><line style="stroke: #A80036; stroke-width: 1.5;" x1="1175" x2="1355" y1="80.5938" y2="80.5938"/><!--MD5=[cd57d364b5b3fdd499729d0748632540]
class time:TemporalEntity--><rect fill="#FEFECE" filter="url(#fbdve1td95bgo)" height="48" id="time:TemporalEntity" style="stroke: #A80036; stroke-width: 1.5;" width="156" x="1538" y="40.5938"/><ellipse cx="1553" cy="56.5938" fill="#ADD1B2" rx="11" ry="11" style="stroke: #A80036; stroke-width: 1.0;"/><path d="M1555.3438,52.2656 L1555.5156,52.3438 C1555.7344,52.0313 1555.9375,51.9375 1556.2344,51.9375 C1556.5313,51.9375 1556.8125,52.0781 1556.9688,52.3438 C1557.0625,52.5 1557.0781,52.625 1557.0781,53.0625 L1557.0781,54.4844 C1557.0781,54.9063 1557.0469,55.0938 1556.9375,55.25 C1556.7656,55.4688 1556.5,55.6094 1556.2344,55.6094 C1556.0156,55.6094 1555.7813,55.5 1555.6406,55.3594 C1555.5,55.2344 1555.4688,55.1094 1555.4063,54.7031 C1555.3125,54.2969 1555.1406,54.0781 1554.6563,53.7969 C1554.1875,53.5469 1553.5781,53.3906 1553,53.3906 C1551.2656,53.3906 1550.0156,54.7031 1550.0156,56.4844 L1550.0156,57.5781 C1550.0156,59.2813 1551.3125,60.375 1553.3594,60.375 C1554.125,60.375 1554.8125,60.25 1555.2344,59.9844 C1555.4219,59.8906 1555.4219,59.8906 1555.875,59.4063 C1556.0625,59.2188 1556.2656,59.1406 1556.4844,59.1406 C1556.9531,59.1406 1557.3438,59.5313 1557.3438,59.9844 C1557.3438,60.375 1557.0156,60.8281 1556.4375,61.2344 C1555.6875,61.7813 1554.5313,62.0781 1553.3125,62.0781 C1550.4219,62.0781 1548.3125,60.1875 1548.3125,57.6094 L1548.3125,56.4844 C1548.3125,53.7656 1550.3125,51.6875 1552.9375,51.6875 C1553.8125,51.6875 1554.4063,51.8281 1555.3438,52.2656 Z "/><text fill="#000000" font-family="sans-serif" font-size="12" lengthAdjust="spacingAndGlyphs" textLength="124" x="1567" y="60.748">time:TemporalEntity</text><line style="stroke: #A80036; stroke-width: 1.5;" x1="1539" x2="1693" y1="72.5938" y2="72.5938"/><line style="stroke: #A80036; stroke-width: 1.5;" x1="1539" x2="1693" y1="80.5938" y2="80.5938"/><!--MD5=[a5045e2f80c39252163f54a3f2bf835a]
class :SiteStratum--><a href="http://linked.data.gov.au/def/plot/SiteStratum" target="_top" title="http://linked.data.gov.au/def/plot/SiteStratum" xlink:actuate="onRequest" xlink:href="http://linked.data.gov.au/def/plot/SiteStratum" xlink:show="new" xlink:title="http://linked.data.gov.au/def/plot/SiteStratum" xlink:type="simple"><rect fill="#FEFECE" filter="url(#fbdve1td95bgo)" height="48" id=":SiteStratum" style="stroke: #A80036; stroke-width: 1.5;" width="110" x="1075" y="155.0938"/><ellipse cx="1090" cy="171.0938" fill="#ADD1B2" rx="11" ry="11" style="stroke: #A80036; stroke-width: 1.0;"/><path d="M1092.3438,166.7656 L1092.5156,166.8438 C1092.7344,166.5313 1092.9375,166.4375 1093.2344,166.4375 C1093.5313,166.4375 1093.8125,166.5781 1093.9688,166.8438 C1094.0625,167 1094.0781,167.125 1094.0781,167.5625 L1094.0781,168.9844 C1094.0781,169.4063 1094.0469,169.5938 1093.9375,169.75 C1093.7656,169.9688 1093.5,170.1094 1093.2344,170.1094 C1093.0156,170.1094 1092.7813,170 1092.6406,169.8594 C1092.5,169.7344 1092.4688,169.6094 1092.4063,169.2031 C1092.3125,168.7969 1092.1406,168.5781 1091.6563,168.2969 C1091.1875,168.0469 1090.5781,167.8906 1090,167.8906 C1088.2656,167.8906 1087.0156,169.2031 1087.0156,170.9844 L1087.0156,172.0781 C1087.0156,173.7813 1088.3125,174.875 1090.3594,174.875 C1091.125,174.875 1091.8125,174.75 1092.2344,174.4844 C1092.4219,174.3906 1092.4219,174.3906 1092.875,173.9063 C1093.0625,173.7188 1093.2656,173.6406 1093.4844,173.6406 C1093.9531,173.6406 1094.3438,174.0313 1094.3438,174.4844 C1094.3438,174.875 1094.0156,175.3281 1093.4375,175.7344 C1092.6875,176.2813 1091.5313,176.5781 1090.3125,176.5781 C1087.4219,176.5781 1085.3125,174.6875 1085.3125,172.1094 L1085.3125,170.9844 C1085.3125,168.2656 1087.3125,166.1875 1089.9375,166.1875 C1090.8125,166.1875 1091.4063,166.3281 1092.3438,166.7656 Z "/><text fill="#000000" font-family="sans-serif" font-size="12" lengthAdjust="spacingAndGlyphs" textLength="78" x="1104" y="175.248">:SiteStratum</text><line style="stroke: #A80036; stroke-width: 1.5;" x1="1076" x2="1184" y1="187.0938" y2="187.0938"/><line style="stroke: #A80036; stroke-width: 1.5;" x1="1076" x2="1184" y1="195.0938" y2="195.0938"/></a><!--MD5=[3a2672805874e655d6e4cd0fc7e6c16f]
class :SiteTaxon--><a href="http://linked.data.gov.au/def/plot/SiteTaxon" target="_top" title="http://linked.data.gov.au/def/plot/SiteTaxon" xlink:actuate="onRequest" xlink:href="http://linked.data.gov.au/def/plot/SiteTaxon" xlink:show="new" xlink:title="http://linked.data.gov.au/def/plot/SiteTaxon" xlink:type="simple"><rect fill="#FEFECE" filter="url(#fbdve1td95bgo)" height="48" id=":SiteTaxon" style="stroke: #A80036; stroke-width: 1.5;" width="97" x="1402.5" y="155.0938"/><ellipse cx="1417.5" cy="171.0938" fill="#ADD1B2" rx="11" ry="11" style="stroke: #A80036; stroke-width: 1.0;"/><path d="M1419.8438,166.7656 L1420.0156,166.8438 C1420.2344,166.5313 1420.4375,166.4375 1420.7344,166.4375 C1421.0313,166.4375 1421.3125,166.5781 1421.4688,166.8438 C1421.5625,167 1421.5781,167.125 1421.5781,167.5625 L1421.5781,168.9844 C1421.5781,169.4063 1421.5469,169.5938 1421.4375,169.75 C1421.2656,169.9688 1421,170.1094 1420.7344,170.1094 C1420.5156,170.1094 1420.2813,170 1420.1406,169.8594 C1420,169.7344 1419.9688,169.6094 1419.9063,169.2031 C1419.8125,168.7969 1419.6406,168.5781 1419.1563,168.2969 C1418.6875,168.0469 1418.0781,167.8906 1417.5,167.8906 C1415.7656,167.8906 1414.5156,169.2031 1414.5156,170.9844 L1414.5156,172.0781 C1414.5156,173.7813 1415.8125,174.875 1417.8594,174.875 C1418.625,174.875 1419.3125,174.75 1419.7344,174.4844 C1419.9219,174.3906 1419.9219,174.3906 1420.375,173.9063 C1420.5625,173.7188 1420.7656,173.6406 1420.9844,173.6406 C1421.4531,173.6406 1421.8438,174.0313 1421.8438,174.4844 C1421.8438,174.875 1421.5156,175.3281 1420.9375,175.7344 C1420.1875,176.2813 1419.0313,176.5781 1417.8125,176.5781 C1414.9219,176.5781 1412.8125,174.6875 1412.8125,172.1094 L1412.8125,170.9844 C1412.8125,168.2656 1414.8125,166.1875 1417.4375,166.1875 C1418.3125,166.1875 1418.9063,166.3281 1419.8438,166.7656 Z "/><text fill="#000000" font-family="sans-serif" font-size="12" lengthAdjust="spacingAndGlyphs" textLength="65" x="1431.5" y="175.248">:SiteTaxon</text><line style="stroke: #A80036; stroke-width: 1.5;" x1="1403.5" x2="1498.5" y1="187.0938" y2="187.0938"/><line style="stroke: #A80036; stroke-width: 1.5;" x1="1403.5" x2="1498.5" y1="195.0938" y2="195.0938"/></a><!--MD5=[e26081150a54feee97befd454a48c707]
class skos:Concept--><rect fill="#FEFECE" filter="url(#fbdve1td95bgo)" height="48" id="skos:Concept" style="stroke: #A80036; stroke-width: 1.5;" width="117" x="1896.5" y="40.5938"/><ellipse cx="1911.5" cy="56.5938" fill="#ADD1B2" rx="11" ry="11" style="stroke: #A80036; stroke-width: 1.0;"/><path d="M1913.8438,52.2656 L1914.0156,52.3438 C1914.2344,52.0313 1914.4375,51.9375 1914.7344,51.9375 C1915.0313,51.9375 1915.3125,52.0781 1915.4688,52.3438 C1915.5625,52.5 1915.5781,52.625 1915.5781,53.0625 L1915.5781,54.4844 C1915.5781,54.9063 1915.5469,55.0938 1915.4375,55.25 C1915.2656,55.4688 1915,55.6094 1914.7344,55.6094 C1914.5156,55.6094 1914.2813,55.5 1914.1406,55.3594 C1914,55.2344 1913.9688,55.1094 1913.9063,54.7031 C1913.8125,54.2969 1913.6406,54.0781 1913.1563,53.7969 C1912.6875,53.5469 1912.0781,53.3906 1911.5,53.3906 C1909.7656,53.3906 1908.5156,54.7031 1908.5156,56.4844 L1908.5156,57.5781 C1908.5156,59.2813 1909.8125,60.375 1911.8594,60.375 C1912.625,60.375 1913.3125,60.25 1913.7344,59.9844 C1913.9219,59.8906 1913.9219,59.8906 1914.375,59.4063 C1914.5625,59.2188 1914.7656,59.1406 1914.9844,59.1406 C1915.4531,59.1406 1915.8438,59.5313 1915.8438,59.9844 C1915.8438,60.375 1915.5156,60.8281 1914.9375,61.2344 C1914.1875,61.7813 1913.0313,62.0781 1911.8125,62.0781 C1908.9219,62.0781 1906.8125,60.1875 1906.8125,57.6094 L1906.8125,56.4844 C1906.8125,53.7656 1908.8125,51.6875 1911.4375,51.6875 C1912.3125,51.6875 1912.9063,51.8281 1913.8438,52.2656 Z "/><text fill="#000000" font-family="sans-serif" font-size="12" lengthAdjust="spacingAndGlyphs" textLength="85" x="1925.5" y="60.748">skos:Concept</text><line style="stroke: #A80036; stroke-width: 1.5;" x1="1897.5" x2="2012.5" y1="72.5938" y2="72.5938"/><line style="stroke: #A80036; stroke-width: 1.5;" x1="1897.5" x2="2012.5" y1="80.5938" y2="80.5938"/><!--MD5=[8caf7ff1d4b6933ec1e0effa27d8a38d]
class :Stratum--><a href="http://linked.data.gov.au/def/plot/Stratum" target="_top" title="http://linked.data.gov.au/def/plot/Stratum" xlink:actuate="onRequest" xlink:href="http://linked.data.gov.au/def/plot/Stratum" xlink:show="new" xlink:title="http://linked.data.gov.au/def/plot/Stratum" xlink:type="simple"><rect fill="#FEFECE" filter="url(#fbdve1td95bgo)" height="48" id=":Stratum" style="stroke: #A80036; stroke-width: 1.5;" width="86" x="1912" y="155.0938"/><ellipse cx="1927" cy="171.0938" fill="#ADD1B2" rx="11" ry="11" style="stroke: #A80036; stroke-width: 1.0;"/><path d="M1929.3438,166.7656 L1929.5156,166.8438 C1929.7344,166.5313 1929.9375,166.4375 1930.2344,166.4375 C1930.5313,166.4375 1930.8125,166.5781 1930.9688,166.8438 C1931.0625,167 1931.0781,167.125 1931.0781,167.5625 L1931.0781,168.9844 C1931.0781,169.4063 1931.0469,169.5938 1930.9375,169.75 C1930.7656,169.9688 1930.5,170.1094 1930.2344,170.1094 C1930.0156,170.1094 1929.7813,170 1929.6406,169.8594 C1929.5,169.7344 1929.4688,169.6094 1929.4063,169.2031 C1929.3125,168.7969 1929.1406,168.5781 1928.6563,168.2969 C1928.1875,168.0469 1927.5781,167.8906 1927,167.8906 C1925.2656,167.8906 1924.0156,169.2031 1924.0156,170.9844 L1924.0156,172.0781 C1924.0156,173.7813 1925.3125,174.875 1927.3594,174.875 C1928.125,174.875 1928.8125,174.75 1929.2344,174.4844 C1929.4219,174.3906 1929.4219,174.3906 1929.875,173.9063 C1930.0625,173.7188 1930.2656,173.6406 1930.4844,173.6406 C1930.9531,173.6406 1931.3438,174.0313 1931.3438,174.4844 C1931.3438,174.875 1931.0156,175.3281 1930.4375,175.7344 C1929.6875,176.2813 1928.5313,176.5781 1927.3125,176.5781 C1924.4219,176.5781 1922.3125,174.6875 1922.3125,172.1094 L1922.3125,170.9844 C1922.3125,168.2656 1924.3125,166.1875 1926.9375,166.1875 C1927.8125,166.1875 1928.4063,166.3281 1929.3438,166.7656 Z "/><text fill="#000000" font-family="sans-serif" font-size="12" lengthAdjust="spacingAndGlyphs" textLength="54" x="1941" y="175.248">:Stratum</text><line style="stroke: #A80036; stroke-width: 1.5;" x1="1913" x2="1997" y1="187.0938" y2="187.0938"/><line style="stroke: #A80036; stroke-width: 1.5;" x1="1913" x2="1997" y1="195.0938" y2="195.0938"/></a><!--MD5=[9655ad61792b4ed0d4f91a9adcbf26fa]
class dct:Location--><rect fill="#FEFECE" filter="url(#fbdve1td95bgo)" height="48" id="dct:Location" style="stroke: #A80036; stroke-width: 1.5;" width="109" x="2048.5" y="40.5938"/><ellipse cx="2063.5" cy="56.5938" fill="#ADD1B2" rx="11" ry="11" style="stroke: #A80036; stroke-width: 1.0;"/><path d="M2065.8438,52.2656 L2066.0156,52.3438 C2066.2344,52.0313 2066.4375,51.9375 2066.7344,51.9375 C2067.0313,51.9375 2067.3125,52.0781 2067.4688,52.3438 C2067.5625,52.5 2067.5781,52.625 2067.5781,53.0625 L2067.5781,54.4844 C2067.5781,54.9063 2067.5469,55.0938 2067.4375,55.25 C2067.2656,55.4688 2067,55.6094 2066.7344,55.6094 C2066.5156,55.6094 2066.2813,55.5 2066.1406,55.3594 C2066,55.2344 2065.9688,55.1094 2065.9063,54.7031 C2065.8125,54.2969 2065.6406,54.0781 2065.1563,53.7969 C2064.6875,53.5469 2064.0781,53.3906 2063.5,53.3906 C2061.7656,53.3906 2060.5156,54.7031 2060.5156,56.4844 L2060.5156,57.5781 C2060.5156,59.2813 2061.8125,60.375 2063.8594,60.375 C2064.625,60.375 2065.3125,60.25 2065.7344,59.9844 C2065.9219,59.8906 2065.9219,59.8906 2066.375,59.4063 C2066.5625,59.2188 2066.7656,59.1406 2066.9844,59.1406 C2067.4531,59.1406 2067.8438,59.5313 2067.8438,59.9844 C2067.8438,60.375 2067.5156,60.8281 2066.9375,61.2344 C2066.1875,61.7813 2065.0313,62.0781 2063.8125,62.0781 C2060.9219,62.0781 2058.8125,60.1875 2058.8125,57.6094 L2058.8125,56.4844 C2058.8125,53.7656 2060.8125,51.6875 2063.4375,51.6875 C2064.3125,51.6875 2064.9063,51.8281 2065.8438,52.2656 Z "/><text fill="#000000" font-family="sans-serif" font-size="12" lengthAdjust="spacingAndGlyphs" textLength="77" x="2077.5" y="60.748">dct:Location</text><line style="stroke: #A80036; stroke-width: 1.5;" x1="2049.5" x2="2156.5" y1="72.5938" y2="72.5938"/><line style="stroke: #A80036; stroke-width: 1.5;" x1="2049.5" x2="2156.5" y1="80.5938" y2="80.5938"/><!--MD5=[0d2e18ac24d05bcb014024f64dd8f82f]
class :Location--><a href="http://linked.data.gov.au/def/plot/Location" target="_top" title="http://linked.data.gov.au/def/plot/Location" xlink:actuate="onRequest" xlink:href="http://linked.data.gov.au/def/plot/Location" xlink:show="new" xlink:title="http://linked.data.gov.au/def/plot/Location" xlink:type="simple"><rect fill="#FEFECE" filter="url(#fbdve1td95bgo)" height="48" id=":Location" style="stroke: #A80036; stroke-width: 1.5;" width="89" x="2058.5" y="155.0938"/><ellipse cx="2073.5" cy="171.0938" fill="#ADD1B2" rx="11" ry="11" style="stroke: #A80036; stroke-width: 1.0;"/><path d="M2075.8438,166.7656 L2076.0156,166.8438 C2076.2344,166.5313 2076.4375,166.4375 2076.7344,166.4375 C2077.0313,166.4375 2077.3125,166.5781 2077.4688,166.8438 C2077.5625,167 2077.5781,167.125 2077.5781,167.5625 L2077.5781,168.9844 C2077.5781,169.4063 2077.5469,169.5938 2077.4375,169.75 C2077.2656,169.9688 2077,170.1094 2076.7344,170.1094 C2076.5156,170.1094 2076.2813,170 2076.1406,169.8594 C2076,169.7344 2075.9688,169.6094 2075.9063,169.2031 C2075.8125,168.7969 2075.6406,168.5781 2075.1563,168.2969 C2074.6875,168.0469 2074.0781,167.8906 2073.5,167.8906 C2071.7656,167.8906 2070.5156,169.2031 2070.5156,170.9844 L2070.5156,172.0781 C2070.5156,173.7813 2071.8125,174.875 2073.8594,174.875 C2074.625,174.875 2075.3125,174.75 2075.7344,174.4844 C2075.9219,174.3906 2075.9219,174.3906 2076.375,173.9063 C2076.5625,173.7188 2076.7656,173.6406 2076.9844,173.6406 C2077.4531,173.6406 2077.8438,174.0313 2077.8438,174.4844 C2077.8438,174.875 2077.5156,175.3281 2076.9375,175.7344 C2076.1875,176.2813 2075.0313,176.5781 2073.8125,176.5781 C2070.9219,176.5781 2068.8125,174.6875 2068.8125,172.1094 L2068.8125,170.9844 C2068.8125,168.2656 2070.8125,166.1875 2073.4375,166.1875 C2074.3125,166.1875 2074.9063,166.3281 2075.8438,166.7656 Z "/><text fill="#000000" font-family="sans-serif" font-size="12" lengthAdjust="spacingAndGlyphs" textLength="57" x="2087.5" y="175.248">:Location</text><line style="stroke: #A80036; stroke-width: 1.5;" x1="2059.5" x2="2146.5" y1="187.0938" y2="187.0938"/><line style="stroke: #A80036; stroke-width: 1.5;" x1="2059.5" x2="2146.5" y1="195.0938" y2="195.0938"/></a><!--MD5=[05998431d8650f5302bbe94e4b45ca10]
class :SiteStratumTaxon--><a href="http://linked.data.gov.au/def/plot/SiteStratumTaxon" target="_top" title="http://linked.data.gov.au/def/plot/SiteStratumTaxon" xlink:actuate="onRequest" xlink:href="http://linked.data.gov.au/def/plot/SiteStratumTaxon" xlink:show="new" xlink:title="http://linked.data.gov.au/def/plot/SiteStratumTaxon" xlink:type="simple"><rect fill="#FEFECE" filter="url(#fbdve1td95bgo)" height="48" id=":SiteStratumTaxon" style="stroke: #A80036; stroke-width: 1.5;" width="147" x="1220.5" y="155.0938"/><ellipse cx="1235.5" cy="171.0938" fill="#ADD1B2" rx="11" ry="11" style="stroke: #A80036; stroke-width: 1.0;"/><path d="M1237.8438,166.7656 L1238.0156,166.8438 C1238.2344,166.5313 1238.4375,166.4375 1238.7344,166.4375 C1239.0313,166.4375 1239.3125,166.5781 1239.4688,166.8438 C1239.5625,167 1239.5781,167.125 1239.5781,167.5625 L1239.5781,168.9844 C1239.5781,169.4063 1239.5469,169.5938 1239.4375,169.75 C1239.2656,169.9688 1239,170.1094 1238.7344,170.1094 C1238.5156,170.1094 1238.2813,170 1238.1406,169.8594 C1238,169.7344 1237.9688,169.6094 1237.9063,169.2031 C1237.8125,168.7969 1237.6406,168.5781 1237.1563,168.2969 C1236.6875,168.0469 1236.0781,167.8906 1235.5,167.8906 C1233.7656,167.8906 1232.5156,169.2031 1232.5156,170.9844 L1232.5156,172.0781 C1232.5156,173.7813 1233.8125,174.875 1235.8594,174.875 C1236.625,174.875 1237.3125,174.75 1237.7344,174.4844 C1237.9219,174.3906 1237.9219,174.3906 1238.375,173.9063 C1238.5625,173.7188 1238.7656,173.6406 1238.9844,173.6406 C1239.4531,173.6406 1239.8438,174.0313 1239.8438,174.4844 C1239.8438,174.875 1239.5156,175.3281 1238.9375,175.7344 C1238.1875,176.2813 1237.0313,176.5781 1235.8125,176.5781 C1232.9219,176.5781 1230.8125,174.6875 1230.8125,172.1094 L1230.8125,170.9844 C1230.8125,168.2656 1232.8125,166.1875 1235.4375,166.1875 C1236.3125,166.1875 1236.9063,166.3281 1237.8438,166.7656 Z "/><text fill="#000000" font-family="sans-serif" font-size="12" lengthAdjust="spacingAndGlyphs" textLength="115" x="1249.5" y="175.248">:SiteStratumTaxon</text><line style="stroke: #A80036; stroke-width: 1.5;" x1="1221.5" x2="1366.5" y1="187.0938" y2="187.0938"/><line style="stroke: #A80036; stroke-width: 1.5;" x1="1221.5" x2="1366.5" y1="195.0938" y2="195.0938"/></a><!--MD5=[271020f0bd72f99a9c4b6587d81e43ae]
class :EnvironmentalContinuant--><a href="http://linked.data.gov.au/def/plot/x/EnvironmentalContinuant" target="_top" title="http://linked.data.gov.au/def/plot/x/EnvironmentalContinuant" xlink:actuate="onRequest" xlink:href="http://linked.data.gov.au/def/plot/x/EnvironmentalContinuant" xlink:show="new" xlink:title="http://linked.data.gov.au/def/plot/x/EnvironmentalContinuant" xlink:type="simple"><rect fill="#FEFECE" filter="url(#fbdve1td95bgo)" height="48" id=":EnvironmentalContinuant" style="stroke: #A80036; stroke-width: 1.5;" width="194" x="2319" y="155.0938"/><ellipse cx="2334" cy="171.0938" fill="#ADD1B2" rx="11" ry="11" style="stroke: #A80036; stroke-width: 1.0;"/><path d="M2336.3438,166.7656 L2336.5156,166.8438 C2336.7344,166.5313 2336.9375,166.4375 2337.2344,166.4375 C2337.5313,166.4375 2337.8125,166.5781 2337.9688,166.8438 C2338.0625,167 2338.0781,167.125 2338.0781,167.5625 L2338.0781,168.9844 C2338.0781,169.4063 2338.0469,169.5938 2337.9375,169.75 C2337.7656,169.9688 2337.5,170.1094 2337.2344,170.1094 C2337.0156,170.1094 2336.7813,170 2336.6406,169.8594 C2336.5,169.7344 2336.4688,169.6094 2336.4063,169.2031 C2336.3125,168.7969 2336.1406,168.5781 2335.6563,168.2969 C2335.1875,168.0469 2334.5781,167.8906 2334,167.8906 C2332.2656,167.8906 2331.0156,169.2031 2331.0156,170.9844 L2331.0156,172.0781 C2331.0156,173.7813 2332.3125,174.875 2334.3594,174.875 C2335.125,174.875 2335.8125,174.75 2336.2344,174.4844 C2336.4219,174.3906 2336.4219,174.3906 2336.875,173.9063 C2337.0625,173.7188 2337.2656,173.6406 2337.4844,173.6406 C2337.9531,173.6406 2338.3438,174.0313 2338.3438,174.4844 C2338.3438,174.875 2338.0156,175.3281 2337.4375,175.7344 C2336.6875,176.2813 2335.5313,176.5781 2334.3125,176.5781 C2331.4219,176.5781 2329.3125,174.6875 2329.3125,172.1094 L2329.3125,170.9844 C2329.3125,168.2656 2331.3125,166.1875 2333.9375,166.1875 C2334.8125,166.1875 2335.4063,166.3281 2336.3438,166.7656 Z "/><text fill="#000000" font-family="sans-serif" font-size="12" lengthAdjust="spacingAndGlyphs" textLength="162" x="2348" y="175.248">:EnvironmentalContinuant</text><line style="stroke: #A80036; stroke-width: 1.5;" x1="2320" x2="2512" y1="187.0938" y2="187.0938"/><line style="stroke: #A80036; stroke-width: 1.5;" x1="2320" x2="2512" y1="195.0938" y2="195.0938"/></a><!--MD5=[fc541faf7941394647775b46ff936e10]
class :EnvironmentalSystem--><a href="http://linked.data.gov.au/def/plot/x/EnvironmentalSystem" target="_top" title="http://linked.data.gov.au/def/plot/x/EnvironmentalSystem" xlink:actuate="onRequest" xlink:href="http://linked.data.gov.au/def/plot/x/EnvironmentalSystem" xlink:show="new" xlink:title="http://linked.data.gov.au/def/plot/x/EnvironmentalSystem" xlink:type="simple"><rect fill="#FEFECE" filter="url(#fbdve1td95bgo)" height="48" id=":EnvironmentalSystem" style="stroke: #A80036; stroke-width: 1.5;" width="170" x="2137" y="269.5938"/><ellipse cx="2152" cy="285.5938" fill="#ADD1B2" rx="11" ry="11" style="stroke: #A80036; stroke-width: 1.0;"/><path d="M2154.3438,281.2656 L2154.5156,281.3438 C2154.7344,281.0313 2154.9375,280.9375 2155.2344,280.9375 C2155.5313,280.9375 2155.8125,281.0781 2155.9688,281.3438 C2156.0625,281.5 2156.0781,281.625 2156.0781,282.0625 L2156.0781,283.4844 C2156.0781,283.9063 2156.0469,284.0938 2155.9375,284.25 C2155.7656,284.4688 2155.5,284.6094 2155.2344,284.6094 C2155.0156,284.6094 2154.7813,284.5 2154.6406,284.3594 C2154.5,284.2344 2154.4688,284.1094 2154.4063,283.7031 C2154.3125,283.2969 2154.1406,283.0781 2153.6563,282.7969 C2153.1875,282.5469 2152.5781,282.3906 2152,282.3906 C2150.2656,282.3906 2149.0156,283.7031 2149.0156,285.4844 L2149.0156,286.5781 C2149.0156,288.2813 2150.3125,289.375 2152.3594,289.375 C2153.125,289.375 2153.8125,289.25 2154.2344,288.9844 C2154.4219,288.8906 2154.4219,288.8906 2154.875,288.4063 C2155.0625,288.2188 2155.2656,288.1406 2155.4844,288.1406 C2155.9531,288.1406 2156.3438,288.5313 2156.3438,288.9844 C2156.3438,289.375 2156.0156,289.8281 2155.4375,290.2344 C2154.6875,290.7813 2153.5313,291.0781 2152.3125,291.0781 C2149.4219,291.0781 2147.3125,289.1875 2147.3125,286.6094 L2147.3125,285.4844 C2147.3125,282.7656 2149.3125,280.6875 2151.9375,280.6875 C2152.8125,280.6875 2153.4063,280.8281 2154.3438,281.2656 Z "/><text fill="#000000" font-family="sans-serif" font-size="12" lengthAdjust="spacingAndGlyphs" textLength="138" x="2166" y="289.748">:EnvironmentalSystem</text><line style="stroke: #A80036; stroke-width: 1.5;" x1="2138" x2="2306" y1="301.5938" y2="301.5938"/><line style="stroke: #A80036; stroke-width: 1.5;" x1="2138" x2="2306" y1="309.5938" y2="309.5938"/></a><!--MD5=[f071ecb23dbf121833784480fda18997]
class owl:Thing--><rect fill="#FEFECE" filter="url(#fbdve1td95bgo)" height="48" id="owl:Thing" style="stroke: #A80036; stroke-width: 1.5;" width="90" x="2183" y="155.0938"/><ellipse cx="2198" cy="171.0938" fill="#ADD1B2" rx="11" ry="11" style="stroke: #A80036; stroke-width: 1.0;"/><path d="M2200.3438,166.7656 L2200.5156,166.8438 C2200.7344,166.5313 2200.9375,166.4375 2201.2344,166.4375 C2201.5313,166.4375 2201.8125,166.5781 2201.9688,166.8438 C2202.0625,167 2202.0781,167.125 2202.0781,167.5625 L2202.0781,168.9844 C2202.0781,169.4063 2202.0469,169.5938 2201.9375,169.75 C2201.7656,169.9688 2201.5,170.1094 2201.2344,170.1094 C2201.0156,170.1094 2200.7813,170 2200.6406,169.8594 C2200.5,169.7344 2200.4688,169.6094 2200.4063,169.2031 C2200.3125,168.7969 2200.1406,168.5781 2199.6563,168.2969 C2199.1875,168.0469 2198.5781,167.8906 2198,167.8906 C2196.2656,167.8906 2195.0156,169.2031 2195.0156,170.9844 L2195.0156,172.0781 C2195.0156,173.7813 2196.3125,174.875 2198.3594,174.875 C2199.125,174.875 2199.8125,174.75 2200.2344,174.4844 C2200.4219,174.3906 2200.4219,174.3906 2200.875,173.9063 C2201.0625,173.7188 2201.2656,173.6406 2201.4844,173.6406 C2201.9531,173.6406 2202.3438,174.0313 2202.3438,174.4844 C2202.3438,174.875 2202.0156,175.3281 2201.4375,175.7344 C2200.6875,176.2813 2199.5313,176.5781 2198.3125,176.5781 C2195.4219,176.5781 2193.3125,174.6875 2193.3125,172.1094 L2193.3125,170.9844 C2193.3125,168.2656 2195.3125,166.1875 2197.9375,166.1875 C2198.8125,166.1875 2199.4063,166.3281 2200.3438,166.7656 Z "/><text fill="#000000" font-family="sans-serif" font-size="12" lengthAdjust="spacingAndGlyphs" textLength="58" x="2212" y="175.248">owl:Thing</text><line style="stroke: #A80036; stroke-width: 1.5;" x1="2184" x2="2272" y1="187.0938" y2="187.0938"/><line style="stroke: #A80036; stroke-width: 1.5;" x1="2184" x2="2272" y1="195.0938" y2="195.0938"/><!--MD5=[a7bef1571412352f70cef7962b9a3d10]
class :SiteVisit--><a href="http://linked.data.gov.au/def/plot/SiteVisit" target="_top" title="http://linked.data.gov.au/def/plot/SiteVisit" xlink:actuate="onRequest" xlink:href="http://linked.data.gov.au/def/plot/SiteVisit" xlink:show="new" xlink:title="http://linked.data.gov.au/def/plot/SiteVisit" xlink:type="simple"><rect fill="#FEFECE" filter="url(#fbdve1td95bgo)" height="48" id=":SiteVisit" style="stroke: #A80036; stroke-width: 1.5;" width="86" x="954" y="155.0938"/><ellipse cx="969" cy="171.0938" fill="#ADD1B2" rx="11" ry="11" style="stroke: #A80036; stroke-width: 1.0;"/><path d="M971.3438,166.7656 L971.5156,166.8438 C971.7344,166.5313 971.9375,166.4375 972.2344,166.4375 C972.5313,166.4375 972.8125,166.5781 972.9688,166.8438 C973.0625,167 973.0781,167.125 973.0781,167.5625 L973.0781,168.9844 C973.0781,169.4063 973.0469,169.5938 972.9375,169.75 C972.7656,169.9688 972.5,170.1094 972.2344,170.1094 C972.0156,170.1094 971.7813,170 971.6406,169.8594 C971.5,169.7344 971.4688,169.6094 971.4063,169.2031 C971.3125,168.7969 971.1406,168.5781 970.6563,168.2969 C970.1875,168.0469 969.5781,167.8906 969,167.8906 C967.2656,167.8906 966.0156,169.2031 966.0156,170.9844 L966.0156,172.0781 C966.0156,173.7813 967.3125,174.875 969.3594,174.875 C970.125,174.875 970.8125,174.75 971.2344,174.4844 C971.4219,174.3906 971.4219,174.3906 971.875,173.9063 C972.0625,173.7188 972.2656,173.6406 972.4844,173.6406 C972.9531,173.6406 973.3438,174.0313 973.3438,174.4844 C973.3438,174.875 973.0156,175.3281 972.4375,175.7344 C971.6875,176.2813 970.5313,176.5781 969.3125,176.5781 C966.4219,176.5781 964.3125,174.6875 964.3125,172.1094 L964.3125,170.9844 C964.3125,168.2656 966.3125,166.1875 968.9375,166.1875 C969.8125,166.1875 970.4063,166.3281 971.3438,166.7656 Z "/><text fill="#000000" font-family="sans-serif" font-size="12" lengthAdjust="spacingAndGlyphs" textLength="54" x="983" y="175.248">:SiteVisit</text><line style="stroke: #A80036; stroke-width: 1.5;" x1="955" x2="1039" y1="187.0938" y2="187.0938"/><line style="stroke: #A80036; stroke-width: 1.5;" x1="955" x2="1039" y1="195.0938" y2="195.0938"/></a><!--MD5=[cb944c6968791c6d805c849a01519e07]
class sosa:FeatureOfInterest--><rect fill="#FEFECE" filter="url(#fbdve1td95bgo)" height="48" id="sosa:FeatureOfInterest" style="stroke: #A80036; stroke-width: 1.5;" width="177" x="2327.5" y="40.5938"/><ellipse cx="2342.5" cy="56.5938" fill="#ADD1B2" rx="11" ry="11" style="stroke: #A80036; stroke-width: 1.0;"/><path d="M2344.8438,52.2656 L2345.0156,52.3438 C2345.2344,52.0313 2345.4375,51.9375 2345.7344,51.9375 C2346.0313,51.9375 2346.3125,52.0781 2346.4688,52.3438 C2346.5625,52.5 2346.5781,52.625 2346.5781,53.0625 L2346.5781,54.4844 C2346.5781,54.9063 2346.5469,55.0938 2346.4375,55.25 C2346.2656,55.4688 2346,55.6094 2345.7344,55.6094 C2345.5156,55.6094 2345.2813,55.5 2345.1406,55.3594 C2345,55.2344 2344.9688,55.1094 2344.9063,54.7031 C2344.8125,54.2969 2344.6406,54.0781 2344.1563,53.7969 C2343.6875,53.5469 2343.0781,53.3906 2342.5,53.3906 C2340.7656,53.3906 2339.5156,54.7031 2339.5156,56.4844 L2339.5156,57.5781 C2339.5156,59.2813 2340.8125,60.375 2342.8594,60.375 C2343.625,60.375 2344.3125,60.25 2344.7344,59.9844 C2344.9219,59.8906 2344.9219,59.8906 2345.375,59.4063 C2345.5625,59.2188 2345.7656,59.1406 2345.9844,59.1406 C2346.4531,59.1406 2346.8438,59.5313 2346.8438,59.9844 C2346.8438,60.375 2346.5156,60.8281 2345.9375,61.2344 C2345.1875,61.7813 2344.0313,62.0781 2342.8125,62.0781 C2339.9219,62.0781 2337.8125,60.1875 2337.8125,57.6094 L2337.8125,56.4844 C2337.8125,53.7656 2339.8125,51.6875 2342.4375,51.6875 C2343.3125,51.6875 2343.9063,51.8281 2344.8438,52.2656 Z "/><text fill="#000000" font-family="sans-serif" font-size="12" lengthAdjust="spacingAndGlyphs" textLength="145" x="2356.5" y="60.748">sosa:FeatureOfInterest</text><line style="stroke: #A80036; stroke-width: 1.5;" x1="2328.5" x2="2503.5" y1="72.5938" y2="72.5938"/><line style="stroke: #A80036; stroke-width: 1.5;" x1="2328.5" x2="2503.5" y1="80.5938" y2="80.5938"/><!--MD5=[f6742dd3b18cea425fa567171347bcdd]
class :EcologicalCommunity--><a href="http://linked.data.gov.au/def/plot/x/EcologicalCommunity" target="_top" title="http://linked.data.gov.au/def/plot/x/EcologicalCommunity" xlink:actuate="onRequest" xlink:href="http://linked.data.gov.au/def/plot/x/EcologicalCommunity" xlink:show="new" xlink:title="http://linked.data.gov.au/def/plot/x/EcologicalCommunity" xlink:type="simple"><rect fill="#FEFECE" filter="url(#fbdve1td95bgo)" height="48" id=":EcologicalCommunity" style="stroke: #A80036; stroke-width: 1.5;" width="167" x="2138.5" y="377.5938"/><ellipse cx="2153.5" cy="393.5938" fill="#ADD1B2" rx="11" ry="11" style="stroke: #A80036; stroke-width: 1.0;"/><path d="M2155.8438,389.2656 L2156.0156,389.3438 C2156.2344,389.0313 2156.4375,388.9375 2156.7344,388.9375 C2157.0313,388.9375 2157.3125,389.0781 2157.4688,389.3438 C2157.5625,389.5 2157.5781,389.625 2157.5781,390.0625 L2157.5781,391.4844 C2157.5781,391.9063 2157.5469,392.0938 2157.4375,392.25 C2157.2656,392.4688 2157,392.6094 2156.7344,392.6094 C2156.5156,392.6094 2156.2813,392.5 2156.1406,392.3594 C2156,392.2344 2155.9688,392.1094 2155.9063,391.7031 C2155.8125,391.2969 2155.6406,391.0781 2155.1563,390.7969 C2154.6875,390.5469 2154.0781,390.3906 2153.5,390.3906 C2151.7656,390.3906 2150.5156,391.7031 2150.5156,393.4844 L2150.5156,394.5781 C2150.5156,396.2813 2151.8125,397.375 2153.8594,397.375 C2154.625,397.375 2155.3125,397.25 2155.7344,396.9844 C2155.9219,396.8906 2155.9219,396.8906 2156.375,396.4063 C2156.5625,396.2188 2156.7656,396.1406 2156.9844,396.1406 C2157.4531,396.1406 2157.8438,396.5313 2157.8438,396.9844 C2157.8438,397.375 2157.5156,397.8281 2156.9375,398.2344 C2156.1875,398.7813 2155.0313,399.0781 2153.8125,399.0781 C2150.9219,399.0781 2148.8125,397.1875 2148.8125,394.6094 L2148.8125,393.4844 C2148.8125,390.7656 2150.8125,388.6875 2153.4375,388.6875 C2154.3125,388.6875 2154.9063,388.8281 2155.8438,389.2656 Z "/><text fill="#000000" font-family="sans-serif" font-size="12" lengthAdjust="spacingAndGlyphs" textLength="135" x="2167.5" y="397.748">:EcologicalCommunity</text><line style="stroke: #A80036; stroke-width: 1.5;" x1="2139.5" x2="2304.5" y1="409.5938" y2="409.5938"/><line style="stroke: #A80036; stroke-width: 1.5;" x1="2139.5" x2="2304.5" y1="417.5938" y2="417.5938"/></a><!--MD5=[f6b9b747f08f3018e39ed94054dbb971]
class :Assemblage--><a href="http://linked.data.gov.au/def/plot/x/Assemblage" target="_top" title="http://linked.data.gov.au/def/plot/x/Assemblage" xlink:actuate="onRequest" xlink:href="http://linked.data.gov.au/def/plot/x/Assemblage" xlink:show="new" xlink:title="http://linked.data.gov.au/def/plot/x/Assemblage" xlink:type="simple"><rect fill="#FEFECE" filter="url(#fbdve1td95bgo)" height="48" id=":Assemblage" style="stroke: #A80036; stroke-width: 1.5;" width="112" x="2166" y="485.5938"/><ellipse cx="2181" cy="501.5938" fill="#ADD1B2" rx="11" ry="11" style="stroke: #A80036; stroke-width: 1.0;"/><path d="M2183.3438,497.2656 L2183.5156,497.3438 C2183.7344,497.0313 2183.9375,496.9375 2184.2344,496.9375 C2184.5313,496.9375 2184.8125,497.0781 2184.9688,497.3438 C2185.0625,497.5 2185.0781,497.625 2185.0781,498.0625 L2185.0781,499.4844 C2185.0781,499.9063 2185.0469,500.0938 2184.9375,500.25 C2184.7656,500.4688 2184.5,500.6094 2184.2344,500.6094 C2184.0156,500.6094 2183.7813,500.5 2183.6406,500.3594 C2183.5,500.2344 2183.4688,500.1094 2183.4063,499.7031 C2183.3125,499.2969 2183.1406,499.0781 2182.6563,498.7969 C2182.1875,498.5469 2181.5781,498.3906 2181,498.3906 C2179.2656,498.3906 2178.0156,499.7031 2178.0156,501.4844 L2178.0156,502.5781 C2178.0156,504.2813 2179.3125,505.375 2181.3594,505.375 C2182.125,505.375 2182.8125,505.25 2183.2344,504.9844 C2183.4219,504.8906 2183.4219,504.8906 2183.875,504.4063 C2184.0625,504.2188 2184.2656,504.1406 2184.4844,504.1406 C2184.9531,504.1406 2185.3438,504.5313 2185.3438,504.9844 C2185.3438,505.375 2185.0156,505.8281 2184.4375,506.2344 C2183.6875,506.7813 2182.5313,507.0781 2181.3125,507.0781 C2178.4219,507.0781 2176.3125,505.1875 2176.3125,502.6094 L2176.3125,501.4844 C2176.3125,498.7656 2178.3125,496.6875 2180.9375,496.6875 C2181.8125,496.6875 2182.4063,496.8281 2183.3438,497.2656 Z "/><text fill="#000000" font-family="sans-serif" font-size="12" lengthAdjust="spacingAndGlyphs" textLength="80" x="2195" y="505.748">:Assemblage</text><line style="stroke: #A80036; stroke-width: 1.5;" x1="2167" x2="2277" y1="517.5938" y2="517.5938"/><line style="stroke: #A80036; stroke-width: 1.5;" x1="2167" x2="2277" y1="525.5938" y2="525.5938"/></a><!--MD5=[313751d88e530a9b19b67ace9347529e]
class :EnvironmentalZone--><a href="http://linked.data.gov.au/def/plot/x/EnvironmentalZone" target="_top" title="http://linked.data.gov.au/def/plot/x/EnvironmentalZone" xlink:actuate="onRequest" xlink:href="http://linked.data.gov.au/def/plot/x/EnvironmentalZone" xlink:show="new" xlink:title="http://linked.data.gov.au/def/plot/x/EnvironmentalZone" xlink:type="simple"><rect fill="#FEFECE" filter="url(#fbdve1td95bgo)" height="48" id=":EnvironmentalZone" style="stroke: #A80036; stroke-width: 1.5;" width="158" x="2342" y="269.5938"/><ellipse cx="2357" cy="285.5938" fill="#ADD1B2" rx="11" ry="11" style="stroke: #A80036; stroke-width: 1.0;"/><path d="M2359.3438,281.2656 L2359.5156,281.3438 C2359.7344,281.0313 2359.9375,280.9375 2360.2344,280.9375 C2360.5313,280.9375 2360.8125,281.0781 2360.9688,281.3438 C2361.0625,281.5 2361.0781,281.625 2361.0781,282.0625 L2361.0781,283.4844 C2361.0781,283.9063 2361.0469,284.0938 2360.9375,284.25 C2360.7656,284.4688 2360.5,284.6094 2360.2344,284.6094 C2360.0156,284.6094 2359.7813,284.5 2359.6406,284.3594 C2359.5,284.2344 2359.4688,284.1094 2359.4063,283.7031 C2359.3125,283.2969 2359.1406,283.0781 2358.6563,282.7969 C2358.1875,282.5469 2357.5781,282.3906 2357,282.3906 C2355.2656,282.3906 2354.0156,283.7031 2354.0156,285.4844 L2354.0156,286.5781 C2354.0156,288.2813 2355.3125,289.375 2357.3594,289.375 C2358.125,289.375 2358.8125,289.25 2359.2344,288.9844 C2359.4219,288.8906 2359.4219,288.8906 2359.875,288.4063 C2360.0625,288.2188 2360.2656,288.1406 2360.4844,288.1406 C2360.9531,288.1406 2361.3438,288.5313 2361.3438,288.9844 C2361.3438,289.375 2361.0156,289.8281 2360.4375,290.2344 C2359.6875,290.7813 2358.5313,291.0781 2357.3125,291.0781 C2354.4219,291.0781 2352.3125,289.1875 2352.3125,286.6094 L2352.3125,285.4844 C2352.3125,282.7656 2354.3125,280.6875 2356.9375,280.6875 C2357.8125,280.6875 2358.4063,280.8281 2359.3438,281.2656 Z "/><text fill="#000000" font-family="sans-serif" font-size="12" lengthAdjust="spacingAndGlyphs" textLength="126" x="2371" y="289.748">:EnvironmentalZone</text><line style="stroke: #A80036; stroke-width: 1.5;" x1="2343" x2="2499" y1="301.5938" y2="301.5938"/><line style="stroke: #A80036; stroke-width: 1.5;" x1="2343" x2="2499" y1="309.5938" y2="309.5938"/></a><!--MD5=[0f25cf74e97785200e99d5888124f2b2]
class :ub1bL149C26--><a href="ub1bL149C26" target="_top" title="ub1bL149C26" xlink:actuate="onRequest" xlink:href="ub1bL149C26" xlink:show="new" xlink:title="ub1bL149C26" xlink:type="simple"><rect fill="#FEFECE" filter="url(#fbdve1td95bgo)" height="48" id=":ub1bL149C26" style="stroke: #A80036; stroke-width: 1.5;" width="122" x="6" y="40.5938"/><ellipse cx="21" cy="56.5938" fill="#ADD1B2" rx="11" ry="11" style="stroke: #A80036; stroke-width: 1.0;"/><path d="M23.3438,52.2656 L23.5156,52.3438 C23.7344,52.0313 23.9375,51.9375 24.2344,51.9375 C24.5313,51.9375 24.8125,52.0781 24.9688,52.3438 C25.0625,52.5 25.0781,52.625 25.0781,53.0625 L25.0781,54.4844 C25.0781,54.9063 25.0469,55.0938 24.9375,55.25 C24.7656,55.4688 24.5,55.6094 24.2344,55.6094 C24.0156,55.6094 23.7813,55.5 23.6406,55.3594 C23.5,55.2344 23.4688,55.1094 23.4063,54.7031 C23.3125,54.2969 23.1406,54.0781 22.6563,53.7969 C22.1875,53.5469 21.5781,53.3906 21,53.3906 C19.2656,53.3906 18.0156,54.7031 18.0156,56.4844 L18.0156,57.5781 C18.0156,59.2813 19.3125,60.375 21.3594,60.375 C22.125,60.375 22.8125,60.25 23.2344,59.9844 C23.4219,59.8906 23.4219,59.8906 23.875,59.4063 C24.0625,59.2188 24.2656,59.1406 24.4844,59.1406 C24.9531,59.1406 25.3438,59.5313 25.3438,59.9844 C25.3438,60.375 25.0156,60.8281 24.4375,61.2344 C23.6875,61.7813 22.5313,62.0781 21.3125,62.0781 C18.4219,62.0781 16.3125,60.1875 16.3125,57.6094 L16.3125,56.4844 C16.3125,53.7656 18.3125,51.6875 20.9375,51.6875 C21.8125,51.6875 22.4063,51.8281 23.3438,52.2656 Z "/><text fill="#000000" font-family="sans-serif" font-size="12" lengthAdjust="spacingAndGlyphs" textLength="90" x="35" y="60.748">:ub1bL149C26</text><line style="stroke: #A80036; stroke-width: 1.5;" x1="7" x2="127" y1="72.5938" y2="72.5938"/><line style="stroke: #A80036; stroke-width: 1.5;" x1="7" x2="127" y1="80.5938" y2="80.5938"/></a><!--MD5=[64b2c2f1abdedb6345a6d1a18b1806eb]
class :ub1bL494C15--><a href="ub1bL494C15" target="_top" title="ub1bL494C15" xlink:actuate="onRequest" xlink:href="ub1bL494C15" xlink:show="new" xlink:title="ub1bL494C15" xlink:type="simple"><rect fill="#FEFECE" filter="url(#fbdve1td95bgo)" height="48" id=":ub1bL494C15" style="stroke: #A80036; stroke-width: 1.5;" width="122" x="163" y="40.5938"/><ellipse cx="178" cy="56.5938" fill="#ADD1B2" rx="11" ry="11" style="stroke: #A80036; stroke-width: 1.0;"/><path d="M180.3438,52.2656 L180.5156,52.3438 C180.7344,52.0313 180.9375,51.9375 181.2344,51.9375 C181.5313,51.9375 181.8125,52.0781 181.9688,52.3438 C182.0625,52.5 182.0781,52.625 182.0781,53.0625 L182.0781,54.4844 C182.0781,54.9063 182.0469,55.0938 181.9375,55.25 C181.7656,55.4688 181.5,55.6094 181.2344,55.6094 C181.0156,55.6094 180.7813,55.5 180.6406,55.3594 C180.5,55.2344 180.4688,55.1094 180.4063,54.7031 C180.3125,54.2969 180.1406,54.0781 179.6563,53.7969 C179.1875,53.5469 178.5781,53.3906 178,53.3906 C176.2656,53.3906 175.0156,54.7031 175.0156,56.4844 L175.0156,57.5781 C175.0156,59.2813 176.3125,60.375 178.3594,60.375 C179.125,60.375 179.8125,60.25 180.2344,59.9844 C180.4219,59.8906 180.4219,59.8906 180.875,59.4063 C181.0625,59.2188 181.2656,59.1406 181.4844,59.1406 C181.9531,59.1406 182.3438,59.5313 182.3438,59.9844 C182.3438,60.375 182.0156,60.8281 181.4375,61.2344 C180.6875,61.7813 179.5313,62.0781 178.3125,62.0781 C175.4219,62.0781 173.3125,60.1875 173.3125,57.6094 L173.3125,56.4844 C173.3125,53.7656 175.3125,51.6875 177.9375,51.6875 C178.8125,51.6875 179.4063,51.8281 180.3438,52.2656 Z "/><text fill="#000000" font-family="sans-serif" font-size="12" lengthAdjust="spacingAndGlyphs" textLength="90" x="192" y="60.748">:ub1bL494C15</text><line style="stroke: #A80036; stroke-width: 1.5;" x1="164" x2="284" y1="72.5938" y2="72.5938"/><line style="stroke: #A80036; stroke-width: 1.5;" x1="164" x2="284" y1="80.5938" y2="80.5938"/></a><!--MD5=[d39fc9acfb97eea5012d0a1ecfd76de8]
class :ub1bL307C26--><a href="ub1bL307C26" target="_top" title="ub1bL307C26" xlink:actuate="onRequest" xlink:href="ub1bL307C26" xlink:show="new" xlink:title="ub1bL307C26" xlink:type="simple"><rect fill="#FEFECE" filter="url(#fbdve1td95bgo)" height="48" id=":ub1bL307C26" style="stroke: #A80036; stroke-width: 1.5;" width="122" x="320" y="40.5938"/><ellipse cx="335" cy="56.5938" fill="#ADD1B2" rx="11" ry="11" style="stroke: #A80036; stroke-width: 1.0;"/><path d="M337.3438,52.2656 L337.5156,52.3438 C337.7344,52.0313 337.9375,51.9375 338.2344,51.9375 C338.5313,51.9375 338.8125,52.0781 338.9688,52.3438 C339.0625,52.5 339.0781,52.625 339.0781,53.0625 L339.0781,54.4844 C339.0781,54.9063 339.0469,55.0938 338.9375,55.25 C338.7656,55.4688 338.5,55.6094 338.2344,55.6094 C338.0156,55.6094 337.7813,55.5 337.6406,55.3594 C337.5,55.2344 337.4688,55.1094 337.4063,54.7031 C337.3125,54.2969 337.1406,54.0781 336.6563,53.7969 C336.1875,53.5469 335.5781,53.3906 335,53.3906 C333.2656,53.3906 332.0156,54.7031 332.0156,56.4844 L332.0156,57.5781 C332.0156,59.2813 333.3125,60.375 335.3594,60.375 C336.125,60.375 336.8125,60.25 337.2344,59.9844 C337.4219,59.8906 337.4219,59.8906 337.875,59.4063 C338.0625,59.2188 338.2656,59.1406 338.4844,59.1406 C338.9531,59.1406 339.3438,59.5313 339.3438,59.9844 C339.3438,60.375 339.0156,60.8281 338.4375,61.2344 C337.6875,61.7813 336.5313,62.0781 335.3125,62.0781 C332.4219,62.0781 330.3125,60.1875 330.3125,57.6094 L330.3125,56.4844 C330.3125,53.7656 332.3125,51.6875 334.9375,51.6875 C335.8125,51.6875 336.4063,51.8281 337.3438,52.2656 Z "/><text fill="#000000" font-family="sans-serif" font-size="12" lengthAdjust="spacingAndGlyphs" textLength="90" x="349" y="60.748">:ub1bL307C26</text><line style="stroke: #A80036; stroke-width: 1.5;" x1="321" x2="441" y1="72.5938" y2="72.5938"/><line style="stroke: #A80036; stroke-width: 1.5;" x1="321" x2="441" y1="80.5938" y2="80.5938"/></a><!--MD5=[ac45ecb4fe0054274f018135938a801d]
class :ub1bL554C23--><a href="ub1bL554C23" target="_top" title="ub1bL554C23" xlink:actuate="onRequest" xlink:href="ub1bL554C23" xlink:show="new" xlink:title="ub1bL554C23" xlink:type="simple"><rect fill="#FEFECE" filter="url(#fbdve1td95bgo)" height="48" id=":ub1bL554C23" style="stroke: #A80036; stroke-width: 1.5;" width="122" x="6" y="155.0938"/><ellipse cx="21" cy="171.0938" fill="#ADD1B2" rx="11" ry="11" style="stroke: #A80036; stroke-width: 1.0;"/><path d="M23.3438,166.7656 L23.5156,166.8438 C23.7344,166.5313 23.9375,166.4375 24.2344,166.4375 C24.5313,166.4375 24.8125,166.5781 24.9688,166.8438 C25.0625,167 25.0781,167.125 25.0781,167.5625 L25.0781,168.9844 C25.0781,169.4063 25.0469,169.5938 24.9375,169.75 C24.7656,169.9688 24.5,170.1094 24.2344,170.1094 C24.0156,170.1094 23.7813,170 23.6406,169.8594 C23.5,169.7344 23.4688,169.6094 23.4063,169.2031 C23.3125,168.7969 23.1406,168.5781 22.6563,168.2969 C22.1875,168.0469 21.5781,167.8906 21,167.8906 C19.2656,167.8906 18.0156,169.2031 18.0156,170.9844 L18.0156,172.0781 C18.0156,173.7813 19.3125,174.875 21.3594,174.875 C22.125,174.875 22.8125,174.75 23.2344,174.4844 C23.4219,174.3906 23.4219,174.3906 23.875,173.9063 C24.0625,173.7188 24.2656,173.6406 24.4844,173.6406 C24.9531,173.6406 25.3438,174.0313 25.3438,174.4844 C25.3438,174.875 25.0156,175.3281 24.4375,175.7344 C23.6875,176.2813 22.5313,176.5781 21.3125,176.5781 C18.4219,176.5781 16.3125,174.6875 16.3125,172.1094 L16.3125,170.9844 C16.3125,168.2656 18.3125,166.1875 20.9375,166.1875 C21.8125,166.1875 22.4063,166.3281 23.3438,166.7656 Z "/><text fill="#000000" font-family="sans-serif" font-size="12" lengthAdjust="spacingAndGlyphs" textLength="90" x="35" y="175.248">:ub1bL554C23</text><line style="stroke: #A80036; stroke-width: 1.5;" x1="7" x2="127" y1="187.0938" y2="187.0938"/><line style="stroke: #A80036; stroke-width: 1.5;" x1="7" x2="127" y1="195.0938" y2="195.0938"/></a><!--MD5=[a2628b293a9723f47390e4c57545d1ae]
class :ub1bL571C15--><a href="ub1bL571C15" target="_top" title="ub1bL571C15" xlink:actuate="onRequest" xlink:href="ub1bL571C15" xlink:show="new" xlink:title="ub1bL571C15" xlink:type="simple"><rect fill="#FEFECE" filter="url(#fbdve1td95bgo)" height="60.8047" id=":ub1bL571C15" style="stroke: #A80036; stroke-width: 1.5;" width="225" x="163.5" y="148.5938"/><ellipse cx="226.75" cy="164.5938" fill="#ADD1B2" rx="11" ry="11" style="stroke: #A80036; stroke-width: 1.0;"/><path d="M229.0938,160.2656 L229.2656,160.3438 C229.4844,160.0313 229.6875,159.9375 229.9844,159.9375 C230.2813,159.9375 230.5625,160.0781 230.7188,160.3438 C230.8125,160.5 230.8281,160.625 230.8281,161.0625 L230.8281,162.4844 C230.8281,162.9063 230.7969,163.0938 230.6875,163.25 C230.5156,163.4688 230.25,163.6094 229.9844,163.6094 C229.7656,163.6094 229.5313,163.5 229.3906,163.3594 C229.25,163.2344 229.2188,163.1094 229.1563,162.7031 C229.0625,162.2969 228.8906,162.0781 228.4063,161.7969 C227.9375,161.5469 227.3281,161.3906 226.75,161.3906 C225.0156,161.3906 223.7656,162.7031 223.7656,164.4844 L223.7656,165.5781 C223.7656,167.2813 225.0625,168.375 227.1094,168.375 C227.875,168.375 228.5625,168.25 228.9844,167.9844 C229.1719,167.8906 229.1719,167.8906 229.625,167.4063 C229.8125,167.2188 230.0156,167.1406 230.2344,167.1406 C230.7031,167.1406 231.0938,167.5313 231.0938,167.9844 C231.0938,168.375 230.7656,168.8281 230.1875,169.2344 C229.4375,169.7813 228.2813,170.0781 227.0625,170.0781 C224.1719,170.0781 222.0625,168.1875 222.0625,165.6094 L222.0625,164.4844 C222.0625,161.7656 224.0625,159.6875 226.6875,159.6875 C227.5625,159.6875 228.1563,159.8281 229.0938,160.2656 Z "/><text fill="#000000" font-family="sans-serif" font-size="12" lengthAdjust="spacingAndGlyphs" textLength="90" x="247.25" y="168.748">:ub1bL571C15</text><line style="stroke: #A80036; stroke-width: 1.5;" x1="164.5" x2="387.5" y1="180.5938" y2="180.5938"/></a><a href="http://www.w3.org/ns/ssn/ext/isMemberOf" target="_top" title="http://www.w3.org/ns/ssn/ext/isMemberOf" xlink:actuate="onRequest" xlink:href="http://www.w3.org/ns/ssn/ext/isMemberOf" xlink:show="new" xlink:title="http://www.w3.org/ns/ssn/ext/isMemberOf" xlink:type="simple"><text fill="#0000FF" font-family="sans-serif" font-size="11" lengthAdjust="spacingAndGlyphs" text-decoration="underline" textLength="73" x="169.5" y="194.8042">:isMemberOf</text></a><text fill="#000000" font-family="sans-serif" font-size="11" lengthAdjust="spacingAndGlyphs" textLength="4" x="246.5" y="194.8042">:</text><a href="http://www.w3.org/ns/ssn/ext/ObservationCollection" target="_top" title="http://www.w3.org/ns/ssn/ext/ObservationCollection" xlink:actuate="onRequest" xlink:href="http://www.w3.org/ns/ssn/ext/ObservationCollection" xlink:show="new" xlink:title="http://www.w3.org/ns/ssn/ext/ObservationCollection" xlink:type="simple"><text fill="#0000FF" font-family="sans-serif" font-size="11" lengthAdjust="spacingAndGlyphs" text-decoration="underline" textLength="128" x="254.5" y="194.8042">:ObservationCollection</text></a><line style="stroke: #A80036; stroke-width: 1.5;" x1="164.5" x2="387.5" y1="201.3984" y2="201.3984"/><!--MD5=[6be681d58cb9eb648eb2301dc577ad8b]
class dwc:Occurrence--><rect fill="#FEFECE" filter="url(#fbdve1td95bgo)" height="48" id="dwc:Occurrence" style="stroke: #A80036; stroke-width: 1.5;" width="132" x="1729" y="40.5938"/><ellipse cx="1744" cy="56.5938" fill="#ADD1B2" rx="11" ry="11" style="stroke: #A80036; stroke-width: 1.0;"/><path d="M1746.3438,52.2656 L1746.5156,52.3438 C1746.7344,52.0313 1746.9375,51.9375 1747.2344,51.9375 C1747.5313,51.9375 1747.8125,52.0781 1747.9688,52.3438 C1748.0625,52.5 1748.0781,52.625 1748.0781,53.0625 L1748.0781,54.4844 C1748.0781,54.9063 1748.0469,55.0938 1747.9375,55.25 C1747.7656,55.4688 1747.5,55.6094 1747.2344,55.6094 C1747.0156,55.6094 1746.7813,55.5 1746.6406,55.3594 C1746.5,55.2344 1746.4688,55.1094 1746.4063,54.7031 C1746.3125,54.2969 1746.1406,54.0781 1745.6563,53.7969 C1745.1875,53.5469 1744.5781,53.3906 1744,53.3906 C1742.2656,53.3906 1741.0156,54.7031 1741.0156,56.4844 L1741.0156,57.5781 C1741.0156,59.2813 1742.3125,60.375 1744.3594,60.375 C1745.125,60.375 1745.8125,60.25 1746.2344,59.9844 C1746.4219,59.8906 1746.4219,59.8906 1746.875,59.4063 C1747.0625,59.2188 1747.2656,59.1406 1747.4844,59.1406 C1747.9531,59.1406 1748.3438,59.5313 1748.3438,59.9844 C1748.3438,60.375 1748.0156,60.8281 1747.4375,61.2344 C1746.6875,61.7813 1745.5313,62.0781 1744.3125,62.0781 C1741.4219,62.0781 1739.3125,60.1875 1739.3125,57.6094 L1739.3125,56.4844 C1739.3125,53.7656 1741.3125,51.6875 1743.9375,51.6875 C1744.8125,51.6875 1745.4063,51.8281 1746.3438,52.2656 Z "/><text fill="#000000" font-family="sans-serif" font-size="12" lengthAdjust="spacingAndGlyphs" textLength="100" x="1758" y="60.748">dwc:Occurrence</text><line style="stroke: #A80036; stroke-width: 1.5;" x1="1730" x2="1860" y1="72.5938" y2="72.5938"/><line style="stroke: #A80036; stroke-width: 1.5;" x1="1730" x2="1860" y1="80.5938" y2="80.5938"/><!--MD5=[b868cf3775c856207f62f10252ac689d]
reverse link sosa:Platform to :FluxTower--><path d="M536,108.7387 C536,124.5138 536,141.7458 536,155.0868 " fill="none" id="sosa:Platform&lt;-:FluxTower" style="stroke: #A80036; stroke-width: 1.0;"/><polygon fill="none" points="529,108.6318,536,88.6318,543,108.6307,529,108.6318" style="stroke: #A80036; stroke-width: 1.0;"/><!--MD5=[00eea72691b1165f8f067d3db328fbe4]
reverse link sosa:Observation to :TaxonAssignment--><path d="M701,108.7387 C701,124.5138 701,141.7458 701,155.0868 " fill="none" id="sosa:Observation&lt;-:TaxonAssignment" style="stroke: #A80036; stroke-width: 1.0;"/><polygon fill="none" points="694,108.6318,701,88.6318,708,108.6307,694,108.6318" style="stroke: #A80036; stroke-width: 1.0;"/><!--MD5=[c23c54f56d1ecb3574b631f735680183]
reverse link prov:Activity to :Survey--><path d="M899.957,107.9328 C895.408,123.9258 890.404,141.5188 886.544,155.0868 " fill="none" id="prov:Activity&lt;-:Survey" style="stroke: #A80036; stroke-width: 1.0;"/><polygon fill="none" points="893.242,105.9527,905.447,88.6318,906.708,109.7838,893.242,105.9527" style="stroke: #A80036; stroke-width: 1.0;"/><!--MD5=[f9754e33c03ec009aca8f871ad818b23]
reverse link sosa:Sample to :OrganismOccurence--><path d="M1498.38,99.7978 C1525.29,117.7118 1557.53,139.1688 1581.44,155.0868 " fill="none" id="sosa:Sample&lt;-:OrganismOccurence" style="stroke: #A80036; stroke-width: 1.0;"/><polygon fill="none" points="1494.38,105.5408,1481.61,88.6318,1502.14,93.8868,1494.38,105.5408" style="stroke: #A80036; stroke-width: 1.0;"/><!--MD5=[19c1fa849aed3cc5802a7757a42ef5ee]
reverse link geosparql:SpatialObject to :OrganismOccurence--><path d="M1356.07,94.7838 C1414.7,113.5738 1489.82,137.6528 1544.22,155.0868 " fill="none" id="geosparql:SpatialObject&lt;-:OrganismOccurence" style="stroke: #A80036; stroke-width: 1.0;"/><polygon fill="none" points="1353.79,101.4017,1336.88,88.6318,1358.06,88.0698,1353.79,101.4017" style="stroke: #A80036; stroke-width: 1.0;"/><!--MD5=[d41ed85ec00667454d9621565d82d6d1]
reverse link time:TemporalEntity to :OrganismOccurence--><path d="M1616,108.7387 C1616,124.5138 1616,141.7458 1616,155.0868 " fill="none" id="time:TemporalEntity&lt;-:OrganismOccurence" style="stroke: #A80036; stroke-width: 1.0;"/><polygon fill="none" points="1609,108.6318,1616,88.6318,1623,108.6307,1609,108.6318" style="stroke: #A80036; stroke-width: 1.0;"/><!--MD5=[f104df006a5560d7d0e10e6497496b78]
reverse link sosa:Sample to :SiteStratum--><path d="M1371.9,89.9298 C1323.45,105.9268 1259.21,127.6938 1203,148.5938 C1197.23,150.7378 1191.24,153.0388 1185.28,155.3768 " fill="none" id="sosa:Sample&lt;-:SiteStratum" style="stroke: #A80036; stroke-width: 1.0;"/><polygon fill="none" points="1369.78,83.2588,1390.96,83.6638,1374.15,96.5587,1369.78,83.2588" style="stroke: #A80036; stroke-width: 1.0;"/><!--MD5=[563ca3b286fc5313db7dffbb2b0328c9]
reverse link sosa:Sample to :SiteTaxon--><path d="M1448.53,108.7387 C1449.09,124.5138 1449.71,141.7458 1450.18,155.0868 " fill="none" id="sosa:Sample&lt;-:SiteTaxon" style="stroke: #A80036; stroke-width: 1.0;"/><polygon fill="none" points="1441.53,108.8678,1447.82,88.6318,1455.53,108.3698,1441.53,108.8678" style="stroke: #A80036; stroke-width: 1.0;"/><!--MD5=[35c720b0d78d702b7d9d281cea18e765]
reverse link skos:Concept to :Stratum--><path d="M1955,108.7387 C1955,124.5138 1955,141.7458 1955,155.0868 " fill="none" id="skos:Concept&lt;-:Stratum" style="stroke: #A80036; stroke-width: 1.0;"/><polygon fill="none" points="1948,108.6318,1955,88.6318,1962,108.6307,1948,108.6318" style="stroke: #A80036; stroke-width: 1.0;"/><!--MD5=[44e5cb1da9a681ab886e39901222d532]
reverse link dct:Location to :Location--><path d="M2103,108.7387 C2103,124.5138 2103,141.7458 2103,155.0868 " fill="none" id="dct:Location&lt;-:Location" style="stroke: #A80036; stroke-width: 1.0;"/><polygon fill="none" points="2096,108.6318,2103,88.6318,2110,108.6307,2096,108.6318" style="stroke: #A80036; stroke-width: 1.0;"/><!--MD5=[c800b92bc71a73c1356b74aba10f7cff]
reverse link sosa:Sample to :SiteStratumTaxon--><path d="M1399.44,100.5677 C1375.29,118.3227 1346.63,139.3958 1325.29,155.0868 " fill="none" id="sosa:Sample&lt;-:SiteStratumTaxon" style="stroke: #A80036; stroke-width: 1.0;"/><polygon fill="none" points="1395.41,94.8397,1415.67,88.6318,1403.7,106.1187,1395.41,94.8397" style="stroke: #A80036; stroke-width: 1.0;"/><!--MD5=[331f6ab8dfe00a12657b01b61bdd174c]
reverse link :EnvironmentalContinuant to :EnvironmentalSystem--><path d="M2358.78,213.2778 C2327.54,231.3918 2289.65,253.3658 2261.67,269.5868 " fill="none" id=":EnvironmentalContinuant&lt;-:EnvironmentalSystem" style="stroke: #A80036; stroke-width: 1.0;"/><polygon fill="none" points="2355.46,207.1088,2376.27,203.1318,2362.48,219.2197,2355.46,207.1088" style="stroke: #A80036; stroke-width: 1.0;"/><!--MD5=[a05182c24c0f2da3184069ea6995fffe]
reverse link owl:Thing to :EnvironmentalSystem--><path d="M2225.7,223.2387 C2224.86,239.0138 2223.94,256.2458 2223.23,269.5868 " fill="none" id="owl:Thing&lt;-:EnvironmentalSystem" style="stroke: #A80036; stroke-width: 1.0;"/><polygon fill="none" points="2218.72,222.7298,2226.77,203.1318,2232.7,223.4758,2218.72,222.7298" style="stroke: #A80036; stroke-width: 1.0;"/><!--MD5=[275ba334fe22dfb021ff74c071397ab0]
reverse link prov:Activity to :SiteVisit--><path d="M941.577,104.7398 C954.277,121.5487 968.678,140.6088 979.617,155.0868 " fill="none" id="prov:Activity&lt;-:SiteVisit" style="stroke: #A80036; stroke-width: 1.0;"/><polygon fill="none" points="935.878,108.8087,929.406,88.6318,947.048,100.3687,935.878,108.8087" style="stroke: #A80036; stroke-width: 1.0;"/><!--MD5=[360ae85a8ddef6b242e05f837d25fa52]
reverse link sosa:FeatureOfInterest to :EnvironmentalContinuant--><path d="M2416,108.7387 C2416,124.5138 2416,141.7458 2416,155.0868 " fill="none" id="sosa:FeatureOfInterest&lt;-:EnvironmentalContinuant" style="stroke: #A80036; stroke-width: 1.0;"/><polygon fill="none" points="2409,108.6318,2416,88.6318,2423,108.6307,2409,108.6318" style="stroke: #A80036; stroke-width: 1.0;"/><!--MD5=[094ffb1d677d3631456e9901c1475881]
reverse link :EcologicalCommunity to :Assemblage--><path d="M2222,445.6174 C2222,459.173 2222,473.6319 2222,485.2722 " fill="none" id=":EcologicalCommunity&lt;-:Assemblage" style="stroke: #A80036; stroke-width: 1.0;"/><polygon fill="none" points="2215,445.5943,2222,425.5938,2229,445.5942,2215,445.5943" style="stroke: #A80036; stroke-width: 1.0;"/><!--MD5=[4afdbcc2aaa9793b213da55f0ac47a35]
reverse link :EnvironmentalSystem to :EcologicalCommunity--><path d="M2222,337.6178 C2222,351.1728 2222,365.6318 2222,377.2718 " fill="none" id=":EnvironmentalSystem&lt;-:EcologicalCommunity" style="stroke: #A80036; stroke-width: 1.0;"/><polygon fill="none" points="2215,337.5938,2222,317.5938,2229,337.5938,2215,337.5938" style="stroke: #A80036; stroke-width: 1.0;"/><!--MD5=[c6ab8af9135bd6e784c73df634de44b2]
reverse link :EnvironmentalContinuant to :EnvironmentalZone--><path d="M2417.92,223.2387 C2418.62,239.0138 2419.38,256.2458 2419.98,269.5868 " fill="none" id=":EnvironmentalContinuant&lt;-:EnvironmentalZone" style="stroke: #A80036; stroke-width: 1.0;"/><polygon fill="none" points="2410.92,223.4228,2417.02,203.1318,2424.91,222.8008,2410.92,223.4228" style="stroke: #A80036; stroke-width: 1.0;"/><!--MD5=[909701d58657220eaef5f1b15ddec774]
reverse link owl:Thing to :EnvironmentalZone--><path d="M2284.93,213.2778 C2316,231.3918 2353.7,253.3658 2381.53,269.5868 " fill="none" id="owl:Thing&lt;-:EnvironmentalZone" style="stroke: #A80036; stroke-width: 1.0;"/><polygon fill="none" points="2281.28,219.2507,2267.52,203.1318,2288.33,207.1558,2281.28,219.2507" style="stroke: #A80036; stroke-width: 1.0;"/><!--MD5=[53ccb56f84498235ddbea6d9db34a729]
link dwc:Occurrence to :OrganismOccurence--><path d="M1758.34,88.6318 C1727.46,108.0448 1683.48,135.6818 1652.61,155.0868 " fill="none" id="dwc:Occurrence-:OrganismOccurence" style="stroke: #A80036; stroke-width: 1.0; stroke-dasharray: 7.0,7.0;"/><!--MD5=[99844c334c285af956e21111a77efbea]
link :ub1bL149C26 to :ub1bL494C15--><!--MD5=[379aad421ff4167dae5a9ba83e4adcf6]
link :ub1bL494C15 to :ub1bL307C26--><!--MD5=[5eaf3f638ce0b88b5d921073cc5718e3]
link :ub1bL149C26 to :ub1bL554C23--><!--MD5=[7b4638906e36021c1284b41c38988dcf]
link :ub1bL554C23 to :ub1bL571C15--><text fill="#888888" font-family="sans-serif" font-size="10" lengthAdjust="spacingAndGlyphs" textLength="67" x="1128.5" y="552.876">Generated by</text><a href="https://github.com/edmondchuc/ontogram" target="_top" title="https://github.com/edmondchuc/ontogram" xlink:actuate="onRequest" xlink:href="https://github.com/edmondchuc/ontogram" xlink:show="new" xlink:title="https://github.com/edmondchuc/ontogram" xlink:type="simple"><text fill="#0000FF" font-family="sans-serif" font-size="10" lengthAdjust="spacingAndGlyphs" text-decoration="underline" textLength="204" x="1198.5" y="552.876">https://github.com/edmondchuc/ontogram</text></a><!--MD5=[374adf00cdc9d28959a7c52af94747c6]
@startuml
title The PLOT ontology
"sosa:Platform" <|- - ":FluxTower"
"sosa:Observation" <|- - ":TaxonAssignment"
"prov:Activity" <|- - ":Survey"
"sosa:Sample" <|- - ":OrganismOccurence"
"geosparql:SpatialObject" <|- - ":OrganismOccurence"
"time:TemporalEntity" <|- - ":OrganismOccurence"
"sosa:Sample" <|- - ":SiteStratum"
"sosa:Sample" <|- - ":SiteTaxon"
"skos:Concept" <|- - ":Stratum"
"dct:Location" <|- - ":Location"
"sosa:Sample" <|- - ":SiteStratumTaxon"
":EnvironmentalContinuant" <|- - ":EnvironmentalSystem"
"owl:Thing" <|- - ":EnvironmentalSystem"
"prov:Activity" <|- - ":SiteVisit"
"sosa:FeatureOfInterest" <|- - ":EnvironmentalContinuant"
":EcologicalCommunity" <|- - ":Assemblage"
":EnvironmentalSystem" <|- - ":EcologicalCommunity"
":EnvironmentalContinuant" <|- - ":EnvironmentalZone"
"owl:Thing" <|- - ":EnvironmentalZone"
Class ":FluxTower" [[http://linked.data.gov.au/def/plot/x/FluxTower]] {
}
Class ":TaxonAssignment" [[http://linked.data.gov.au/def/plot/x/TaxonAssignment]] {
}
Class ":Survey" [[http://linked.data.gov.au/def/plot/x/Survey]] {
}
Class ":OrganismOccurence" [[http://linked.data.gov.au/def/plot/OrganismOccurence]] {
}
Class ":SiteStratum" [[http://linked.data.gov.au/def/plot/SiteStratum]] {
}
Class ":SiteTaxon" [[http://linked.data.gov.au/def/plot/SiteTaxon]] {
}
Class ":Stratum" [[http://linked.data.gov.au/def/plot/Stratum]] {
}
Class ":Location" [[http://linked.data.gov.au/def/plot/Location]] {
}
Class ":SiteStratumTaxon" [[http://linked.data.gov.au/def/plot/SiteStratumTaxon]] {
}
Class ":ub1bL149C26" [[ub1bL149C26]] {
}
Class ":ub1bL494C15" [[ub1bL494C15]] {
}
Class ":EnvironmentalSystem" [[http://linked.data.gov.au/def/plot/x/EnvironmentalSystem]] {
}
Class ":ub1bL307C26" [[ub1bL307C26]] {
}
Class ":ub1bL554C23" [[ub1bL554C23]] {
}
Class ":ub1bL571C15" [[ub1bL571C15]] {
[[http://www.w3.org/ns/ssn/ext/isMemberOf :isMemberOf]] : [[http://www.w3.org/ns/ssn/ext/ObservationCollection :ObservationCollection]]
}
Class ":SiteVisit" [[http://linked.data.gov.au/def/plot/SiteVisit]] {
}
Class ":EnvironmentalContinuant" [[http://linked.data.gov.au/def/plot/x/EnvironmentalContinuant]] {
}
Class ":Assemblage" [[http://linked.data.gov.au/def/plot/x/Assemblage]] {
}
Class ":EcologicalCommunity" [[http://linked.data.gov.au/def/plot/x/EcologicalCommunity]] {
}
Class ":EnvironmentalZone" [[http://linked.data.gov.au/def/plot/x/EnvironmentalZone]] {
}
"dwc:Occurrence" .. ":OrganismOccurence"
header
Creator: Simon J.D.Cox (simon.cox@csiro.au) 
endheader
center footer Generated by [[https://github.com/edmondchuc/ontogram https://github.com/edmondchuc/ontogram]]
@enduml

PlantUML version 1.2020.01beta5(Unknown compile time)
(GPL source distribution)
Java Runtime: Java(TM) SE Runtime Environment
JVM: Java HotSpot(TM) 64-Bit Server VM
Java Version: 1.7.0_25-b15
Operating System: Linux
Default Encoding: UTF-8
Language: en
Country: US
--></g></svg>