<?xml version="1.0" encoding="UTF-8" standalone="no"?><svg xmlns="http://www.w3.org/2000/svg" xmlns:xlink="http://www.w3.org/1999/xlink" contentScriptType="application/ecmascript" contentStyleType="text/css" height="566px" preserveAspectRatio="none" style="width:2668px;height:566px;" version="1.1" viewBox="0 0 2668 566" width="2668px" zoomAndPan="magnify"><defs><filter height="300%" id="f14nic9jr9b5mo" width="300%" x="-1" y="-1"><feGaussianBlur result="blurOut" stdDeviation="2.0"/><feColorMatrix in="blurOut" result="blurOut2" type="matrix" values="0 0 0 0 0 0 0 0 0 0 0 0 0 0 0 0 0 0 .4 0"/><feOffset dx="4.0" dy="4.0" in="blurOut2" result="blurOut3"/><feBlend in="SourceGraphic" in2="blurOut3" mode="normal"/></filter></defs><g><text fill="#888888" font-family="sans-serif" font-size="10" lengthAdjust="spacingAndGlyphs" textLength="223" x="2433" y="9.2822">Creator: Simon J.D.Cox (simon.cox@csiro.au)</text><text fill="#000000" font-family="sans-serif" font-size="18" lengthAdjust="spacingAndGlyphs" textLength="171" x="1242.5" y="28.3486">The PLOT ontology</text><!--MD5=[cb944c6968791c6d805c849a01519e07]
class sosa:FeatureOfInterest--><rect fill="#FEFECE" filter="url(#f14nic9jr9b5mo)" height="48" id="sosa:FeatureOfInterest" style="stroke: #A80036; stroke-width: 1.5;" width="177" x="581.5" y="47.0938"/><ellipse cx="596.5" cy="63.0938" fill="#ADD1B2" rx="11" ry="11" style="stroke: #A80036; stroke-width: 1.0;"/><path d="M598.8438,58.7656 L599.0156,58.8438 C599.2344,58.5313 599.4375,58.4375 599.7344,58.4375 C600.0313,58.4375 600.3125,58.5781 600.4688,58.8438 C600.5625,59 600.5781,59.125 600.5781,59.5625 L600.5781,60.9844 C600.5781,61.4063 600.5469,61.5938 600.4375,61.75 C600.2656,61.9688 600,62.1094 599.7344,62.1094 C599.5156,62.1094 599.2813,62 599.1406,61.8594 C599,61.7344 598.9688,61.6094 598.9063,61.2031 C598.8125,60.7969 598.6406,60.5781 598.1563,60.2969 C597.6875,60.0469 597.0781,59.8906 596.5,59.8906 C594.7656,59.8906 593.5156,61.2031 593.5156,62.9844 L593.5156,64.0781 C593.5156,65.7813 594.8125,66.875 596.8594,66.875 C597.625,66.875 598.3125,66.75 598.7344,66.4844 C598.9219,66.3906 598.9219,66.3906 599.375,65.9063 C599.5625,65.7188 599.7656,65.6406 599.9844,65.6406 C600.4531,65.6406 600.8438,66.0313 600.8438,66.4844 C600.8438,66.875 600.5156,67.3281 599.9375,67.7344 C599.1875,68.2813 598.0313,68.5781 596.8125,68.5781 C593.9219,68.5781 591.8125,66.6875 591.8125,64.1094 L591.8125,62.9844 C591.8125,60.2656 593.8125,58.1875 596.4375,58.1875 C597.3125,58.1875 597.9063,58.3281 598.8438,58.7656 Z "/><text fill="#000000" font-family="sans-serif" font-size="12" lengthAdjust="spacingAndGlyphs" textLength="145" x="610.5" y="67.248">sosa:FeatureOfInterest</text><line style="stroke: #A80036; stroke-width: 1.5;" x1="582.5" x2="757.5" y1="79.0938" y2="79.0938"/><line style="stroke: #A80036; stroke-width: 1.5;" x1="582.5" x2="757.5" y1="87.0938" y2="87.0938"/><!--MD5=[271020f0bd72f99a9c4b6587d81e43ae]
class :EnvironmentalContinuant--><a href="http://linked.data.gov.au/def/plot/x/EnvironmentalContinuant" target="_top" title="http://linked.data.gov.au/def/plot/x/EnvironmentalContinuant" xlink:actuate="onRequest" xlink:href="http://linked.data.gov.au/def/plot/x/EnvironmentalContinuant" xlink:show="new" xlink:title="http://linked.data.gov.au/def/plot/x/EnvironmentalContinuant" xlink:type="simple"><rect fill="#FEFECE" filter="url(#f14nic9jr9b5mo)" height="48" id=":EnvironmentalContinuant" style="stroke: #A80036; stroke-width: 1.5;" width="194" x="573" y="161.5938"/><ellipse cx="588" cy="177.5938" fill="#ADD1B2" rx="11" ry="11" style="stroke: #A80036; stroke-width: 1.0;"/><path d="M590.3438,173.2656 L590.5156,173.3438 C590.7344,173.0313 590.9375,172.9375 591.2344,172.9375 C591.5313,172.9375 591.8125,173.0781 591.9688,173.3438 C592.0625,173.5 592.0781,173.625 592.0781,174.0625 L592.0781,175.4844 C592.0781,175.9063 592.0469,176.0938 591.9375,176.25 C591.7656,176.4688 591.5,176.6094 591.2344,176.6094 C591.0156,176.6094 590.7813,176.5 590.6406,176.3594 C590.5,176.2344 590.4688,176.1094 590.4063,175.7031 C590.3125,175.2969 590.1406,175.0781 589.6563,174.7969 C589.1875,174.5469 588.5781,174.3906 588,174.3906 C586.2656,174.3906 585.0156,175.7031 585.0156,177.4844 L585.0156,178.5781 C585.0156,180.2813 586.3125,181.375 588.3594,181.375 C589.125,181.375 589.8125,181.25 590.2344,180.9844 C590.4219,180.8906 590.4219,180.8906 590.875,180.4063 C591.0625,180.2188 591.2656,180.1406 591.4844,180.1406 C591.9531,180.1406 592.3438,180.5313 592.3438,180.9844 C592.3438,181.375 592.0156,181.8281 591.4375,182.2344 C590.6875,182.7813 589.5313,183.0781 588.3125,183.0781 C585.4219,183.0781 583.3125,181.1875 583.3125,178.6094 L583.3125,177.4844 C583.3125,174.7656 585.3125,172.6875 587.9375,172.6875 C588.8125,172.6875 589.4063,172.8281 590.3438,173.2656 Z "/><text fill="#000000" font-family="sans-serif" font-size="12" lengthAdjust="spacingAndGlyphs" textLength="162" x="602" y="181.748">:EnvironmentalContinuant</text><line style="stroke: #A80036; stroke-width: 1.5;" x1="574" x2="766" y1="193.5938" y2="193.5938"/><line style="stroke: #A80036; stroke-width: 1.5;" x1="574" x2="766" y1="201.5938" y2="201.5938"/></a><!--MD5=[9655ad61792b4ed0d4f91a9adcbf26fa]
class dct:Location--><rect fill="#FEFECE" filter="url(#f14nic9jr9b5mo)" height="48" id="dct:Location" style="stroke: #A80036; stroke-width: 1.5;" width="109" x="928.5" y="47.0938"/><ellipse cx="943.5" cy="63.0938" fill="#ADD1B2" rx="11" ry="11" style="stroke: #A80036; stroke-width: 1.0;"/><path d="M945.8438,58.7656 L946.0156,58.8438 C946.2344,58.5313 946.4375,58.4375 946.7344,58.4375 C947.0313,58.4375 947.3125,58.5781 947.4688,58.8438 C947.5625,59 947.5781,59.125 947.5781,59.5625 L947.5781,60.9844 C947.5781,61.4063 947.5469,61.5938 947.4375,61.75 C947.2656,61.9688 947,62.1094 946.7344,62.1094 C946.5156,62.1094 946.2813,62 946.1406,61.8594 C946,61.7344 945.9688,61.6094 945.9063,61.2031 C945.8125,60.7969 945.6406,60.5781 945.1563,60.2969 C944.6875,60.0469 944.0781,59.8906 943.5,59.8906 C941.7656,59.8906 940.5156,61.2031 940.5156,62.9844 L940.5156,64.0781 C940.5156,65.7813 941.8125,66.875 943.8594,66.875 C944.625,66.875 945.3125,66.75 945.7344,66.4844 C945.9219,66.3906 945.9219,66.3906 946.375,65.9063 C946.5625,65.7188 946.7656,65.6406 946.9844,65.6406 C947.4531,65.6406 947.8438,66.0313 947.8438,66.4844 C947.8438,66.875 947.5156,67.3281 946.9375,67.7344 C946.1875,68.2813 945.0313,68.5781 943.8125,68.5781 C940.9219,68.5781 938.8125,66.6875 938.8125,64.1094 L938.8125,62.9844 C938.8125,60.2656 940.8125,58.1875 943.4375,58.1875 C944.3125,58.1875 944.9063,58.3281 945.8438,58.7656 Z "/><text fill="#000000" font-family="sans-serif" font-size="12" lengthAdjust="spacingAndGlyphs" textLength="77" x="957.5" y="67.248">dct:Location</text><line style="stroke: #A80036; stroke-width: 1.5;" x1="929.5" x2="1036.5" y1="79.0938" y2="79.0938"/><line style="stroke: #A80036; stroke-width: 1.5;" x1="929.5" x2="1036.5" y1="87.0938" y2="87.0938"/><!--MD5=[0d2e18ac24d05bcb014024f64dd8f82f]
class :Location--><a href="http://linked.data.gov.au/def/plot/Location" target="_top" title="http://linked.data.gov.au/def/plot/Location" xlink:actuate="onRequest" xlink:href="http://linked.data.gov.au/def/plot/Location" xlink:show="new" xlink:title="http://linked.data.gov.au/def/plot/Location" xlink:type="simple"><rect fill="#FEFECE" filter="url(#f14nic9jr9b5mo)" height="48" id=":Location" style="stroke: #A80036; stroke-width: 1.5;" width="89" x="938.5" y="161.5938"/><ellipse cx="953.5" cy="177.5938" fill="#ADD1B2" rx="11" ry="11" style="stroke: #A80036; stroke-width: 1.0;"/><path d="M955.8438,173.2656 L956.0156,173.3438 C956.2344,173.0313 956.4375,172.9375 956.7344,172.9375 C957.0313,172.9375 957.3125,173.0781 957.4688,173.3438 C957.5625,173.5 957.5781,173.625 957.5781,174.0625 L957.5781,175.4844 C957.5781,175.9063 957.5469,176.0938 957.4375,176.25 C957.2656,176.4688 957,176.6094 956.7344,176.6094 C956.5156,176.6094 956.2813,176.5 956.1406,176.3594 C956,176.2344 955.9688,176.1094 955.9063,175.7031 C955.8125,175.2969 955.6406,175.0781 955.1563,174.7969 C954.6875,174.5469 954.0781,174.3906 953.5,174.3906 C951.7656,174.3906 950.5156,175.7031 950.5156,177.4844 L950.5156,178.5781 C950.5156,180.2813 951.8125,181.375 953.8594,181.375 C954.625,181.375 955.3125,181.25 955.7344,180.9844 C955.9219,180.8906 955.9219,180.8906 956.375,180.4063 C956.5625,180.2188 956.7656,180.1406 956.9844,180.1406 C957.4531,180.1406 957.8438,180.5313 957.8438,180.9844 C957.8438,181.375 957.5156,181.8281 956.9375,182.2344 C956.1875,182.7813 955.0313,183.0781 953.8125,183.0781 C950.9219,183.0781 948.8125,181.1875 948.8125,178.6094 L948.8125,177.4844 C948.8125,174.7656 950.8125,172.6875 953.4375,172.6875 C954.3125,172.6875 954.9063,172.8281 955.8438,173.2656 Z "/><text fill="#000000" font-family="sans-serif" font-size="12" lengthAdjust="spacingAndGlyphs" textLength="57" x="967.5" y="181.748">:Location</text><line style="stroke: #A80036; stroke-width: 1.5;" x1="939.5" x2="1026.5" y1="193.5938" y2="193.5938"/><line style="stroke: #A80036; stroke-width: 1.5;" x1="939.5" x2="1026.5" y1="201.5938" y2="201.5938"/></a><!--MD5=[8b6ce312968107126c2336334b36ae49]
class sosa:Sample--><rect fill="#FEFECE" filter="url(#f14nic9jr9b5mo)" height="48" id="sosa:Sample" style="stroke: #A80036; stroke-width: 1.5;" width="112" x="1244" y="47.0938"/><ellipse cx="1259" cy="63.0938" fill="#ADD1B2" rx="11" ry="11" style="stroke: #A80036; stroke-width: 1.0;"/><path d="M1261.3438,58.7656 L1261.5156,58.8438 C1261.7344,58.5313 1261.9375,58.4375 1262.2344,58.4375 C1262.5313,58.4375 1262.8125,58.5781 1262.9688,58.8438 C1263.0625,59 1263.0781,59.125 1263.0781,59.5625 L1263.0781,60.9844 C1263.0781,61.4063 1263.0469,61.5938 1262.9375,61.75 C1262.7656,61.9688 1262.5,62.1094 1262.2344,62.1094 C1262.0156,62.1094 1261.7813,62 1261.6406,61.8594 C1261.5,61.7344 1261.4688,61.6094 1261.4063,61.2031 C1261.3125,60.7969 1261.1406,60.5781 1260.6563,60.2969 C1260.1875,60.0469 1259.5781,59.8906 1259,59.8906 C1257.2656,59.8906 1256.0156,61.2031 1256.0156,62.9844 L1256.0156,64.0781 C1256.0156,65.7813 1257.3125,66.875 1259.3594,66.875 C1260.125,66.875 1260.8125,66.75 1261.2344,66.4844 C1261.4219,66.3906 1261.4219,66.3906 1261.875,65.9063 C1262.0625,65.7188 1262.2656,65.6406 1262.4844,65.6406 C1262.9531,65.6406 1263.3438,66.0313 1263.3438,66.4844 C1263.3438,66.875 1263.0156,67.3281 1262.4375,67.7344 C1261.6875,68.2813 1260.5313,68.5781 1259.3125,68.5781 C1256.4219,68.5781 1254.3125,66.6875 1254.3125,64.1094 L1254.3125,62.9844 C1254.3125,60.2656 1256.3125,58.1875 1258.9375,58.1875 C1259.8125,58.1875 1260.4063,58.3281 1261.3438,58.7656 Z "/><text fill="#000000" font-family="sans-serif" font-size="12" lengthAdjust="spacingAndGlyphs" textLength="80" x="1273" y="67.248">sosa:Sample</text><line style="stroke: #A80036; stroke-width: 1.5;" x1="1245" x2="1355" y1="79.0938" y2="79.0938"/><line style="stroke: #A80036; stroke-width: 1.5;" x1="1245" x2="1355" y1="87.0938" y2="87.0938"/><!--MD5=[05998431d8650f5302bbe94e4b45ca10]
class :SiteStratumTaxon--><a href="http://linked.data.gov.au/def/plot/SiteStratumTaxon" target="_top" title="http://linked.data.gov.au/def/plot/SiteStratumTaxon" xlink:actuate="onRequest" xlink:href="http://linked.data.gov.au/def/plot/SiteStratumTaxon" xlink:show="new" xlink:title="http://linked.data.gov.au/def/plot/SiteStratumTaxon" xlink:type="simple"><rect fill="#FEFECE" filter="url(#f14nic9jr9b5mo)" height="48" id=":SiteStratumTaxon" style="stroke: #A80036; stroke-width: 1.5;" width="147" x="1062.5" y="161.5938"/><ellipse cx="1077.5" cy="177.5938" fill="#ADD1B2" rx="11" ry="11" style="stroke: #A80036; stroke-width: 1.0;"/><path d="M1079.8438,173.2656 L1080.0156,173.3438 C1080.2344,173.0313 1080.4375,172.9375 1080.7344,172.9375 C1081.0313,172.9375 1081.3125,173.0781 1081.4688,173.3438 C1081.5625,173.5 1081.5781,173.625 1081.5781,174.0625 L1081.5781,175.4844 C1081.5781,175.9063 1081.5469,176.0938 1081.4375,176.25 C1081.2656,176.4688 1081,176.6094 1080.7344,176.6094 C1080.5156,176.6094 1080.2813,176.5 1080.1406,176.3594 C1080,176.2344 1079.9688,176.1094 1079.9063,175.7031 C1079.8125,175.2969 1079.6406,175.0781 1079.1563,174.7969 C1078.6875,174.5469 1078.0781,174.3906 1077.5,174.3906 C1075.7656,174.3906 1074.5156,175.7031 1074.5156,177.4844 L1074.5156,178.5781 C1074.5156,180.2813 1075.8125,181.375 1077.8594,181.375 C1078.625,181.375 1079.3125,181.25 1079.7344,180.9844 C1079.9219,180.8906 1079.9219,180.8906 1080.375,180.4063 C1080.5625,180.2188 1080.7656,180.1406 1080.9844,180.1406 C1081.4531,180.1406 1081.8438,180.5313 1081.8438,180.9844 C1081.8438,181.375 1081.5156,181.8281 1080.9375,182.2344 C1080.1875,182.7813 1079.0313,183.0781 1077.8125,183.0781 C1074.9219,183.0781 1072.8125,181.1875 1072.8125,178.6094 L1072.8125,177.4844 C1072.8125,174.7656 1074.8125,172.6875 1077.4375,172.6875 C1078.3125,172.6875 1078.9063,172.8281 1079.8438,173.2656 Z "/><text fill="#000000" font-family="sans-serif" font-size="12" lengthAdjust="spacingAndGlyphs" textLength="115" x="1091.5" y="181.748">:SiteStratumTaxon</text><line style="stroke: #A80036; stroke-width: 1.5;" x1="1063.5" x2="1208.5" y1="193.5938" y2="193.5938"/><line style="stroke: #A80036; stroke-width: 1.5;" x1="1063.5" x2="1208.5" y1="201.5938" y2="201.5938"/></a><!--MD5=[aec54989d0b5e1280b3fe804a99154c1]
class :OrganismOccurence--><a href="http://linked.data.gov.au/def/plot/OrganismOccurence" target="_top" title="http://linked.data.gov.au/def/plot/OrganismOccurence" xlink:actuate="onRequest" xlink:href="http://linked.data.gov.au/def/plot/OrganismOccurence" xlink:show="new" xlink:title="http://linked.data.gov.au/def/plot/OrganismOccurence" xlink:type="simple"><rect fill="#FEFECE" filter="url(#f14nic9jr9b5mo)" height="48" id=":OrganismOccurence" style="stroke: #A80036; stroke-width: 1.5;" width="162" x="1558" y="161.5938"/><ellipse cx="1573" cy="177.5938" fill="#ADD1B2" rx="11" ry="11" style="stroke: #A80036; stroke-width: 1.0;"/><path d="M1575.3438,173.2656 L1575.5156,173.3438 C1575.7344,173.0313 1575.9375,172.9375 1576.2344,172.9375 C1576.5313,172.9375 1576.8125,173.0781 1576.9688,173.3438 C1577.0625,173.5 1577.0781,173.625 1577.0781,174.0625 L1577.0781,175.4844 C1577.0781,175.9063 1577.0469,176.0938 1576.9375,176.25 C1576.7656,176.4688 1576.5,176.6094 1576.2344,176.6094 C1576.0156,176.6094 1575.7813,176.5 1575.6406,176.3594 C1575.5,176.2344 1575.4688,176.1094 1575.4063,175.7031 C1575.3125,175.2969 1575.1406,175.0781 1574.6563,174.7969 C1574.1875,174.5469 1573.5781,174.3906 1573,174.3906 C1571.2656,174.3906 1570.0156,175.7031 1570.0156,177.4844 L1570.0156,178.5781 C1570.0156,180.2813 1571.3125,181.375 1573.3594,181.375 C1574.125,181.375 1574.8125,181.25 1575.2344,180.9844 C1575.4219,180.8906 1575.4219,180.8906 1575.875,180.4063 C1576.0625,180.2188 1576.2656,180.1406 1576.4844,180.1406 C1576.9531,180.1406 1577.3438,180.5313 1577.3438,180.9844 C1577.3438,181.375 1577.0156,181.8281 1576.4375,182.2344 C1575.6875,182.7813 1574.5313,183.0781 1573.3125,183.0781 C1570.4219,183.0781 1568.3125,181.1875 1568.3125,178.6094 L1568.3125,177.4844 C1568.3125,174.7656 1570.3125,172.6875 1572.9375,172.6875 C1573.8125,172.6875 1574.4063,172.8281 1575.3438,173.2656 Z "/><text fill="#000000" font-family="sans-serif" font-size="12" lengthAdjust="spacingAndGlyphs" textLength="130" x="1587" y="181.748">:OrganismOccurence</text><line style="stroke: #A80036; stroke-width: 1.5;" x1="1559" x2="1719" y1="193.5938" y2="193.5938"/><line style="stroke: #A80036; stroke-width: 1.5;" x1="1559" x2="1719" y1="201.5938" y2="201.5938"/></a><!--MD5=[cd57d364b5b3fdd499729d0748632540]
class time:TemporalEntity--><rect fill="#FEFECE" filter="url(#f14nic9jr9b5mo)" height="48" id="time:TemporalEntity" style="stroke: #A80036; stroke-width: 1.5;" width="156" x="1391" y="47.0938"/><ellipse cx="1406" cy="63.0938" fill="#ADD1B2" rx="11" ry="11" style="stroke: #A80036; stroke-width: 1.0;"/><path d="M1408.3438,58.7656 L1408.5156,58.8438 C1408.7344,58.5313 1408.9375,58.4375 1409.2344,58.4375 C1409.5313,58.4375 1409.8125,58.5781 1409.9688,58.8438 C1410.0625,59 1410.0781,59.125 1410.0781,59.5625 L1410.0781,60.9844 C1410.0781,61.4063 1410.0469,61.5938 1409.9375,61.75 C1409.7656,61.9688 1409.5,62.1094 1409.2344,62.1094 C1409.0156,62.1094 1408.7813,62 1408.6406,61.8594 C1408.5,61.7344 1408.4688,61.6094 1408.4063,61.2031 C1408.3125,60.7969 1408.1406,60.5781 1407.6563,60.2969 C1407.1875,60.0469 1406.5781,59.8906 1406,59.8906 C1404.2656,59.8906 1403.0156,61.2031 1403.0156,62.9844 L1403.0156,64.0781 C1403.0156,65.7813 1404.3125,66.875 1406.3594,66.875 C1407.125,66.875 1407.8125,66.75 1408.2344,66.4844 C1408.4219,66.3906 1408.4219,66.3906 1408.875,65.9063 C1409.0625,65.7188 1409.2656,65.6406 1409.4844,65.6406 C1409.9531,65.6406 1410.3438,66.0313 1410.3438,66.4844 C1410.3438,66.875 1410.0156,67.3281 1409.4375,67.7344 C1408.6875,68.2813 1407.5313,68.5781 1406.3125,68.5781 C1403.4219,68.5781 1401.3125,66.6875 1401.3125,64.1094 L1401.3125,62.9844 C1401.3125,60.2656 1403.3125,58.1875 1405.9375,58.1875 C1406.8125,58.1875 1407.4063,58.3281 1408.3438,58.7656 Z "/><text fill="#000000" font-family="sans-serif" font-size="12" lengthAdjust="spacingAndGlyphs" textLength="124" x="1420" y="67.248">time:TemporalEntity</text><line style="stroke: #A80036; stroke-width: 1.5;" x1="1392" x2="1546" y1="79.0938" y2="79.0938"/><line style="stroke: #A80036; stroke-width: 1.5;" x1="1392" x2="1546" y1="87.0938" y2="87.0938"/><!--MD5=[9aaa16b4e45fc97314f609860701115f]
class geosparql:SpatialObject--><rect fill="#FEFECE" filter="url(#f14nic9jr9b5mo)" height="48" id="geosparql:SpatialObject" style="stroke: #A80036; stroke-width: 1.5;" width="182" x="1582" y="47.0938"/><ellipse cx="1597" cy="63.0938" fill="#ADD1B2" rx="11" ry="11" style="stroke: #A80036; stroke-width: 1.0;"/><path d="M1599.3438,58.7656 L1599.5156,58.8438 C1599.7344,58.5313 1599.9375,58.4375 1600.2344,58.4375 C1600.5313,58.4375 1600.8125,58.5781 1600.9688,58.8438 C1601.0625,59 1601.0781,59.125 1601.0781,59.5625 L1601.0781,60.9844 C1601.0781,61.4063 1601.0469,61.5938 1600.9375,61.75 C1600.7656,61.9688 1600.5,62.1094 1600.2344,62.1094 C1600.0156,62.1094 1599.7813,62 1599.6406,61.8594 C1599.5,61.7344 1599.4688,61.6094 1599.4063,61.2031 C1599.3125,60.7969 1599.1406,60.5781 1598.6563,60.2969 C1598.1875,60.0469 1597.5781,59.8906 1597,59.8906 C1595.2656,59.8906 1594.0156,61.2031 1594.0156,62.9844 L1594.0156,64.0781 C1594.0156,65.7813 1595.3125,66.875 1597.3594,66.875 C1598.125,66.875 1598.8125,66.75 1599.2344,66.4844 C1599.4219,66.3906 1599.4219,66.3906 1599.875,65.9063 C1600.0625,65.7188 1600.2656,65.6406 1600.4844,65.6406 C1600.9531,65.6406 1601.3438,66.0313 1601.3438,66.4844 C1601.3438,66.875 1601.0156,67.3281 1600.4375,67.7344 C1599.6875,68.2813 1598.5313,68.5781 1597.3125,68.5781 C1594.4219,68.5781 1592.3125,66.6875 1592.3125,64.1094 L1592.3125,62.9844 C1592.3125,60.2656 1594.3125,58.1875 1596.9375,58.1875 C1597.8125,58.1875 1598.4063,58.3281 1599.3438,58.7656 Z "/><text fill="#000000" font-family="sans-serif" font-size="12" lengthAdjust="spacingAndGlyphs" textLength="150" x="1611" y="67.248">geosparql:SpatialObject</text><line style="stroke: #A80036; stroke-width: 1.5;" x1="1583" x2="1763" y1="79.0938" y2="79.0938"/><line style="stroke: #A80036; stroke-width: 1.5;" x1="1583" x2="1763" y1="87.0938" y2="87.0938"/><!--MD5=[a5045e2f80c39252163f54a3f2bf835a]
class :SiteStratum--><a href="http://linked.data.gov.au/def/plot/SiteStratum" target="_top" title="http://linked.data.gov.au/def/plot/SiteStratum" xlink:actuate="onRequest" xlink:href="http://linked.data.gov.au/def/plot/SiteStratum" xlink:show="new" xlink:title="http://linked.data.gov.au/def/plot/SiteStratum" xlink:type="simple"><rect fill="#FEFECE" filter="url(#f14nic9jr9b5mo)" height="48" id=":SiteStratum" style="stroke: #A80036; stroke-width: 1.5;" width="110" x="1245" y="161.5938"/><ellipse cx="1260" cy="177.5938" fill="#ADD1B2" rx="11" ry="11" style="stroke: #A80036; stroke-width: 1.0;"/><path d="M1262.3438,173.2656 L1262.5156,173.3438 C1262.7344,173.0313 1262.9375,172.9375 1263.2344,172.9375 C1263.5313,172.9375 1263.8125,173.0781 1263.9688,173.3438 C1264.0625,173.5 1264.0781,173.625 1264.0781,174.0625 L1264.0781,175.4844 C1264.0781,175.9063 1264.0469,176.0938 1263.9375,176.25 C1263.7656,176.4688 1263.5,176.6094 1263.2344,176.6094 C1263.0156,176.6094 1262.7813,176.5 1262.6406,176.3594 C1262.5,176.2344 1262.4688,176.1094 1262.4063,175.7031 C1262.3125,175.2969 1262.1406,175.0781 1261.6563,174.7969 C1261.1875,174.5469 1260.5781,174.3906 1260,174.3906 C1258.2656,174.3906 1257.0156,175.7031 1257.0156,177.4844 L1257.0156,178.5781 C1257.0156,180.2813 1258.3125,181.375 1260.3594,181.375 C1261.125,181.375 1261.8125,181.25 1262.2344,180.9844 C1262.4219,180.8906 1262.4219,180.8906 1262.875,180.4063 C1263.0625,180.2188 1263.2656,180.1406 1263.4844,180.1406 C1263.9531,180.1406 1264.3438,180.5313 1264.3438,180.9844 C1264.3438,181.375 1264.0156,181.8281 1263.4375,182.2344 C1262.6875,182.7813 1261.5313,183.0781 1260.3125,183.0781 C1257.4219,183.0781 1255.3125,181.1875 1255.3125,178.6094 L1255.3125,177.4844 C1255.3125,174.7656 1257.3125,172.6875 1259.9375,172.6875 C1260.8125,172.6875 1261.4063,172.8281 1262.3438,173.2656 Z "/><text fill="#000000" font-family="sans-serif" font-size="12" lengthAdjust="spacingAndGlyphs" textLength="78" x="1274" y="181.748">:SiteStratum</text><line style="stroke: #A80036; stroke-width: 1.5;" x1="1246" x2="1354" y1="193.5938" y2="193.5938"/><line style="stroke: #A80036; stroke-width: 1.5;" x1="1246" x2="1354" y1="201.5938" y2="201.5938"/></a><!--MD5=[fc541faf7941394647775b46ff936e10]
class :EnvironmentalSystem--><a href="http://linked.data.gov.au/def/plot/x/EnvironmentalSystem" target="_top" title="http://linked.data.gov.au/def/plot/x/EnvironmentalSystem" xlink:actuate="onRequest" xlink:href="http://linked.data.gov.au/def/plot/x/EnvironmentalSystem" xlink:show="new" xlink:title="http://linked.data.gov.au/def/plot/x/EnvironmentalSystem" xlink:type="simple"><rect fill="#FEFECE" filter="url(#f14nic9jr9b5mo)" height="48" id=":EnvironmentalSystem" style="stroke: #A80036; stroke-width: 1.5;" width="170" x="579" y="269.5938"/><ellipse cx="594" cy="285.5938" fill="#ADD1B2" rx="11" ry="11" style="stroke: #A80036; stroke-width: 1.0;"/><path d="M596.3438,281.2656 L596.5156,281.3438 C596.7344,281.0313 596.9375,280.9375 597.2344,280.9375 C597.5313,280.9375 597.8125,281.0781 597.9688,281.3438 C598.0625,281.5 598.0781,281.625 598.0781,282.0625 L598.0781,283.4844 C598.0781,283.9063 598.0469,284.0938 597.9375,284.25 C597.7656,284.4688 597.5,284.6094 597.2344,284.6094 C597.0156,284.6094 596.7813,284.5 596.6406,284.3594 C596.5,284.2344 596.4688,284.1094 596.4063,283.7031 C596.3125,283.2969 596.1406,283.0781 595.6563,282.7969 C595.1875,282.5469 594.5781,282.3906 594,282.3906 C592.2656,282.3906 591.0156,283.7031 591.0156,285.4844 L591.0156,286.5781 C591.0156,288.2813 592.3125,289.375 594.3594,289.375 C595.125,289.375 595.8125,289.25 596.2344,288.9844 C596.4219,288.8906 596.4219,288.8906 596.875,288.4063 C597.0625,288.2188 597.2656,288.1406 597.4844,288.1406 C597.9531,288.1406 598.3438,288.5313 598.3438,288.9844 C598.3438,289.375 598.0156,289.8281 597.4375,290.2344 C596.6875,290.7813 595.5313,291.0781 594.3125,291.0781 C591.4219,291.0781 589.3125,289.1875 589.3125,286.6094 L589.3125,285.4844 C589.3125,282.7656 591.3125,280.6875 593.9375,280.6875 C594.8125,280.6875 595.4063,280.8281 596.3438,281.2656 Z "/><text fill="#000000" font-family="sans-serif" font-size="12" lengthAdjust="spacingAndGlyphs" textLength="138" x="608" y="289.748">:EnvironmentalSystem</text><line style="stroke: #A80036; stroke-width: 1.5;" x1="580" x2="748" y1="301.5938" y2="301.5938"/><line style="stroke: #A80036; stroke-width: 1.5;" x1="580" x2="748" y1="309.5938" y2="309.5938"/></a><!--MD5=[f6742dd3b18cea425fa567171347bcdd]
class :EcologicalCommunity--><a href="http://linked.data.gov.au/def/plot/x/EcologicalCommunity" target="_top" title="http://linked.data.gov.au/def/plot/x/EcologicalCommunity" xlink:actuate="onRequest" xlink:href="http://linked.data.gov.au/def/plot/x/EcologicalCommunity" xlink:show="new" xlink:title="http://linked.data.gov.au/def/plot/x/EcologicalCommunity" xlink:type="simple"><rect fill="#FEFECE" filter="url(#f14nic9jr9b5mo)" height="48" id=":EcologicalCommunity" style="stroke: #A80036; stroke-width: 1.5;" width="167" x="580.5" y="377.5938"/><ellipse cx="595.5" cy="393.5938" fill="#ADD1B2" rx="11" ry="11" style="stroke: #A80036; stroke-width: 1.0;"/><path d="M597.8438,389.2656 L598.0156,389.3438 C598.2344,389.0313 598.4375,388.9375 598.7344,388.9375 C599.0313,388.9375 599.3125,389.0781 599.4688,389.3438 C599.5625,389.5 599.5781,389.625 599.5781,390.0625 L599.5781,391.4844 C599.5781,391.9063 599.5469,392.0938 599.4375,392.25 C599.2656,392.4688 599,392.6094 598.7344,392.6094 C598.5156,392.6094 598.2813,392.5 598.1406,392.3594 C598,392.2344 597.9688,392.1094 597.9063,391.7031 C597.8125,391.2969 597.6406,391.0781 597.1563,390.7969 C596.6875,390.5469 596.0781,390.3906 595.5,390.3906 C593.7656,390.3906 592.5156,391.7031 592.5156,393.4844 L592.5156,394.5781 C592.5156,396.2813 593.8125,397.375 595.8594,397.375 C596.625,397.375 597.3125,397.25 597.7344,396.9844 C597.9219,396.8906 597.9219,396.8906 598.375,396.4063 C598.5625,396.2188 598.7656,396.1406 598.9844,396.1406 C599.4531,396.1406 599.8438,396.5313 599.8438,396.9844 C599.8438,397.375 599.5156,397.8281 598.9375,398.2344 C598.1875,398.7813 597.0313,399.0781 595.8125,399.0781 C592.9219,399.0781 590.8125,397.1875 590.8125,394.6094 L590.8125,393.4844 C590.8125,390.7656 592.8125,388.6875 595.4375,388.6875 C596.3125,388.6875 596.9063,388.8281 597.8438,389.2656 Z "/><text fill="#000000" font-family="sans-serif" font-size="12" lengthAdjust="spacingAndGlyphs" textLength="135" x="609.5" y="397.748">:EcologicalCommunity</text><line style="stroke: #A80036; stroke-width: 1.5;" x1="581.5" x2="746.5" y1="409.5938" y2="409.5938"/><line style="stroke: #A80036; stroke-width: 1.5;" x1="581.5" x2="746.5" y1="417.5938" y2="417.5938"/></a><!--MD5=[f071ecb23dbf121833784480fda18997]
class owl:Thing--><rect fill="#FEFECE" filter="url(#f14nic9jr9b5mo)" height="48" id="owl:Thing" style="stroke: #A80036; stroke-width: 1.5;" width="90" x="813" y="161.5938"/><ellipse cx="828" cy="177.5938" fill="#ADD1B2" rx="11" ry="11" style="stroke: #A80036; stroke-width: 1.0;"/><path d="M830.3438,173.2656 L830.5156,173.3438 C830.7344,173.0313 830.9375,172.9375 831.2344,172.9375 C831.5313,172.9375 831.8125,173.0781 831.9688,173.3438 C832.0625,173.5 832.0781,173.625 832.0781,174.0625 L832.0781,175.4844 C832.0781,175.9063 832.0469,176.0938 831.9375,176.25 C831.7656,176.4688 831.5,176.6094 831.2344,176.6094 C831.0156,176.6094 830.7813,176.5 830.6406,176.3594 C830.5,176.2344 830.4688,176.1094 830.4063,175.7031 C830.3125,175.2969 830.1406,175.0781 829.6563,174.7969 C829.1875,174.5469 828.5781,174.3906 828,174.3906 C826.2656,174.3906 825.0156,175.7031 825.0156,177.4844 L825.0156,178.5781 C825.0156,180.2813 826.3125,181.375 828.3594,181.375 C829.125,181.375 829.8125,181.25 830.2344,180.9844 C830.4219,180.8906 830.4219,180.8906 830.875,180.4063 C831.0625,180.2188 831.2656,180.1406 831.4844,180.1406 C831.9531,180.1406 832.3438,180.5313 832.3438,180.9844 C832.3438,181.375 832.0156,181.8281 831.4375,182.2344 C830.6875,182.7813 829.5313,183.0781 828.3125,183.0781 C825.4219,183.0781 823.3125,181.1875 823.3125,178.6094 L823.3125,177.4844 C823.3125,174.7656 825.3125,172.6875 827.9375,172.6875 C828.8125,172.6875 829.4063,172.8281 830.3438,173.2656 Z "/><text fill="#000000" font-family="sans-serif" font-size="12" lengthAdjust="spacingAndGlyphs" textLength="58" x="842" y="181.748">owl:Thing</text><line style="stroke: #A80036; stroke-width: 1.5;" x1="814" x2="902" y1="193.5938" y2="193.5938"/><line style="stroke: #A80036; stroke-width: 1.5;" x1="814" x2="902" y1="201.5938" y2="201.5938"/><!--MD5=[e26081150a54feee97befd454a48c707]
class skos:Concept--><rect fill="#FEFECE" filter="url(#f14nic9jr9b5mo)" height="48" id="skos:Concept" style="stroke: #A80036; stroke-width: 1.5;" width="117" x="1966.5" y="47.0938"/><ellipse cx="1981.5" cy="63.0938" fill="#ADD1B2" rx="11" ry="11" style="stroke: #A80036; stroke-width: 1.0;"/><path d="M1983.8438,58.7656 L1984.0156,58.8438 C1984.2344,58.5313 1984.4375,58.4375 1984.7344,58.4375 C1985.0313,58.4375 1985.3125,58.5781 1985.4688,58.8438 C1985.5625,59 1985.5781,59.125 1985.5781,59.5625 L1985.5781,60.9844 C1985.5781,61.4063 1985.5469,61.5938 1985.4375,61.75 C1985.2656,61.9688 1985,62.1094 1984.7344,62.1094 C1984.5156,62.1094 1984.2813,62 1984.1406,61.8594 C1984,61.7344 1983.9688,61.6094 1983.9063,61.2031 C1983.8125,60.7969 1983.6406,60.5781 1983.1563,60.2969 C1982.6875,60.0469 1982.0781,59.8906 1981.5,59.8906 C1979.7656,59.8906 1978.5156,61.2031 1978.5156,62.9844 L1978.5156,64.0781 C1978.5156,65.7813 1979.8125,66.875 1981.8594,66.875 C1982.625,66.875 1983.3125,66.75 1983.7344,66.4844 C1983.9219,66.3906 1983.9219,66.3906 1984.375,65.9063 C1984.5625,65.7188 1984.7656,65.6406 1984.9844,65.6406 C1985.4531,65.6406 1985.8438,66.0313 1985.8438,66.4844 C1985.8438,66.875 1985.5156,67.3281 1984.9375,67.7344 C1984.1875,68.2813 1983.0313,68.5781 1981.8125,68.5781 C1978.9219,68.5781 1976.8125,66.6875 1976.8125,64.1094 L1976.8125,62.9844 C1976.8125,60.2656 1978.8125,58.1875 1981.4375,58.1875 C1982.3125,58.1875 1982.9063,58.3281 1983.8438,58.7656 Z "/><text fill="#000000" font-family="sans-serif" font-size="12" lengthAdjust="spacingAndGlyphs" textLength="85" x="1995.5" y="67.248">skos:Concept</text><line style="stroke: #A80036; stroke-width: 1.5;" x1="1967.5" x2="2082.5" y1="79.0938" y2="79.0938"/><line style="stroke: #A80036; stroke-width: 1.5;" x1="1967.5" x2="2082.5" y1="87.0938" y2="87.0938"/><!--MD5=[8caf7ff1d4b6933ec1e0effa27d8a38d]
class :Stratum--><a href="http://linked.data.gov.au/def/plot/Stratum" target="_top" title="http://linked.data.gov.au/def/plot/Stratum" xlink:actuate="onRequest" xlink:href="http://linked.data.gov.au/def/plot/Stratum" xlink:show="new" xlink:title="http://linked.data.gov.au/def/plot/Stratum" xlink:type="simple"><rect fill="#FEFECE" filter="url(#f14nic9jr9b5mo)" height="48" id=":Stratum" style="stroke: #A80036; stroke-width: 1.5;" width="86" x="1982" y="161.5938"/><ellipse cx="1997" cy="177.5938" fill="#ADD1B2" rx="11" ry="11" style="stroke: #A80036; stroke-width: 1.0;"/><path d="M1999.3438,173.2656 L1999.5156,173.3438 C1999.7344,173.0313 1999.9375,172.9375 2000.2344,172.9375 C2000.5313,172.9375 2000.8125,173.0781 2000.9688,173.3438 C2001.0625,173.5 2001.0781,173.625 2001.0781,174.0625 L2001.0781,175.4844 C2001.0781,175.9063 2001.0469,176.0938 2000.9375,176.25 C2000.7656,176.4688 2000.5,176.6094 2000.2344,176.6094 C2000.0156,176.6094 1999.7813,176.5 1999.6406,176.3594 C1999.5,176.2344 1999.4688,176.1094 1999.4063,175.7031 C1999.3125,175.2969 1999.1406,175.0781 1998.6563,174.7969 C1998.1875,174.5469 1997.5781,174.3906 1997,174.3906 C1995.2656,174.3906 1994.0156,175.7031 1994.0156,177.4844 L1994.0156,178.5781 C1994.0156,180.2813 1995.3125,181.375 1997.3594,181.375 C1998.125,181.375 1998.8125,181.25 1999.2344,180.9844 C1999.4219,180.8906 1999.4219,180.8906 1999.875,180.4063 C2000.0625,180.2188 2000.2656,180.1406 2000.4844,180.1406 C2000.9531,180.1406 2001.3438,180.5313 2001.3438,180.9844 C2001.3438,181.375 2001.0156,181.8281 2000.4375,182.2344 C1999.6875,182.7813 1998.5313,183.0781 1997.3125,183.0781 C1994.4219,183.0781 1992.3125,181.1875 1992.3125,178.6094 L1992.3125,177.4844 C1992.3125,174.7656 1994.3125,172.6875 1996.9375,172.6875 C1997.8125,172.6875 1998.4063,172.8281 1999.3438,173.2656 Z "/><text fill="#000000" font-family="sans-serif" font-size="12" lengthAdjust="spacingAndGlyphs" textLength="54" x="2011" y="181.748">:Stratum</text><line style="stroke: #A80036; stroke-width: 1.5;" x1="1983" x2="2067" y1="193.5938" y2="193.5938"/><line style="stroke: #A80036; stroke-width: 1.5;" x1="1983" x2="2067" y1="201.5938" y2="201.5938"/></a><!--MD5=[0d584a71ebce8b757d02fdb0fcc922f5]
class prov:Activity--><rect fill="#FEFECE" filter="url(#f14nic9jr9b5mo)" height="48" id="prov:Activity" style="stroke: #A80036; stroke-width: 1.5;" width="106" x="2161" y="47.0938"/><ellipse cx="2176" cy="63.0938" fill="#ADD1B2" rx="11" ry="11" style="stroke: #A80036; stroke-width: 1.0;"/><path d="M2178.3438,58.7656 L2178.5156,58.8438 C2178.7344,58.5313 2178.9375,58.4375 2179.2344,58.4375 C2179.5313,58.4375 2179.8125,58.5781 2179.9688,58.8438 C2180.0625,59 2180.0781,59.125 2180.0781,59.5625 L2180.0781,60.9844 C2180.0781,61.4063 2180.0469,61.5938 2179.9375,61.75 C2179.7656,61.9688 2179.5,62.1094 2179.2344,62.1094 C2179.0156,62.1094 2178.7813,62 2178.6406,61.8594 C2178.5,61.7344 2178.4688,61.6094 2178.4063,61.2031 C2178.3125,60.7969 2178.1406,60.5781 2177.6563,60.2969 C2177.1875,60.0469 2176.5781,59.8906 2176,59.8906 C2174.2656,59.8906 2173.0156,61.2031 2173.0156,62.9844 L2173.0156,64.0781 C2173.0156,65.7813 2174.3125,66.875 2176.3594,66.875 C2177.125,66.875 2177.8125,66.75 2178.2344,66.4844 C2178.4219,66.3906 2178.4219,66.3906 2178.875,65.9063 C2179.0625,65.7188 2179.2656,65.6406 2179.4844,65.6406 C2179.9531,65.6406 2180.3438,66.0313 2180.3438,66.4844 C2180.3438,66.875 2180.0156,67.3281 2179.4375,67.7344 C2178.6875,68.2813 2177.5313,68.5781 2176.3125,68.5781 C2173.4219,68.5781 2171.3125,66.6875 2171.3125,64.1094 L2171.3125,62.9844 C2171.3125,60.2656 2173.3125,58.1875 2175.9375,58.1875 C2176.8125,58.1875 2177.4063,58.3281 2178.3438,58.7656 Z "/><text fill="#000000" font-family="sans-serif" font-size="12" lengthAdjust="spacingAndGlyphs" textLength="74" x="2190" y="67.248">prov:Activity</text><line style="stroke: #A80036; stroke-width: 1.5;" x1="2162" x2="2266" y1="79.0938" y2="79.0938"/><line style="stroke: #A80036; stroke-width: 1.5;" x1="2162" x2="2266" y1="87.0938" y2="87.0938"/><!--MD5=[2b86ed209687f3341cf235cea84d7fb4]
class :Survey--><a href="http://linked.data.gov.au/def/plot/x/Survey" target="_top" title="http://linked.data.gov.au/def/plot/x/Survey" xlink:actuate="onRequest" xlink:href="http://linked.data.gov.au/def/plot/x/Survey" xlink:show="new" xlink:title="http://linked.data.gov.au/def/plot/x/Survey" xlink:type="simple"><rect fill="#FEFECE" filter="url(#f14nic9jr9b5mo)" height="48" id=":Survey" style="stroke: #A80036; stroke-width: 1.5;" width="77" x="2103.5" y="161.5938"/><ellipse cx="2118.5" cy="177.5938" fill="#ADD1B2" rx="11" ry="11" style="stroke: #A80036; stroke-width: 1.0;"/><path d="M2120.8438,173.2656 L2121.0156,173.3438 C2121.2344,173.0313 2121.4375,172.9375 2121.7344,172.9375 C2122.0313,172.9375 2122.3125,173.0781 2122.4688,173.3438 C2122.5625,173.5 2122.5781,173.625 2122.5781,174.0625 L2122.5781,175.4844 C2122.5781,175.9063 2122.5469,176.0938 2122.4375,176.25 C2122.2656,176.4688 2122,176.6094 2121.7344,176.6094 C2121.5156,176.6094 2121.2813,176.5 2121.1406,176.3594 C2121,176.2344 2120.9688,176.1094 2120.9063,175.7031 C2120.8125,175.2969 2120.6406,175.0781 2120.1563,174.7969 C2119.6875,174.5469 2119.0781,174.3906 2118.5,174.3906 C2116.7656,174.3906 2115.5156,175.7031 2115.5156,177.4844 L2115.5156,178.5781 C2115.5156,180.2813 2116.8125,181.375 2118.8594,181.375 C2119.625,181.375 2120.3125,181.25 2120.7344,180.9844 C2120.9219,180.8906 2120.9219,180.8906 2121.375,180.4063 C2121.5625,180.2188 2121.7656,180.1406 2121.9844,180.1406 C2122.4531,180.1406 2122.8438,180.5313 2122.8438,180.9844 C2122.8438,181.375 2122.5156,181.8281 2121.9375,182.2344 C2121.1875,182.7813 2120.0313,183.0781 2118.8125,183.0781 C2115.9219,183.0781 2113.8125,181.1875 2113.8125,178.6094 L2113.8125,177.4844 C2113.8125,174.7656 2115.8125,172.6875 2118.4375,172.6875 C2119.3125,172.6875 2119.9063,172.8281 2120.8438,173.2656 Z "/><text fill="#000000" font-family="sans-serif" font-size="12" lengthAdjust="spacingAndGlyphs" textLength="45" x="2132.5" y="181.748">:Survey</text><line style="stroke: #A80036; stroke-width: 1.5;" x1="2104.5" x2="2179.5" y1="193.5938" y2="193.5938"/><line style="stroke: #A80036; stroke-width: 1.5;" x1="2104.5" x2="2179.5" y1="201.5938" y2="201.5938"/></a><!--MD5=[bb6d9abb7e221430576ccc276aa8775d]
class sosa:Observation--><rect fill="#FEFECE" filter="url(#f14nic9jr9b5mo)" height="48" id="sosa:Observation" style="stroke: #A80036; stroke-width: 1.5;" width="141" x="2343.5" y="47.0938"/><ellipse cx="2358.5" cy="63.0938" fill="#ADD1B2" rx="11" ry="11" style="stroke: #A80036; stroke-width: 1.0;"/><path d="M2360.8438,58.7656 L2361.0156,58.8438 C2361.2344,58.5313 2361.4375,58.4375 2361.7344,58.4375 C2362.0313,58.4375 2362.3125,58.5781 2362.4688,58.8438 C2362.5625,59 2362.5781,59.125 2362.5781,59.5625 L2362.5781,60.9844 C2362.5781,61.4063 2362.5469,61.5938 2362.4375,61.75 C2362.2656,61.9688 2362,62.1094 2361.7344,62.1094 C2361.5156,62.1094 2361.2813,62 2361.1406,61.8594 C2361,61.7344 2360.9688,61.6094 2360.9063,61.2031 C2360.8125,60.7969 2360.6406,60.5781 2360.1563,60.2969 C2359.6875,60.0469 2359.0781,59.8906 2358.5,59.8906 C2356.7656,59.8906 2355.5156,61.2031 2355.5156,62.9844 L2355.5156,64.0781 C2355.5156,65.7813 2356.8125,66.875 2358.8594,66.875 C2359.625,66.875 2360.3125,66.75 2360.7344,66.4844 C2360.9219,66.3906 2360.9219,66.3906 2361.375,65.9063 C2361.5625,65.7188 2361.7656,65.6406 2361.9844,65.6406 C2362.4531,65.6406 2362.8438,66.0313 2362.8438,66.4844 C2362.8438,66.875 2362.5156,67.3281 2361.9375,67.7344 C2361.1875,68.2813 2360.0313,68.5781 2358.8125,68.5781 C2355.9219,68.5781 2353.8125,66.6875 2353.8125,64.1094 L2353.8125,62.9844 C2353.8125,60.2656 2355.8125,58.1875 2358.4375,58.1875 C2359.3125,58.1875 2359.9063,58.3281 2360.8438,58.7656 Z "/><text fill="#000000" font-family="sans-serif" font-size="12" lengthAdjust="spacingAndGlyphs" textLength="109" x="2372.5" y="67.248">sosa:Observation</text><line style="stroke: #A80036; stroke-width: 1.5;" x1="2344.5" x2="2483.5" y1="79.0938" y2="79.0938"/><line style="stroke: #A80036; stroke-width: 1.5;" x1="2344.5" x2="2483.5" y1="87.0938" y2="87.0938"/><!--MD5=[b2a8d2e130b98aa952ed50aba61fd144]
class :TaxonAssignment--><a href="http://linked.data.gov.au/def/plot/x/TaxonAssignment" target="_top" title="http://linked.data.gov.au/def/plot/x/TaxonAssignment" xlink:actuate="onRequest" xlink:href="http://linked.data.gov.au/def/plot/x/TaxonAssignment" xlink:show="new" xlink:title="http://linked.data.gov.au/def/plot/x/TaxonAssignment" xlink:type="simple"><rect fill="#FEFECE" filter="url(#f14nic9jr9b5mo)" height="48" id=":TaxonAssignment" style="stroke: #A80036; stroke-width: 1.5;" width="146" x="2341" y="161.5938"/><ellipse cx="2356" cy="177.5938" fill="#ADD1B2" rx="11" ry="11" style="stroke: #A80036; stroke-width: 1.0;"/><path d="M2358.3438,173.2656 L2358.5156,173.3438 C2358.7344,173.0313 2358.9375,172.9375 2359.2344,172.9375 C2359.5313,172.9375 2359.8125,173.0781 2359.9688,173.3438 C2360.0625,173.5 2360.0781,173.625 2360.0781,174.0625 L2360.0781,175.4844 C2360.0781,175.9063 2360.0469,176.0938 2359.9375,176.25 C2359.7656,176.4688 2359.5,176.6094 2359.2344,176.6094 C2359.0156,176.6094 2358.7813,176.5 2358.6406,176.3594 C2358.5,176.2344 2358.4688,176.1094 2358.4063,175.7031 C2358.3125,175.2969 2358.1406,175.0781 2357.6563,174.7969 C2357.1875,174.5469 2356.5781,174.3906 2356,174.3906 C2354.2656,174.3906 2353.0156,175.7031 2353.0156,177.4844 L2353.0156,178.5781 C2353.0156,180.2813 2354.3125,181.375 2356.3594,181.375 C2357.125,181.375 2357.8125,181.25 2358.2344,180.9844 C2358.4219,180.8906 2358.4219,180.8906 2358.875,180.4063 C2359.0625,180.2188 2359.2656,180.1406 2359.4844,180.1406 C2359.9531,180.1406 2360.3438,180.5313 2360.3438,180.9844 C2360.3438,181.375 2360.0156,181.8281 2359.4375,182.2344 C2358.6875,182.7813 2357.5313,183.0781 2356.3125,183.0781 C2353.4219,183.0781 2351.3125,181.1875 2351.3125,178.6094 L2351.3125,177.4844 C2351.3125,174.7656 2353.3125,172.6875 2355.9375,172.6875 C2356.8125,172.6875 2357.4063,172.8281 2358.3438,173.2656 Z "/><text fill="#000000" font-family="sans-serif" font-size="12" lengthAdjust="spacingAndGlyphs" textLength="114" x="2370" y="181.748">:TaxonAssignment</text><line style="stroke: #A80036; stroke-width: 1.5;" x1="2342" x2="2486" y1="193.5938" y2="193.5938"/><line style="stroke: #A80036; stroke-width: 1.5;" x1="2342" x2="2486" y1="201.5938" y2="201.5938"/></a><!--MD5=[50665e143bce30f6a1af9c952e41ca0e]
class sosa:Platform--><rect fill="#FEFECE" filter="url(#f14nic9jr9b5mo)" height="48" id="sosa:Platform" style="stroke: #A80036; stroke-width: 1.5;" width="118" x="2520" y="47.0938"/><ellipse cx="2535" cy="63.0938" fill="#ADD1B2" rx="11" ry="11" style="stroke: #A80036; stroke-width: 1.0;"/><path d="M2537.3438,58.7656 L2537.5156,58.8438 C2537.7344,58.5313 2537.9375,58.4375 2538.2344,58.4375 C2538.5313,58.4375 2538.8125,58.5781 2538.9688,58.8438 C2539.0625,59 2539.0781,59.125 2539.0781,59.5625 L2539.0781,60.9844 C2539.0781,61.4063 2539.0469,61.5938 2538.9375,61.75 C2538.7656,61.9688 2538.5,62.1094 2538.2344,62.1094 C2538.0156,62.1094 2537.7813,62 2537.6406,61.8594 C2537.5,61.7344 2537.4688,61.6094 2537.4063,61.2031 C2537.3125,60.7969 2537.1406,60.5781 2536.6563,60.2969 C2536.1875,60.0469 2535.5781,59.8906 2535,59.8906 C2533.2656,59.8906 2532.0156,61.2031 2532.0156,62.9844 L2532.0156,64.0781 C2532.0156,65.7813 2533.3125,66.875 2535.3594,66.875 C2536.125,66.875 2536.8125,66.75 2537.2344,66.4844 C2537.4219,66.3906 2537.4219,66.3906 2537.875,65.9063 C2538.0625,65.7188 2538.2656,65.6406 2538.4844,65.6406 C2538.9531,65.6406 2539.3438,66.0313 2539.3438,66.4844 C2539.3438,66.875 2539.0156,67.3281 2538.4375,67.7344 C2537.6875,68.2813 2536.5313,68.5781 2535.3125,68.5781 C2532.4219,68.5781 2530.3125,66.6875 2530.3125,64.1094 L2530.3125,62.9844 C2530.3125,60.2656 2532.3125,58.1875 2534.9375,58.1875 C2535.8125,58.1875 2536.4063,58.3281 2537.3438,58.7656 Z "/><text fill="#000000" font-family="sans-serif" font-size="12" lengthAdjust="spacingAndGlyphs" textLength="86" x="2549" y="67.248">sosa:Platform</text><line style="stroke: #A80036; stroke-width: 1.5;" x1="2521" x2="2637" y1="79.0938" y2="79.0938"/><line style="stroke: #A80036; stroke-width: 1.5;" x1="2521" x2="2637" y1="87.0938" y2="87.0938"/><!--MD5=[3df895f3135a771803c07af651931204]
class :FluxTower--><a href="http://linked.data.gov.au/def/plot/x/FluxTower" target="_top" title="http://linked.data.gov.au/def/plot/x/FluxTower" xlink:actuate="onRequest" xlink:href="http://linked.data.gov.au/def/plot/x/FluxTower" xlink:show="new" xlink:title="http://linked.data.gov.au/def/plot/x/FluxTower" xlink:type="simple"><rect fill="#FEFECE" filter="url(#f14nic9jr9b5mo)" height="48" id=":FluxTower" style="stroke: #A80036; stroke-width: 1.5;" width="97" x="2530.5" y="161.5938"/><ellipse cx="2545.5" cy="177.5938" fill="#ADD1B2" rx="11" ry="11" style="stroke: #A80036; stroke-width: 1.0;"/><path d="M2547.8438,173.2656 L2548.0156,173.3438 C2548.2344,173.0313 2548.4375,172.9375 2548.7344,172.9375 C2549.0313,172.9375 2549.3125,173.0781 2549.4688,173.3438 C2549.5625,173.5 2549.5781,173.625 2549.5781,174.0625 L2549.5781,175.4844 C2549.5781,175.9063 2549.5469,176.0938 2549.4375,176.25 C2549.2656,176.4688 2549,176.6094 2548.7344,176.6094 C2548.5156,176.6094 2548.2813,176.5 2548.1406,176.3594 C2548,176.2344 2547.9688,176.1094 2547.9063,175.7031 C2547.8125,175.2969 2547.6406,175.0781 2547.1563,174.7969 C2546.6875,174.5469 2546.0781,174.3906 2545.5,174.3906 C2543.7656,174.3906 2542.5156,175.7031 2542.5156,177.4844 L2542.5156,178.5781 C2542.5156,180.2813 2543.8125,181.375 2545.8594,181.375 C2546.625,181.375 2547.3125,181.25 2547.7344,180.9844 C2547.9219,180.8906 2547.9219,180.8906 2548.375,180.4063 C2548.5625,180.2188 2548.7656,180.1406 2548.9844,180.1406 C2549.4531,180.1406 2549.8438,180.5313 2549.8438,180.9844 C2549.8438,181.375 2549.5156,181.8281 2548.9375,182.2344 C2548.1875,182.7813 2547.0313,183.0781 2545.8125,183.0781 C2542.9219,183.0781 2540.8125,181.1875 2540.8125,178.6094 L2540.8125,177.4844 C2540.8125,174.7656 2542.8125,172.6875 2545.4375,172.6875 C2546.3125,172.6875 2546.9063,172.8281 2547.8438,173.2656 Z "/><text fill="#000000" font-family="sans-serif" font-size="12" lengthAdjust="spacingAndGlyphs" textLength="65" x="2559.5" y="181.748">:FluxTower</text><line style="stroke: #A80036; stroke-width: 1.5;" x1="2531.5" x2="2626.5" y1="193.5938" y2="193.5938"/><line style="stroke: #A80036; stroke-width: 1.5;" x1="2531.5" x2="2626.5" y1="201.5938" y2="201.5938"/></a><!--MD5=[a7bef1571412352f70cef7962b9a3d10]
class :SiteVisit--><a href="http://linked.data.gov.au/def/plot/SiteVisit" target="_top" title="http://linked.data.gov.au/def/plot/SiteVisit" xlink:actuate="onRequest" xlink:href="http://linked.data.gov.au/def/plot/SiteVisit" xlink:show="new" xlink:title="http://linked.data.gov.au/def/plot/SiteVisit" xlink:type="simple"><rect fill="#FEFECE" filter="url(#f14nic9jr9b5mo)" height="48" id=":SiteVisit" style="stroke: #A80036; stroke-width: 1.5;" width="86" x="2216" y="161.5938"/><ellipse cx="2231" cy="177.5938" fill="#ADD1B2" rx="11" ry="11" style="stroke: #A80036; stroke-width: 1.0;"/><path d="M2233.3438,173.2656 L2233.5156,173.3438 C2233.7344,173.0313 2233.9375,172.9375 2234.2344,172.9375 C2234.5313,172.9375 2234.8125,173.0781 2234.9688,173.3438 C2235.0625,173.5 2235.0781,173.625 2235.0781,174.0625 L2235.0781,175.4844 C2235.0781,175.9063 2235.0469,176.0938 2234.9375,176.25 C2234.7656,176.4688 2234.5,176.6094 2234.2344,176.6094 C2234.0156,176.6094 2233.7813,176.5 2233.6406,176.3594 C2233.5,176.2344 2233.4688,176.1094 2233.4063,175.7031 C2233.3125,175.2969 2233.1406,175.0781 2232.6563,174.7969 C2232.1875,174.5469 2231.5781,174.3906 2231,174.3906 C2229.2656,174.3906 2228.0156,175.7031 2228.0156,177.4844 L2228.0156,178.5781 C2228.0156,180.2813 2229.3125,181.375 2231.3594,181.375 C2232.125,181.375 2232.8125,181.25 2233.2344,180.9844 C2233.4219,180.8906 2233.4219,180.8906 2233.875,180.4063 C2234.0625,180.2188 2234.2656,180.1406 2234.4844,180.1406 C2234.9531,180.1406 2235.3438,180.5313 2235.3438,180.9844 C2235.3438,181.375 2235.0156,181.8281 2234.4375,182.2344 C2233.6875,182.7813 2232.5313,183.0781 2231.3125,183.0781 C2228.4219,183.0781 2226.3125,181.1875 2226.3125,178.6094 L2226.3125,177.4844 C2226.3125,174.7656 2228.3125,172.6875 2230.9375,172.6875 C2231.8125,172.6875 2232.4063,172.8281 2233.3438,173.2656 Z "/><text fill="#000000" font-family="sans-serif" font-size="12" lengthAdjust="spacingAndGlyphs" textLength="54" x="2245" y="181.748">:SiteVisit</text><line style="stroke: #A80036; stroke-width: 1.5;" x1="2217" x2="2301" y1="193.5938" y2="193.5938"/><line style="stroke: #A80036; stroke-width: 1.5;" x1="2217" x2="2301" y1="201.5938" y2="201.5938"/></a><!--MD5=[f6b9b747f08f3018e39ed94054dbb971]
class :Assemblage--><a href="http://linked.data.gov.au/def/plot/x/Assemblage" target="_top" title="http://linked.data.gov.au/def/plot/x/Assemblage" xlink:actuate="onRequest" xlink:href="http://linked.data.gov.au/def/plot/x/Assemblage" xlink:show="new" xlink:title="http://linked.data.gov.au/def/plot/x/Assemblage" xlink:type="simple"><rect fill="#FEFECE" filter="url(#f14nic9jr9b5mo)" height="48" id=":Assemblage" style="stroke: #A80036; stroke-width: 1.5;" width="112" x="608" y="485.5938"/><ellipse cx="623" cy="501.5938" fill="#ADD1B2" rx="11" ry="11" style="stroke: #A80036; stroke-width: 1.0;"/><path d="M625.3438,497.2656 L625.5156,497.3438 C625.7344,497.0313 625.9375,496.9375 626.2344,496.9375 C626.5313,496.9375 626.8125,497.0781 626.9688,497.3438 C627.0625,497.5 627.0781,497.625 627.0781,498.0625 L627.0781,499.4844 C627.0781,499.9063 627.0469,500.0938 626.9375,500.25 C626.7656,500.4688 626.5,500.6094 626.2344,500.6094 C626.0156,500.6094 625.7813,500.5 625.6406,500.3594 C625.5,500.2344 625.4688,500.1094 625.4063,499.7031 C625.3125,499.2969 625.1406,499.0781 624.6563,498.7969 C624.1875,498.5469 623.5781,498.3906 623,498.3906 C621.2656,498.3906 620.0156,499.7031 620.0156,501.4844 L620.0156,502.5781 C620.0156,504.2813 621.3125,505.375 623.3594,505.375 C624.125,505.375 624.8125,505.25 625.2344,504.9844 C625.4219,504.8906 625.4219,504.8906 625.875,504.4063 C626.0625,504.2188 626.2656,504.1406 626.4844,504.1406 C626.9531,504.1406 627.3438,504.5313 627.3438,504.9844 C627.3438,505.375 627.0156,505.8281 626.4375,506.2344 C625.6875,506.7813 624.5313,507.0781 623.3125,507.0781 C620.4219,507.0781 618.3125,505.1875 618.3125,502.6094 L618.3125,501.4844 C618.3125,498.7656 620.3125,496.6875 622.9375,496.6875 C623.8125,496.6875 624.4063,496.8281 625.3438,497.2656 Z "/><text fill="#000000" font-family="sans-serif" font-size="12" lengthAdjust="spacingAndGlyphs" textLength="80" x="637" y="505.748">:Assemblage</text><line style="stroke: #A80036; stroke-width: 1.5;" x1="609" x2="719" y1="517.5938" y2="517.5938"/><line style="stroke: #A80036; stroke-width: 1.5;" x1="609" x2="719" y1="525.5938" y2="525.5938"/></a><!--MD5=[313751d88e530a9b19b67ace9347529e]
class :EnvironmentalZone--><a href="http://linked.data.gov.au/def/plot/x/EnvironmentalZone" target="_top" title="http://linked.data.gov.au/def/plot/x/EnvironmentalZone" xlink:actuate="onRequest" xlink:href="http://linked.data.gov.au/def/plot/x/EnvironmentalZone" xlink:show="new" xlink:title="http://linked.data.gov.au/def/plot/x/EnvironmentalZone" xlink:type="simple"><rect fill="#FEFECE" filter="url(#f14nic9jr9b5mo)" height="48" id=":EnvironmentalZone" style="stroke: #A80036; stroke-width: 1.5;" width="158" x="784" y="269.5938"/><ellipse cx="799" cy="285.5938" fill="#ADD1B2" rx="11" ry="11" style="stroke: #A80036; stroke-width: 1.0;"/><path d="M801.3438,281.2656 L801.5156,281.3438 C801.7344,281.0313 801.9375,280.9375 802.2344,280.9375 C802.5313,280.9375 802.8125,281.0781 802.9688,281.3438 C803.0625,281.5 803.0781,281.625 803.0781,282.0625 L803.0781,283.4844 C803.0781,283.9063 803.0469,284.0938 802.9375,284.25 C802.7656,284.4688 802.5,284.6094 802.2344,284.6094 C802.0156,284.6094 801.7813,284.5 801.6406,284.3594 C801.5,284.2344 801.4688,284.1094 801.4063,283.7031 C801.3125,283.2969 801.1406,283.0781 800.6563,282.7969 C800.1875,282.5469 799.5781,282.3906 799,282.3906 C797.2656,282.3906 796.0156,283.7031 796.0156,285.4844 L796.0156,286.5781 C796.0156,288.2813 797.3125,289.375 799.3594,289.375 C800.125,289.375 800.8125,289.25 801.2344,288.9844 C801.4219,288.8906 801.4219,288.8906 801.875,288.4063 C802.0625,288.2188 802.2656,288.1406 802.4844,288.1406 C802.9531,288.1406 803.3438,288.5313 803.3438,288.9844 C803.3438,289.375 803.0156,289.8281 802.4375,290.2344 C801.6875,290.7813 800.5313,291.0781 799.3125,291.0781 C796.4219,291.0781 794.3125,289.1875 794.3125,286.6094 L794.3125,285.4844 C794.3125,282.7656 796.3125,280.6875 798.9375,280.6875 C799.8125,280.6875 800.4063,280.8281 801.3438,281.2656 Z "/><text fill="#000000" font-family="sans-serif" font-size="12" lengthAdjust="spacingAndGlyphs" textLength="126" x="813" y="289.748">:EnvironmentalZone</text><line style="stroke: #A80036; stroke-width: 1.5;" x1="785" x2="941" y1="301.5938" y2="301.5938"/><line style="stroke: #A80036; stroke-width: 1.5;" x1="785" x2="941" y1="309.5938" y2="309.5938"/></a><!--MD5=[3a2672805874e655d6e4cd0fc7e6c16f]
class :SiteTaxon--><a href="http://linked.data.gov.au/def/plot/SiteTaxon" target="_top" title="http://linked.data.gov.au/def/plot/SiteTaxon" xlink:actuate="onRequest" xlink:href="http://linked.data.gov.au/def/plot/SiteTaxon" xlink:show="new" xlink:title="http://linked.data.gov.au/def/plot/SiteTaxon" xlink:type="simple"><rect fill="#FEFECE" filter="url(#f14nic9jr9b5mo)" height="48" id=":SiteTaxon" style="stroke: #A80036; stroke-width: 1.5;" width="97" x="1390.5" y="161.5938"/><ellipse cx="1405.5" cy="177.5938" fill="#ADD1B2" rx="11" ry="11" style="stroke: #A80036; stroke-width: 1.0;"/><path d="M1407.8438,173.2656 L1408.0156,173.3438 C1408.2344,173.0313 1408.4375,172.9375 1408.7344,172.9375 C1409.0313,172.9375 1409.3125,173.0781 1409.4688,173.3438 C1409.5625,173.5 1409.5781,173.625 1409.5781,174.0625 L1409.5781,175.4844 C1409.5781,175.9063 1409.5469,176.0938 1409.4375,176.25 C1409.2656,176.4688 1409,176.6094 1408.7344,176.6094 C1408.5156,176.6094 1408.2813,176.5 1408.1406,176.3594 C1408,176.2344 1407.9688,176.1094 1407.9063,175.7031 C1407.8125,175.2969 1407.6406,175.0781 1407.1563,174.7969 C1406.6875,174.5469 1406.0781,174.3906 1405.5,174.3906 C1403.7656,174.3906 1402.5156,175.7031 1402.5156,177.4844 L1402.5156,178.5781 C1402.5156,180.2813 1403.8125,181.375 1405.8594,181.375 C1406.625,181.375 1407.3125,181.25 1407.7344,180.9844 C1407.9219,180.8906 1407.9219,180.8906 1408.375,180.4063 C1408.5625,180.2188 1408.7656,180.1406 1408.9844,180.1406 C1409.4531,180.1406 1409.8438,180.5313 1409.8438,180.9844 C1409.8438,181.375 1409.5156,181.8281 1408.9375,182.2344 C1408.1875,182.7813 1407.0313,183.0781 1405.8125,183.0781 C1402.9219,183.0781 1400.8125,181.1875 1400.8125,178.6094 L1400.8125,177.4844 C1400.8125,174.7656 1402.8125,172.6875 1405.4375,172.6875 C1406.3125,172.6875 1406.9063,172.8281 1407.8438,173.2656 Z "/><text fill="#000000" font-family="sans-serif" font-size="12" lengthAdjust="spacingAndGlyphs" textLength="65" x="1419.5" y="181.748">:SiteTaxon</text><line style="stroke: #A80036; stroke-width: 1.5;" x1="1391.5" x2="1486.5" y1="193.5938" y2="193.5938"/><line style="stroke: #A80036; stroke-width: 1.5;" x1="1391.5" x2="1486.5" y1="201.5938" y2="201.5938"/></a><!--MD5=[d39fc9acfb97eea5012d0a1ecfd76de8]
class :ub1bL307C26--><a href="ub1bL307C26" target="_top" title="ub1bL307C26" xlink:actuate="onRequest" xlink:href="ub1bL307C26" xlink:show="new" xlink:title="ub1bL307C26" xlink:type="simple"><rect fill="#FEFECE" filter="url(#f14nic9jr9b5mo)" height="48" id=":ub1bL307C26" style="stroke: #A80036; stroke-width: 1.5;" width="122" x="6" y="47.0938"/><ellipse cx="21" cy="63.0938" fill="#ADD1B2" rx="11" ry="11" style="stroke: #A80036; stroke-width: 1.0;"/><path d="M23.3438,58.7656 L23.5156,58.8438 C23.7344,58.5313 23.9375,58.4375 24.2344,58.4375 C24.5313,58.4375 24.8125,58.5781 24.9688,58.8438 C25.0625,59 25.0781,59.125 25.0781,59.5625 L25.0781,60.9844 C25.0781,61.4063 25.0469,61.5938 24.9375,61.75 C24.7656,61.9688 24.5,62.1094 24.2344,62.1094 C24.0156,62.1094 23.7813,62 23.6406,61.8594 C23.5,61.7344 23.4688,61.6094 23.4063,61.2031 C23.3125,60.7969 23.1406,60.5781 22.6563,60.2969 C22.1875,60.0469 21.5781,59.8906 21,59.8906 C19.2656,59.8906 18.0156,61.2031 18.0156,62.9844 L18.0156,64.0781 C18.0156,65.7813 19.3125,66.875 21.3594,66.875 C22.125,66.875 22.8125,66.75 23.2344,66.4844 C23.4219,66.3906 23.4219,66.3906 23.875,65.9063 C24.0625,65.7188 24.2656,65.6406 24.4844,65.6406 C24.9531,65.6406 25.3438,66.0313 25.3438,66.4844 C25.3438,66.875 25.0156,67.3281 24.4375,67.7344 C23.6875,68.2813 22.5313,68.5781 21.3125,68.5781 C18.4219,68.5781 16.3125,66.6875 16.3125,64.1094 L16.3125,62.9844 C16.3125,60.2656 18.3125,58.1875 20.9375,58.1875 C21.8125,58.1875 22.4063,58.3281 23.3438,58.7656 Z "/><text fill="#000000" font-family="sans-serif" font-size="12" lengthAdjust="spacingAndGlyphs" textLength="90" x="35" y="67.248">:ub1bL307C26</text><line style="stroke: #A80036; stroke-width: 1.5;" x1="7" x2="127" y1="79.0938" y2="79.0938"/><line style="stroke: #A80036; stroke-width: 1.5;" x1="7" x2="127" y1="87.0938" y2="87.0938"/></a><!--MD5=[a2628b293a9723f47390e4c57545d1ae]
class :ub1bL571C15--><a href="ub1bL571C15" target="_top" title="ub1bL571C15" xlink:actuate="onRequest" xlink:href="ub1bL571C15" xlink:show="new" xlink:title="ub1bL571C15" xlink:type="simple"><rect fill="#FEFECE" filter="url(#f14nic9jr9b5mo)" height="60.8047" id=":ub1bL571C15" style="stroke: #A80036; stroke-width: 1.5;" width="225" x="163.5" y="40.5938"/><ellipse cx="226.75" cy="56.5938" fill="#ADD1B2" rx="11" ry="11" style="stroke: #A80036; stroke-width: 1.0;"/><path d="M229.0938,52.2656 L229.2656,52.3438 C229.4844,52.0313 229.6875,51.9375 229.9844,51.9375 C230.2813,51.9375 230.5625,52.0781 230.7188,52.3438 C230.8125,52.5 230.8281,52.625 230.8281,53.0625 L230.8281,54.4844 C230.8281,54.9063 230.7969,55.0938 230.6875,55.25 C230.5156,55.4688 230.25,55.6094 229.9844,55.6094 C229.7656,55.6094 229.5313,55.5 229.3906,55.3594 C229.25,55.2344 229.2188,55.1094 229.1563,54.7031 C229.0625,54.2969 228.8906,54.0781 228.4063,53.7969 C227.9375,53.5469 227.3281,53.3906 226.75,53.3906 C225.0156,53.3906 223.7656,54.7031 223.7656,56.4844 L223.7656,57.5781 C223.7656,59.2813 225.0625,60.375 227.1094,60.375 C227.875,60.375 228.5625,60.25 228.9844,59.9844 C229.1719,59.8906 229.1719,59.8906 229.625,59.4063 C229.8125,59.2188 230.0156,59.1406 230.2344,59.1406 C230.7031,59.1406 231.0938,59.5313 231.0938,59.9844 C231.0938,60.375 230.7656,60.8281 230.1875,61.2344 C229.4375,61.7813 228.2813,62.0781 227.0625,62.0781 C224.1719,62.0781 222.0625,60.1875 222.0625,57.6094 L222.0625,56.4844 C222.0625,53.7656 224.0625,51.6875 226.6875,51.6875 C227.5625,51.6875 228.1563,51.8281 229.0938,52.2656 Z "/><text fill="#000000" font-family="sans-serif" font-size="12" lengthAdjust="spacingAndGlyphs" textLength="90" x="247.25" y="60.748">:ub1bL571C15</text><line style="stroke: #A80036; stroke-width: 1.5;" x1="164.5" x2="387.5" y1="72.5938" y2="72.5938"/></a><a href="http://www.w3.org/ns/ssn/ext/isMemberOf" target="_top" title="http://www.w3.org/ns/ssn/ext/isMemberOf" xlink:actuate="onRequest" xlink:href="http://www.w3.org/ns/ssn/ext/isMemberOf" xlink:show="new" xlink:title="http://www.w3.org/ns/ssn/ext/isMemberOf" xlink:type="simple"><text fill="#0000FF" font-family="sans-serif" font-size="11" lengthAdjust="spacingAndGlyphs" text-decoration="underline" textLength="73" x="169.5" y="86.8042">:isMemberOf</text></a><text fill="#000000" font-family="sans-serif" font-size="11" lengthAdjust="spacingAndGlyphs" textLength="4" x="246.5" y="86.8042">:</text><a href="http://www.w3.org/ns/ssn/ext/ObservationCollection" target="_top" title="http://www.w3.org/ns/ssn/ext/ObservationCollection" xlink:actuate="onRequest" xlink:href="http://www.w3.org/ns/ssn/ext/ObservationCollection" xlink:show="new" xlink:title="http://www.w3.org/ns/ssn/ext/ObservationCollection" xlink:type="simple"><text fill="#0000FF" font-family="sans-serif" font-size="11" lengthAdjust="spacingAndGlyphs" text-decoration="underline" textLength="128" x="254.5" y="86.8042">:ObservationCollection</text></a><line style="stroke: #A80036; stroke-width: 1.5;" x1="164.5" x2="387.5" y1="93.3984" y2="93.3984"/><!--MD5=[64b2c2f1abdedb6345a6d1a18b1806eb]
class :ub1bL494C15--><a href="ub1bL494C15" target="_top" title="ub1bL494C15" xlink:actuate="onRequest" xlink:href="ub1bL494C15" xlink:show="new" xlink:title="ub1bL494C15" xlink:type="simple"><rect fill="#FEFECE" filter="url(#f14nic9jr9b5mo)" height="48" id=":ub1bL494C15" style="stroke: #A80036; stroke-width: 1.5;" width="122" x="424" y="47.0938"/><ellipse cx="439" cy="63.0938" fill="#ADD1B2" rx="11" ry="11" style="stroke: #A80036; stroke-width: 1.0;"/><path d="M441.3438,58.7656 L441.5156,58.8438 C441.7344,58.5313 441.9375,58.4375 442.2344,58.4375 C442.5313,58.4375 442.8125,58.5781 442.9688,58.8438 C443.0625,59 443.0781,59.125 443.0781,59.5625 L443.0781,60.9844 C443.0781,61.4063 443.0469,61.5938 442.9375,61.75 C442.7656,61.9688 442.5,62.1094 442.2344,62.1094 C442.0156,62.1094 441.7813,62 441.6406,61.8594 C441.5,61.7344 441.4688,61.6094 441.4063,61.2031 C441.3125,60.7969 441.1406,60.5781 440.6563,60.2969 C440.1875,60.0469 439.5781,59.8906 439,59.8906 C437.2656,59.8906 436.0156,61.2031 436.0156,62.9844 L436.0156,64.0781 C436.0156,65.7813 437.3125,66.875 439.3594,66.875 C440.125,66.875 440.8125,66.75 441.2344,66.4844 C441.4219,66.3906 441.4219,66.3906 441.875,65.9063 C442.0625,65.7188 442.2656,65.6406 442.4844,65.6406 C442.9531,65.6406 443.3438,66.0313 443.3438,66.4844 C443.3438,66.875 443.0156,67.3281 442.4375,67.7344 C441.6875,68.2813 440.5313,68.5781 439.3125,68.5781 C436.4219,68.5781 434.3125,66.6875 434.3125,64.1094 L434.3125,62.9844 C434.3125,60.2656 436.3125,58.1875 438.9375,58.1875 C439.8125,58.1875 440.4063,58.3281 441.3438,58.7656 Z "/><text fill="#000000" font-family="sans-serif" font-size="12" lengthAdjust="spacingAndGlyphs" textLength="90" x="453" y="67.248">:ub1bL494C15</text><line style="stroke: #A80036; stroke-width: 1.5;" x1="425" x2="545" y1="79.0938" y2="79.0938"/><line style="stroke: #A80036; stroke-width: 1.5;" x1="425" x2="545" y1="87.0938" y2="87.0938"/></a><!--MD5=[ac45ecb4fe0054274f018135938a801d]
class :ub1bL554C23--><a href="ub1bL554C23" target="_top" title="ub1bL554C23" xlink:actuate="onRequest" xlink:href="ub1bL554C23" xlink:show="new" xlink:title="ub1bL554C23" xlink:type="simple"><rect fill="#FEFECE" filter="url(#f14nic9jr9b5mo)" height="48" id=":ub1bL554C23" style="stroke: #A80036; stroke-width: 1.5;" width="122" x="6" y="161.5938"/><ellipse cx="21" cy="177.5938" fill="#ADD1B2" rx="11" ry="11" style="stroke: #A80036; stroke-width: 1.0;"/><path d="M23.3438,173.2656 L23.5156,173.3438 C23.7344,173.0313 23.9375,172.9375 24.2344,172.9375 C24.5313,172.9375 24.8125,173.0781 24.9688,173.3438 C25.0625,173.5 25.0781,173.625 25.0781,174.0625 L25.0781,175.4844 C25.0781,175.9063 25.0469,176.0938 24.9375,176.25 C24.7656,176.4688 24.5,176.6094 24.2344,176.6094 C24.0156,176.6094 23.7813,176.5 23.6406,176.3594 C23.5,176.2344 23.4688,176.1094 23.4063,175.7031 C23.3125,175.2969 23.1406,175.0781 22.6563,174.7969 C22.1875,174.5469 21.5781,174.3906 21,174.3906 C19.2656,174.3906 18.0156,175.7031 18.0156,177.4844 L18.0156,178.5781 C18.0156,180.2813 19.3125,181.375 21.3594,181.375 C22.125,181.375 22.8125,181.25 23.2344,180.9844 C23.4219,180.8906 23.4219,180.8906 23.875,180.4063 C24.0625,180.2188 24.2656,180.1406 24.4844,180.1406 C24.9531,180.1406 25.3438,180.5313 25.3438,180.9844 C25.3438,181.375 25.0156,181.8281 24.4375,182.2344 C23.6875,182.7813 22.5313,183.0781 21.3125,183.0781 C18.4219,183.0781 16.3125,181.1875 16.3125,178.6094 L16.3125,177.4844 C16.3125,174.7656 18.3125,172.6875 20.9375,172.6875 C21.8125,172.6875 22.4063,172.8281 23.3438,173.2656 Z "/><text fill="#000000" font-family="sans-serif" font-size="12" lengthAdjust="spacingAndGlyphs" textLength="90" x="35" y="181.748">:ub1bL554C23</text><line style="stroke: #A80036; stroke-width: 1.5;" x1="7" x2="127" y1="193.5938" y2="193.5938"/><line style="stroke: #A80036; stroke-width: 1.5;" x1="7" x2="127" y1="201.5938" y2="201.5938"/></a><!--MD5=[0f25cf74e97785200e99d5888124f2b2]
class :ub1bL149C26--><a href="ub1bL149C26" target="_top" title="ub1bL149C26" xlink:actuate="onRequest" xlink:href="ub1bL149C26" xlink:show="new" xlink:title="ub1bL149C26" xlink:type="simple"><rect fill="#FEFECE" filter="url(#f14nic9jr9b5mo)" height="48" id=":ub1bL149C26" style="stroke: #A80036; stroke-width: 1.5;" width="122" x="163" y="161.5938"/><ellipse cx="178" cy="177.5938" fill="#ADD1B2" rx="11" ry="11" style="stroke: #A80036; stroke-width: 1.0;"/><path d="M180.3438,173.2656 L180.5156,173.3438 C180.7344,173.0313 180.9375,172.9375 181.2344,172.9375 C181.5313,172.9375 181.8125,173.0781 181.9688,173.3438 C182.0625,173.5 182.0781,173.625 182.0781,174.0625 L182.0781,175.4844 C182.0781,175.9063 182.0469,176.0938 181.9375,176.25 C181.7656,176.4688 181.5,176.6094 181.2344,176.6094 C181.0156,176.6094 180.7813,176.5 180.6406,176.3594 C180.5,176.2344 180.4688,176.1094 180.4063,175.7031 C180.3125,175.2969 180.1406,175.0781 179.6563,174.7969 C179.1875,174.5469 178.5781,174.3906 178,174.3906 C176.2656,174.3906 175.0156,175.7031 175.0156,177.4844 L175.0156,178.5781 C175.0156,180.2813 176.3125,181.375 178.3594,181.375 C179.125,181.375 179.8125,181.25 180.2344,180.9844 C180.4219,180.8906 180.4219,180.8906 180.875,180.4063 C181.0625,180.2188 181.2656,180.1406 181.4844,180.1406 C181.9531,180.1406 182.3438,180.5313 182.3438,180.9844 C182.3438,181.375 182.0156,181.8281 181.4375,182.2344 C180.6875,182.7813 179.5313,183.0781 178.3125,183.0781 C175.4219,183.0781 173.3125,181.1875 173.3125,178.6094 L173.3125,177.4844 C173.3125,174.7656 175.3125,172.6875 177.9375,172.6875 C178.8125,172.6875 179.4063,172.8281 180.3438,173.2656 Z "/><text fill="#000000" font-family="sans-serif" font-size="12" lengthAdjust="spacingAndGlyphs" textLength="90" x="192" y="181.748">:ub1bL149C26</text><line style="stroke: #A80036; stroke-width: 1.5;" x1="164" x2="284" y1="193.5938" y2="193.5938"/><line style="stroke: #A80036; stroke-width: 1.5;" x1="164" x2="284" y1="201.5938" y2="201.5938"/></a><!--MD5=[6be681d58cb9eb648eb2301dc577ad8b]
class dwc:Occurrence--><rect fill="#FEFECE" filter="url(#f14nic9jr9b5mo)" height="48" id="dwc:Occurrence" style="stroke: #A80036; stroke-width: 1.5;" width="132" x="1799" y="47.0938"/><ellipse cx="1814" cy="63.0938" fill="#ADD1B2" rx="11" ry="11" style="stroke: #A80036; stroke-width: 1.0;"/><path d="M1816.3438,58.7656 L1816.5156,58.8438 C1816.7344,58.5313 1816.9375,58.4375 1817.2344,58.4375 C1817.5313,58.4375 1817.8125,58.5781 1817.9688,58.8438 C1818.0625,59 1818.0781,59.125 1818.0781,59.5625 L1818.0781,60.9844 C1818.0781,61.4063 1818.0469,61.5938 1817.9375,61.75 C1817.7656,61.9688 1817.5,62.1094 1817.2344,62.1094 C1817.0156,62.1094 1816.7813,62 1816.6406,61.8594 C1816.5,61.7344 1816.4688,61.6094 1816.4063,61.2031 C1816.3125,60.7969 1816.1406,60.5781 1815.6563,60.2969 C1815.1875,60.0469 1814.5781,59.8906 1814,59.8906 C1812.2656,59.8906 1811.0156,61.2031 1811.0156,62.9844 L1811.0156,64.0781 C1811.0156,65.7813 1812.3125,66.875 1814.3594,66.875 C1815.125,66.875 1815.8125,66.75 1816.2344,66.4844 C1816.4219,66.3906 1816.4219,66.3906 1816.875,65.9063 C1817.0625,65.7188 1817.2656,65.6406 1817.4844,65.6406 C1817.9531,65.6406 1818.3438,66.0313 1818.3438,66.4844 C1818.3438,66.875 1818.0156,67.3281 1817.4375,67.7344 C1816.6875,68.2813 1815.5313,68.5781 1814.3125,68.5781 C1811.4219,68.5781 1809.3125,66.6875 1809.3125,64.1094 L1809.3125,62.9844 C1809.3125,60.2656 1811.3125,58.1875 1813.9375,58.1875 C1814.8125,58.1875 1815.4063,58.3281 1816.3438,58.7656 Z "/><text fill="#000000" font-family="sans-serif" font-size="12" lengthAdjust="spacingAndGlyphs" textLength="100" x="1828" y="67.248">dwc:Occurrence</text><line style="stroke: #A80036; stroke-width: 1.5;" x1="1800" x2="1930" y1="79.0938" y2="79.0938"/><line style="stroke: #A80036; stroke-width: 1.5;" x1="1800" x2="1930" y1="87.0938" y2="87.0938"/><!--MD5=[360ae85a8ddef6b242e05f837d25fa52]
reverse link sosa:FeatureOfInterest to :EnvironmentalContinuant--><path d="M670,115.2387 C670,131.0138 670,148.2458 670,161.5868 " fill="none" id="sosa:FeatureOfInterest&lt;-:EnvironmentalContinuant" style="stroke: #A80036; stroke-width: 1.0;"/><polygon fill="none" points="663,115.1318,670,95.1318,677,115.1307,663,115.1318" style="stroke: #A80036; stroke-width: 1.0;"/><!--MD5=[44e5cb1da9a681ab886e39901222d532]
reverse link dct:Location to :Location--><path d="M983,115.2387 C983,131.0138 983,148.2458 983,161.5868 " fill="none" id="dct:Location&lt;-:Location" style="stroke: #A80036; stroke-width: 1.0;"/><polygon fill="none" points="976,115.1318,983,95.1318,990,115.1307,976,115.1318" style="stroke: #A80036; stroke-width: 1.0;"/><!--MD5=[c800b92bc71a73c1356b74aba10f7cff]
reverse link sosa:Sample to :SiteStratumTaxon--><path d="M1249.77,106.5537 C1223.73,124.4158 1192.63,145.7448 1169.54,161.5868 " fill="none" id="sosa:Sample&lt;-:SiteStratumTaxon" style="stroke: #A80036; stroke-width: 1.0;"/><polygon fill="none" points="1245.96,100.6728,1266.42,95.1318,1253.88,112.2167,1245.96,100.6728" style="stroke: #A80036; stroke-width: 1.0;"/><!--MD5=[f9754e33c03ec009aca8f871ad818b23]
reverse link sosa:Sample to :OrganismOccurence--><path d="M1374.52,101.8637 C1446.24,127.2258 1510.41,147.0417 1559.29,161.5748 " fill="none" id="sosa:Sample&lt;-:OrganismOccurence" style="stroke: #A80036; stroke-width: 1.0;"/><polygon fill="none" points="1372.1,108.4337,1355.62,95.1148,1376.81,95.2498,1372.1,108.4337" style="stroke: #A80036; stroke-width: 1.0;"/><!--MD5=[d41ed85ec00667454d9621565d82d6d1]
reverse link time:TemporalEntity to :OrganismOccurence--><path d="M1520.69,106.2978 C1547.76,124.2118 1580.18,145.6688 1604.23,161.5868 " fill="none" id="time:TemporalEntity&lt;-:OrganismOccurence" style="stroke: #A80036; stroke-width: 1.0;"/><polygon fill="none" points="1516.63,112.0057,1503.81,95.1318,1524.35,100.3308,1516.63,112.0057" style="stroke: #A80036; stroke-width: 1.0;"/><!--MD5=[19c1fa849aed3cc5802a7757a42ef5ee]
reverse link geosparql:SpatialObject to :OrganismOccurence--><path d="M1660.2,114.4328 C1655.37,130.4258 1650.05,148.0188 1645.95,161.5868 " fill="none" id="geosparql:SpatialObject&lt;-:OrganismOccurence" style="stroke: #A80036; stroke-width: 1.0;"/><polygon fill="none" points="1653.55,112.2507,1666.04,95.1318,1666.95,116.3008,1653.55,112.2507" style="stroke: #A80036; stroke-width: 1.0;"/><!--MD5=[f104df006a5560d7d0e10e6497496b78]
reverse link sosa:Sample to :SiteStratum--><path d="M1300,115.2387 C1300,131.0138 1300,148.2458 1300,161.5868 " fill="none" id="sosa:Sample&lt;-:SiteStratum" style="stroke: #A80036; stroke-width: 1.0;"/><polygon fill="none" points="1293,115.1318,1300,95.1318,1307,115.1307,1293,115.1318" style="stroke: #A80036; stroke-width: 1.0;"/><!--MD5=[4afdbcc2aaa9793b213da55f0ac47a35]
reverse link :EnvironmentalSystem to :EcologicalCommunity--><path d="M664,337.6178 C664,351.1728 664,365.6318 664,377.2718 " fill="none" id=":EnvironmentalSystem&lt;-:EcologicalCommunity" style="stroke: #A80036; stroke-width: 1.0;"/><polygon fill="none" points="657,337.5938,664,317.5938,671,337.5938,657,337.5938" style="stroke: #A80036; stroke-width: 1.0;"/><!--MD5=[a05182c24c0f2da3184069ea6995fffe]
reverse link owl:Thing to :EnvironmentalSystem--><path d="M798.226,219.2538 C768.491,235.5007 733.255,254.7538 706.347,269.4558 " fill="none" id="owl:Thing&lt;-:EnvironmentalSystem" style="stroke: #A80036; stroke-width: 1.0;"/><polygon fill="none" points="794.997,213.0408,815.905,209.5938,801.71,225.3268,794.997,213.0408" style="stroke: #A80036; stroke-width: 1.0;"/><!--MD5=[331f6ab8dfe00a12657b01b61bdd174c]
reverse link :EnvironmentalContinuant to :EnvironmentalSystem--><path d="M667.565,229.6178 C666.797,243.1728 665.979,257.6318 665.32,269.2718 " fill="none" id=":EnvironmentalContinuant&lt;-:EnvironmentalSystem" style="stroke: #A80036; stroke-width: 1.0;"/><polygon fill="none" points="660.579,229.1667,668.698,209.5938,674.557,229.9577,660.579,229.1667" style="stroke: #A80036; stroke-width: 1.0;"/><!--MD5=[35c720b0d78d702b7d9d281cea18e765]
reverse link skos:Concept to :Stratum--><path d="M2025,115.2387 C2025,131.0138 2025,148.2458 2025,161.5868 " fill="none" id="skos:Concept&lt;-:Stratum" style="stroke: #A80036; stroke-width: 1.0;"/><polygon fill="none" points="2018,115.1318,2025,95.1318,2032,115.1307,2018,115.1318" style="stroke: #A80036; stroke-width: 1.0;"/><!--MD5=[c23c54f56d1ecb3574b631f735680183]
reverse link prov:Activity to :Survey--><path d="M2188.44,112.0338 C2177.81,128.6468 2165.84,147.3368 2156.72,161.5868 " fill="none" id="prov:Activity&lt;-:Survey" style="stroke: #A80036; stroke-width: 1.0;"/><polygon fill="none" points="2182.58,108.2038,2199.26,95.1318,2194.37,115.7498,2182.58,108.2038" style="stroke: #A80036; stroke-width: 1.0;"/><!--MD5=[00eea72691b1165f8f067d3db328fbe4]
reverse link sosa:Observation to :TaxonAssignment--><path d="M2414,115.2387 C2414,131.0138 2414,148.2458 2414,161.5868 " fill="none" id="sosa:Observation&lt;-:TaxonAssignment" style="stroke: #A80036; stroke-width: 1.0;"/><polygon fill="none" points="2407,115.1318,2414,95.1318,2421,115.1307,2407,115.1318" style="stroke: #A80036; stroke-width: 1.0;"/><!--MD5=[b868cf3775c856207f62f10252ac689d]
reverse link sosa:Platform to :FluxTower--><path d="M2579,115.2387 C2579,131.0138 2579,148.2458 2579,161.5868 " fill="none" id="sosa:Platform&lt;-:FluxTower" style="stroke: #A80036; stroke-width: 1.0;"/><polygon fill="none" points="2572,115.1318,2579,95.1318,2586,115.1307,2572,115.1318" style="stroke: #A80036; stroke-width: 1.0;"/><!--MD5=[275ba334fe22dfb021ff74c071397ab0]
reverse link prov:Activity to :SiteVisit--><path d="M2230.72,113.8977 C2237.18,130.0318 2244.31,147.8668 2249.8,161.5868 " fill="none" id="prov:Activity&lt;-:SiteVisit" style="stroke: #A80036; stroke-width: 1.0;"/><polygon fill="none" points="2224.14,116.3008,2223.22,95.1318,2237.14,111.1008,2224.14,116.3008" style="stroke: #A80036; stroke-width: 1.0;"/><!--MD5=[094ffb1d677d3631456e9901c1475881]
reverse link :EcologicalCommunity to :Assemblage--><path d="M664,445.6174 C664,459.173 664,473.6319 664,485.2722 " fill="none" id=":EcologicalCommunity&lt;-:Assemblage" style="stroke: #A80036; stroke-width: 1.0;"/><polygon fill="none" points="657,445.5943,664,425.5938,671,445.5942,657,445.5943" style="stroke: #A80036; stroke-width: 1.0;"/><!--MD5=[909701d58657220eaef5f1b15ddec774]
reverse link owl:Thing to :EnvironmentalZone--><path d="M860.029,229.6178 C860.669,243.1728 861.351,257.6318 861.9,269.2718 " fill="none" id="owl:Thing&lt;-:EnvironmentalZone" style="stroke: #A80036; stroke-width: 1.0;"/><polygon fill="none" points="853.035,229.9018,859.085,209.5938,867.02,229.2418,853.035,229.9018" style="stroke: #A80036; stroke-width: 1.0;"/><!--MD5=[c6ab8af9135bd6e784c73df634de44b2]
reverse link :EnvironmentalContinuant to :EnvironmentalZone--><path d="M729.466,219.2538 C759.048,235.5007 794.102,254.7538 820.871,269.4558 " fill="none" id=":EnvironmentalContinuant&lt;-:EnvironmentalZone" style="stroke: #A80036; stroke-width: 1.0;"/><polygon fill="none" points="726.038,225.3578,711.878,209.5938,732.778,213.0868,726.038,225.3578" style="stroke: #A80036; stroke-width: 1.0;"/><!--MD5=[563ca3b286fc5313db7dffbb2b0328c9]
reverse link sosa:Sample to :SiteTaxon--><path d="M1344.17,107.8417 C1365.9,125.4328 1391.47,146.1237 1410.57,161.5868 " fill="none" id="sosa:Sample&lt;-:SiteTaxon" style="stroke: #A80036; stroke-width: 1.0;"/><polygon fill="none" points="1339.61,113.1547,1328.46,95.1318,1348.41,102.2727,1339.61,113.1547" style="stroke: #A80036; stroke-width: 1.0;"/><!--MD5=[53ccb56f84498235ddbea6d9db34a729]
link dwc:Occurrence to :OrganismOccurence--><path d="M1818.72,95.1318 C1779.72,114.5448 1724.2,142.1818 1685.22,161.5868 " fill="none" id="dwc:Occurrence-:OrganismOccurence" style="stroke: #A80036; stroke-width: 1.0; stroke-dasharray: 7.0,7.0;"/><!--MD5=[501f2252f30b9fdb9b2e3a7691d7c30f]
link :ub1bL307C26 to :ub1bL571C15--><!--MD5=[0b872235b86f827b761d3c44845eeaeb]
link :ub1bL571C15 to :ub1bL494C15--><!--MD5=[47722f43bebfe24857dbce95bd587e5d]
link :ub1bL307C26 to :ub1bL554C23--><!--MD5=[5d3446591b700a68636d4a7371a2cb9e]
link :ub1bL554C23 to :ub1bL149C26--><text fill="#888888" font-family="sans-serif" font-size="10" lengthAdjust="spacingAndGlyphs" textLength="67" x="1191" y="552.876">Generated by</text><a href="https://github.com/edmondchuc/ontogram" target="_top" title="https://github.com/edmondchuc/ontogram" xlink:actuate="onRequest" xlink:href="https://github.com/edmondchuc/ontogram" xlink:show="new" xlink:title="https://github.com/edmondchuc/ontogram" xlink:type="simple"><text fill="#0000FF" font-family="sans-serif" font-size="10" lengthAdjust="spacingAndGlyphs" text-decoration="underline" textLength="204" x="1261" y="552.876">https://github.com/edmondchuc/ontogram</text></a><!--MD5=[e2407f2ec1d6c27a98693215011fbb3e]
@startuml
title The PLOT ontology
"sosa:FeatureOfInterest" <|- - ":EnvironmentalContinuant"
"dct:Location" <|- - ":Location"
"sosa:Sample" <|- - ":SiteStratumTaxon"
"sosa:Sample" <|- - ":OrganismOccurence"
"time:TemporalEntity" <|- - ":OrganismOccurence"
"geosparql:SpatialObject" <|- - ":OrganismOccurence"
"sosa:Sample" <|- - ":SiteStratum"
":EnvironmentalSystem" <|- - ":EcologicalCommunity"
"owl:Thing" <|- - ":EnvironmentalSystem"
":EnvironmentalContinuant" <|- - ":EnvironmentalSystem"
"skos:Concept" <|- - ":Stratum"
"prov:Activity" <|- - ":Survey"
"sosa:Observation" <|- - ":TaxonAssignment"
"sosa:Platform" <|- - ":FluxTower"
"prov:Activity" <|- - ":SiteVisit"
":EcologicalCommunity" <|- - ":Assemblage"
"owl:Thing" <|- - ":EnvironmentalZone"
":EnvironmentalContinuant" <|- - ":EnvironmentalZone"
"sosa:Sample" <|- - ":SiteTaxon"
Class ":EnvironmentalContinuant" [[http://linked.data.gov.au/def/plot/x/EnvironmentalContinuant]] {
}
Class ":Location" [[http://linked.data.gov.au/def/plot/Location]] {
}
Class ":ub1bL307C26" [[ub1bL307C26]] {
}
Class ":SiteStratumTaxon" [[http://linked.data.gov.au/def/plot/SiteStratumTaxon]] {
}
Class ":OrganismOccurence" [[http://linked.data.gov.au/def/plot/OrganismOccurence]] {
}
Class ":ub1bL571C15" [[ub1bL571C15]] {
[[http://www.w3.org/ns/ssn/ext/isMemberOf :isMemberOf]] : [[http://www.w3.org/ns/ssn/ext/ObservationCollection :ObservationCollection]]
}
Class ":SiteStratum" [[http://linked.data.gov.au/def/plot/SiteStratum]] {
}
Class ":EcologicalCommunity" [[http://linked.data.gov.au/def/plot/x/EcologicalCommunity]] {
}
Class ":EnvironmentalSystem" [[http://linked.data.gov.au/def/plot/x/EnvironmentalSystem]] {
}
Class ":Stratum" [[http://linked.data.gov.au/def/plot/Stratum]] {
}
Class ":Survey" [[http://linked.data.gov.au/def/plot/x/Survey]] {
}
Class ":TaxonAssignment" [[http://linked.data.gov.au/def/plot/x/TaxonAssignment]] {
}
Class ":ub1bL494C15" [[ub1bL494C15]] {
}
Class ":ub1bL554C23" [[ub1bL554C23]] {
}
Class ":ub1bL149C26" [[ub1bL149C26]] {
}
Class ":FluxTower" [[http://linked.data.gov.au/def/plot/x/FluxTower]] {
}
Class ":SiteVisit" [[http://linked.data.gov.au/def/plot/SiteVisit]] {
}
Class ":Assemblage" [[http://linked.data.gov.au/def/plot/x/Assemblage]] {
}
Class ":EnvironmentalZone" [[http://linked.data.gov.au/def/plot/x/EnvironmentalZone]] {
}
Class ":SiteTaxon" [[http://linked.data.gov.au/def/plot/SiteTaxon]] {
}
"dwc:Occurrence" .. ":OrganismOccurence"
header
Creator: Simon J.D.Cox (simon.cox@csiro.au) 
endheader
center footer Generated by [[https://github.com/edmondchuc/ontogram https://github.com/edmondchuc/ontogram]]
@enduml

PlantUML version 1.2020.01beta5(Unknown compile time)
(GPL source distribution)
Java Runtime: Java(TM) SE Runtime Environment
JVM: Java HotSpot(TM) 64-Bit Server VM
Java Version: 1.7.0_25-b15
Operating System: Linux
Default Encoding: UTF-8
Language: en
Country: US
--></g></svg>