<?xml version="1.0" encoding="UTF-8" standalone="no"?><svg xmlns="http://www.w3.org/2000/svg" xmlns:xlink="http://www.w3.org/1999/xlink" contentScriptType="application/ecmascript" contentStyleType="text/css" height="566px" preserveAspectRatio="none" style="width:2357px;height:566px;" version="1.1" viewBox="0 0 2357 566" width="2357px" zoomAndPan="magnify"><defs><filter height="300%" id="f1oynboow0pfh6" width="300%" x="-1" y="-1"><feGaussianBlur result="blurOut" stdDeviation="2.0"/><feColorMatrix in="blurOut" result="blurOut2" type="matrix" values="0 0 0 0 0 0 0 0 0 0 0 0 0 0 0 0 0 0 .4 0"/><feOffset dx="4.0" dy="4.0" in="blurOut2" result="blurOut3"/><feBlend in="SourceGraphic" in2="blurOut3" mode="normal"/></filter></defs><g><text fill="#888888" font-family="sans-serif" font-size="10" lengthAdjust="spacingAndGlyphs" textLength="223" x="2122" y="9.2822">Creator: Simon J.D.Cox (simon.cox@csiro.au)</text><text fill="#000000" font-family="sans-serif" font-size="18" lengthAdjust="spacingAndGlyphs" textLength="171" x="1087" y="28.3486">The PLOT ontology</text><!--MD5=[8b6ce312968107126c2336334b36ae49]
class sosa:Sample--><rect fill="#FEFECE" filter="url(#f1oynboow0pfh6)" height="48" id="sosa:Sample" style="stroke: #A80036; stroke-width: 1.5;" width="112" x="581" y="47.0938"/><ellipse cx="596" cy="63.0938" fill="#ADD1B2" rx="11" ry="11" style="stroke: #A80036; stroke-width: 1.0;"/><path d="M598.3438,58.7656 L598.5156,58.8438 C598.7344,58.5313 598.9375,58.4375 599.2344,58.4375 C599.5313,58.4375 599.8125,58.5781 599.9688,58.8438 C600.0625,59 600.0781,59.125 600.0781,59.5625 L600.0781,60.9844 C600.0781,61.4063 600.0469,61.5938 599.9375,61.75 C599.7656,61.9688 599.5,62.1094 599.2344,62.1094 C599.0156,62.1094 598.7813,62 598.6406,61.8594 C598.5,61.7344 598.4688,61.6094 598.4063,61.2031 C598.3125,60.7969 598.1406,60.5781 597.6563,60.2969 C597.1875,60.0469 596.5781,59.8906 596,59.8906 C594.2656,59.8906 593.0156,61.2031 593.0156,62.9844 L593.0156,64.0781 C593.0156,65.7813 594.3125,66.875 596.3594,66.875 C597.125,66.875 597.8125,66.75 598.2344,66.4844 C598.4219,66.3906 598.4219,66.3906 598.875,65.9063 C599.0625,65.7188 599.2656,65.6406 599.4844,65.6406 C599.9531,65.6406 600.3438,66.0313 600.3438,66.4844 C600.3438,66.875 600.0156,67.3281 599.4375,67.7344 C598.6875,68.2813 597.5313,68.5781 596.3125,68.5781 C593.4219,68.5781 591.3125,66.6875 591.3125,64.1094 L591.3125,62.9844 C591.3125,60.2656 593.3125,58.1875 595.9375,58.1875 C596.8125,58.1875 597.4063,58.3281 598.3438,58.7656 Z "/><text fill="#000000" font-family="sans-serif" font-size="12" lengthAdjust="spacingAndGlyphs" textLength="80" x="610" y="67.248">sosa:Sample</text><line style="stroke: #A80036; stroke-width: 1.5;" x1="582" x2="692" y1="79.0938" y2="79.0938"/><line style="stroke: #A80036; stroke-width: 1.5;" x1="582" x2="692" y1="87.0938" y2="87.0938"/><!--MD5=[05998431d8650f5302bbe94e4b45ca10]
class :SiteStratumTaxon--><a href="http://linked.data.gov.au/def/plot/SiteStratumTaxon" target="_top" title="http://linked.data.gov.au/def/plot/SiteStratumTaxon" xlink:actuate="onRequest" xlink:href="http://linked.data.gov.au/def/plot/SiteStratumTaxon" xlink:show="new" xlink:title="http://linked.data.gov.au/def/plot/SiteStratumTaxon" xlink:type="simple"><rect fill="#FEFECE" filter="url(#f1oynboow0pfh6)" height="48" id=":SiteStratumTaxon" style="stroke: #A80036; stroke-width: 1.5;" width="147" x="406.5" y="161.5938"/><ellipse cx="421.5" cy="177.5938" fill="#ADD1B2" rx="11" ry="11" style="stroke: #A80036; stroke-width: 1.0;"/><path d="M423.8438,173.2656 L424.0156,173.3438 C424.2344,173.0313 424.4375,172.9375 424.7344,172.9375 C425.0313,172.9375 425.3125,173.0781 425.4688,173.3438 C425.5625,173.5 425.5781,173.625 425.5781,174.0625 L425.5781,175.4844 C425.5781,175.9063 425.5469,176.0938 425.4375,176.25 C425.2656,176.4688 425,176.6094 424.7344,176.6094 C424.5156,176.6094 424.2813,176.5 424.1406,176.3594 C424,176.2344 423.9688,176.1094 423.9063,175.7031 C423.8125,175.2969 423.6406,175.0781 423.1563,174.7969 C422.6875,174.5469 422.0781,174.3906 421.5,174.3906 C419.7656,174.3906 418.5156,175.7031 418.5156,177.4844 L418.5156,178.5781 C418.5156,180.2813 419.8125,181.375 421.8594,181.375 C422.625,181.375 423.3125,181.25 423.7344,180.9844 C423.9219,180.8906 423.9219,180.8906 424.375,180.4063 C424.5625,180.2188 424.7656,180.1406 424.9844,180.1406 C425.4531,180.1406 425.8438,180.5313 425.8438,180.9844 C425.8438,181.375 425.5156,181.8281 424.9375,182.2344 C424.1875,182.7813 423.0313,183.0781 421.8125,183.0781 C418.9219,183.0781 416.8125,181.1875 416.8125,178.6094 L416.8125,177.4844 C416.8125,174.7656 418.8125,172.6875 421.4375,172.6875 C422.3125,172.6875 422.9063,172.8281 423.8438,173.2656 Z "/><text fill="#000000" font-family="sans-serif" font-size="12" lengthAdjust="spacingAndGlyphs" textLength="115" x="435.5" y="181.748">:SiteStratumTaxon</text><line style="stroke: #A80036; stroke-width: 1.5;" x1="407.5" x2="552.5" y1="193.5938" y2="193.5938"/><line style="stroke: #A80036; stroke-width: 1.5;" x1="407.5" x2="552.5" y1="201.5938" y2="201.5938"/></a><!--MD5=[f6742dd3b18cea425fa567171347bcdd]
class :EcologicalCommunity--><a href="http://linked.data.gov.au/def/plot/x/EcologicalCommunity" target="_top" title="http://linked.data.gov.au/def/plot/x/EcologicalCommunity" xlink:actuate="onRequest" xlink:href="http://linked.data.gov.au/def/plot/x/EcologicalCommunity" xlink:show="new" xlink:title="http://linked.data.gov.au/def/plot/x/EcologicalCommunity" xlink:type="simple"><rect fill="#FEFECE" filter="url(#f1oynboow0pfh6)" height="48" id=":EcologicalCommunity" style="stroke: #A80036; stroke-width: 1.5;" width="167" x="1114.5" y="377.5938"/><ellipse cx="1129.5" cy="393.5938" fill="#ADD1B2" rx="11" ry="11" style="stroke: #A80036; stroke-width: 1.0;"/><path d="M1131.8438,389.2656 L1132.0156,389.3438 C1132.2344,389.0313 1132.4375,388.9375 1132.7344,388.9375 C1133.0313,388.9375 1133.3125,389.0781 1133.4688,389.3438 C1133.5625,389.5 1133.5781,389.625 1133.5781,390.0625 L1133.5781,391.4844 C1133.5781,391.9063 1133.5469,392.0938 1133.4375,392.25 C1133.2656,392.4688 1133,392.6094 1132.7344,392.6094 C1132.5156,392.6094 1132.2813,392.5 1132.1406,392.3594 C1132,392.2344 1131.9688,392.1094 1131.9063,391.7031 C1131.8125,391.2969 1131.6406,391.0781 1131.1563,390.7969 C1130.6875,390.5469 1130.0781,390.3906 1129.5,390.3906 C1127.7656,390.3906 1126.5156,391.7031 1126.5156,393.4844 L1126.5156,394.5781 C1126.5156,396.2813 1127.8125,397.375 1129.8594,397.375 C1130.625,397.375 1131.3125,397.25 1131.7344,396.9844 C1131.9219,396.8906 1131.9219,396.8906 1132.375,396.4063 C1132.5625,396.2188 1132.7656,396.1406 1132.9844,396.1406 C1133.4531,396.1406 1133.8438,396.5313 1133.8438,396.9844 C1133.8438,397.375 1133.5156,397.8281 1132.9375,398.2344 C1132.1875,398.7813 1131.0313,399.0781 1129.8125,399.0781 C1126.9219,399.0781 1124.8125,397.1875 1124.8125,394.6094 L1124.8125,393.4844 C1124.8125,390.7656 1126.8125,388.6875 1129.4375,388.6875 C1130.3125,388.6875 1130.9063,388.8281 1131.8438,389.2656 Z "/><text fill="#000000" font-family="sans-serif" font-size="12" lengthAdjust="spacingAndGlyphs" textLength="135" x="1143.5" y="397.748">:EcologicalCommunity</text><line style="stroke: #A80036; stroke-width: 1.5;" x1="1115.5" x2="1280.5" y1="409.5938" y2="409.5938"/><line style="stroke: #A80036; stroke-width: 1.5;" x1="1115.5" x2="1280.5" y1="417.5938" y2="417.5938"/></a><!--MD5=[f6b9b747f08f3018e39ed94054dbb971]
class :Assemblage--><a href="http://linked.data.gov.au/def/plot/x/Assemblage" target="_top" title="http://linked.data.gov.au/def/plot/x/Assemblage" xlink:actuate="onRequest" xlink:href="http://linked.data.gov.au/def/plot/x/Assemblage" xlink:show="new" xlink:title="http://linked.data.gov.au/def/plot/x/Assemblage" xlink:type="simple"><rect fill="#FEFECE" filter="url(#f1oynboow0pfh6)" height="48" id=":Assemblage" style="stroke: #A80036; stroke-width: 1.5;" width="112" x="1142" y="485.5938"/><ellipse cx="1157" cy="501.5938" fill="#ADD1B2" rx="11" ry="11" style="stroke: #A80036; stroke-width: 1.0;"/><path d="M1159.3438,497.2656 L1159.5156,497.3438 C1159.7344,497.0313 1159.9375,496.9375 1160.2344,496.9375 C1160.5313,496.9375 1160.8125,497.0781 1160.9688,497.3438 C1161.0625,497.5 1161.0781,497.625 1161.0781,498.0625 L1161.0781,499.4844 C1161.0781,499.9063 1161.0469,500.0938 1160.9375,500.25 C1160.7656,500.4688 1160.5,500.6094 1160.2344,500.6094 C1160.0156,500.6094 1159.7813,500.5 1159.6406,500.3594 C1159.5,500.2344 1159.4688,500.1094 1159.4063,499.7031 C1159.3125,499.2969 1159.1406,499.0781 1158.6563,498.7969 C1158.1875,498.5469 1157.5781,498.3906 1157,498.3906 C1155.2656,498.3906 1154.0156,499.7031 1154.0156,501.4844 L1154.0156,502.5781 C1154.0156,504.2813 1155.3125,505.375 1157.3594,505.375 C1158.125,505.375 1158.8125,505.25 1159.2344,504.9844 C1159.4219,504.8906 1159.4219,504.8906 1159.875,504.4063 C1160.0625,504.2188 1160.2656,504.1406 1160.4844,504.1406 C1160.9531,504.1406 1161.3438,504.5313 1161.3438,504.9844 C1161.3438,505.375 1161.0156,505.8281 1160.4375,506.2344 C1159.6875,506.7813 1158.5313,507.0781 1157.3125,507.0781 C1154.4219,507.0781 1152.3125,505.1875 1152.3125,502.6094 L1152.3125,501.4844 C1152.3125,498.7656 1154.3125,496.6875 1156.9375,496.6875 C1157.8125,496.6875 1158.4063,496.8281 1159.3438,497.2656 Z "/><text fill="#000000" font-family="sans-serif" font-size="12" lengthAdjust="spacingAndGlyphs" textLength="80" x="1171" y="505.748">:Assemblage</text><line style="stroke: #A80036; stroke-width: 1.5;" x1="1143" x2="1253" y1="517.5938" y2="517.5938"/><line style="stroke: #A80036; stroke-width: 1.5;" x1="1143" x2="1253" y1="525.5938" y2="525.5938"/></a><!--MD5=[9655ad61792b4ed0d4f91a9adcbf26fa]
class dct:Location--><rect fill="#FEFECE" filter="url(#f1oynboow0pfh6)" height="48" id="dct:Location" style="stroke: #A80036; stroke-width: 1.5;" width="109" x="1515.5" y="47.0938"/><ellipse cx="1530.5" cy="63.0938" fill="#ADD1B2" rx="11" ry="11" style="stroke: #A80036; stroke-width: 1.0;"/><path d="M1532.8438,58.7656 L1533.0156,58.8438 C1533.2344,58.5313 1533.4375,58.4375 1533.7344,58.4375 C1534.0313,58.4375 1534.3125,58.5781 1534.4688,58.8438 C1534.5625,59 1534.5781,59.125 1534.5781,59.5625 L1534.5781,60.9844 C1534.5781,61.4063 1534.5469,61.5938 1534.4375,61.75 C1534.2656,61.9688 1534,62.1094 1533.7344,62.1094 C1533.5156,62.1094 1533.2813,62 1533.1406,61.8594 C1533,61.7344 1532.9688,61.6094 1532.9063,61.2031 C1532.8125,60.7969 1532.6406,60.5781 1532.1563,60.2969 C1531.6875,60.0469 1531.0781,59.8906 1530.5,59.8906 C1528.7656,59.8906 1527.5156,61.2031 1527.5156,62.9844 L1527.5156,64.0781 C1527.5156,65.7813 1528.8125,66.875 1530.8594,66.875 C1531.625,66.875 1532.3125,66.75 1532.7344,66.4844 C1532.9219,66.3906 1532.9219,66.3906 1533.375,65.9063 C1533.5625,65.7188 1533.7656,65.6406 1533.9844,65.6406 C1534.4531,65.6406 1534.8438,66.0313 1534.8438,66.4844 C1534.8438,66.875 1534.5156,67.3281 1533.9375,67.7344 C1533.1875,68.2813 1532.0313,68.5781 1530.8125,68.5781 C1527.9219,68.5781 1525.8125,66.6875 1525.8125,64.1094 L1525.8125,62.9844 C1525.8125,60.2656 1527.8125,58.1875 1530.4375,58.1875 C1531.3125,58.1875 1531.9063,58.3281 1532.8438,58.7656 Z "/><text fill="#000000" font-family="sans-serif" font-size="12" lengthAdjust="spacingAndGlyphs" textLength="77" x="1544.5" y="67.248">dct:Location</text><line style="stroke: #A80036; stroke-width: 1.5;" x1="1516.5" x2="1623.5" y1="79.0938" y2="79.0938"/><line style="stroke: #A80036; stroke-width: 1.5;" x1="1516.5" x2="1623.5" y1="87.0938" y2="87.0938"/><!--MD5=[0d2e18ac24d05bcb014024f64dd8f82f]
class :Location--><a href="http://linked.data.gov.au/def/plot/Location" target="_top" title="http://linked.data.gov.au/def/plot/Location" xlink:actuate="onRequest" xlink:href="http://linked.data.gov.au/def/plot/Location" xlink:show="new" xlink:title="http://linked.data.gov.au/def/plot/Location" xlink:type="simple"><rect fill="#FEFECE" filter="url(#f1oynboow0pfh6)" height="48" id=":Location" style="stroke: #A80036; stroke-width: 1.5;" width="89" x="1525.5" y="161.5938"/><ellipse cx="1540.5" cy="177.5938" fill="#ADD1B2" rx="11" ry="11" style="stroke: #A80036; stroke-width: 1.0;"/><path d="M1542.8438,173.2656 L1543.0156,173.3438 C1543.2344,173.0313 1543.4375,172.9375 1543.7344,172.9375 C1544.0313,172.9375 1544.3125,173.0781 1544.4688,173.3438 C1544.5625,173.5 1544.5781,173.625 1544.5781,174.0625 L1544.5781,175.4844 C1544.5781,175.9063 1544.5469,176.0938 1544.4375,176.25 C1544.2656,176.4688 1544,176.6094 1543.7344,176.6094 C1543.5156,176.6094 1543.2813,176.5 1543.1406,176.3594 C1543,176.2344 1542.9688,176.1094 1542.9063,175.7031 C1542.8125,175.2969 1542.6406,175.0781 1542.1563,174.7969 C1541.6875,174.5469 1541.0781,174.3906 1540.5,174.3906 C1538.7656,174.3906 1537.5156,175.7031 1537.5156,177.4844 L1537.5156,178.5781 C1537.5156,180.2813 1538.8125,181.375 1540.8594,181.375 C1541.625,181.375 1542.3125,181.25 1542.7344,180.9844 C1542.9219,180.8906 1542.9219,180.8906 1543.375,180.4063 C1543.5625,180.2188 1543.7656,180.1406 1543.9844,180.1406 C1544.4531,180.1406 1544.8438,180.5313 1544.8438,180.9844 C1544.8438,181.375 1544.5156,181.8281 1543.9375,182.2344 C1543.1875,182.7813 1542.0313,183.0781 1540.8125,183.0781 C1537.9219,183.0781 1535.8125,181.1875 1535.8125,178.6094 L1535.8125,177.4844 C1535.8125,174.7656 1537.8125,172.6875 1540.4375,172.6875 C1541.3125,172.6875 1541.9063,172.8281 1542.8438,173.2656 Z "/><text fill="#000000" font-family="sans-serif" font-size="12" lengthAdjust="spacingAndGlyphs" textLength="57" x="1554.5" y="181.748">:Location</text><line style="stroke: #A80036; stroke-width: 1.5;" x1="1526.5" x2="1613.5" y1="193.5938" y2="193.5938"/><line style="stroke: #A80036; stroke-width: 1.5;" x1="1526.5" x2="1613.5" y1="201.5938" y2="201.5938"/></a><!--MD5=[bb6d9abb7e221430576ccc276aa8775d]
class sosa:Observation--><rect fill="#FEFECE" filter="url(#f1oynboow0pfh6)" height="48" id="sosa:Observation" style="stroke: #A80036; stroke-width: 1.5;" width="141" x="1659.5" y="47.0938"/><ellipse cx="1674.5" cy="63.0938" fill="#ADD1B2" rx="11" ry="11" style="stroke: #A80036; stroke-width: 1.0;"/><path d="M1676.8438,58.7656 L1677.0156,58.8438 C1677.2344,58.5313 1677.4375,58.4375 1677.7344,58.4375 C1678.0313,58.4375 1678.3125,58.5781 1678.4688,58.8438 C1678.5625,59 1678.5781,59.125 1678.5781,59.5625 L1678.5781,60.9844 C1678.5781,61.4063 1678.5469,61.5938 1678.4375,61.75 C1678.2656,61.9688 1678,62.1094 1677.7344,62.1094 C1677.5156,62.1094 1677.2813,62 1677.1406,61.8594 C1677,61.7344 1676.9688,61.6094 1676.9063,61.2031 C1676.8125,60.7969 1676.6406,60.5781 1676.1563,60.2969 C1675.6875,60.0469 1675.0781,59.8906 1674.5,59.8906 C1672.7656,59.8906 1671.5156,61.2031 1671.5156,62.9844 L1671.5156,64.0781 C1671.5156,65.7813 1672.8125,66.875 1674.8594,66.875 C1675.625,66.875 1676.3125,66.75 1676.7344,66.4844 C1676.9219,66.3906 1676.9219,66.3906 1677.375,65.9063 C1677.5625,65.7188 1677.7656,65.6406 1677.9844,65.6406 C1678.4531,65.6406 1678.8438,66.0313 1678.8438,66.4844 C1678.8438,66.875 1678.5156,67.3281 1677.9375,67.7344 C1677.1875,68.2813 1676.0313,68.5781 1674.8125,68.5781 C1671.9219,68.5781 1669.8125,66.6875 1669.8125,64.1094 L1669.8125,62.9844 C1669.8125,60.2656 1671.8125,58.1875 1674.4375,58.1875 C1675.3125,58.1875 1675.9063,58.3281 1676.8438,58.7656 Z "/><text fill="#000000" font-family="sans-serif" font-size="12" lengthAdjust="spacingAndGlyphs" textLength="109" x="1688.5" y="67.248">sosa:Observation</text><line style="stroke: #A80036; stroke-width: 1.5;" x1="1660.5" x2="1799.5" y1="79.0938" y2="79.0938"/><line style="stroke: #A80036; stroke-width: 1.5;" x1="1660.5" x2="1799.5" y1="87.0938" y2="87.0938"/><!--MD5=[b2a8d2e130b98aa952ed50aba61fd144]
class :TaxonAssignment--><a href="http://linked.data.gov.au/def/plot/x/TaxonAssignment" target="_top" title="http://linked.data.gov.au/def/plot/x/TaxonAssignment" xlink:actuate="onRequest" xlink:href="http://linked.data.gov.au/def/plot/x/TaxonAssignment" xlink:show="new" xlink:title="http://linked.data.gov.au/def/plot/x/TaxonAssignment" xlink:type="simple"><rect fill="#FEFECE" filter="url(#f1oynboow0pfh6)" height="48" id=":TaxonAssignment" style="stroke: #A80036; stroke-width: 1.5;" width="146" x="1657" y="161.5938"/><ellipse cx="1672" cy="177.5938" fill="#ADD1B2" rx="11" ry="11" style="stroke: #A80036; stroke-width: 1.0;"/><path d="M1674.3438,173.2656 L1674.5156,173.3438 C1674.7344,173.0313 1674.9375,172.9375 1675.2344,172.9375 C1675.5313,172.9375 1675.8125,173.0781 1675.9688,173.3438 C1676.0625,173.5 1676.0781,173.625 1676.0781,174.0625 L1676.0781,175.4844 C1676.0781,175.9063 1676.0469,176.0938 1675.9375,176.25 C1675.7656,176.4688 1675.5,176.6094 1675.2344,176.6094 C1675.0156,176.6094 1674.7813,176.5 1674.6406,176.3594 C1674.5,176.2344 1674.4688,176.1094 1674.4063,175.7031 C1674.3125,175.2969 1674.1406,175.0781 1673.6563,174.7969 C1673.1875,174.5469 1672.5781,174.3906 1672,174.3906 C1670.2656,174.3906 1669.0156,175.7031 1669.0156,177.4844 L1669.0156,178.5781 C1669.0156,180.2813 1670.3125,181.375 1672.3594,181.375 C1673.125,181.375 1673.8125,181.25 1674.2344,180.9844 C1674.4219,180.8906 1674.4219,180.8906 1674.875,180.4063 C1675.0625,180.2188 1675.2656,180.1406 1675.4844,180.1406 C1675.9531,180.1406 1676.3438,180.5313 1676.3438,180.9844 C1676.3438,181.375 1676.0156,181.8281 1675.4375,182.2344 C1674.6875,182.7813 1673.5313,183.0781 1672.3125,183.0781 C1669.4219,183.0781 1667.3125,181.1875 1667.3125,178.6094 L1667.3125,177.4844 C1667.3125,174.7656 1669.3125,172.6875 1671.9375,172.6875 C1672.8125,172.6875 1673.4063,172.8281 1674.3438,173.2656 Z "/><text fill="#000000" font-family="sans-serif" font-size="12" lengthAdjust="spacingAndGlyphs" textLength="114" x="1686" y="181.748">:TaxonAssignment</text><line style="stroke: #A80036; stroke-width: 1.5;" x1="1658" x2="1802" y1="193.5938" y2="193.5938"/><line style="stroke: #A80036; stroke-width: 1.5;" x1="1658" x2="1802" y1="201.5938" y2="201.5938"/></a><!--MD5=[3a2672805874e655d6e4cd0fc7e6c16f]
class :SiteTaxon--><a href="http://linked.data.gov.au/def/plot/SiteTaxon" target="_top" title="http://linked.data.gov.au/def/plot/SiteTaxon" xlink:actuate="onRequest" xlink:href="http://linked.data.gov.au/def/plot/SiteTaxon" xlink:show="new" xlink:title="http://linked.data.gov.au/def/plot/SiteTaxon" xlink:type="simple"><rect fill="#FEFECE" filter="url(#f1oynboow0pfh6)" height="48" id=":SiteTaxon" style="stroke: #A80036; stroke-width: 1.5;" width="97" x="588.5" y="161.5938"/><ellipse cx="603.5" cy="177.5938" fill="#ADD1B2" rx="11" ry="11" style="stroke: #A80036; stroke-width: 1.0;"/><path d="M605.8438,173.2656 L606.0156,173.3438 C606.2344,173.0313 606.4375,172.9375 606.7344,172.9375 C607.0313,172.9375 607.3125,173.0781 607.4688,173.3438 C607.5625,173.5 607.5781,173.625 607.5781,174.0625 L607.5781,175.4844 C607.5781,175.9063 607.5469,176.0938 607.4375,176.25 C607.2656,176.4688 607,176.6094 606.7344,176.6094 C606.5156,176.6094 606.2813,176.5 606.1406,176.3594 C606,176.2344 605.9688,176.1094 605.9063,175.7031 C605.8125,175.2969 605.6406,175.0781 605.1563,174.7969 C604.6875,174.5469 604.0781,174.3906 603.5,174.3906 C601.7656,174.3906 600.5156,175.7031 600.5156,177.4844 L600.5156,178.5781 C600.5156,180.2813 601.8125,181.375 603.8594,181.375 C604.625,181.375 605.3125,181.25 605.7344,180.9844 C605.9219,180.8906 605.9219,180.8906 606.375,180.4063 C606.5625,180.2188 606.7656,180.1406 606.9844,180.1406 C607.4531,180.1406 607.8438,180.5313 607.8438,180.9844 C607.8438,181.375 607.5156,181.8281 606.9375,182.2344 C606.1875,182.7813 605.0313,183.0781 603.8125,183.0781 C600.9219,183.0781 598.8125,181.1875 598.8125,178.6094 L598.8125,177.4844 C598.8125,174.7656 600.8125,172.6875 603.4375,172.6875 C604.3125,172.6875 604.9063,172.8281 605.8438,173.2656 Z "/><text fill="#000000" font-family="sans-serif" font-size="12" lengthAdjust="spacingAndGlyphs" textLength="65" x="617.5" y="181.748">:SiteTaxon</text><line style="stroke: #A80036; stroke-width: 1.5;" x1="589.5" x2="684.5" y1="193.5938" y2="193.5938"/><line style="stroke: #A80036; stroke-width: 1.5;" x1="589.5" x2="684.5" y1="201.5938" y2="201.5938"/></a><!--MD5=[50665e143bce30f6a1af9c952e41ca0e]
class sosa:Platform--><rect fill="#FEFECE" filter="url(#f1oynboow0pfh6)" height="48" id="sosa:Platform" style="stroke: #A80036; stroke-width: 1.5;" width="118" x="1836" y="47.0938"/><ellipse cx="1851" cy="63.0938" fill="#ADD1B2" rx="11" ry="11" style="stroke: #A80036; stroke-width: 1.0;"/><path d="M1853.3438,58.7656 L1853.5156,58.8438 C1853.7344,58.5313 1853.9375,58.4375 1854.2344,58.4375 C1854.5313,58.4375 1854.8125,58.5781 1854.9688,58.8438 C1855.0625,59 1855.0781,59.125 1855.0781,59.5625 L1855.0781,60.9844 C1855.0781,61.4063 1855.0469,61.5938 1854.9375,61.75 C1854.7656,61.9688 1854.5,62.1094 1854.2344,62.1094 C1854.0156,62.1094 1853.7813,62 1853.6406,61.8594 C1853.5,61.7344 1853.4688,61.6094 1853.4063,61.2031 C1853.3125,60.7969 1853.1406,60.5781 1852.6563,60.2969 C1852.1875,60.0469 1851.5781,59.8906 1851,59.8906 C1849.2656,59.8906 1848.0156,61.2031 1848.0156,62.9844 L1848.0156,64.0781 C1848.0156,65.7813 1849.3125,66.875 1851.3594,66.875 C1852.125,66.875 1852.8125,66.75 1853.2344,66.4844 C1853.4219,66.3906 1853.4219,66.3906 1853.875,65.9063 C1854.0625,65.7188 1854.2656,65.6406 1854.4844,65.6406 C1854.9531,65.6406 1855.3438,66.0313 1855.3438,66.4844 C1855.3438,66.875 1855.0156,67.3281 1854.4375,67.7344 C1853.6875,68.2813 1852.5313,68.5781 1851.3125,68.5781 C1848.4219,68.5781 1846.3125,66.6875 1846.3125,64.1094 L1846.3125,62.9844 C1846.3125,60.2656 1848.3125,58.1875 1850.9375,58.1875 C1851.8125,58.1875 1852.4063,58.3281 1853.3438,58.7656 Z "/><text fill="#000000" font-family="sans-serif" font-size="12" lengthAdjust="spacingAndGlyphs" textLength="86" x="1865" y="67.248">sosa:Platform</text><line style="stroke: #A80036; stroke-width: 1.5;" x1="1837" x2="1953" y1="79.0938" y2="79.0938"/><line style="stroke: #A80036; stroke-width: 1.5;" x1="1837" x2="1953" y1="87.0938" y2="87.0938"/><!--MD5=[3df895f3135a771803c07af651931204]
class :FluxTower--><a href="http://linked.data.gov.au/def/plot/x/FluxTower" target="_top" title="http://linked.data.gov.au/def/plot/x/FluxTower" xlink:actuate="onRequest" xlink:href="http://linked.data.gov.au/def/plot/x/FluxTower" xlink:show="new" xlink:title="http://linked.data.gov.au/def/plot/x/FluxTower" xlink:type="simple"><rect fill="#FEFECE" filter="url(#f1oynboow0pfh6)" height="48" id=":FluxTower" style="stroke: #A80036; stroke-width: 1.5;" width="97" x="1846.5" y="161.5938"/><ellipse cx="1861.5" cy="177.5938" fill="#ADD1B2" rx="11" ry="11" style="stroke: #A80036; stroke-width: 1.0;"/><path d="M1863.8438,173.2656 L1864.0156,173.3438 C1864.2344,173.0313 1864.4375,172.9375 1864.7344,172.9375 C1865.0313,172.9375 1865.3125,173.0781 1865.4688,173.3438 C1865.5625,173.5 1865.5781,173.625 1865.5781,174.0625 L1865.5781,175.4844 C1865.5781,175.9063 1865.5469,176.0938 1865.4375,176.25 C1865.2656,176.4688 1865,176.6094 1864.7344,176.6094 C1864.5156,176.6094 1864.2813,176.5 1864.1406,176.3594 C1864,176.2344 1863.9688,176.1094 1863.9063,175.7031 C1863.8125,175.2969 1863.6406,175.0781 1863.1563,174.7969 C1862.6875,174.5469 1862.0781,174.3906 1861.5,174.3906 C1859.7656,174.3906 1858.5156,175.7031 1858.5156,177.4844 L1858.5156,178.5781 C1858.5156,180.2813 1859.8125,181.375 1861.8594,181.375 C1862.625,181.375 1863.3125,181.25 1863.7344,180.9844 C1863.9219,180.8906 1863.9219,180.8906 1864.375,180.4063 C1864.5625,180.2188 1864.7656,180.1406 1864.9844,180.1406 C1865.4531,180.1406 1865.8438,180.5313 1865.8438,180.9844 C1865.8438,181.375 1865.5156,181.8281 1864.9375,182.2344 C1864.1875,182.7813 1863.0313,183.0781 1861.8125,183.0781 C1858.9219,183.0781 1856.8125,181.1875 1856.8125,178.6094 L1856.8125,177.4844 C1856.8125,174.7656 1858.8125,172.6875 1861.4375,172.6875 C1862.3125,172.6875 1862.9063,172.8281 1863.8438,173.2656 Z "/><text fill="#000000" font-family="sans-serif" font-size="12" lengthAdjust="spacingAndGlyphs" textLength="65" x="1875.5" y="181.748">:FluxTower</text><line style="stroke: #A80036; stroke-width: 1.5;" x1="1847.5" x2="1942.5" y1="193.5938" y2="193.5938"/><line style="stroke: #A80036; stroke-width: 1.5;" x1="1847.5" x2="1942.5" y1="201.5938" y2="201.5938"/></a><!--MD5=[cb944c6968791c6d805c849a01519e07]
class sosa:FeatureOfInterest--><rect fill="#FEFECE" filter="url(#f1oynboow0pfh6)" height="48" id="sosa:FeatureOfInterest" style="stroke: #A80036; stroke-width: 1.5;" width="177" x="1303.5" y="47.0938"/><ellipse cx="1318.5" cy="63.0938" fill="#ADD1B2" rx="11" ry="11" style="stroke: #A80036; stroke-width: 1.0;"/><path d="M1320.8438,58.7656 L1321.0156,58.8438 C1321.2344,58.5313 1321.4375,58.4375 1321.7344,58.4375 C1322.0313,58.4375 1322.3125,58.5781 1322.4688,58.8438 C1322.5625,59 1322.5781,59.125 1322.5781,59.5625 L1322.5781,60.9844 C1322.5781,61.4063 1322.5469,61.5938 1322.4375,61.75 C1322.2656,61.9688 1322,62.1094 1321.7344,62.1094 C1321.5156,62.1094 1321.2813,62 1321.1406,61.8594 C1321,61.7344 1320.9688,61.6094 1320.9063,61.2031 C1320.8125,60.7969 1320.6406,60.5781 1320.1563,60.2969 C1319.6875,60.0469 1319.0781,59.8906 1318.5,59.8906 C1316.7656,59.8906 1315.5156,61.2031 1315.5156,62.9844 L1315.5156,64.0781 C1315.5156,65.7813 1316.8125,66.875 1318.8594,66.875 C1319.625,66.875 1320.3125,66.75 1320.7344,66.4844 C1320.9219,66.3906 1320.9219,66.3906 1321.375,65.9063 C1321.5625,65.7188 1321.7656,65.6406 1321.9844,65.6406 C1322.4531,65.6406 1322.8438,66.0313 1322.8438,66.4844 C1322.8438,66.875 1322.5156,67.3281 1321.9375,67.7344 C1321.1875,68.2813 1320.0313,68.5781 1318.8125,68.5781 C1315.9219,68.5781 1313.8125,66.6875 1313.8125,64.1094 L1313.8125,62.9844 C1313.8125,60.2656 1315.8125,58.1875 1318.4375,58.1875 C1319.3125,58.1875 1319.9063,58.3281 1320.8438,58.7656 Z "/><text fill="#000000" font-family="sans-serif" font-size="12" lengthAdjust="spacingAndGlyphs" textLength="145" x="1332.5" y="67.248">sosa:FeatureOfInterest</text><line style="stroke: #A80036; stroke-width: 1.5;" x1="1304.5" x2="1479.5" y1="79.0938" y2="79.0938"/><line style="stroke: #A80036; stroke-width: 1.5;" x1="1304.5" x2="1479.5" y1="87.0938" y2="87.0938"/><!--MD5=[271020f0bd72f99a9c4b6587d81e43ae]
class :EnvironmentalContinuant--><a href="http://linked.data.gov.au/def/plot/x/EnvironmentalContinuant" target="_top" title="http://linked.data.gov.au/def/plot/x/EnvironmentalContinuant" xlink:actuate="onRequest" xlink:href="http://linked.data.gov.au/def/plot/x/EnvironmentalContinuant" xlink:show="new" xlink:title="http://linked.data.gov.au/def/plot/x/EnvironmentalContinuant" xlink:type="simple"><rect fill="#FEFECE" filter="url(#f1oynboow0pfh6)" height="48" id=":EnvironmentalContinuant" style="stroke: #A80036; stroke-width: 1.5;" width="194" x="1295" y="161.5938"/><ellipse cx="1310" cy="177.5938" fill="#ADD1B2" rx="11" ry="11" style="stroke: #A80036; stroke-width: 1.0;"/><path d="M1312.3438,173.2656 L1312.5156,173.3438 C1312.7344,173.0313 1312.9375,172.9375 1313.2344,172.9375 C1313.5313,172.9375 1313.8125,173.0781 1313.9688,173.3438 C1314.0625,173.5 1314.0781,173.625 1314.0781,174.0625 L1314.0781,175.4844 C1314.0781,175.9063 1314.0469,176.0938 1313.9375,176.25 C1313.7656,176.4688 1313.5,176.6094 1313.2344,176.6094 C1313.0156,176.6094 1312.7813,176.5 1312.6406,176.3594 C1312.5,176.2344 1312.4688,176.1094 1312.4063,175.7031 C1312.3125,175.2969 1312.1406,175.0781 1311.6563,174.7969 C1311.1875,174.5469 1310.5781,174.3906 1310,174.3906 C1308.2656,174.3906 1307.0156,175.7031 1307.0156,177.4844 L1307.0156,178.5781 C1307.0156,180.2813 1308.3125,181.375 1310.3594,181.375 C1311.125,181.375 1311.8125,181.25 1312.2344,180.9844 C1312.4219,180.8906 1312.4219,180.8906 1312.875,180.4063 C1313.0625,180.2188 1313.2656,180.1406 1313.4844,180.1406 C1313.9531,180.1406 1314.3438,180.5313 1314.3438,180.9844 C1314.3438,181.375 1314.0156,181.8281 1313.4375,182.2344 C1312.6875,182.7813 1311.5313,183.0781 1310.3125,183.0781 C1307.4219,183.0781 1305.3125,181.1875 1305.3125,178.6094 L1305.3125,177.4844 C1305.3125,174.7656 1307.3125,172.6875 1309.9375,172.6875 C1310.8125,172.6875 1311.4063,172.8281 1312.3438,173.2656 Z "/><text fill="#000000" font-family="sans-serif" font-size="12" lengthAdjust="spacingAndGlyphs" textLength="162" x="1324" y="181.748">:EnvironmentalContinuant</text><line style="stroke: #A80036; stroke-width: 1.5;" x1="1296" x2="1488" y1="193.5938" y2="193.5938"/><line style="stroke: #A80036; stroke-width: 1.5;" x1="1296" x2="1488" y1="201.5938" y2="201.5938"/></a><!--MD5=[0d584a71ebce8b757d02fdb0fcc922f5]
class prov:Activity--><rect fill="#FEFECE" filter="url(#f1oynboow0pfh6)" height="48" id="prov:Activity" style="stroke: #A80036; stroke-width: 1.5;" width="106" x="2029" y="47.0938"/><ellipse cx="2044" cy="63.0938" fill="#ADD1B2" rx="11" ry="11" style="stroke: #A80036; stroke-width: 1.0;"/><path d="M2046.3438,58.7656 L2046.5156,58.8438 C2046.7344,58.5313 2046.9375,58.4375 2047.2344,58.4375 C2047.5313,58.4375 2047.8125,58.5781 2047.9688,58.8438 C2048.0625,59 2048.0781,59.125 2048.0781,59.5625 L2048.0781,60.9844 C2048.0781,61.4063 2048.0469,61.5938 2047.9375,61.75 C2047.7656,61.9688 2047.5,62.1094 2047.2344,62.1094 C2047.0156,62.1094 2046.7813,62 2046.6406,61.8594 C2046.5,61.7344 2046.4688,61.6094 2046.4063,61.2031 C2046.3125,60.7969 2046.1406,60.5781 2045.6563,60.2969 C2045.1875,60.0469 2044.5781,59.8906 2044,59.8906 C2042.2656,59.8906 2041.0156,61.2031 2041.0156,62.9844 L2041.0156,64.0781 C2041.0156,65.7813 2042.3125,66.875 2044.3594,66.875 C2045.125,66.875 2045.8125,66.75 2046.2344,66.4844 C2046.4219,66.3906 2046.4219,66.3906 2046.875,65.9063 C2047.0625,65.7188 2047.2656,65.6406 2047.4844,65.6406 C2047.9531,65.6406 2048.3438,66.0313 2048.3438,66.4844 C2048.3438,66.875 2048.0156,67.3281 2047.4375,67.7344 C2046.6875,68.2813 2045.5313,68.5781 2044.3125,68.5781 C2041.4219,68.5781 2039.3125,66.6875 2039.3125,64.1094 L2039.3125,62.9844 C2039.3125,60.2656 2041.3125,58.1875 2043.9375,58.1875 C2044.8125,58.1875 2045.4063,58.3281 2046.3438,58.7656 Z "/><text fill="#000000" font-family="sans-serif" font-size="12" lengthAdjust="spacingAndGlyphs" textLength="74" x="2058" y="67.248">prov:Activity</text><line style="stroke: #A80036; stroke-width: 1.5;" x1="2030" x2="2134" y1="79.0938" y2="79.0938"/><line style="stroke: #A80036; stroke-width: 1.5;" x1="2030" x2="2134" y1="87.0938" y2="87.0938"/><!--MD5=[2b86ed209687f3341cf235cea84d7fb4]
class :Survey--><a href="http://linked.data.gov.au/def/plot/x/Survey" target="_top" title="http://linked.data.gov.au/def/plot/x/Survey" xlink:actuate="onRequest" xlink:href="http://linked.data.gov.au/def/plot/x/Survey" xlink:show="new" xlink:title="http://linked.data.gov.au/def/plot/x/Survey" xlink:type="simple"><rect fill="#FEFECE" filter="url(#f1oynboow0pfh6)" height="48" id=":Survey" style="stroke: #A80036; stroke-width: 1.5;" width="77" x="1978.5" y="161.5938"/><ellipse cx="1993.5" cy="177.5938" fill="#ADD1B2" rx="11" ry="11" style="stroke: #A80036; stroke-width: 1.0;"/><path d="M1995.8438,173.2656 L1996.0156,173.3438 C1996.2344,173.0313 1996.4375,172.9375 1996.7344,172.9375 C1997.0313,172.9375 1997.3125,173.0781 1997.4688,173.3438 C1997.5625,173.5 1997.5781,173.625 1997.5781,174.0625 L1997.5781,175.4844 C1997.5781,175.9063 1997.5469,176.0938 1997.4375,176.25 C1997.2656,176.4688 1997,176.6094 1996.7344,176.6094 C1996.5156,176.6094 1996.2813,176.5 1996.1406,176.3594 C1996,176.2344 1995.9688,176.1094 1995.9063,175.7031 C1995.8125,175.2969 1995.6406,175.0781 1995.1563,174.7969 C1994.6875,174.5469 1994.0781,174.3906 1993.5,174.3906 C1991.7656,174.3906 1990.5156,175.7031 1990.5156,177.4844 L1990.5156,178.5781 C1990.5156,180.2813 1991.8125,181.375 1993.8594,181.375 C1994.625,181.375 1995.3125,181.25 1995.7344,180.9844 C1995.9219,180.8906 1995.9219,180.8906 1996.375,180.4063 C1996.5625,180.2188 1996.7656,180.1406 1996.9844,180.1406 C1997.4531,180.1406 1997.8438,180.5313 1997.8438,180.9844 C1997.8438,181.375 1997.5156,181.8281 1996.9375,182.2344 C1996.1875,182.7813 1995.0313,183.0781 1993.8125,183.0781 C1990.9219,183.0781 1988.8125,181.1875 1988.8125,178.6094 L1988.8125,177.4844 C1988.8125,174.7656 1990.8125,172.6875 1993.4375,172.6875 C1994.3125,172.6875 1994.9063,172.8281 1995.8438,173.2656 Z "/><text fill="#000000" font-family="sans-serif" font-size="12" lengthAdjust="spacingAndGlyphs" textLength="45" x="2007.5" y="181.748">:Survey</text><line style="stroke: #A80036; stroke-width: 1.5;" x1="1979.5" x2="2054.5" y1="193.5938" y2="193.5938"/><line style="stroke: #A80036; stroke-width: 1.5;" x1="1979.5" x2="2054.5" y1="201.5938" y2="201.5938"/></a><!--MD5=[e26081150a54feee97befd454a48c707]
class skos:Concept--><rect fill="#FEFECE" filter="url(#f1oynboow0pfh6)" height="48" id="skos:Concept" style="stroke: #A80036; stroke-width: 1.5;" width="117" x="2209.5" y="47.0938"/><ellipse cx="2224.5" cy="63.0938" fill="#ADD1B2" rx="11" ry="11" style="stroke: #A80036; stroke-width: 1.0;"/><path d="M2226.8438,58.7656 L2227.0156,58.8438 C2227.2344,58.5313 2227.4375,58.4375 2227.7344,58.4375 C2228.0313,58.4375 2228.3125,58.5781 2228.4688,58.8438 C2228.5625,59 2228.5781,59.125 2228.5781,59.5625 L2228.5781,60.9844 C2228.5781,61.4063 2228.5469,61.5938 2228.4375,61.75 C2228.2656,61.9688 2228,62.1094 2227.7344,62.1094 C2227.5156,62.1094 2227.2813,62 2227.1406,61.8594 C2227,61.7344 2226.9688,61.6094 2226.9063,61.2031 C2226.8125,60.7969 2226.6406,60.5781 2226.1563,60.2969 C2225.6875,60.0469 2225.0781,59.8906 2224.5,59.8906 C2222.7656,59.8906 2221.5156,61.2031 2221.5156,62.9844 L2221.5156,64.0781 C2221.5156,65.7813 2222.8125,66.875 2224.8594,66.875 C2225.625,66.875 2226.3125,66.75 2226.7344,66.4844 C2226.9219,66.3906 2226.9219,66.3906 2227.375,65.9063 C2227.5625,65.7188 2227.7656,65.6406 2227.9844,65.6406 C2228.4531,65.6406 2228.8438,66.0313 2228.8438,66.4844 C2228.8438,66.875 2228.5156,67.3281 2227.9375,67.7344 C2227.1875,68.2813 2226.0313,68.5781 2224.8125,68.5781 C2221.9219,68.5781 2219.8125,66.6875 2219.8125,64.1094 L2219.8125,62.9844 C2219.8125,60.2656 2221.8125,58.1875 2224.4375,58.1875 C2225.3125,58.1875 2225.9063,58.3281 2226.8438,58.7656 Z "/><text fill="#000000" font-family="sans-serif" font-size="12" lengthAdjust="spacingAndGlyphs" textLength="85" x="2238.5" y="67.248">skos:Concept</text><line style="stroke: #A80036; stroke-width: 1.5;" x1="2210.5" x2="2325.5" y1="79.0938" y2="79.0938"/><line style="stroke: #A80036; stroke-width: 1.5;" x1="2210.5" x2="2325.5" y1="87.0938" y2="87.0938"/><!--MD5=[8caf7ff1d4b6933ec1e0effa27d8a38d]
class :Stratum--><a href="http://linked.data.gov.au/def/plot/Stratum" target="_top" title="http://linked.data.gov.au/def/plot/Stratum" xlink:actuate="onRequest" xlink:href="http://linked.data.gov.au/def/plot/Stratum" xlink:show="new" xlink:title="http://linked.data.gov.au/def/plot/Stratum" xlink:type="simple"><rect fill="#FEFECE" filter="url(#f1oynboow0pfh6)" height="48" id=":Stratum" style="stroke: #A80036; stroke-width: 1.5;" width="86" x="2225" y="161.5938"/><ellipse cx="2240" cy="177.5938" fill="#ADD1B2" rx="11" ry="11" style="stroke: #A80036; stroke-width: 1.0;"/><path d="M2242.3438,173.2656 L2242.5156,173.3438 C2242.7344,173.0313 2242.9375,172.9375 2243.2344,172.9375 C2243.5313,172.9375 2243.8125,173.0781 2243.9688,173.3438 C2244.0625,173.5 2244.0781,173.625 2244.0781,174.0625 L2244.0781,175.4844 C2244.0781,175.9063 2244.0469,176.0938 2243.9375,176.25 C2243.7656,176.4688 2243.5,176.6094 2243.2344,176.6094 C2243.0156,176.6094 2242.7813,176.5 2242.6406,176.3594 C2242.5,176.2344 2242.4688,176.1094 2242.4063,175.7031 C2242.3125,175.2969 2242.1406,175.0781 2241.6563,174.7969 C2241.1875,174.5469 2240.5781,174.3906 2240,174.3906 C2238.2656,174.3906 2237.0156,175.7031 2237.0156,177.4844 L2237.0156,178.5781 C2237.0156,180.2813 2238.3125,181.375 2240.3594,181.375 C2241.125,181.375 2241.8125,181.25 2242.2344,180.9844 C2242.4219,180.8906 2242.4219,180.8906 2242.875,180.4063 C2243.0625,180.2188 2243.2656,180.1406 2243.4844,180.1406 C2243.9531,180.1406 2244.3438,180.5313 2244.3438,180.9844 C2244.3438,181.375 2244.0156,181.8281 2243.4375,182.2344 C2242.6875,182.7813 2241.5313,183.0781 2240.3125,183.0781 C2237.4219,183.0781 2235.3125,181.1875 2235.3125,178.6094 L2235.3125,177.4844 C2235.3125,174.7656 2237.3125,172.6875 2239.9375,172.6875 C2240.8125,172.6875 2241.4063,172.8281 2242.3438,173.2656 Z "/><text fill="#000000" font-family="sans-serif" font-size="12" lengthAdjust="spacingAndGlyphs" textLength="54" x="2254" y="181.748">:Stratum</text><line style="stroke: #A80036; stroke-width: 1.5;" x1="2226" x2="2310" y1="193.5938" y2="193.5938"/><line style="stroke: #A80036; stroke-width: 1.5;" x1="2226" x2="2310" y1="201.5938" y2="201.5938"/></a><!--MD5=[fc541faf7941394647775b46ff936e10]
class :EnvironmentalSystem--><a href="http://linked.data.gov.au/def/plot/x/EnvironmentalSystem" target="_top" title="http://linked.data.gov.au/def/plot/x/EnvironmentalSystem" xlink:actuate="onRequest" xlink:href="http://linked.data.gov.au/def/plot/x/EnvironmentalSystem" xlink:show="new" xlink:title="http://linked.data.gov.au/def/plot/x/EnvironmentalSystem" xlink:type="simple"><rect fill="#FEFECE" filter="url(#f1oynboow0pfh6)" height="48" id=":EnvironmentalSystem" style="stroke: #A80036; stroke-width: 1.5;" width="170" x="1113" y="269.5938"/><ellipse cx="1128" cy="285.5938" fill="#ADD1B2" rx="11" ry="11" style="stroke: #A80036; stroke-width: 1.0;"/><path d="M1130.3438,281.2656 L1130.5156,281.3438 C1130.7344,281.0313 1130.9375,280.9375 1131.2344,280.9375 C1131.5313,280.9375 1131.8125,281.0781 1131.9688,281.3438 C1132.0625,281.5 1132.0781,281.625 1132.0781,282.0625 L1132.0781,283.4844 C1132.0781,283.9063 1132.0469,284.0938 1131.9375,284.25 C1131.7656,284.4688 1131.5,284.6094 1131.2344,284.6094 C1131.0156,284.6094 1130.7813,284.5 1130.6406,284.3594 C1130.5,284.2344 1130.4688,284.1094 1130.4063,283.7031 C1130.3125,283.2969 1130.1406,283.0781 1129.6563,282.7969 C1129.1875,282.5469 1128.5781,282.3906 1128,282.3906 C1126.2656,282.3906 1125.0156,283.7031 1125.0156,285.4844 L1125.0156,286.5781 C1125.0156,288.2813 1126.3125,289.375 1128.3594,289.375 C1129.125,289.375 1129.8125,289.25 1130.2344,288.9844 C1130.4219,288.8906 1130.4219,288.8906 1130.875,288.4063 C1131.0625,288.2188 1131.2656,288.1406 1131.4844,288.1406 C1131.9531,288.1406 1132.3438,288.5313 1132.3438,288.9844 C1132.3438,289.375 1132.0156,289.8281 1131.4375,290.2344 C1130.6875,290.7813 1129.5313,291.0781 1128.3125,291.0781 C1125.4219,291.0781 1123.3125,289.1875 1123.3125,286.6094 L1123.3125,285.4844 C1123.3125,282.7656 1125.3125,280.6875 1127.9375,280.6875 C1128.8125,280.6875 1129.4063,280.8281 1130.3438,281.2656 Z "/><text fill="#000000" font-family="sans-serif" font-size="12" lengthAdjust="spacingAndGlyphs" textLength="138" x="1142" y="289.748">:EnvironmentalSystem</text><line style="stroke: #A80036; stroke-width: 1.5;" x1="1114" x2="1282" y1="301.5938" y2="301.5938"/><line style="stroke: #A80036; stroke-width: 1.5;" x1="1114" x2="1282" y1="309.5938" y2="309.5938"/></a><!--MD5=[a5045e2f80c39252163f54a3f2bf835a]
class :SiteStratum--><a href="http://linked.data.gov.au/def/plot/SiteStratum" target="_top" title="http://linked.data.gov.au/def/plot/SiteStratum" xlink:actuate="onRequest" xlink:href="http://linked.data.gov.au/def/plot/SiteStratum" xlink:show="new" xlink:title="http://linked.data.gov.au/def/plot/SiteStratum" xlink:type="simple"><rect fill="#FEFECE" filter="url(#f1oynboow0pfh6)" height="48" id=":SiteStratum" style="stroke: #A80036; stroke-width: 1.5;" width="110" x="721" y="161.5938"/><ellipse cx="736" cy="177.5938" fill="#ADD1B2" rx="11" ry="11" style="stroke: #A80036; stroke-width: 1.0;"/><path d="M738.3438,173.2656 L738.5156,173.3438 C738.7344,173.0313 738.9375,172.9375 739.2344,172.9375 C739.5313,172.9375 739.8125,173.0781 739.9688,173.3438 C740.0625,173.5 740.0781,173.625 740.0781,174.0625 L740.0781,175.4844 C740.0781,175.9063 740.0469,176.0938 739.9375,176.25 C739.7656,176.4688 739.5,176.6094 739.2344,176.6094 C739.0156,176.6094 738.7813,176.5 738.6406,176.3594 C738.5,176.2344 738.4688,176.1094 738.4063,175.7031 C738.3125,175.2969 738.1406,175.0781 737.6563,174.7969 C737.1875,174.5469 736.5781,174.3906 736,174.3906 C734.2656,174.3906 733.0156,175.7031 733.0156,177.4844 L733.0156,178.5781 C733.0156,180.2813 734.3125,181.375 736.3594,181.375 C737.125,181.375 737.8125,181.25 738.2344,180.9844 C738.4219,180.8906 738.4219,180.8906 738.875,180.4063 C739.0625,180.2188 739.2656,180.1406 739.4844,180.1406 C739.9531,180.1406 740.3438,180.5313 740.3438,180.9844 C740.3438,181.375 740.0156,181.8281 739.4375,182.2344 C738.6875,182.7813 737.5313,183.0781 736.3125,183.0781 C733.4219,183.0781 731.3125,181.1875 731.3125,178.6094 L731.3125,177.4844 C731.3125,174.7656 733.3125,172.6875 735.9375,172.6875 C736.8125,172.6875 737.4063,172.8281 738.3438,173.2656 Z "/><text fill="#000000" font-family="sans-serif" font-size="12" lengthAdjust="spacingAndGlyphs" textLength="78" x="750" y="181.748">:SiteStratum</text><line style="stroke: #A80036; stroke-width: 1.5;" x1="722" x2="830" y1="193.5938" y2="193.5938"/><line style="stroke: #A80036; stroke-width: 1.5;" x1="722" x2="830" y1="201.5938" y2="201.5938"/></a><!--MD5=[aec54989d0b5e1280b3fe804a99154c1]
class :OrganismOccurence--><a href="http://linked.data.gov.au/def/plot/OrganismOccurence" target="_top" title="http://linked.data.gov.au/def/plot/OrganismOccurence" xlink:actuate="onRequest" xlink:href="http://linked.data.gov.au/def/plot/OrganismOccurence" xlink:show="new" xlink:title="http://linked.data.gov.au/def/plot/OrganismOccurence" xlink:type="simple"><rect fill="#FEFECE" filter="url(#f1oynboow0pfh6)" height="48" id=":OrganismOccurence" style="stroke: #A80036; stroke-width: 1.5;" width="162" x="904" y="161.5938"/><ellipse cx="919" cy="177.5938" fill="#ADD1B2" rx="11" ry="11" style="stroke: #A80036; stroke-width: 1.0;"/><path d="M921.3438,173.2656 L921.5156,173.3438 C921.7344,173.0313 921.9375,172.9375 922.2344,172.9375 C922.5313,172.9375 922.8125,173.0781 922.9688,173.3438 C923.0625,173.5 923.0781,173.625 923.0781,174.0625 L923.0781,175.4844 C923.0781,175.9063 923.0469,176.0938 922.9375,176.25 C922.7656,176.4688 922.5,176.6094 922.2344,176.6094 C922.0156,176.6094 921.7813,176.5 921.6406,176.3594 C921.5,176.2344 921.4688,176.1094 921.4063,175.7031 C921.3125,175.2969 921.1406,175.0781 920.6563,174.7969 C920.1875,174.5469 919.5781,174.3906 919,174.3906 C917.2656,174.3906 916.0156,175.7031 916.0156,177.4844 L916.0156,178.5781 C916.0156,180.2813 917.3125,181.375 919.3594,181.375 C920.125,181.375 920.8125,181.25 921.2344,180.9844 C921.4219,180.8906 921.4219,180.8906 921.875,180.4063 C922.0625,180.2188 922.2656,180.1406 922.4844,180.1406 C922.9531,180.1406 923.3438,180.5313 923.3438,180.9844 C923.3438,181.375 923.0156,181.8281 922.4375,182.2344 C921.6875,182.7813 920.5313,183.0781 919.3125,183.0781 C916.4219,183.0781 914.3125,181.1875 914.3125,178.6094 L914.3125,177.4844 C914.3125,174.7656 916.3125,172.6875 918.9375,172.6875 C919.8125,172.6875 920.4063,172.8281 921.3438,173.2656 Z "/><text fill="#000000" font-family="sans-serif" font-size="12" lengthAdjust="spacingAndGlyphs" textLength="130" x="933" y="181.748">:OrganismOccurence</text><line style="stroke: #A80036; stroke-width: 1.5;" x1="905" x2="1065" y1="193.5938" y2="193.5938"/><line style="stroke: #A80036; stroke-width: 1.5;" x1="905" x2="1065" y1="201.5938" y2="201.5938"/></a><!--MD5=[9aaa16b4e45fc97314f609860701115f]
class geosparql:SpatialObject--><rect fill="#FEFECE" filter="url(#f1oynboow0pfh6)" height="48" id="geosparql:SpatialObject" style="stroke: #A80036; stroke-width: 1.5;" width="182" x="728" y="47.0938"/><ellipse cx="743" cy="63.0938" fill="#ADD1B2" rx="11" ry="11" style="stroke: #A80036; stroke-width: 1.0;"/><path d="M745.3438,58.7656 L745.5156,58.8438 C745.7344,58.5313 745.9375,58.4375 746.2344,58.4375 C746.5313,58.4375 746.8125,58.5781 746.9688,58.8438 C747.0625,59 747.0781,59.125 747.0781,59.5625 L747.0781,60.9844 C747.0781,61.4063 747.0469,61.5938 746.9375,61.75 C746.7656,61.9688 746.5,62.1094 746.2344,62.1094 C746.0156,62.1094 745.7813,62 745.6406,61.8594 C745.5,61.7344 745.4688,61.6094 745.4063,61.2031 C745.3125,60.7969 745.1406,60.5781 744.6563,60.2969 C744.1875,60.0469 743.5781,59.8906 743,59.8906 C741.2656,59.8906 740.0156,61.2031 740.0156,62.9844 L740.0156,64.0781 C740.0156,65.7813 741.3125,66.875 743.3594,66.875 C744.125,66.875 744.8125,66.75 745.2344,66.4844 C745.4219,66.3906 745.4219,66.3906 745.875,65.9063 C746.0625,65.7188 746.2656,65.6406 746.4844,65.6406 C746.9531,65.6406 747.3438,66.0313 747.3438,66.4844 C747.3438,66.875 747.0156,67.3281 746.4375,67.7344 C745.6875,68.2813 744.5313,68.5781 743.3125,68.5781 C740.4219,68.5781 738.3125,66.6875 738.3125,64.1094 L738.3125,62.9844 C738.3125,60.2656 740.3125,58.1875 742.9375,58.1875 C743.8125,58.1875 744.4063,58.3281 745.3438,58.7656 Z "/><text fill="#000000" font-family="sans-serif" font-size="12" lengthAdjust="spacingAndGlyphs" textLength="150" x="757" y="67.248">geosparql:SpatialObject</text><line style="stroke: #A80036; stroke-width: 1.5;" x1="729" x2="909" y1="79.0938" y2="79.0938"/><line style="stroke: #A80036; stroke-width: 1.5;" x1="729" x2="909" y1="87.0938" y2="87.0938"/><!--MD5=[cd57d364b5b3fdd499729d0748632540]
class time:TemporalEntity--><rect fill="#FEFECE" filter="url(#f1oynboow0pfh6)" height="48" id="time:TemporalEntity" style="stroke: #A80036; stroke-width: 1.5;" width="156" x="945" y="47.0938"/><ellipse cx="960" cy="63.0938" fill="#ADD1B2" rx="11" ry="11" style="stroke: #A80036; stroke-width: 1.0;"/><path d="M962.3438,58.7656 L962.5156,58.8438 C962.7344,58.5313 962.9375,58.4375 963.2344,58.4375 C963.5313,58.4375 963.8125,58.5781 963.9688,58.8438 C964.0625,59 964.0781,59.125 964.0781,59.5625 L964.0781,60.9844 C964.0781,61.4063 964.0469,61.5938 963.9375,61.75 C963.7656,61.9688 963.5,62.1094 963.2344,62.1094 C963.0156,62.1094 962.7813,62 962.6406,61.8594 C962.5,61.7344 962.4688,61.6094 962.4063,61.2031 C962.3125,60.7969 962.1406,60.5781 961.6563,60.2969 C961.1875,60.0469 960.5781,59.8906 960,59.8906 C958.2656,59.8906 957.0156,61.2031 957.0156,62.9844 L957.0156,64.0781 C957.0156,65.7813 958.3125,66.875 960.3594,66.875 C961.125,66.875 961.8125,66.75 962.2344,66.4844 C962.4219,66.3906 962.4219,66.3906 962.875,65.9063 C963.0625,65.7188 963.2656,65.6406 963.4844,65.6406 C963.9531,65.6406 964.3438,66.0313 964.3438,66.4844 C964.3438,66.875 964.0156,67.3281 963.4375,67.7344 C962.6875,68.2813 961.5313,68.5781 960.3125,68.5781 C957.4219,68.5781 955.3125,66.6875 955.3125,64.1094 L955.3125,62.9844 C955.3125,60.2656 957.3125,58.1875 959.9375,58.1875 C960.8125,58.1875 961.4063,58.3281 962.3438,58.7656 Z "/><text fill="#000000" font-family="sans-serif" font-size="12" lengthAdjust="spacingAndGlyphs" textLength="124" x="974" y="67.248">time:TemporalEntity</text><line style="stroke: #A80036; stroke-width: 1.5;" x1="946" x2="1100" y1="79.0938" y2="79.0938"/><line style="stroke: #A80036; stroke-width: 1.5;" x1="946" x2="1100" y1="87.0938" y2="87.0938"/><!--MD5=[f071ecb23dbf121833784480fda18997]
class owl:Thing--><rect fill="#FEFECE" filter="url(#f1oynboow0pfh6)" height="48" id="owl:Thing" style="stroke: #A80036; stroke-width: 1.5;" width="90" x="1159" y="161.5938"/><ellipse cx="1174" cy="177.5938" fill="#ADD1B2" rx="11" ry="11" style="stroke: #A80036; stroke-width: 1.0;"/><path d="M1176.3438,173.2656 L1176.5156,173.3438 C1176.7344,173.0313 1176.9375,172.9375 1177.2344,172.9375 C1177.5313,172.9375 1177.8125,173.0781 1177.9688,173.3438 C1178.0625,173.5 1178.0781,173.625 1178.0781,174.0625 L1178.0781,175.4844 C1178.0781,175.9063 1178.0469,176.0938 1177.9375,176.25 C1177.7656,176.4688 1177.5,176.6094 1177.2344,176.6094 C1177.0156,176.6094 1176.7813,176.5 1176.6406,176.3594 C1176.5,176.2344 1176.4688,176.1094 1176.4063,175.7031 C1176.3125,175.2969 1176.1406,175.0781 1175.6563,174.7969 C1175.1875,174.5469 1174.5781,174.3906 1174,174.3906 C1172.2656,174.3906 1171.0156,175.7031 1171.0156,177.4844 L1171.0156,178.5781 C1171.0156,180.2813 1172.3125,181.375 1174.3594,181.375 C1175.125,181.375 1175.8125,181.25 1176.2344,180.9844 C1176.4219,180.8906 1176.4219,180.8906 1176.875,180.4063 C1177.0625,180.2188 1177.2656,180.1406 1177.4844,180.1406 C1177.9531,180.1406 1178.3438,180.5313 1178.3438,180.9844 C1178.3438,181.375 1178.0156,181.8281 1177.4375,182.2344 C1176.6875,182.7813 1175.5313,183.0781 1174.3125,183.0781 C1171.4219,183.0781 1169.3125,181.1875 1169.3125,178.6094 L1169.3125,177.4844 C1169.3125,174.7656 1171.3125,172.6875 1173.9375,172.6875 C1174.8125,172.6875 1175.4063,172.8281 1176.3438,173.2656 Z "/><text fill="#000000" font-family="sans-serif" font-size="12" lengthAdjust="spacingAndGlyphs" textLength="58" x="1188" y="181.748">owl:Thing</text><line style="stroke: #A80036; stroke-width: 1.5;" x1="1160" x2="1248" y1="193.5938" y2="193.5938"/><line style="stroke: #A80036; stroke-width: 1.5;" x1="1160" x2="1248" y1="201.5938" y2="201.5938"/><!--MD5=[313751d88e530a9b19b67ace9347529e]
class :EnvironmentalZone--><a href="http://linked.data.gov.au/def/plot/x/EnvironmentalZone" target="_top" title="http://linked.data.gov.au/def/plot/x/EnvironmentalZone" xlink:actuate="onRequest" xlink:href="http://linked.data.gov.au/def/plot/x/EnvironmentalZone" xlink:show="new" xlink:title="http://linked.data.gov.au/def/plot/x/EnvironmentalZone" xlink:type="simple"><rect fill="#FEFECE" filter="url(#f1oynboow0pfh6)" height="48" id=":EnvironmentalZone" style="stroke: #A80036; stroke-width: 1.5;" width="158" x="1318" y="269.5938"/><ellipse cx="1333" cy="285.5938" fill="#ADD1B2" rx="11" ry="11" style="stroke: #A80036; stroke-width: 1.0;"/><path d="M1335.3438,281.2656 L1335.5156,281.3438 C1335.7344,281.0313 1335.9375,280.9375 1336.2344,280.9375 C1336.5313,280.9375 1336.8125,281.0781 1336.9688,281.3438 C1337.0625,281.5 1337.0781,281.625 1337.0781,282.0625 L1337.0781,283.4844 C1337.0781,283.9063 1337.0469,284.0938 1336.9375,284.25 C1336.7656,284.4688 1336.5,284.6094 1336.2344,284.6094 C1336.0156,284.6094 1335.7813,284.5 1335.6406,284.3594 C1335.5,284.2344 1335.4688,284.1094 1335.4063,283.7031 C1335.3125,283.2969 1335.1406,283.0781 1334.6563,282.7969 C1334.1875,282.5469 1333.5781,282.3906 1333,282.3906 C1331.2656,282.3906 1330.0156,283.7031 1330.0156,285.4844 L1330.0156,286.5781 C1330.0156,288.2813 1331.3125,289.375 1333.3594,289.375 C1334.125,289.375 1334.8125,289.25 1335.2344,288.9844 C1335.4219,288.8906 1335.4219,288.8906 1335.875,288.4063 C1336.0625,288.2188 1336.2656,288.1406 1336.4844,288.1406 C1336.9531,288.1406 1337.3438,288.5313 1337.3438,288.9844 C1337.3438,289.375 1337.0156,289.8281 1336.4375,290.2344 C1335.6875,290.7813 1334.5313,291.0781 1333.3125,291.0781 C1330.4219,291.0781 1328.3125,289.1875 1328.3125,286.6094 L1328.3125,285.4844 C1328.3125,282.7656 1330.3125,280.6875 1332.9375,280.6875 C1333.8125,280.6875 1334.4063,280.8281 1335.3438,281.2656 Z "/><text fill="#000000" font-family="sans-serif" font-size="12" lengthAdjust="spacingAndGlyphs" textLength="126" x="1347" y="289.748">:EnvironmentalZone</text><line style="stroke: #A80036; stroke-width: 1.5;" x1="1319" x2="1475" y1="301.5938" y2="301.5938"/><line style="stroke: #A80036; stroke-width: 1.5;" x1="1319" x2="1475" y1="309.5938" y2="309.5938"/></a><!--MD5=[a7bef1571412352f70cef7962b9a3d10]
class :SiteVisit--><a href="http://linked.data.gov.au/def/plot/SiteVisit" target="_top" title="http://linked.data.gov.au/def/plot/SiteVisit" xlink:actuate="onRequest" xlink:href="http://linked.data.gov.au/def/plot/SiteVisit" xlink:show="new" xlink:title="http://linked.data.gov.au/def/plot/SiteVisit" xlink:type="simple"><rect fill="#FEFECE" filter="url(#f1oynboow0pfh6)" height="48" id=":SiteVisit" style="stroke: #A80036; stroke-width: 1.5;" width="86" x="2091" y="161.5938"/><ellipse cx="2106" cy="177.5938" fill="#ADD1B2" rx="11" ry="11" style="stroke: #A80036; stroke-width: 1.0;"/><path d="M2108.3438,173.2656 L2108.5156,173.3438 C2108.7344,173.0313 2108.9375,172.9375 2109.2344,172.9375 C2109.5313,172.9375 2109.8125,173.0781 2109.9688,173.3438 C2110.0625,173.5 2110.0781,173.625 2110.0781,174.0625 L2110.0781,175.4844 C2110.0781,175.9063 2110.0469,176.0938 2109.9375,176.25 C2109.7656,176.4688 2109.5,176.6094 2109.2344,176.6094 C2109.0156,176.6094 2108.7813,176.5 2108.6406,176.3594 C2108.5,176.2344 2108.4688,176.1094 2108.4063,175.7031 C2108.3125,175.2969 2108.1406,175.0781 2107.6563,174.7969 C2107.1875,174.5469 2106.5781,174.3906 2106,174.3906 C2104.2656,174.3906 2103.0156,175.7031 2103.0156,177.4844 L2103.0156,178.5781 C2103.0156,180.2813 2104.3125,181.375 2106.3594,181.375 C2107.125,181.375 2107.8125,181.25 2108.2344,180.9844 C2108.4219,180.8906 2108.4219,180.8906 2108.875,180.4063 C2109.0625,180.2188 2109.2656,180.1406 2109.4844,180.1406 C2109.9531,180.1406 2110.3438,180.5313 2110.3438,180.9844 C2110.3438,181.375 2110.0156,181.8281 2109.4375,182.2344 C2108.6875,182.7813 2107.5313,183.0781 2106.3125,183.0781 C2103.4219,183.0781 2101.3125,181.1875 2101.3125,178.6094 L2101.3125,177.4844 C2101.3125,174.7656 2103.3125,172.6875 2105.9375,172.6875 C2106.8125,172.6875 2107.4063,172.8281 2108.3438,173.2656 Z "/><text fill="#000000" font-family="sans-serif" font-size="12" lengthAdjust="spacingAndGlyphs" textLength="54" x="2120" y="181.748">:SiteVisit</text><line style="stroke: #A80036; stroke-width: 1.5;" x1="2092" x2="2176" y1="193.5938" y2="193.5938"/><line style="stroke: #A80036; stroke-width: 1.5;" x1="2092" x2="2176" y1="201.5938" y2="201.5938"/></a><!--MD5=[64b2c2f1abdedb6345a6d1a18b1806eb]
class :ub1bL494C15--><a href="ub1bL494C15" target="_top" title="ub1bL494C15" xlink:actuate="onRequest" xlink:href="ub1bL494C15" xlink:show="new" xlink:title="ub1bL494C15" xlink:type="simple"><rect fill="#FEFECE" filter="url(#f1oynboow0pfh6)" height="48" id=":ub1bL494C15" style="stroke: #A80036; stroke-width: 1.5;" width="122" x="6" y="47.0938"/><ellipse cx="21" cy="63.0938" fill="#ADD1B2" rx="11" ry="11" style="stroke: #A80036; stroke-width: 1.0;"/><path d="M23.3438,58.7656 L23.5156,58.8438 C23.7344,58.5313 23.9375,58.4375 24.2344,58.4375 C24.5313,58.4375 24.8125,58.5781 24.9688,58.8438 C25.0625,59 25.0781,59.125 25.0781,59.5625 L25.0781,60.9844 C25.0781,61.4063 25.0469,61.5938 24.9375,61.75 C24.7656,61.9688 24.5,62.1094 24.2344,62.1094 C24.0156,62.1094 23.7813,62 23.6406,61.8594 C23.5,61.7344 23.4688,61.6094 23.4063,61.2031 C23.3125,60.7969 23.1406,60.5781 22.6563,60.2969 C22.1875,60.0469 21.5781,59.8906 21,59.8906 C19.2656,59.8906 18.0156,61.2031 18.0156,62.9844 L18.0156,64.0781 C18.0156,65.7813 19.3125,66.875 21.3594,66.875 C22.125,66.875 22.8125,66.75 23.2344,66.4844 C23.4219,66.3906 23.4219,66.3906 23.875,65.9063 C24.0625,65.7188 24.2656,65.6406 24.4844,65.6406 C24.9531,65.6406 25.3438,66.0313 25.3438,66.4844 C25.3438,66.875 25.0156,67.3281 24.4375,67.7344 C23.6875,68.2813 22.5313,68.5781 21.3125,68.5781 C18.4219,68.5781 16.3125,66.6875 16.3125,64.1094 L16.3125,62.9844 C16.3125,60.2656 18.3125,58.1875 20.9375,58.1875 C21.8125,58.1875 22.4063,58.3281 23.3438,58.7656 Z "/><text fill="#000000" font-family="sans-serif" font-size="12" lengthAdjust="spacingAndGlyphs" textLength="90" x="35" y="67.248">:ub1bL494C15</text><line style="stroke: #A80036; stroke-width: 1.5;" x1="7" x2="127" y1="79.0938" y2="79.0938"/><line style="stroke: #A80036; stroke-width: 1.5;" x1="7" x2="127" y1="87.0938" y2="87.0938"/></a><!--MD5=[ac45ecb4fe0054274f018135938a801d]
class :ub1bL554C23--><a href="ub1bL554C23" target="_top" title="ub1bL554C23" xlink:actuate="onRequest" xlink:href="ub1bL554C23" xlink:show="new" xlink:title="ub1bL554C23" xlink:type="simple"><rect fill="#FEFECE" filter="url(#f1oynboow0pfh6)" height="48" id=":ub1bL554C23" style="stroke: #A80036; stroke-width: 1.5;" width="122" x="163" y="47.0938"/><ellipse cx="178" cy="63.0938" fill="#ADD1B2" rx="11" ry="11" style="stroke: #A80036; stroke-width: 1.0;"/><path d="M180.3438,58.7656 L180.5156,58.8438 C180.7344,58.5313 180.9375,58.4375 181.2344,58.4375 C181.5313,58.4375 181.8125,58.5781 181.9688,58.8438 C182.0625,59 182.0781,59.125 182.0781,59.5625 L182.0781,60.9844 C182.0781,61.4063 182.0469,61.5938 181.9375,61.75 C181.7656,61.9688 181.5,62.1094 181.2344,62.1094 C181.0156,62.1094 180.7813,62 180.6406,61.8594 C180.5,61.7344 180.4688,61.6094 180.4063,61.2031 C180.3125,60.7969 180.1406,60.5781 179.6563,60.2969 C179.1875,60.0469 178.5781,59.8906 178,59.8906 C176.2656,59.8906 175.0156,61.2031 175.0156,62.9844 L175.0156,64.0781 C175.0156,65.7813 176.3125,66.875 178.3594,66.875 C179.125,66.875 179.8125,66.75 180.2344,66.4844 C180.4219,66.3906 180.4219,66.3906 180.875,65.9063 C181.0625,65.7188 181.2656,65.6406 181.4844,65.6406 C181.9531,65.6406 182.3438,66.0313 182.3438,66.4844 C182.3438,66.875 182.0156,67.3281 181.4375,67.7344 C180.6875,68.2813 179.5313,68.5781 178.3125,68.5781 C175.4219,68.5781 173.3125,66.6875 173.3125,64.1094 L173.3125,62.9844 C173.3125,60.2656 175.3125,58.1875 177.9375,58.1875 C178.8125,58.1875 179.4063,58.3281 180.3438,58.7656 Z "/><text fill="#000000" font-family="sans-serif" font-size="12" lengthAdjust="spacingAndGlyphs" textLength="90" x="192" y="67.248">:ub1bL554C23</text><line style="stroke: #A80036; stroke-width: 1.5;" x1="164" x2="284" y1="79.0938" y2="79.0938"/><line style="stroke: #A80036; stroke-width: 1.5;" x1="164" x2="284" y1="87.0938" y2="87.0938"/></a><!--MD5=[a2628b293a9723f47390e4c57545d1ae]
class :ub1bL571C15--><a href="ub1bL571C15" target="_top" title="ub1bL571C15" xlink:actuate="onRequest" xlink:href="ub1bL571C15" xlink:show="new" xlink:title="ub1bL571C15" xlink:type="simple"><rect fill="#FEFECE" filter="url(#f1oynboow0pfh6)" height="60.8047" id=":ub1bL571C15" style="stroke: #A80036; stroke-width: 1.5;" width="225" x="320.5" y="40.5938"/><ellipse cx="383.75" cy="56.5938" fill="#ADD1B2" rx="11" ry="11" style="stroke: #A80036; stroke-width: 1.0;"/><path d="M386.0938,52.2656 L386.2656,52.3438 C386.4844,52.0313 386.6875,51.9375 386.9844,51.9375 C387.2813,51.9375 387.5625,52.0781 387.7188,52.3438 C387.8125,52.5 387.8281,52.625 387.8281,53.0625 L387.8281,54.4844 C387.8281,54.9063 387.7969,55.0938 387.6875,55.25 C387.5156,55.4688 387.25,55.6094 386.9844,55.6094 C386.7656,55.6094 386.5313,55.5 386.3906,55.3594 C386.25,55.2344 386.2188,55.1094 386.1563,54.7031 C386.0625,54.2969 385.8906,54.0781 385.4063,53.7969 C384.9375,53.5469 384.3281,53.3906 383.75,53.3906 C382.0156,53.3906 380.7656,54.7031 380.7656,56.4844 L380.7656,57.5781 C380.7656,59.2813 382.0625,60.375 384.1094,60.375 C384.875,60.375 385.5625,60.25 385.9844,59.9844 C386.1719,59.8906 386.1719,59.8906 386.625,59.4063 C386.8125,59.2188 387.0156,59.1406 387.2344,59.1406 C387.7031,59.1406 388.0938,59.5313 388.0938,59.9844 C388.0938,60.375 387.7656,60.8281 387.1875,61.2344 C386.4375,61.7813 385.2813,62.0781 384.0625,62.0781 C381.1719,62.0781 379.0625,60.1875 379.0625,57.6094 L379.0625,56.4844 C379.0625,53.7656 381.0625,51.6875 383.6875,51.6875 C384.5625,51.6875 385.1563,51.8281 386.0938,52.2656 Z "/><text fill="#000000" font-family="sans-serif" font-size="12" lengthAdjust="spacingAndGlyphs" textLength="90" x="404.25" y="60.748">:ub1bL571C15</text><line style="stroke: #A80036; stroke-width: 1.5;" x1="321.5" x2="544.5" y1="72.5938" y2="72.5938"/></a><a href="http://www.w3.org/ns/ssn/ext/isMemberOf" target="_top" title="http://www.w3.org/ns/ssn/ext/isMemberOf" xlink:actuate="onRequest" xlink:href="http://www.w3.org/ns/ssn/ext/isMemberOf" xlink:show="new" xlink:title="http://www.w3.org/ns/ssn/ext/isMemberOf" xlink:type="simple"><text fill="#0000FF" font-family="sans-serif" font-size="11" lengthAdjust="spacingAndGlyphs" text-decoration="underline" textLength="73" x="326.5" y="86.8042">:isMemberOf</text></a><text fill="#000000" font-family="sans-serif" font-size="11" lengthAdjust="spacingAndGlyphs" textLength="4" x="403.5" y="86.8042">:</text><a href="http://www.w3.org/ns/ssn/ext/ObservationCollection" target="_top" title="http://www.w3.org/ns/ssn/ext/ObservationCollection" xlink:actuate="onRequest" xlink:href="http://www.w3.org/ns/ssn/ext/ObservationCollection" xlink:show="new" xlink:title="http://www.w3.org/ns/ssn/ext/ObservationCollection" xlink:type="simple"><text fill="#0000FF" font-family="sans-serif" font-size="11" lengthAdjust="spacingAndGlyphs" text-decoration="underline" textLength="128" x="411.5" y="86.8042">:ObservationCollection</text></a><line style="stroke: #A80036; stroke-width: 1.5;" x1="321.5" x2="544.5" y1="93.3984" y2="93.3984"/><!--MD5=[0f25cf74e97785200e99d5888124f2b2]
class :ub1bL149C26--><a href="ub1bL149C26" target="_top" title="ub1bL149C26" xlink:actuate="onRequest" xlink:href="ub1bL149C26" xlink:show="new" xlink:title="ub1bL149C26" xlink:type="simple"><rect fill="#FEFECE" filter="url(#f1oynboow0pfh6)" height="48" id=":ub1bL149C26" style="stroke: #A80036; stroke-width: 1.5;" width="122" x="6" y="161.5938"/><ellipse cx="21" cy="177.5938" fill="#ADD1B2" rx="11" ry="11" style="stroke: #A80036; stroke-width: 1.0;"/><path d="M23.3438,173.2656 L23.5156,173.3438 C23.7344,173.0313 23.9375,172.9375 24.2344,172.9375 C24.5313,172.9375 24.8125,173.0781 24.9688,173.3438 C25.0625,173.5 25.0781,173.625 25.0781,174.0625 L25.0781,175.4844 C25.0781,175.9063 25.0469,176.0938 24.9375,176.25 C24.7656,176.4688 24.5,176.6094 24.2344,176.6094 C24.0156,176.6094 23.7813,176.5 23.6406,176.3594 C23.5,176.2344 23.4688,176.1094 23.4063,175.7031 C23.3125,175.2969 23.1406,175.0781 22.6563,174.7969 C22.1875,174.5469 21.5781,174.3906 21,174.3906 C19.2656,174.3906 18.0156,175.7031 18.0156,177.4844 L18.0156,178.5781 C18.0156,180.2813 19.3125,181.375 21.3594,181.375 C22.125,181.375 22.8125,181.25 23.2344,180.9844 C23.4219,180.8906 23.4219,180.8906 23.875,180.4063 C24.0625,180.2188 24.2656,180.1406 24.4844,180.1406 C24.9531,180.1406 25.3438,180.5313 25.3438,180.9844 C25.3438,181.375 25.0156,181.8281 24.4375,182.2344 C23.6875,182.7813 22.5313,183.0781 21.3125,183.0781 C18.4219,183.0781 16.3125,181.1875 16.3125,178.6094 L16.3125,177.4844 C16.3125,174.7656 18.3125,172.6875 20.9375,172.6875 C21.8125,172.6875 22.4063,172.8281 23.3438,173.2656 Z "/><text fill="#000000" font-family="sans-serif" font-size="12" lengthAdjust="spacingAndGlyphs" textLength="90" x="35" y="181.748">:ub1bL149C26</text><line style="stroke: #A80036; stroke-width: 1.5;" x1="7" x2="127" y1="193.5938" y2="193.5938"/><line style="stroke: #A80036; stroke-width: 1.5;" x1="7" x2="127" y1="201.5938" y2="201.5938"/></a><!--MD5=[d39fc9acfb97eea5012d0a1ecfd76de8]
class :ub1bL307C26--><a href="ub1bL307C26" target="_top" title="ub1bL307C26" xlink:actuate="onRequest" xlink:href="ub1bL307C26" xlink:show="new" xlink:title="ub1bL307C26" xlink:type="simple"><rect fill="#FEFECE" filter="url(#f1oynboow0pfh6)" height="48" id=":ub1bL307C26" style="stroke: #A80036; stroke-width: 1.5;" width="122" x="163" y="161.5938"/><ellipse cx="178" cy="177.5938" fill="#ADD1B2" rx="11" ry="11" style="stroke: #A80036; stroke-width: 1.0;"/><path d="M180.3438,173.2656 L180.5156,173.3438 C180.7344,173.0313 180.9375,172.9375 181.2344,172.9375 C181.5313,172.9375 181.8125,173.0781 181.9688,173.3438 C182.0625,173.5 182.0781,173.625 182.0781,174.0625 L182.0781,175.4844 C182.0781,175.9063 182.0469,176.0938 181.9375,176.25 C181.7656,176.4688 181.5,176.6094 181.2344,176.6094 C181.0156,176.6094 180.7813,176.5 180.6406,176.3594 C180.5,176.2344 180.4688,176.1094 180.4063,175.7031 C180.3125,175.2969 180.1406,175.0781 179.6563,174.7969 C179.1875,174.5469 178.5781,174.3906 178,174.3906 C176.2656,174.3906 175.0156,175.7031 175.0156,177.4844 L175.0156,178.5781 C175.0156,180.2813 176.3125,181.375 178.3594,181.375 C179.125,181.375 179.8125,181.25 180.2344,180.9844 C180.4219,180.8906 180.4219,180.8906 180.875,180.4063 C181.0625,180.2188 181.2656,180.1406 181.4844,180.1406 C181.9531,180.1406 182.3438,180.5313 182.3438,180.9844 C182.3438,181.375 182.0156,181.8281 181.4375,182.2344 C180.6875,182.7813 179.5313,183.0781 178.3125,183.0781 C175.4219,183.0781 173.3125,181.1875 173.3125,178.6094 L173.3125,177.4844 C173.3125,174.7656 175.3125,172.6875 177.9375,172.6875 C178.8125,172.6875 179.4063,172.8281 180.3438,173.2656 Z "/><text fill="#000000" font-family="sans-serif" font-size="12" lengthAdjust="spacingAndGlyphs" textLength="90" x="192" y="181.748">:ub1bL307C26</text><line style="stroke: #A80036; stroke-width: 1.5;" x1="164" x2="284" y1="193.5938" y2="193.5938"/><line style="stroke: #A80036; stroke-width: 1.5;" x1="164" x2="284" y1="201.5938" y2="201.5938"/></a><!--MD5=[6be681d58cb9eb648eb2301dc577ad8b]
class dwc:Occurrence--><rect fill="#FEFECE" filter="url(#f1oynboow0pfh6)" height="48" id="dwc:Occurrence" style="stroke: #A80036; stroke-width: 1.5;" width="132" x="1136" y="47.0938"/><ellipse cx="1151" cy="63.0938" fill="#ADD1B2" rx="11" ry="11" style="stroke: #A80036; stroke-width: 1.0;"/><path d="M1153.3438,58.7656 L1153.5156,58.8438 C1153.7344,58.5313 1153.9375,58.4375 1154.2344,58.4375 C1154.5313,58.4375 1154.8125,58.5781 1154.9688,58.8438 C1155.0625,59 1155.0781,59.125 1155.0781,59.5625 L1155.0781,60.9844 C1155.0781,61.4063 1155.0469,61.5938 1154.9375,61.75 C1154.7656,61.9688 1154.5,62.1094 1154.2344,62.1094 C1154.0156,62.1094 1153.7813,62 1153.6406,61.8594 C1153.5,61.7344 1153.4688,61.6094 1153.4063,61.2031 C1153.3125,60.7969 1153.1406,60.5781 1152.6563,60.2969 C1152.1875,60.0469 1151.5781,59.8906 1151,59.8906 C1149.2656,59.8906 1148.0156,61.2031 1148.0156,62.9844 L1148.0156,64.0781 C1148.0156,65.7813 1149.3125,66.875 1151.3594,66.875 C1152.125,66.875 1152.8125,66.75 1153.2344,66.4844 C1153.4219,66.3906 1153.4219,66.3906 1153.875,65.9063 C1154.0625,65.7188 1154.2656,65.6406 1154.4844,65.6406 C1154.9531,65.6406 1155.3438,66.0313 1155.3438,66.4844 C1155.3438,66.875 1155.0156,67.3281 1154.4375,67.7344 C1153.6875,68.2813 1152.5313,68.5781 1151.3125,68.5781 C1148.4219,68.5781 1146.3125,66.6875 1146.3125,64.1094 L1146.3125,62.9844 C1146.3125,60.2656 1148.3125,58.1875 1150.9375,58.1875 C1151.8125,58.1875 1152.4063,58.3281 1153.3438,58.7656 Z "/><text fill="#000000" font-family="sans-serif" font-size="12" lengthAdjust="spacingAndGlyphs" textLength="100" x="1165" y="67.248">dwc:Occurrence</text><line style="stroke: #A80036; stroke-width: 1.5;" x1="1137" x2="1267" y1="79.0938" y2="79.0938"/><line style="stroke: #A80036; stroke-width: 1.5;" x1="1137" x2="1267" y1="87.0938" y2="87.0938"/><!--MD5=[c800b92bc71a73c1356b74aba10f7cff]
reverse link sosa:Sample to :SiteStratumTaxon--><path d="M588.551,106.8107 C563.697,124.6198 534.11,145.8207 512.107,161.5868 " fill="none" id="sosa:Sample&lt;-:SiteStratumTaxon" style="stroke: #A80036; stroke-width: 1.0;"/><polygon fill="none" points="584.515,101.0908,604.85,95.1318,592.67,112.4708,584.515,101.0908" style="stroke: #A80036; stroke-width: 1.0;"/><!--MD5=[094ffb1d677d3631456e9901c1475881]
reverse link :EcologicalCommunity to :Assemblage--><path d="M1198,445.6174 C1198,459.173 1198,473.6319 1198,485.2722 " fill="none" id=":EcologicalCommunity&lt;-:Assemblage" style="stroke: #A80036; stroke-width: 1.0;"/><polygon fill="none" points="1191,445.5943,1198,425.5938,1205,445.5942,1191,445.5943" style="stroke: #A80036; stroke-width: 1.0;"/><!--MD5=[44e5cb1da9a681ab886e39901222d532]
reverse link dct:Location to :Location--><path d="M1570,115.2387 C1570,131.0138 1570,148.2458 1570,161.5868 " fill="none" id="dct:Location&lt;-:Location" style="stroke: #A80036; stroke-width: 1.0;"/><polygon fill="none" points="1563,115.1318,1570,95.1318,1577,115.1307,1563,115.1318" style="stroke: #A80036; stroke-width: 1.0;"/><!--MD5=[00eea72691b1165f8f067d3db328fbe4]
reverse link sosa:Observation to :TaxonAssignment--><path d="M1730,115.2387 C1730,131.0138 1730,148.2458 1730,161.5868 " fill="none" id="sosa:Observation&lt;-:TaxonAssignment" style="stroke: #A80036; stroke-width: 1.0;"/><polygon fill="none" points="1723,115.1318,1730,95.1318,1737,115.1307,1723,115.1318" style="stroke: #A80036; stroke-width: 1.0;"/><!--MD5=[563ca3b286fc5313db7dffbb2b0328c9]
reverse link sosa:Sample to :SiteTaxon--><path d="M637,115.2387 C637,131.0138 637,148.2458 637,161.5868 " fill="none" id="sosa:Sample&lt;-:SiteTaxon" style="stroke: #A80036; stroke-width: 1.0;"/><polygon fill="none" points="630,115.1318,637,95.1318,644,115.1307,630,115.1318" style="stroke: #A80036; stroke-width: 1.0;"/><!--MD5=[b868cf3775c856207f62f10252ac689d]
reverse link sosa:Platform to :FluxTower--><path d="M1895,115.2387 C1895,131.0138 1895,148.2458 1895,161.5868 " fill="none" id="sosa:Platform&lt;-:FluxTower" style="stroke: #A80036; stroke-width: 1.0;"/><polygon fill="none" points="1888,115.1318,1895,95.1318,1902,115.1307,1888,115.1318" style="stroke: #A80036; stroke-width: 1.0;"/><!--MD5=[360ae85a8ddef6b242e05f837d25fa52]
reverse link sosa:FeatureOfInterest to :EnvironmentalContinuant--><path d="M1392,115.2387 C1392,131.0138 1392,148.2458 1392,161.5868 " fill="none" id="sosa:FeatureOfInterest&lt;-:EnvironmentalContinuant" style="stroke: #A80036; stroke-width: 1.0;"/><polygon fill="none" points="1385,115.1318,1392,95.1318,1399,115.1307,1385,115.1318" style="stroke: #A80036; stroke-width: 1.0;"/><!--MD5=[c23c54f56d1ecb3574b631f735680183]
reverse link prov:Activity to :Survey--><path d="M2058.62,112.5648 C2049.1,129.0438 2038.44,147.4878 2030.29,161.5868 " fill="none" id="prov:Activity&lt;-:Survey" style="stroke: #A80036; stroke-width: 1.0;"/><polygon fill="none" points="2052.62,108.9468,2068.69,95.1318,2064.74,115.9508,2052.62,108.9468" style="stroke: #A80036; stroke-width: 1.0;"/><!--MD5=[35c720b0d78d702b7d9d281cea18e765]
reverse link skos:Concept to :Stratum--><path d="M2268,115.2387 C2268,131.0138 2268,148.2458 2268,161.5868 " fill="none" id="skos:Concept&lt;-:Stratum" style="stroke: #A80036; stroke-width: 1.0;"/><polygon fill="none" points="2261,115.1318,2268,95.1318,2275,115.1307,2261,115.1318" style="stroke: #A80036; stroke-width: 1.0;"/><!--MD5=[4afdbcc2aaa9793b213da55f0ac47a35]
reverse link :EnvironmentalSystem to :EcologicalCommunity--><path d="M1198,337.6178 C1198,351.1728 1198,365.6318 1198,377.2718 " fill="none" id=":EnvironmentalSystem&lt;-:EcologicalCommunity" style="stroke: #A80036; stroke-width: 1.0;"/><polygon fill="none" points="1191,337.5938,1198,317.5938,1205,337.5938,1191,337.5938" style="stroke: #A80036; stroke-width: 1.0;"/><!--MD5=[f104df006a5560d7d0e10e6497496b78]
reverse link sosa:Sample to :SiteStratum--><path d="M681.168,107.8417 C702.903,125.4328 728.468,146.1237 747.574,161.5868 " fill="none" id="sosa:Sample&lt;-:SiteStratum" style="stroke: #A80036; stroke-width: 1.0;"/><polygon fill="none" points="676.607,113.1547,665.464,95.1318,685.414,102.2727,676.607,113.1547" style="stroke: #A80036; stroke-width: 1.0;"/><!--MD5=[f9754e33c03ec009aca8f871ad818b23]
reverse link sosa:Sample to :OrganismOccurence--><path d="M711.637,101.8668 C785.924,127.7128 852.973,147.6898 903.753,162.1737 " fill="none" id="sosa:Sample&lt;-:OrganismOccurence" style="stroke: #A80036; stroke-width: 1.0;"/><polygon fill="none" points="709.143,108.4097,692.6,95.1687,713.79,95.2038,709.143,108.4097" style="stroke: #A80036; stroke-width: 1.0;"/><!--MD5=[19c1fa849aed3cc5802a7757a42ef5ee]
reverse link geosparql:SpatialObject to :OrganismOccurence--><path d="M869.848,106.5537 C896.204,124.4158 927.676,145.7448 951.052,161.5868 " fill="none" id="geosparql:SpatialObject&lt;-:OrganismOccurence" style="stroke: #A80036; stroke-width: 1.0;"/><polygon fill="none" points="865.622,112.1458,852.993,95.1318,873.476,100.5568,865.622,112.1458" style="stroke: #A80036; stroke-width: 1.0;"/><!--MD5=[d41ed85ec00667454d9621565d82d6d1]
reverse link time:TemporalEntity to :OrganismOccurence--><path d="M1008.79,114.1658 C1003.363,130.2288 997.38,147.9428 992.771,161.5868 " fill="none" id="time:TemporalEntity&lt;-:OrganismOccurence" style="stroke: #A80036; stroke-width: 1.0;"/><polygon fill="none" points="1002.186,111.8397,1015.22,95.1318,1015.45,116.3198,1002.186,111.8397" style="stroke: #A80036; stroke-width: 1.0;"/><!--MD5=[909701d58657220eaef5f1b15ddec774]
reverse link owl:Thing to :EnvironmentalZone--><path d="M1263.47,219.2538 C1293.05,235.5007 1328.1,254.7538 1354.87,269.4558 " fill="none" id="owl:Thing&lt;-:EnvironmentalZone" style="stroke: #A80036; stroke-width: 1.0;"/><polygon fill="none" points="1260.04,225.3578,1245.88,209.5938,1266.78,213.0868,1260.04,225.3578" style="stroke: #A80036; stroke-width: 1.0;"/><!--MD5=[c6ab8af9135bd6e784c73df634de44b2]
reverse link :EnvironmentalContinuant to :EnvironmentalZone--><path d="M1394.03,229.6178 C1394.67,243.1728 1395.35,257.6318 1395.9,269.2718 " fill="none" id=":EnvironmentalContinuant&lt;-:EnvironmentalZone" style="stroke: #A80036; stroke-width: 1.0;"/><polygon fill="none" points="1387.04,229.9018,1393.08,209.5938,1401.02,229.2418,1387.04,229.9018" style="stroke: #A80036; stroke-width: 1.0;"/><!--MD5=[a05182c24c0f2da3184069ea6995fffe]
reverse link owl:Thing to :EnvironmentalSystem--><path d="M1201.56,229.6178 C1200.8,243.1728 1199.98,257.6318 1199.32,269.2718 " fill="none" id="owl:Thing&lt;-:EnvironmentalSystem" style="stroke: #A80036; stroke-width: 1.0;"/><polygon fill="none" points="1194.58,229.1667,1202.7,209.5938,1208.56,229.9577,1194.58,229.1667" style="stroke: #A80036; stroke-width: 1.0;"/><!--MD5=[331f6ab8dfe00a12657b01b61bdd174c]
reverse link :EnvironmentalContinuant to :EnvironmentalSystem--><path d="M1332.23,219.2538 C1302.49,235.5007 1267.25,254.7538 1240.35,269.4558 " fill="none" id=":EnvironmentalContinuant&lt;-:EnvironmentalSystem" style="stroke: #A80036; stroke-width: 1.0;"/><polygon fill="none" points="1329,213.0408,1349.9,209.5938,1335.71,225.3268,1329,213.0408" style="stroke: #A80036; stroke-width: 1.0;"/><!--MD5=[275ba334fe22dfb021ff74c071397ab0]
reverse link prov:Activity to :SiteVisit--><path d="M2101.08,113.3637 C2108.6,129.6377 2116.95,147.7158 2123.37,161.5868 " fill="none" id="prov:Activity&lt;-:SiteVisit" style="stroke: #A80036; stroke-width: 1.0;"/><polygon fill="none" points="2094.69,116.2228,2092.65,95.1318,2107.39,110.3488,2094.69,116.2228" style="stroke: #A80036; stroke-width: 1.0;"/><!--MD5=[53ccb56f84498235ddbea6d9db34a729]
link dwc:Occurrence to :OrganismOccurence--><path d="M1157.56,95.1318 C1120.12,114.5448 1066.81,142.1818 1029.38,161.5868 " fill="none" id="dwc:Occurrence-:OrganismOccurence" style="stroke: #A80036; stroke-width: 1.0; stroke-dasharray: 7.0,7.0;"/><!--MD5=[ddf58d69129aeaa1c55641a8ec0f7264]
link :ub1bL494C15 to :ub1bL554C23--><!--MD5=[7b4638906e36021c1284b41c38988dcf]
link :ub1bL554C23 to :ub1bL571C15--><!--MD5=[fe03cb42481f550de09ec5239e22f1ca]
link :ub1bL494C15 to :ub1bL149C26--><!--MD5=[3b74e5ce5df470339196e00d1eb71cf2]
link :ub1bL149C26 to :ub1bL307C26--><text fill="#888888" font-family="sans-serif" font-size="10" lengthAdjust="spacingAndGlyphs" textLength="67" x="1035.5" y="552.876">Generated by</text><a href="https://github.com/edmondchuc/ontogram" target="_top" title="https://github.com/edmondchuc/ontogram" xlink:actuate="onRequest" xlink:href="https://github.com/edmondchuc/ontogram" xlink:show="new" xlink:title="https://github.com/edmondchuc/ontogram" xlink:type="simple"><text fill="#0000FF" font-family="sans-serif" font-size="10" lengthAdjust="spacingAndGlyphs" text-decoration="underline" textLength="204" x="1105.5" y="552.876">https://github.com/edmondchuc/ontogram</text></a><!--MD5=[b9f440b602f67842c76751d1e4f01733]
@startuml
title The PLOT ontology
"sosa:Sample" <|- - ":SiteStratumTaxon"
":EcologicalCommunity" <|- - ":Assemblage"
"dct:Location" <|- - ":Location"
"sosa:Observation" <|- - ":TaxonAssignment"
"sosa:Sample" <|- - ":SiteTaxon"
"sosa:Platform" <|- - ":FluxTower"
"sosa:FeatureOfInterest" <|- - ":EnvironmentalContinuant"
"prov:Activity" <|- - ":Survey"
"skos:Concept" <|- - ":Stratum"
":EnvironmentalSystem" <|- - ":EcologicalCommunity"
"sosa:Sample" <|- - ":SiteStratum"
"sosa:Sample" <|- - ":OrganismOccurence"
"geosparql:SpatialObject" <|- - ":OrganismOccurence"
"time:TemporalEntity" <|- - ":OrganismOccurence"
"owl:Thing" <|- - ":EnvironmentalZone"
":EnvironmentalContinuant" <|- - ":EnvironmentalZone"
"owl:Thing" <|- - ":EnvironmentalSystem"
":EnvironmentalContinuant" <|- - ":EnvironmentalSystem"
"prov:Activity" <|- - ":SiteVisit"
Class ":ub1bL494C15" [[ub1bL494C15]] {
}
Class ":SiteStratumTaxon" [[http://linked.data.gov.au/def/plot/SiteStratumTaxon]] {
}
Class ":ub1bL554C23" [[ub1bL554C23]] {
}
Class ":Assemblage" [[http://linked.data.gov.au/def/plot/x/Assemblage]] {
}
Class ":Location" [[http://linked.data.gov.au/def/plot/Location]] {
}
Class ":TaxonAssignment" [[http://linked.data.gov.au/def/plot/x/TaxonAssignment]] {
}
Class ":SiteTaxon" [[http://linked.data.gov.au/def/plot/SiteTaxon]] {
}
Class ":FluxTower" [[http://linked.data.gov.au/def/plot/x/FluxTower]] {
}
Class ":EnvironmentalContinuant" [[http://linked.data.gov.au/def/plot/x/EnvironmentalContinuant]] {
}
Class ":Survey" [[http://linked.data.gov.au/def/plot/x/Survey]] {
}
Class ":Stratum" [[http://linked.data.gov.au/def/plot/Stratum]] {
}
Class ":EcologicalCommunity" [[http://linked.data.gov.au/def/plot/x/EcologicalCommunity]] {
}
Class ":SiteStratum" [[http://linked.data.gov.au/def/plot/SiteStratum]] {
}
Class ":ub1bL571C15" [[ub1bL571C15]] {
[[http://www.w3.org/ns/ssn/ext/isMemberOf :isMemberOf]] : [[http://www.w3.org/ns/ssn/ext/ObservationCollection :ObservationCollection]]
}
Class ":OrganismOccurence" [[http://linked.data.gov.au/def/plot/OrganismOccurence]] {
}
Class ":ub1bL149C26" [[ub1bL149C26]] {
}
Class ":EnvironmentalZone" [[http://linked.data.gov.au/def/plot/x/EnvironmentalZone]] {
}
Class ":EnvironmentalSystem" [[http://linked.data.gov.au/def/plot/x/EnvironmentalSystem]] {
}
Class ":SiteVisit" [[http://linked.data.gov.au/def/plot/SiteVisit]] {
}
Class ":ub1bL307C26" [[ub1bL307C26]] {
}
"dwc:Occurrence" .. ":OrganismOccurence"
header
Creator: Simon J.D.Cox (simon.cox@csiro.au) 
endheader
center footer Generated by [[https://github.com/edmondchuc/ontogram https://github.com/edmondchuc/ontogram]]
@enduml

PlantUML version 1.2020.07beta9(Unknown compile time)
(GPL source distribution)
Java Runtime: Java(TM) SE Runtime Environment
JVM: Java HotSpot(TM) 64-Bit Server VM
Java Version: 1.7.0_25-b15
Operating System: Linux
Default Encoding: UTF-8
Language: en
Country: US
--></g></svg>