<?xml version="1.0" encoding="UTF-8" standalone="no"?><svg xmlns="http://www.w3.org/2000/svg" xmlns:xlink="http://www.w3.org/1999/xlink" contentScriptType="application/ecmascript" contentStyleType="text/css" height="566px" preserveAspectRatio="none" style="width:2520px;height:566px;" version="1.1" viewBox="0 0 2520 566" width="2520px" zoomAndPan="magnify"><defs><filter height="300%" id="f1a3gn6qoxn3f4" width="300%" x="-1" y="-1"><feGaussianBlur result="blurOut" stdDeviation="2.0"/><feColorMatrix in="blurOut" result="blurOut2" type="matrix" values="0 0 0 0 0 0 0 0 0 0 0 0 0 0 0 0 0 0 .4 0"/><feOffset dx="4.0" dy="4.0" in="blurOut2" result="blurOut3"/><feBlend in="SourceGraphic" in2="blurOut3" mode="normal"/></filter></defs><g><text fill="#888888" font-family="sans-serif" font-size="10" lengthAdjust="spacingAndGlyphs" textLength="223" x="2285" y="9.2822">Creator: Simon J.D.Cox (simon.cox@csiro.au)</text><text fill="#000000" font-family="sans-serif" font-size="18" lengthAdjust="spacingAndGlyphs" textLength="171" x="1168.5" y="28.3486">The PLOT ontology</text><!--MD5=[50665e143bce30f6a1af9c952e41ca0e]
class sosa:Platform--><rect fill="#FEFECE" filter="url(#f1a3gn6qoxn3f4)" height="48" id="sosa:Platform" style="stroke: #A80036; stroke-width: 1.5;" width="118" x="581" y="47.0938"/><ellipse cx="596" cy="63.0938" fill="#ADD1B2" rx="11" ry="11" style="stroke: #A80036; stroke-width: 1.0;"/><path d="M598.3438,58.7656 L598.5156,58.8438 C598.7344,58.5313 598.9375,58.4375 599.2344,58.4375 C599.5313,58.4375 599.8125,58.5781 599.9688,58.8438 C600.0625,59 600.0781,59.125 600.0781,59.5625 L600.0781,60.9844 C600.0781,61.4063 600.0469,61.5938 599.9375,61.75 C599.7656,61.9688 599.5,62.1094 599.2344,62.1094 C599.0156,62.1094 598.7813,62 598.6406,61.8594 C598.5,61.7344 598.4688,61.6094 598.4063,61.2031 C598.3125,60.7969 598.1406,60.5781 597.6563,60.2969 C597.1875,60.0469 596.5781,59.8906 596,59.8906 C594.2656,59.8906 593.0156,61.2031 593.0156,62.9844 L593.0156,64.0781 C593.0156,65.7813 594.3125,66.875 596.3594,66.875 C597.125,66.875 597.8125,66.75 598.2344,66.4844 C598.4219,66.3906 598.4219,66.3906 598.875,65.9063 C599.0625,65.7188 599.2656,65.6406 599.4844,65.6406 C599.9531,65.6406 600.3438,66.0313 600.3438,66.4844 C600.3438,66.875 600.0156,67.3281 599.4375,67.7344 C598.6875,68.2813 597.5313,68.5781 596.3125,68.5781 C593.4219,68.5781 591.3125,66.6875 591.3125,64.1094 L591.3125,62.9844 C591.3125,60.2656 593.3125,58.1875 595.9375,58.1875 C596.8125,58.1875 597.4063,58.3281 598.3438,58.7656 Z "/><text fill="#000000" font-family="sans-serif" font-size="12" lengthAdjust="spacingAndGlyphs" textLength="86" x="610" y="67.248">sosa:Platform</text><line style="stroke: #A80036; stroke-width: 1.5;" x1="582" x2="698" y1="79.0938" y2="79.0938"/><line style="stroke: #A80036; stroke-width: 1.5;" x1="582" x2="698" y1="87.0938" y2="87.0938"/><!--MD5=[3df895f3135a771803c07af651931204]
class :FluxTower--><a href="http://linked.data.gov.au/def/plot/x/FluxTower" target="_top" title="http://linked.data.gov.au/def/plot/x/FluxTower" xlink:actuate="onRequest" xlink:href="http://linked.data.gov.au/def/plot/x/FluxTower" xlink:show="new" xlink:title="http://linked.data.gov.au/def/plot/x/FluxTower" xlink:type="simple"><rect fill="#FEFECE" filter="url(#f1a3gn6qoxn3f4)" height="48" id=":FluxTower" style="stroke: #A80036; stroke-width: 1.5;" width="97" x="591.5" y="161.5938"/><ellipse cx="606.5" cy="177.5938" fill="#ADD1B2" rx="11" ry="11" style="stroke: #A80036; stroke-width: 1.0;"/><path d="M608.8438,173.2656 L609.0156,173.3438 C609.2344,173.0313 609.4375,172.9375 609.7344,172.9375 C610.0313,172.9375 610.3125,173.0781 610.4688,173.3438 C610.5625,173.5 610.5781,173.625 610.5781,174.0625 L610.5781,175.4844 C610.5781,175.9063 610.5469,176.0938 610.4375,176.25 C610.2656,176.4688 610,176.6094 609.7344,176.6094 C609.5156,176.6094 609.2813,176.5 609.1406,176.3594 C609,176.2344 608.9688,176.1094 608.9063,175.7031 C608.8125,175.2969 608.6406,175.0781 608.1563,174.7969 C607.6875,174.5469 607.0781,174.3906 606.5,174.3906 C604.7656,174.3906 603.5156,175.7031 603.5156,177.4844 L603.5156,178.5781 C603.5156,180.2813 604.8125,181.375 606.8594,181.375 C607.625,181.375 608.3125,181.25 608.7344,180.9844 C608.9219,180.8906 608.9219,180.8906 609.375,180.4063 C609.5625,180.2188 609.7656,180.1406 609.9844,180.1406 C610.4531,180.1406 610.8438,180.5313 610.8438,180.9844 C610.8438,181.375 610.5156,181.8281 609.9375,182.2344 C609.1875,182.7813 608.0313,183.0781 606.8125,183.0781 C603.9219,183.0781 601.8125,181.1875 601.8125,178.6094 L601.8125,177.4844 C601.8125,174.7656 603.8125,172.6875 606.4375,172.6875 C607.3125,172.6875 607.9063,172.8281 608.8438,173.2656 Z "/><text fill="#000000" font-family="sans-serif" font-size="12" lengthAdjust="spacingAndGlyphs" textLength="65" x="620.5" y="181.748">:FluxTower</text><line style="stroke: #A80036; stroke-width: 1.5;" x1="592.5" x2="687.5" y1="193.5938" y2="193.5938"/><line style="stroke: #A80036; stroke-width: 1.5;" x1="592.5" x2="687.5" y1="201.5938" y2="201.5938"/></a><!--MD5=[0d584a71ebce8b757d02fdb0fcc922f5]
class prov:Activity--><rect fill="#FEFECE" filter="url(#f1a3gn6qoxn3f4)" height="48" id="prov:Activity" style="stroke: #A80036; stroke-width: 1.5;" width="106" x="783" y="47.0938"/><ellipse cx="798" cy="63.0938" fill="#ADD1B2" rx="11" ry="11" style="stroke: #A80036; stroke-width: 1.0;"/><path d="M800.3438,58.7656 L800.5156,58.8438 C800.7344,58.5313 800.9375,58.4375 801.2344,58.4375 C801.5313,58.4375 801.8125,58.5781 801.9688,58.8438 C802.0625,59 802.0781,59.125 802.0781,59.5625 L802.0781,60.9844 C802.0781,61.4063 802.0469,61.5938 801.9375,61.75 C801.7656,61.9688 801.5,62.1094 801.2344,62.1094 C801.0156,62.1094 800.7813,62 800.6406,61.8594 C800.5,61.7344 800.4688,61.6094 800.4063,61.2031 C800.3125,60.7969 800.1406,60.5781 799.6563,60.2969 C799.1875,60.0469 798.5781,59.8906 798,59.8906 C796.2656,59.8906 795.0156,61.2031 795.0156,62.9844 L795.0156,64.0781 C795.0156,65.7813 796.3125,66.875 798.3594,66.875 C799.125,66.875 799.8125,66.75 800.2344,66.4844 C800.4219,66.3906 800.4219,66.3906 800.875,65.9063 C801.0625,65.7188 801.2656,65.6406 801.4844,65.6406 C801.9531,65.6406 802.3438,66.0313 802.3438,66.4844 C802.3438,66.875 802.0156,67.3281 801.4375,67.7344 C800.6875,68.2813 799.5313,68.5781 798.3125,68.5781 C795.4219,68.5781 793.3125,66.6875 793.3125,64.1094 L793.3125,62.9844 C793.3125,60.2656 795.3125,58.1875 797.9375,58.1875 C798.8125,58.1875 799.4063,58.3281 800.3438,58.7656 Z "/><text fill="#000000" font-family="sans-serif" font-size="12" lengthAdjust="spacingAndGlyphs" textLength="74" x="812" y="67.248">prov:Activity</text><line style="stroke: #A80036; stroke-width: 1.5;" x1="784" x2="888" y1="79.0938" y2="79.0938"/><line style="stroke: #A80036; stroke-width: 1.5;" x1="784" x2="888" y1="87.0938" y2="87.0938"/><!--MD5=[a7bef1571412352f70cef7962b9a3d10]
class :SiteVisit--><a href="http://linked.data.gov.au/def/plot/SiteVisit" target="_top" title="http://linked.data.gov.au/def/plot/SiteVisit" xlink:actuate="onRequest" xlink:href="http://linked.data.gov.au/def/plot/SiteVisit" xlink:show="new" xlink:title="http://linked.data.gov.au/def/plot/SiteVisit" xlink:type="simple"><rect fill="#FEFECE" filter="url(#f1a3gn6qoxn3f4)" height="48" id=":SiteVisit" style="stroke: #A80036; stroke-width: 1.5;" width="86" x="724" y="161.5938"/><ellipse cx="739" cy="177.5938" fill="#ADD1B2" rx="11" ry="11" style="stroke: #A80036; stroke-width: 1.0;"/><path d="M741.3438,173.2656 L741.5156,173.3438 C741.7344,173.0313 741.9375,172.9375 742.2344,172.9375 C742.5313,172.9375 742.8125,173.0781 742.9688,173.3438 C743.0625,173.5 743.0781,173.625 743.0781,174.0625 L743.0781,175.4844 C743.0781,175.9063 743.0469,176.0938 742.9375,176.25 C742.7656,176.4688 742.5,176.6094 742.2344,176.6094 C742.0156,176.6094 741.7813,176.5 741.6406,176.3594 C741.5,176.2344 741.4688,176.1094 741.4063,175.7031 C741.3125,175.2969 741.1406,175.0781 740.6563,174.7969 C740.1875,174.5469 739.5781,174.3906 739,174.3906 C737.2656,174.3906 736.0156,175.7031 736.0156,177.4844 L736.0156,178.5781 C736.0156,180.2813 737.3125,181.375 739.3594,181.375 C740.125,181.375 740.8125,181.25 741.2344,180.9844 C741.4219,180.8906 741.4219,180.8906 741.875,180.4063 C742.0625,180.2188 742.2656,180.1406 742.4844,180.1406 C742.9531,180.1406 743.3438,180.5313 743.3438,180.9844 C743.3438,181.375 743.0156,181.8281 742.4375,182.2344 C741.6875,182.7813 740.5313,183.0781 739.3125,183.0781 C736.4219,183.0781 734.3125,181.1875 734.3125,178.6094 L734.3125,177.4844 C734.3125,174.7656 736.3125,172.6875 738.9375,172.6875 C739.8125,172.6875 740.4063,172.8281 741.3438,173.2656 Z "/><text fill="#000000" font-family="sans-serif" font-size="12" lengthAdjust="spacingAndGlyphs" textLength="54" x="753" y="181.748">:SiteVisit</text><line style="stroke: #A80036; stroke-width: 1.5;" x1="725" x2="809" y1="193.5938" y2="193.5938"/><line style="stroke: #A80036; stroke-width: 1.5;" x1="725" x2="809" y1="201.5938" y2="201.5938"/></a><!--MD5=[8b6ce312968107126c2336334b36ae49]
class sosa:Sample--><rect fill="#FEFECE" filter="url(#f1a3gn6qoxn3f4)" height="48" id="sosa:Sample" style="stroke: #A80036; stroke-width: 1.5;" width="112" x="1107" y="47.0938"/><ellipse cx="1122" cy="63.0938" fill="#ADD1B2" rx="11" ry="11" style="stroke: #A80036; stroke-width: 1.0;"/><path d="M1124.3438,58.7656 L1124.5156,58.8438 C1124.7344,58.5313 1124.9375,58.4375 1125.2344,58.4375 C1125.5313,58.4375 1125.8125,58.5781 1125.9688,58.8438 C1126.0625,59 1126.0781,59.125 1126.0781,59.5625 L1126.0781,60.9844 C1126.0781,61.4063 1126.0469,61.5938 1125.9375,61.75 C1125.7656,61.9688 1125.5,62.1094 1125.2344,62.1094 C1125.0156,62.1094 1124.7813,62 1124.6406,61.8594 C1124.5,61.7344 1124.4688,61.6094 1124.4063,61.2031 C1124.3125,60.7969 1124.1406,60.5781 1123.6563,60.2969 C1123.1875,60.0469 1122.5781,59.8906 1122,59.8906 C1120.2656,59.8906 1119.0156,61.2031 1119.0156,62.9844 L1119.0156,64.0781 C1119.0156,65.7813 1120.3125,66.875 1122.3594,66.875 C1123.125,66.875 1123.8125,66.75 1124.2344,66.4844 C1124.4219,66.3906 1124.4219,66.3906 1124.875,65.9063 C1125.0625,65.7188 1125.2656,65.6406 1125.4844,65.6406 C1125.9531,65.6406 1126.3438,66.0313 1126.3438,66.4844 C1126.3438,66.875 1126.0156,67.3281 1125.4375,67.7344 C1124.6875,68.2813 1123.5313,68.5781 1122.3125,68.5781 C1119.4219,68.5781 1117.3125,66.6875 1117.3125,64.1094 L1117.3125,62.9844 C1117.3125,60.2656 1119.3125,58.1875 1121.9375,58.1875 C1122.8125,58.1875 1123.4063,58.3281 1124.3438,58.7656 Z "/><text fill="#000000" font-family="sans-serif" font-size="12" lengthAdjust="spacingAndGlyphs" textLength="80" x="1136" y="67.248">sosa:Sample</text><line style="stroke: #A80036; stroke-width: 1.5;" x1="1108" x2="1218" y1="79.0938" y2="79.0938"/><line style="stroke: #A80036; stroke-width: 1.5;" x1="1108" x2="1218" y1="87.0938" y2="87.0938"/><!--MD5=[3a2672805874e655d6e4cd0fc7e6c16f]
class :SiteTaxon--><a href="http://linked.data.gov.au/def/plot/SiteTaxon" target="_top" title="http://linked.data.gov.au/def/plot/SiteTaxon" xlink:actuate="onRequest" xlink:href="http://linked.data.gov.au/def/plot/SiteTaxon" xlink:show="new" xlink:title="http://linked.data.gov.au/def/plot/SiteTaxon" xlink:type="simple"><rect fill="#FEFECE" filter="url(#f1a3gn6qoxn3f4)" height="48" id=":SiteTaxon" style="stroke: #A80036; stroke-width: 1.5;" width="97" x="957.5" y="161.5938"/><ellipse cx="972.5" cy="177.5938" fill="#ADD1B2" rx="11" ry="11" style="stroke: #A80036; stroke-width: 1.0;"/><path d="M974.8438,173.2656 L975.0156,173.3438 C975.2344,173.0313 975.4375,172.9375 975.7344,172.9375 C976.0313,172.9375 976.3125,173.0781 976.4688,173.3438 C976.5625,173.5 976.5781,173.625 976.5781,174.0625 L976.5781,175.4844 C976.5781,175.9063 976.5469,176.0938 976.4375,176.25 C976.2656,176.4688 976,176.6094 975.7344,176.6094 C975.5156,176.6094 975.2813,176.5 975.1406,176.3594 C975,176.2344 974.9688,176.1094 974.9063,175.7031 C974.8125,175.2969 974.6406,175.0781 974.1563,174.7969 C973.6875,174.5469 973.0781,174.3906 972.5,174.3906 C970.7656,174.3906 969.5156,175.7031 969.5156,177.4844 L969.5156,178.5781 C969.5156,180.2813 970.8125,181.375 972.8594,181.375 C973.625,181.375 974.3125,181.25 974.7344,180.9844 C974.9219,180.8906 974.9219,180.8906 975.375,180.4063 C975.5625,180.2188 975.7656,180.1406 975.9844,180.1406 C976.4531,180.1406 976.8438,180.5313 976.8438,180.9844 C976.8438,181.375 976.5156,181.8281 975.9375,182.2344 C975.1875,182.7813 974.0313,183.0781 972.8125,183.0781 C969.9219,183.0781 967.8125,181.1875 967.8125,178.6094 L967.8125,177.4844 C967.8125,174.7656 969.8125,172.6875 972.4375,172.6875 C973.3125,172.6875 973.9063,172.8281 974.8438,173.2656 Z "/><text fill="#000000" font-family="sans-serif" font-size="12" lengthAdjust="spacingAndGlyphs" textLength="65" x="986.5" y="181.748">:SiteTaxon</text><line style="stroke: #A80036; stroke-width: 1.5;" x1="958.5" x2="1053.5" y1="193.5938" y2="193.5938"/><line style="stroke: #A80036; stroke-width: 1.5;" x1="958.5" x2="1053.5" y1="201.5938" y2="201.5938"/></a><!--MD5=[2b86ed209687f3341cf235cea84d7fb4]
class :Survey--><a href="http://linked.data.gov.au/def/plot/x/Survey" target="_top" title="http://linked.data.gov.au/def/plot/x/Survey" xlink:actuate="onRequest" xlink:href="http://linked.data.gov.au/def/plot/x/Survey" xlink:show="new" xlink:title="http://linked.data.gov.au/def/plot/x/Survey" xlink:type="simple"><rect fill="#FEFECE" filter="url(#f1a3gn6qoxn3f4)" height="48" id=":Survey" style="stroke: #A80036; stroke-width: 1.5;" width="77" x="845.5" y="161.5938"/><ellipse cx="860.5" cy="177.5938" fill="#ADD1B2" rx="11" ry="11" style="stroke: #A80036; stroke-width: 1.0;"/><path d="M862.8438,173.2656 L863.0156,173.3438 C863.2344,173.0313 863.4375,172.9375 863.7344,172.9375 C864.0313,172.9375 864.3125,173.0781 864.4688,173.3438 C864.5625,173.5 864.5781,173.625 864.5781,174.0625 L864.5781,175.4844 C864.5781,175.9063 864.5469,176.0938 864.4375,176.25 C864.2656,176.4688 864,176.6094 863.7344,176.6094 C863.5156,176.6094 863.2813,176.5 863.1406,176.3594 C863,176.2344 862.9688,176.1094 862.9063,175.7031 C862.8125,175.2969 862.6406,175.0781 862.1563,174.7969 C861.6875,174.5469 861.0781,174.3906 860.5,174.3906 C858.7656,174.3906 857.5156,175.7031 857.5156,177.4844 L857.5156,178.5781 C857.5156,180.2813 858.8125,181.375 860.8594,181.375 C861.625,181.375 862.3125,181.25 862.7344,180.9844 C862.9219,180.8906 862.9219,180.8906 863.375,180.4063 C863.5625,180.2188 863.7656,180.1406 863.9844,180.1406 C864.4531,180.1406 864.8438,180.5313 864.8438,180.9844 C864.8438,181.375 864.5156,181.8281 863.9375,182.2344 C863.1875,182.7813 862.0313,183.0781 860.8125,183.0781 C857.9219,183.0781 855.8125,181.1875 855.8125,178.6094 L855.8125,177.4844 C855.8125,174.7656 857.8125,172.6875 860.4375,172.6875 C861.3125,172.6875 861.9063,172.8281 862.8438,173.2656 Z "/><text fill="#000000" font-family="sans-serif" font-size="12" lengthAdjust="spacingAndGlyphs" textLength="45" x="874.5" y="181.748">:Survey</text><line style="stroke: #A80036; stroke-width: 1.5;" x1="846.5" x2="921.5" y1="193.5938" y2="193.5938"/><line style="stroke: #A80036; stroke-width: 1.5;" x1="846.5" x2="921.5" y1="201.5938" y2="201.5938"/></a><!--MD5=[f071ecb23dbf121833784480fda18997]
class owl:Thing--><rect fill="#FEFECE" filter="url(#f1a3gn6qoxn3f4)" height="48" id="owl:Thing" style="stroke: #A80036; stroke-width: 1.5;" width="90" x="1685" y="161.5938"/><ellipse cx="1700" cy="177.5938" fill="#ADD1B2" rx="11" ry="11" style="stroke: #A80036; stroke-width: 1.0;"/><path d="M1702.3438,173.2656 L1702.5156,173.3438 C1702.7344,173.0313 1702.9375,172.9375 1703.2344,172.9375 C1703.5313,172.9375 1703.8125,173.0781 1703.9688,173.3438 C1704.0625,173.5 1704.0781,173.625 1704.0781,174.0625 L1704.0781,175.4844 C1704.0781,175.9063 1704.0469,176.0938 1703.9375,176.25 C1703.7656,176.4688 1703.5,176.6094 1703.2344,176.6094 C1703.0156,176.6094 1702.7813,176.5 1702.6406,176.3594 C1702.5,176.2344 1702.4688,176.1094 1702.4063,175.7031 C1702.3125,175.2969 1702.1406,175.0781 1701.6563,174.7969 C1701.1875,174.5469 1700.5781,174.3906 1700,174.3906 C1698.2656,174.3906 1697.0156,175.7031 1697.0156,177.4844 L1697.0156,178.5781 C1697.0156,180.2813 1698.3125,181.375 1700.3594,181.375 C1701.125,181.375 1701.8125,181.25 1702.2344,180.9844 C1702.4219,180.8906 1702.4219,180.8906 1702.875,180.4063 C1703.0625,180.2188 1703.2656,180.1406 1703.4844,180.1406 C1703.9531,180.1406 1704.3438,180.5313 1704.3438,180.9844 C1704.3438,181.375 1704.0156,181.8281 1703.4375,182.2344 C1702.6875,182.7813 1701.5313,183.0781 1700.3125,183.0781 C1697.4219,183.0781 1695.3125,181.1875 1695.3125,178.6094 L1695.3125,177.4844 C1695.3125,174.7656 1697.3125,172.6875 1699.9375,172.6875 C1700.8125,172.6875 1701.4063,172.8281 1702.3438,173.2656 Z "/><text fill="#000000" font-family="sans-serif" font-size="12" lengthAdjust="spacingAndGlyphs" textLength="58" x="1714" y="181.748">owl:Thing</text><line style="stroke: #A80036; stroke-width: 1.5;" x1="1686" x2="1774" y1="193.5938" y2="193.5938"/><line style="stroke: #A80036; stroke-width: 1.5;" x1="1686" x2="1774" y1="201.5938" y2="201.5938"/><!--MD5=[fc541faf7941394647775b46ff936e10]
class :EnvironmentalSystem--><a href="http://linked.data.gov.au/def/plot/x/EnvironmentalSystem" target="_top" title="http://linked.data.gov.au/def/plot/x/EnvironmentalSystem" xlink:actuate="onRequest" xlink:href="http://linked.data.gov.au/def/plot/x/EnvironmentalSystem" xlink:show="new" xlink:title="http://linked.data.gov.au/def/plot/x/EnvironmentalSystem" xlink:type="simple"><rect fill="#FEFECE" filter="url(#f1a3gn6qoxn3f4)" height="48" id=":EnvironmentalSystem" style="stroke: #A80036; stroke-width: 1.5;" width="170" x="1639" y="269.5938"/><ellipse cx="1654" cy="285.5938" fill="#ADD1B2" rx="11" ry="11" style="stroke: #A80036; stroke-width: 1.0;"/><path d="M1656.3438,281.2656 L1656.5156,281.3438 C1656.7344,281.0313 1656.9375,280.9375 1657.2344,280.9375 C1657.5313,280.9375 1657.8125,281.0781 1657.9688,281.3438 C1658.0625,281.5 1658.0781,281.625 1658.0781,282.0625 L1658.0781,283.4844 C1658.0781,283.9063 1658.0469,284.0938 1657.9375,284.25 C1657.7656,284.4688 1657.5,284.6094 1657.2344,284.6094 C1657.0156,284.6094 1656.7813,284.5 1656.6406,284.3594 C1656.5,284.2344 1656.4688,284.1094 1656.4063,283.7031 C1656.3125,283.2969 1656.1406,283.0781 1655.6563,282.7969 C1655.1875,282.5469 1654.5781,282.3906 1654,282.3906 C1652.2656,282.3906 1651.0156,283.7031 1651.0156,285.4844 L1651.0156,286.5781 C1651.0156,288.2813 1652.3125,289.375 1654.3594,289.375 C1655.125,289.375 1655.8125,289.25 1656.2344,288.9844 C1656.4219,288.8906 1656.4219,288.8906 1656.875,288.4063 C1657.0625,288.2188 1657.2656,288.1406 1657.4844,288.1406 C1657.9531,288.1406 1658.3438,288.5313 1658.3438,288.9844 C1658.3438,289.375 1658.0156,289.8281 1657.4375,290.2344 C1656.6875,290.7813 1655.5313,291.0781 1654.3125,291.0781 C1651.4219,291.0781 1649.3125,289.1875 1649.3125,286.6094 L1649.3125,285.4844 C1649.3125,282.7656 1651.3125,280.6875 1653.9375,280.6875 C1654.8125,280.6875 1655.4063,280.8281 1656.3438,281.2656 Z "/><text fill="#000000" font-family="sans-serif" font-size="12" lengthAdjust="spacingAndGlyphs" textLength="138" x="1668" y="289.748">:EnvironmentalSystem</text><line style="stroke: #A80036; stroke-width: 1.5;" x1="1640" x2="1808" y1="301.5938" y2="301.5938"/><line style="stroke: #A80036; stroke-width: 1.5;" x1="1640" x2="1808" y1="309.5938" y2="309.5938"/></a><!--MD5=[271020f0bd72f99a9c4b6587d81e43ae]
class :EnvironmentalContinuant--><a href="http://linked.data.gov.au/def/plot/x/EnvironmentalContinuant" target="_top" title="http://linked.data.gov.au/def/plot/x/EnvironmentalContinuant" xlink:actuate="onRequest" xlink:href="http://linked.data.gov.au/def/plot/x/EnvironmentalContinuant" xlink:show="new" xlink:title="http://linked.data.gov.au/def/plot/x/EnvironmentalContinuant" xlink:type="simple"><rect fill="#FEFECE" filter="url(#f1a3gn6qoxn3f4)" height="48" id=":EnvironmentalContinuant" style="stroke: #A80036; stroke-width: 1.5;" width="194" x="1821" y="161.5938"/><ellipse cx="1836" cy="177.5938" fill="#ADD1B2" rx="11" ry="11" style="stroke: #A80036; stroke-width: 1.0;"/><path d="M1838.3438,173.2656 L1838.5156,173.3438 C1838.7344,173.0313 1838.9375,172.9375 1839.2344,172.9375 C1839.5313,172.9375 1839.8125,173.0781 1839.9688,173.3438 C1840.0625,173.5 1840.0781,173.625 1840.0781,174.0625 L1840.0781,175.4844 C1840.0781,175.9063 1840.0469,176.0938 1839.9375,176.25 C1839.7656,176.4688 1839.5,176.6094 1839.2344,176.6094 C1839.0156,176.6094 1838.7813,176.5 1838.6406,176.3594 C1838.5,176.2344 1838.4688,176.1094 1838.4063,175.7031 C1838.3125,175.2969 1838.1406,175.0781 1837.6563,174.7969 C1837.1875,174.5469 1836.5781,174.3906 1836,174.3906 C1834.2656,174.3906 1833.0156,175.7031 1833.0156,177.4844 L1833.0156,178.5781 C1833.0156,180.2813 1834.3125,181.375 1836.3594,181.375 C1837.125,181.375 1837.8125,181.25 1838.2344,180.9844 C1838.4219,180.8906 1838.4219,180.8906 1838.875,180.4063 C1839.0625,180.2188 1839.2656,180.1406 1839.4844,180.1406 C1839.9531,180.1406 1840.3438,180.5313 1840.3438,180.9844 C1840.3438,181.375 1840.0156,181.8281 1839.4375,182.2344 C1838.6875,182.7813 1837.5313,183.0781 1836.3125,183.0781 C1833.4219,183.0781 1831.3125,181.1875 1831.3125,178.6094 L1831.3125,177.4844 C1831.3125,174.7656 1833.3125,172.6875 1835.9375,172.6875 C1836.8125,172.6875 1837.4063,172.8281 1838.3438,173.2656 Z "/><text fill="#000000" font-family="sans-serif" font-size="12" lengthAdjust="spacingAndGlyphs" textLength="162" x="1850" y="181.748">:EnvironmentalContinuant</text><line style="stroke: #A80036; stroke-width: 1.5;" x1="1822" x2="2014" y1="193.5938" y2="193.5938"/><line style="stroke: #A80036; stroke-width: 1.5;" x1="1822" x2="2014" y1="201.5938" y2="201.5938"/></a><!--MD5=[aec54989d0b5e1280b3fe804a99154c1]
class :OrganismOccurence--><a href="http://linked.data.gov.au/def/plot/OrganismOccurence" target="_top" title="http://linked.data.gov.au/def/plot/OrganismOccurence" xlink:actuate="onRequest" xlink:href="http://linked.data.gov.au/def/plot/OrganismOccurence" xlink:show="new" xlink:title="http://linked.data.gov.au/def/plot/OrganismOccurence" xlink:type="simple"><rect fill="#FEFECE" filter="url(#f1a3gn6qoxn3f4)" height="48" id=":OrganismOccurence" style="stroke: #A80036; stroke-width: 1.5;" width="162" x="1436" y="161.5938"/><ellipse cx="1451" cy="177.5938" fill="#ADD1B2" rx="11" ry="11" style="stroke: #A80036; stroke-width: 1.0;"/><path d="M1453.3438,173.2656 L1453.5156,173.3438 C1453.7344,173.0313 1453.9375,172.9375 1454.2344,172.9375 C1454.5313,172.9375 1454.8125,173.0781 1454.9688,173.3438 C1455.0625,173.5 1455.0781,173.625 1455.0781,174.0625 L1455.0781,175.4844 C1455.0781,175.9063 1455.0469,176.0938 1454.9375,176.25 C1454.7656,176.4688 1454.5,176.6094 1454.2344,176.6094 C1454.0156,176.6094 1453.7813,176.5 1453.6406,176.3594 C1453.5,176.2344 1453.4688,176.1094 1453.4063,175.7031 C1453.3125,175.2969 1453.1406,175.0781 1452.6563,174.7969 C1452.1875,174.5469 1451.5781,174.3906 1451,174.3906 C1449.2656,174.3906 1448.0156,175.7031 1448.0156,177.4844 L1448.0156,178.5781 C1448.0156,180.2813 1449.3125,181.375 1451.3594,181.375 C1452.125,181.375 1452.8125,181.25 1453.2344,180.9844 C1453.4219,180.8906 1453.4219,180.8906 1453.875,180.4063 C1454.0625,180.2188 1454.2656,180.1406 1454.4844,180.1406 C1454.9531,180.1406 1455.3438,180.5313 1455.3438,180.9844 C1455.3438,181.375 1455.0156,181.8281 1454.4375,182.2344 C1453.6875,182.7813 1452.5313,183.0781 1451.3125,183.0781 C1448.4219,183.0781 1446.3125,181.1875 1446.3125,178.6094 L1446.3125,177.4844 C1446.3125,174.7656 1448.3125,172.6875 1450.9375,172.6875 C1451.8125,172.6875 1452.4063,172.8281 1453.3438,173.2656 Z "/><text fill="#000000" font-family="sans-serif" font-size="12" lengthAdjust="spacingAndGlyphs" textLength="130" x="1465" y="181.748">:OrganismOccurence</text><line style="stroke: #A80036; stroke-width: 1.5;" x1="1437" x2="1597" y1="193.5938" y2="193.5938"/><line style="stroke: #A80036; stroke-width: 1.5;" x1="1437" x2="1597" y1="201.5938" y2="201.5938"/></a><!--MD5=[cd57d364b5b3fdd499729d0748632540]
class time:TemporalEntity--><rect fill="#FEFECE" filter="url(#f1a3gn6qoxn3f4)" height="48" id="time:TemporalEntity" style="stroke: #A80036; stroke-width: 1.5;" width="156" x="1254" y="47.0938"/><ellipse cx="1269" cy="63.0938" fill="#ADD1B2" rx="11" ry="11" style="stroke: #A80036; stroke-width: 1.0;"/><path d="M1271.3438,58.7656 L1271.5156,58.8438 C1271.7344,58.5313 1271.9375,58.4375 1272.2344,58.4375 C1272.5313,58.4375 1272.8125,58.5781 1272.9688,58.8438 C1273.0625,59 1273.0781,59.125 1273.0781,59.5625 L1273.0781,60.9844 C1273.0781,61.4063 1273.0469,61.5938 1272.9375,61.75 C1272.7656,61.9688 1272.5,62.1094 1272.2344,62.1094 C1272.0156,62.1094 1271.7813,62 1271.6406,61.8594 C1271.5,61.7344 1271.4688,61.6094 1271.4063,61.2031 C1271.3125,60.7969 1271.1406,60.5781 1270.6563,60.2969 C1270.1875,60.0469 1269.5781,59.8906 1269,59.8906 C1267.2656,59.8906 1266.0156,61.2031 1266.0156,62.9844 L1266.0156,64.0781 C1266.0156,65.7813 1267.3125,66.875 1269.3594,66.875 C1270.125,66.875 1270.8125,66.75 1271.2344,66.4844 C1271.4219,66.3906 1271.4219,66.3906 1271.875,65.9063 C1272.0625,65.7188 1272.2656,65.6406 1272.4844,65.6406 C1272.9531,65.6406 1273.3438,66.0313 1273.3438,66.4844 C1273.3438,66.875 1273.0156,67.3281 1272.4375,67.7344 C1271.6875,68.2813 1270.5313,68.5781 1269.3125,68.5781 C1266.4219,68.5781 1264.3125,66.6875 1264.3125,64.1094 L1264.3125,62.9844 C1264.3125,60.2656 1266.3125,58.1875 1268.9375,58.1875 C1269.8125,58.1875 1270.4063,58.3281 1271.3438,58.7656 Z "/><text fill="#000000" font-family="sans-serif" font-size="12" lengthAdjust="spacingAndGlyphs" textLength="124" x="1283" y="67.248">time:TemporalEntity</text><line style="stroke: #A80036; stroke-width: 1.5;" x1="1255" x2="1409" y1="79.0938" y2="79.0938"/><line style="stroke: #A80036; stroke-width: 1.5;" x1="1255" x2="1409" y1="87.0938" y2="87.0938"/><!--MD5=[9aaa16b4e45fc97314f609860701115f]
class geosparql:SpatialObject--><rect fill="#FEFECE" filter="url(#f1a3gn6qoxn3f4)" height="48" id="geosparql:SpatialObject" style="stroke: #A80036; stroke-width: 1.5;" width="182" x="1445" y="47.0938"/><ellipse cx="1460" cy="63.0938" fill="#ADD1B2" rx="11" ry="11" style="stroke: #A80036; stroke-width: 1.0;"/><path d="M1462.3438,58.7656 L1462.5156,58.8438 C1462.7344,58.5313 1462.9375,58.4375 1463.2344,58.4375 C1463.5313,58.4375 1463.8125,58.5781 1463.9688,58.8438 C1464.0625,59 1464.0781,59.125 1464.0781,59.5625 L1464.0781,60.9844 C1464.0781,61.4063 1464.0469,61.5938 1463.9375,61.75 C1463.7656,61.9688 1463.5,62.1094 1463.2344,62.1094 C1463.0156,62.1094 1462.7813,62 1462.6406,61.8594 C1462.5,61.7344 1462.4688,61.6094 1462.4063,61.2031 C1462.3125,60.7969 1462.1406,60.5781 1461.6563,60.2969 C1461.1875,60.0469 1460.5781,59.8906 1460,59.8906 C1458.2656,59.8906 1457.0156,61.2031 1457.0156,62.9844 L1457.0156,64.0781 C1457.0156,65.7813 1458.3125,66.875 1460.3594,66.875 C1461.125,66.875 1461.8125,66.75 1462.2344,66.4844 C1462.4219,66.3906 1462.4219,66.3906 1462.875,65.9063 C1463.0625,65.7188 1463.2656,65.6406 1463.4844,65.6406 C1463.9531,65.6406 1464.3438,66.0313 1464.3438,66.4844 C1464.3438,66.875 1464.0156,67.3281 1463.4375,67.7344 C1462.6875,68.2813 1461.5313,68.5781 1460.3125,68.5781 C1457.4219,68.5781 1455.3125,66.6875 1455.3125,64.1094 L1455.3125,62.9844 C1455.3125,60.2656 1457.3125,58.1875 1459.9375,58.1875 C1460.8125,58.1875 1461.4063,58.3281 1462.3438,58.7656 Z "/><text fill="#000000" font-family="sans-serif" font-size="12" lengthAdjust="spacingAndGlyphs" textLength="150" x="1474" y="67.248">geosparql:SpatialObject</text><line style="stroke: #A80036; stroke-width: 1.5;" x1="1446" x2="1626" y1="79.0938" y2="79.0938"/><line style="stroke: #A80036; stroke-width: 1.5;" x1="1446" x2="1626" y1="87.0938" y2="87.0938"/><!--MD5=[05998431d8650f5302bbe94e4b45ca10]
class :SiteStratumTaxon--><a href="http://linked.data.gov.au/def/plot/SiteStratumTaxon" target="_top" title="http://linked.data.gov.au/def/plot/SiteStratumTaxon" xlink:actuate="onRequest" xlink:href="http://linked.data.gov.au/def/plot/SiteStratumTaxon" xlink:show="new" xlink:title="http://linked.data.gov.au/def/plot/SiteStratumTaxon" xlink:type="simple"><rect fill="#FEFECE" filter="url(#f1a3gn6qoxn3f4)" height="48" id=":SiteStratumTaxon" style="stroke: #A80036; stroke-width: 1.5;" width="147" x="1089.5" y="161.5938"/><ellipse cx="1104.5" cy="177.5938" fill="#ADD1B2" rx="11" ry="11" style="stroke: #A80036; stroke-width: 1.0;"/><path d="M1106.8438,173.2656 L1107.0156,173.3438 C1107.2344,173.0313 1107.4375,172.9375 1107.7344,172.9375 C1108.0313,172.9375 1108.3125,173.0781 1108.4688,173.3438 C1108.5625,173.5 1108.5781,173.625 1108.5781,174.0625 L1108.5781,175.4844 C1108.5781,175.9063 1108.5469,176.0938 1108.4375,176.25 C1108.2656,176.4688 1108,176.6094 1107.7344,176.6094 C1107.5156,176.6094 1107.2813,176.5 1107.1406,176.3594 C1107,176.2344 1106.9688,176.1094 1106.9063,175.7031 C1106.8125,175.2969 1106.6406,175.0781 1106.1563,174.7969 C1105.6875,174.5469 1105.0781,174.3906 1104.5,174.3906 C1102.7656,174.3906 1101.5156,175.7031 1101.5156,177.4844 L1101.5156,178.5781 C1101.5156,180.2813 1102.8125,181.375 1104.8594,181.375 C1105.625,181.375 1106.3125,181.25 1106.7344,180.9844 C1106.9219,180.8906 1106.9219,180.8906 1107.375,180.4063 C1107.5625,180.2188 1107.7656,180.1406 1107.9844,180.1406 C1108.4531,180.1406 1108.8438,180.5313 1108.8438,180.9844 C1108.8438,181.375 1108.5156,181.8281 1107.9375,182.2344 C1107.1875,182.7813 1106.0313,183.0781 1104.8125,183.0781 C1101.9219,183.0781 1099.8125,181.1875 1099.8125,178.6094 L1099.8125,177.4844 C1099.8125,174.7656 1101.8125,172.6875 1104.4375,172.6875 C1105.3125,172.6875 1105.9063,172.8281 1106.8438,173.2656 Z "/><text fill="#000000" font-family="sans-serif" font-size="12" lengthAdjust="spacingAndGlyphs" textLength="115" x="1118.5" y="181.748">:SiteStratumTaxon</text><line style="stroke: #A80036; stroke-width: 1.5;" x1="1090.5" x2="1235.5" y1="193.5938" y2="193.5938"/><line style="stroke: #A80036; stroke-width: 1.5;" x1="1090.5" x2="1235.5" y1="201.5938" y2="201.5938"/></a><!--MD5=[313751d88e530a9b19b67ace9347529e]
class :EnvironmentalZone--><a href="http://linked.data.gov.au/def/plot/x/EnvironmentalZone" target="_top" title="http://linked.data.gov.au/def/plot/x/EnvironmentalZone" xlink:actuate="onRequest" xlink:href="http://linked.data.gov.au/def/plot/x/EnvironmentalZone" xlink:show="new" xlink:title="http://linked.data.gov.au/def/plot/x/EnvironmentalZone" xlink:type="simple"><rect fill="#FEFECE" filter="url(#f1a3gn6qoxn3f4)" height="48" id=":EnvironmentalZone" style="stroke: #A80036; stroke-width: 1.5;" width="158" x="1844" y="269.5938"/><ellipse cx="1859" cy="285.5938" fill="#ADD1B2" rx="11" ry="11" style="stroke: #A80036; stroke-width: 1.0;"/><path d="M1861.3438,281.2656 L1861.5156,281.3438 C1861.7344,281.0313 1861.9375,280.9375 1862.2344,280.9375 C1862.5313,280.9375 1862.8125,281.0781 1862.9688,281.3438 C1863.0625,281.5 1863.0781,281.625 1863.0781,282.0625 L1863.0781,283.4844 C1863.0781,283.9063 1863.0469,284.0938 1862.9375,284.25 C1862.7656,284.4688 1862.5,284.6094 1862.2344,284.6094 C1862.0156,284.6094 1861.7813,284.5 1861.6406,284.3594 C1861.5,284.2344 1861.4688,284.1094 1861.4063,283.7031 C1861.3125,283.2969 1861.1406,283.0781 1860.6563,282.7969 C1860.1875,282.5469 1859.5781,282.3906 1859,282.3906 C1857.2656,282.3906 1856.0156,283.7031 1856.0156,285.4844 L1856.0156,286.5781 C1856.0156,288.2813 1857.3125,289.375 1859.3594,289.375 C1860.125,289.375 1860.8125,289.25 1861.2344,288.9844 C1861.4219,288.8906 1861.4219,288.8906 1861.875,288.4063 C1862.0625,288.2188 1862.2656,288.1406 1862.4844,288.1406 C1862.9531,288.1406 1863.3438,288.5313 1863.3438,288.9844 C1863.3438,289.375 1863.0156,289.8281 1862.4375,290.2344 C1861.6875,290.7813 1860.5313,291.0781 1859.3125,291.0781 C1856.4219,291.0781 1854.3125,289.1875 1854.3125,286.6094 L1854.3125,285.4844 C1854.3125,282.7656 1856.3125,280.6875 1858.9375,280.6875 C1859.8125,280.6875 1860.4063,280.8281 1861.3438,281.2656 Z "/><text fill="#000000" font-family="sans-serif" font-size="12" lengthAdjust="spacingAndGlyphs" textLength="126" x="1873" y="289.748">:EnvironmentalZone</text><line style="stroke: #A80036; stroke-width: 1.5;" x1="1845" x2="2001" y1="301.5938" y2="301.5938"/><line style="stroke: #A80036; stroke-width: 1.5;" x1="1845" x2="2001" y1="309.5938" y2="309.5938"/></a><!--MD5=[bb6d9abb7e221430576ccc276aa8775d]
class sosa:Observation--><rect fill="#FEFECE" filter="url(#f1a3gn6qoxn3f4)" height="48" id="sosa:Observation" style="stroke: #A80036; stroke-width: 1.5;" width="141" x="2052.5" y="47.0938"/><ellipse cx="2067.5" cy="63.0938" fill="#ADD1B2" rx="11" ry="11" style="stroke: #A80036; stroke-width: 1.0;"/><path d="M2069.8438,58.7656 L2070.0156,58.8438 C2070.2344,58.5313 2070.4375,58.4375 2070.7344,58.4375 C2071.0313,58.4375 2071.3125,58.5781 2071.4688,58.8438 C2071.5625,59 2071.5781,59.125 2071.5781,59.5625 L2071.5781,60.9844 C2071.5781,61.4063 2071.5469,61.5938 2071.4375,61.75 C2071.2656,61.9688 2071,62.1094 2070.7344,62.1094 C2070.5156,62.1094 2070.2813,62 2070.1406,61.8594 C2070,61.7344 2069.9688,61.6094 2069.9063,61.2031 C2069.8125,60.7969 2069.6406,60.5781 2069.1563,60.2969 C2068.6875,60.0469 2068.0781,59.8906 2067.5,59.8906 C2065.7656,59.8906 2064.5156,61.2031 2064.5156,62.9844 L2064.5156,64.0781 C2064.5156,65.7813 2065.8125,66.875 2067.8594,66.875 C2068.625,66.875 2069.3125,66.75 2069.7344,66.4844 C2069.9219,66.3906 2069.9219,66.3906 2070.375,65.9063 C2070.5625,65.7188 2070.7656,65.6406 2070.9844,65.6406 C2071.4531,65.6406 2071.8438,66.0313 2071.8438,66.4844 C2071.8438,66.875 2071.5156,67.3281 2070.9375,67.7344 C2070.1875,68.2813 2069.0313,68.5781 2067.8125,68.5781 C2064.9219,68.5781 2062.8125,66.6875 2062.8125,64.1094 L2062.8125,62.9844 C2062.8125,60.2656 2064.8125,58.1875 2067.4375,58.1875 C2068.3125,58.1875 2068.9063,58.3281 2069.8438,58.7656 Z "/><text fill="#000000" font-family="sans-serif" font-size="12" lengthAdjust="spacingAndGlyphs" textLength="109" x="2081.5" y="67.248">sosa:Observation</text><line style="stroke: #A80036; stroke-width: 1.5;" x1="2053.5" x2="2192.5" y1="79.0938" y2="79.0938"/><line style="stroke: #A80036; stroke-width: 1.5;" x1="2053.5" x2="2192.5" y1="87.0938" y2="87.0938"/><!--MD5=[b2a8d2e130b98aa952ed50aba61fd144]
class :TaxonAssignment--><a href="http://linked.data.gov.au/def/plot/x/TaxonAssignment" target="_top" title="http://linked.data.gov.au/def/plot/x/TaxonAssignment" xlink:actuate="onRequest" xlink:href="http://linked.data.gov.au/def/plot/x/TaxonAssignment" xlink:show="new" xlink:title="http://linked.data.gov.au/def/plot/x/TaxonAssignment" xlink:type="simple"><rect fill="#FEFECE" filter="url(#f1a3gn6qoxn3f4)" height="48" id=":TaxonAssignment" style="stroke: #A80036; stroke-width: 1.5;" width="146" x="2050" y="161.5938"/><ellipse cx="2065" cy="177.5938" fill="#ADD1B2" rx="11" ry="11" style="stroke: #A80036; stroke-width: 1.0;"/><path d="M2067.3438,173.2656 L2067.5156,173.3438 C2067.7344,173.0313 2067.9375,172.9375 2068.2344,172.9375 C2068.5313,172.9375 2068.8125,173.0781 2068.9688,173.3438 C2069.0625,173.5 2069.0781,173.625 2069.0781,174.0625 L2069.0781,175.4844 C2069.0781,175.9063 2069.0469,176.0938 2068.9375,176.25 C2068.7656,176.4688 2068.5,176.6094 2068.2344,176.6094 C2068.0156,176.6094 2067.7813,176.5 2067.6406,176.3594 C2067.5,176.2344 2067.4688,176.1094 2067.4063,175.7031 C2067.3125,175.2969 2067.1406,175.0781 2066.6563,174.7969 C2066.1875,174.5469 2065.5781,174.3906 2065,174.3906 C2063.2656,174.3906 2062.0156,175.7031 2062.0156,177.4844 L2062.0156,178.5781 C2062.0156,180.2813 2063.3125,181.375 2065.3594,181.375 C2066.125,181.375 2066.8125,181.25 2067.2344,180.9844 C2067.4219,180.8906 2067.4219,180.8906 2067.875,180.4063 C2068.0625,180.2188 2068.2656,180.1406 2068.4844,180.1406 C2068.9531,180.1406 2069.3438,180.5313 2069.3438,180.9844 C2069.3438,181.375 2069.0156,181.8281 2068.4375,182.2344 C2067.6875,182.7813 2066.5313,183.0781 2065.3125,183.0781 C2062.4219,183.0781 2060.3125,181.1875 2060.3125,178.6094 L2060.3125,177.4844 C2060.3125,174.7656 2062.3125,172.6875 2064.9375,172.6875 C2065.8125,172.6875 2066.4063,172.8281 2067.3438,173.2656 Z "/><text fill="#000000" font-family="sans-serif" font-size="12" lengthAdjust="spacingAndGlyphs" textLength="114" x="2079" y="181.748">:TaxonAssignment</text><line style="stroke: #A80036; stroke-width: 1.5;" x1="2051" x2="2195" y1="193.5938" y2="193.5938"/><line style="stroke: #A80036; stroke-width: 1.5;" x1="2051" x2="2195" y1="201.5938" y2="201.5938"/></a><!--MD5=[f6742dd3b18cea425fa567171347bcdd]
class :EcologicalCommunity--><a href="http://linked.data.gov.au/def/plot/x/EcologicalCommunity" target="_top" title="http://linked.data.gov.au/def/plot/x/EcologicalCommunity" xlink:actuate="onRequest" xlink:href="http://linked.data.gov.au/def/plot/x/EcologicalCommunity" xlink:show="new" xlink:title="http://linked.data.gov.au/def/plot/x/EcologicalCommunity" xlink:type="simple"><rect fill="#FEFECE" filter="url(#f1a3gn6qoxn3f4)" height="48" id=":EcologicalCommunity" style="stroke: #A80036; stroke-width: 1.5;" width="167" x="1640.5" y="377.5938"/><ellipse cx="1655.5" cy="393.5938" fill="#ADD1B2" rx="11" ry="11" style="stroke: #A80036; stroke-width: 1.0;"/><path d="M1657.8438,389.2656 L1658.0156,389.3438 C1658.2344,389.0313 1658.4375,388.9375 1658.7344,388.9375 C1659.0313,388.9375 1659.3125,389.0781 1659.4688,389.3438 C1659.5625,389.5 1659.5781,389.625 1659.5781,390.0625 L1659.5781,391.4844 C1659.5781,391.9063 1659.5469,392.0938 1659.4375,392.25 C1659.2656,392.4688 1659,392.6094 1658.7344,392.6094 C1658.5156,392.6094 1658.2813,392.5 1658.1406,392.3594 C1658,392.2344 1657.9688,392.1094 1657.9063,391.7031 C1657.8125,391.2969 1657.6406,391.0781 1657.1563,390.7969 C1656.6875,390.5469 1656.0781,390.3906 1655.5,390.3906 C1653.7656,390.3906 1652.5156,391.7031 1652.5156,393.4844 L1652.5156,394.5781 C1652.5156,396.2813 1653.8125,397.375 1655.8594,397.375 C1656.625,397.375 1657.3125,397.25 1657.7344,396.9844 C1657.9219,396.8906 1657.9219,396.8906 1658.375,396.4063 C1658.5625,396.2188 1658.7656,396.1406 1658.9844,396.1406 C1659.4531,396.1406 1659.8438,396.5313 1659.8438,396.9844 C1659.8438,397.375 1659.5156,397.8281 1658.9375,398.2344 C1658.1875,398.7813 1657.0313,399.0781 1655.8125,399.0781 C1652.9219,399.0781 1650.8125,397.1875 1650.8125,394.6094 L1650.8125,393.4844 C1650.8125,390.7656 1652.8125,388.6875 1655.4375,388.6875 C1656.3125,388.6875 1656.9063,388.8281 1657.8438,389.2656 Z "/><text fill="#000000" font-family="sans-serif" font-size="12" lengthAdjust="spacingAndGlyphs" textLength="135" x="1669.5" y="397.748">:EcologicalCommunity</text><line style="stroke: #A80036; stroke-width: 1.5;" x1="1641.5" x2="1806.5" y1="409.5938" y2="409.5938"/><line style="stroke: #A80036; stroke-width: 1.5;" x1="1641.5" x2="1806.5" y1="417.5938" y2="417.5938"/></a><!--MD5=[f6b9b747f08f3018e39ed94054dbb971]
class :Assemblage--><a href="http://linked.data.gov.au/def/plot/x/Assemblage" target="_top" title="http://linked.data.gov.au/def/plot/x/Assemblage" xlink:actuate="onRequest" xlink:href="http://linked.data.gov.au/def/plot/x/Assemblage" xlink:show="new" xlink:title="http://linked.data.gov.au/def/plot/x/Assemblage" xlink:type="simple"><rect fill="#FEFECE" filter="url(#f1a3gn6qoxn3f4)" height="48" id=":Assemblage" style="stroke: #A80036; stroke-width: 1.5;" width="112" x="1668" y="485.5938"/><ellipse cx="1683" cy="501.5938" fill="#ADD1B2" rx="11" ry="11" style="stroke: #A80036; stroke-width: 1.0;"/><path d="M1685.3438,497.2656 L1685.5156,497.3438 C1685.7344,497.0313 1685.9375,496.9375 1686.2344,496.9375 C1686.5313,496.9375 1686.8125,497.0781 1686.9688,497.3438 C1687.0625,497.5 1687.0781,497.625 1687.0781,498.0625 L1687.0781,499.4844 C1687.0781,499.9063 1687.0469,500.0938 1686.9375,500.25 C1686.7656,500.4688 1686.5,500.6094 1686.2344,500.6094 C1686.0156,500.6094 1685.7813,500.5 1685.6406,500.3594 C1685.5,500.2344 1685.4688,500.1094 1685.4063,499.7031 C1685.3125,499.2969 1685.1406,499.0781 1684.6563,498.7969 C1684.1875,498.5469 1683.5781,498.3906 1683,498.3906 C1681.2656,498.3906 1680.0156,499.7031 1680.0156,501.4844 L1680.0156,502.5781 C1680.0156,504.2813 1681.3125,505.375 1683.3594,505.375 C1684.125,505.375 1684.8125,505.25 1685.2344,504.9844 C1685.4219,504.8906 1685.4219,504.8906 1685.875,504.4063 C1686.0625,504.2188 1686.2656,504.1406 1686.4844,504.1406 C1686.9531,504.1406 1687.3438,504.5313 1687.3438,504.9844 C1687.3438,505.375 1687.0156,505.8281 1686.4375,506.2344 C1685.6875,506.7813 1684.5313,507.0781 1683.3125,507.0781 C1680.4219,507.0781 1678.3125,505.1875 1678.3125,502.6094 L1678.3125,501.4844 C1678.3125,498.7656 1680.3125,496.6875 1682.9375,496.6875 C1683.8125,496.6875 1684.4063,496.8281 1685.3438,497.2656 Z "/><text fill="#000000" font-family="sans-serif" font-size="12" lengthAdjust="spacingAndGlyphs" textLength="80" x="1697" y="505.748">:Assemblage</text><line style="stroke: #A80036; stroke-width: 1.5;" x1="1669" x2="1779" y1="517.5938" y2="517.5938"/><line style="stroke: #A80036; stroke-width: 1.5;" x1="1669" x2="1779" y1="525.5938" y2="525.5938"/></a><!--MD5=[9655ad61792b4ed0d4f91a9adcbf26fa]
class dct:Location--><rect fill="#FEFECE" filter="url(#f1a3gn6qoxn3f4)" height="48" id="dct:Location" style="stroke: #A80036; stroke-width: 1.5;" width="109" x="2228.5" y="47.0938"/><ellipse cx="2243.5" cy="63.0938" fill="#ADD1B2" rx="11" ry="11" style="stroke: #A80036; stroke-width: 1.0;"/><path d="M2245.8438,58.7656 L2246.0156,58.8438 C2246.2344,58.5313 2246.4375,58.4375 2246.7344,58.4375 C2247.0313,58.4375 2247.3125,58.5781 2247.4688,58.8438 C2247.5625,59 2247.5781,59.125 2247.5781,59.5625 L2247.5781,60.9844 C2247.5781,61.4063 2247.5469,61.5938 2247.4375,61.75 C2247.2656,61.9688 2247,62.1094 2246.7344,62.1094 C2246.5156,62.1094 2246.2813,62 2246.1406,61.8594 C2246,61.7344 2245.9688,61.6094 2245.9063,61.2031 C2245.8125,60.7969 2245.6406,60.5781 2245.1563,60.2969 C2244.6875,60.0469 2244.0781,59.8906 2243.5,59.8906 C2241.7656,59.8906 2240.5156,61.2031 2240.5156,62.9844 L2240.5156,64.0781 C2240.5156,65.7813 2241.8125,66.875 2243.8594,66.875 C2244.625,66.875 2245.3125,66.75 2245.7344,66.4844 C2245.9219,66.3906 2245.9219,66.3906 2246.375,65.9063 C2246.5625,65.7188 2246.7656,65.6406 2246.9844,65.6406 C2247.4531,65.6406 2247.8438,66.0313 2247.8438,66.4844 C2247.8438,66.875 2247.5156,67.3281 2246.9375,67.7344 C2246.1875,68.2813 2245.0313,68.5781 2243.8125,68.5781 C2240.9219,68.5781 2238.8125,66.6875 2238.8125,64.1094 L2238.8125,62.9844 C2238.8125,60.2656 2240.8125,58.1875 2243.4375,58.1875 C2244.3125,58.1875 2244.9063,58.3281 2245.8438,58.7656 Z "/><text fill="#000000" font-family="sans-serif" font-size="12" lengthAdjust="spacingAndGlyphs" textLength="77" x="2257.5" y="67.248">dct:Location</text><line style="stroke: #A80036; stroke-width: 1.5;" x1="2229.5" x2="2336.5" y1="79.0938" y2="79.0938"/><line style="stroke: #A80036; stroke-width: 1.5;" x1="2229.5" x2="2336.5" y1="87.0938" y2="87.0938"/><!--MD5=[0d2e18ac24d05bcb014024f64dd8f82f]
class :Location--><a href="http://linked.data.gov.au/def/plot/Location" target="_top" title="http://linked.data.gov.au/def/plot/Location" xlink:actuate="onRequest" xlink:href="http://linked.data.gov.au/def/plot/Location" xlink:show="new" xlink:title="http://linked.data.gov.au/def/plot/Location" xlink:type="simple"><rect fill="#FEFECE" filter="url(#f1a3gn6qoxn3f4)" height="48" id=":Location" style="stroke: #A80036; stroke-width: 1.5;" width="89" x="2238.5" y="161.5938"/><ellipse cx="2253.5" cy="177.5938" fill="#ADD1B2" rx="11" ry="11" style="stroke: #A80036; stroke-width: 1.0;"/><path d="M2255.8438,173.2656 L2256.0156,173.3438 C2256.2344,173.0313 2256.4375,172.9375 2256.7344,172.9375 C2257.0313,172.9375 2257.3125,173.0781 2257.4688,173.3438 C2257.5625,173.5 2257.5781,173.625 2257.5781,174.0625 L2257.5781,175.4844 C2257.5781,175.9063 2257.5469,176.0938 2257.4375,176.25 C2257.2656,176.4688 2257,176.6094 2256.7344,176.6094 C2256.5156,176.6094 2256.2813,176.5 2256.1406,176.3594 C2256,176.2344 2255.9688,176.1094 2255.9063,175.7031 C2255.8125,175.2969 2255.6406,175.0781 2255.1563,174.7969 C2254.6875,174.5469 2254.0781,174.3906 2253.5,174.3906 C2251.7656,174.3906 2250.5156,175.7031 2250.5156,177.4844 L2250.5156,178.5781 C2250.5156,180.2813 2251.8125,181.375 2253.8594,181.375 C2254.625,181.375 2255.3125,181.25 2255.7344,180.9844 C2255.9219,180.8906 2255.9219,180.8906 2256.375,180.4063 C2256.5625,180.2188 2256.7656,180.1406 2256.9844,180.1406 C2257.4531,180.1406 2257.8438,180.5313 2257.8438,180.9844 C2257.8438,181.375 2257.5156,181.8281 2256.9375,182.2344 C2256.1875,182.7813 2255.0313,183.0781 2253.8125,183.0781 C2250.9219,183.0781 2248.8125,181.1875 2248.8125,178.6094 L2248.8125,177.4844 C2248.8125,174.7656 2250.8125,172.6875 2253.4375,172.6875 C2254.3125,172.6875 2254.9063,172.8281 2255.8438,173.2656 Z "/><text fill="#000000" font-family="sans-serif" font-size="12" lengthAdjust="spacingAndGlyphs" textLength="57" x="2267.5" y="181.748">:Location</text><line style="stroke: #A80036; stroke-width: 1.5;" x1="2239.5" x2="2326.5" y1="193.5938" y2="193.5938"/><line style="stroke: #A80036; stroke-width: 1.5;" x1="2239.5" x2="2326.5" y1="201.5938" y2="201.5938"/></a><!--MD5=[a5045e2f80c39252163f54a3f2bf835a]
class :SiteStratum--><a href="http://linked.data.gov.au/def/plot/SiteStratum" target="_top" title="http://linked.data.gov.au/def/plot/SiteStratum" xlink:actuate="onRequest" xlink:href="http://linked.data.gov.au/def/plot/SiteStratum" xlink:show="new" xlink:title="http://linked.data.gov.au/def/plot/SiteStratum" xlink:type="simple"><rect fill="#FEFECE" filter="url(#f1a3gn6qoxn3f4)" height="48" id=":SiteStratum" style="stroke: #A80036; stroke-width: 1.5;" width="110" x="1272" y="161.5938"/><ellipse cx="1287" cy="177.5938" fill="#ADD1B2" rx="11" ry="11" style="stroke: #A80036; stroke-width: 1.0;"/><path d="M1289.3438,173.2656 L1289.5156,173.3438 C1289.7344,173.0313 1289.9375,172.9375 1290.2344,172.9375 C1290.5313,172.9375 1290.8125,173.0781 1290.9688,173.3438 C1291.0625,173.5 1291.0781,173.625 1291.0781,174.0625 L1291.0781,175.4844 C1291.0781,175.9063 1291.0469,176.0938 1290.9375,176.25 C1290.7656,176.4688 1290.5,176.6094 1290.2344,176.6094 C1290.0156,176.6094 1289.7813,176.5 1289.6406,176.3594 C1289.5,176.2344 1289.4688,176.1094 1289.4063,175.7031 C1289.3125,175.2969 1289.1406,175.0781 1288.6563,174.7969 C1288.1875,174.5469 1287.5781,174.3906 1287,174.3906 C1285.2656,174.3906 1284.0156,175.7031 1284.0156,177.4844 L1284.0156,178.5781 C1284.0156,180.2813 1285.3125,181.375 1287.3594,181.375 C1288.125,181.375 1288.8125,181.25 1289.2344,180.9844 C1289.4219,180.8906 1289.4219,180.8906 1289.875,180.4063 C1290.0625,180.2188 1290.2656,180.1406 1290.4844,180.1406 C1290.9531,180.1406 1291.3438,180.5313 1291.3438,180.9844 C1291.3438,181.375 1291.0156,181.8281 1290.4375,182.2344 C1289.6875,182.7813 1288.5313,183.0781 1287.3125,183.0781 C1284.4219,183.0781 1282.3125,181.1875 1282.3125,178.6094 L1282.3125,177.4844 C1282.3125,174.7656 1284.3125,172.6875 1286.9375,172.6875 C1287.8125,172.6875 1288.4063,172.8281 1289.3438,173.2656 Z "/><text fill="#000000" font-family="sans-serif" font-size="12" lengthAdjust="spacingAndGlyphs" textLength="78" x="1301" y="181.748">:SiteStratum</text><line style="stroke: #A80036; stroke-width: 1.5;" x1="1273" x2="1381" y1="193.5938" y2="193.5938"/><line style="stroke: #A80036; stroke-width: 1.5;" x1="1273" x2="1381" y1="201.5938" y2="201.5938"/></a><!--MD5=[e26081150a54feee97befd454a48c707]
class skos:Concept--><rect fill="#FEFECE" filter="url(#f1a3gn6qoxn3f4)" height="48" id="skos:Concept" style="stroke: #A80036; stroke-width: 1.5;" width="117" x="2372.5" y="47.0938"/><ellipse cx="2387.5" cy="63.0938" fill="#ADD1B2" rx="11" ry="11" style="stroke: #A80036; stroke-width: 1.0;"/><path d="M2389.8438,58.7656 L2390.0156,58.8438 C2390.2344,58.5313 2390.4375,58.4375 2390.7344,58.4375 C2391.0313,58.4375 2391.3125,58.5781 2391.4688,58.8438 C2391.5625,59 2391.5781,59.125 2391.5781,59.5625 L2391.5781,60.9844 C2391.5781,61.4063 2391.5469,61.5938 2391.4375,61.75 C2391.2656,61.9688 2391,62.1094 2390.7344,62.1094 C2390.5156,62.1094 2390.2813,62 2390.1406,61.8594 C2390,61.7344 2389.9688,61.6094 2389.9063,61.2031 C2389.8125,60.7969 2389.6406,60.5781 2389.1563,60.2969 C2388.6875,60.0469 2388.0781,59.8906 2387.5,59.8906 C2385.7656,59.8906 2384.5156,61.2031 2384.5156,62.9844 L2384.5156,64.0781 C2384.5156,65.7813 2385.8125,66.875 2387.8594,66.875 C2388.625,66.875 2389.3125,66.75 2389.7344,66.4844 C2389.9219,66.3906 2389.9219,66.3906 2390.375,65.9063 C2390.5625,65.7188 2390.7656,65.6406 2390.9844,65.6406 C2391.4531,65.6406 2391.8438,66.0313 2391.8438,66.4844 C2391.8438,66.875 2391.5156,67.3281 2390.9375,67.7344 C2390.1875,68.2813 2389.0313,68.5781 2387.8125,68.5781 C2384.9219,68.5781 2382.8125,66.6875 2382.8125,64.1094 L2382.8125,62.9844 C2382.8125,60.2656 2384.8125,58.1875 2387.4375,58.1875 C2388.3125,58.1875 2388.9063,58.3281 2389.8438,58.7656 Z "/><text fill="#000000" font-family="sans-serif" font-size="12" lengthAdjust="spacingAndGlyphs" textLength="85" x="2401.5" y="67.248">skos:Concept</text><line style="stroke: #A80036; stroke-width: 1.5;" x1="2373.5" x2="2488.5" y1="79.0938" y2="79.0938"/><line style="stroke: #A80036; stroke-width: 1.5;" x1="2373.5" x2="2488.5" y1="87.0938" y2="87.0938"/><!--MD5=[8caf7ff1d4b6933ec1e0effa27d8a38d]
class :Stratum--><a href="http://linked.data.gov.au/def/plot/Stratum" target="_top" title="http://linked.data.gov.au/def/plot/Stratum" xlink:actuate="onRequest" xlink:href="http://linked.data.gov.au/def/plot/Stratum" xlink:show="new" xlink:title="http://linked.data.gov.au/def/plot/Stratum" xlink:type="simple"><rect fill="#FEFECE" filter="url(#f1a3gn6qoxn3f4)" height="48" id=":Stratum" style="stroke: #A80036; stroke-width: 1.5;" width="86" x="2388" y="161.5938"/><ellipse cx="2403" cy="177.5938" fill="#ADD1B2" rx="11" ry="11" style="stroke: #A80036; stroke-width: 1.0;"/><path d="M2405.3438,173.2656 L2405.5156,173.3438 C2405.7344,173.0313 2405.9375,172.9375 2406.2344,172.9375 C2406.5313,172.9375 2406.8125,173.0781 2406.9688,173.3438 C2407.0625,173.5 2407.0781,173.625 2407.0781,174.0625 L2407.0781,175.4844 C2407.0781,175.9063 2407.0469,176.0938 2406.9375,176.25 C2406.7656,176.4688 2406.5,176.6094 2406.2344,176.6094 C2406.0156,176.6094 2405.7813,176.5 2405.6406,176.3594 C2405.5,176.2344 2405.4688,176.1094 2405.4063,175.7031 C2405.3125,175.2969 2405.1406,175.0781 2404.6563,174.7969 C2404.1875,174.5469 2403.5781,174.3906 2403,174.3906 C2401.2656,174.3906 2400.0156,175.7031 2400.0156,177.4844 L2400.0156,178.5781 C2400.0156,180.2813 2401.3125,181.375 2403.3594,181.375 C2404.125,181.375 2404.8125,181.25 2405.2344,180.9844 C2405.4219,180.8906 2405.4219,180.8906 2405.875,180.4063 C2406.0625,180.2188 2406.2656,180.1406 2406.4844,180.1406 C2406.9531,180.1406 2407.3438,180.5313 2407.3438,180.9844 C2407.3438,181.375 2407.0156,181.8281 2406.4375,182.2344 C2405.6875,182.7813 2404.5313,183.0781 2403.3125,183.0781 C2400.4219,183.0781 2398.3125,181.1875 2398.3125,178.6094 L2398.3125,177.4844 C2398.3125,174.7656 2400.3125,172.6875 2402.9375,172.6875 C2403.8125,172.6875 2404.4063,172.8281 2405.3438,173.2656 Z "/><text fill="#000000" font-family="sans-serif" font-size="12" lengthAdjust="spacingAndGlyphs" textLength="54" x="2417" y="181.748">:Stratum</text><line style="stroke: #A80036; stroke-width: 1.5;" x1="2389" x2="2473" y1="193.5938" y2="193.5938"/><line style="stroke: #A80036; stroke-width: 1.5;" x1="2389" x2="2473" y1="201.5938" y2="201.5938"/></a><!--MD5=[cb944c6968791c6d805c849a01519e07]
class sosa:FeatureOfInterest--><rect fill="#FEFECE" filter="url(#f1a3gn6qoxn3f4)" height="48" id="sosa:FeatureOfInterest" style="stroke: #A80036; stroke-width: 1.5;" width="177" x="1829.5" y="47.0938"/><ellipse cx="1844.5" cy="63.0938" fill="#ADD1B2" rx="11" ry="11" style="stroke: #A80036; stroke-width: 1.0;"/><path d="M1846.8438,58.7656 L1847.0156,58.8438 C1847.2344,58.5313 1847.4375,58.4375 1847.7344,58.4375 C1848.0313,58.4375 1848.3125,58.5781 1848.4688,58.8438 C1848.5625,59 1848.5781,59.125 1848.5781,59.5625 L1848.5781,60.9844 C1848.5781,61.4063 1848.5469,61.5938 1848.4375,61.75 C1848.2656,61.9688 1848,62.1094 1847.7344,62.1094 C1847.5156,62.1094 1847.2813,62 1847.1406,61.8594 C1847,61.7344 1846.9688,61.6094 1846.9063,61.2031 C1846.8125,60.7969 1846.6406,60.5781 1846.1563,60.2969 C1845.6875,60.0469 1845.0781,59.8906 1844.5,59.8906 C1842.7656,59.8906 1841.5156,61.2031 1841.5156,62.9844 L1841.5156,64.0781 C1841.5156,65.7813 1842.8125,66.875 1844.8594,66.875 C1845.625,66.875 1846.3125,66.75 1846.7344,66.4844 C1846.9219,66.3906 1846.9219,66.3906 1847.375,65.9063 C1847.5625,65.7188 1847.7656,65.6406 1847.9844,65.6406 C1848.4531,65.6406 1848.8438,66.0313 1848.8438,66.4844 C1848.8438,66.875 1848.5156,67.3281 1847.9375,67.7344 C1847.1875,68.2813 1846.0313,68.5781 1844.8125,68.5781 C1841.9219,68.5781 1839.8125,66.6875 1839.8125,64.1094 L1839.8125,62.9844 C1839.8125,60.2656 1841.8125,58.1875 1844.4375,58.1875 C1845.3125,58.1875 1845.9063,58.3281 1846.8438,58.7656 Z "/><text fill="#000000" font-family="sans-serif" font-size="12" lengthAdjust="spacingAndGlyphs" textLength="145" x="1858.5" y="67.248">sosa:FeatureOfInterest</text><line style="stroke: #A80036; stroke-width: 1.5;" x1="1830.5" x2="2005.5" y1="79.0938" y2="79.0938"/><line style="stroke: #A80036; stroke-width: 1.5;" x1="1830.5" x2="2005.5" y1="87.0938" y2="87.0938"/><!--MD5=[64b2c2f1abdedb6345a6d1a18b1806eb]
class :ub1bL494C15--><a href="ub1bL494C15" target="_top" title="ub1bL494C15" xlink:actuate="onRequest" xlink:href="ub1bL494C15" xlink:show="new" xlink:title="ub1bL494C15" xlink:type="simple"><rect fill="#FEFECE" filter="url(#f1a3gn6qoxn3f4)" height="48" id=":ub1bL494C15" style="stroke: #A80036; stroke-width: 1.5;" width="122" x="6" y="47.0938"/><ellipse cx="21" cy="63.0938" fill="#ADD1B2" rx="11" ry="11" style="stroke: #A80036; stroke-width: 1.0;"/><path d="M23.3438,58.7656 L23.5156,58.8438 C23.7344,58.5313 23.9375,58.4375 24.2344,58.4375 C24.5313,58.4375 24.8125,58.5781 24.9688,58.8438 C25.0625,59 25.0781,59.125 25.0781,59.5625 L25.0781,60.9844 C25.0781,61.4063 25.0469,61.5938 24.9375,61.75 C24.7656,61.9688 24.5,62.1094 24.2344,62.1094 C24.0156,62.1094 23.7813,62 23.6406,61.8594 C23.5,61.7344 23.4688,61.6094 23.4063,61.2031 C23.3125,60.7969 23.1406,60.5781 22.6563,60.2969 C22.1875,60.0469 21.5781,59.8906 21,59.8906 C19.2656,59.8906 18.0156,61.2031 18.0156,62.9844 L18.0156,64.0781 C18.0156,65.7813 19.3125,66.875 21.3594,66.875 C22.125,66.875 22.8125,66.75 23.2344,66.4844 C23.4219,66.3906 23.4219,66.3906 23.875,65.9063 C24.0625,65.7188 24.2656,65.6406 24.4844,65.6406 C24.9531,65.6406 25.3438,66.0313 25.3438,66.4844 C25.3438,66.875 25.0156,67.3281 24.4375,67.7344 C23.6875,68.2813 22.5313,68.5781 21.3125,68.5781 C18.4219,68.5781 16.3125,66.6875 16.3125,64.1094 L16.3125,62.9844 C16.3125,60.2656 18.3125,58.1875 20.9375,58.1875 C21.8125,58.1875 22.4063,58.3281 23.3438,58.7656 Z "/><text fill="#000000" font-family="sans-serif" font-size="12" lengthAdjust="spacingAndGlyphs" textLength="90" x="35" y="67.248">:ub1bL494C15</text><line style="stroke: #A80036; stroke-width: 1.5;" x1="7" x2="127" y1="79.0938" y2="79.0938"/><line style="stroke: #A80036; stroke-width: 1.5;" x1="7" x2="127" y1="87.0938" y2="87.0938"/></a><!--MD5=[a2628b293a9723f47390e4c57545d1ae]
class :ub1bL571C15--><a href="ub1bL571C15" target="_top" title="ub1bL571C15" xlink:actuate="onRequest" xlink:href="ub1bL571C15" xlink:show="new" xlink:title="ub1bL571C15" xlink:type="simple"><rect fill="#FEFECE" filter="url(#f1a3gn6qoxn3f4)" height="60.8047" id=":ub1bL571C15" style="stroke: #A80036; stroke-width: 1.5;" width="225" x="163.5" y="40.5938"/><ellipse cx="226.75" cy="56.5938" fill="#ADD1B2" rx="11" ry="11" style="stroke: #A80036; stroke-width: 1.0;"/><path d="M229.0938,52.2656 L229.2656,52.3438 C229.4844,52.0313 229.6875,51.9375 229.9844,51.9375 C230.2813,51.9375 230.5625,52.0781 230.7188,52.3438 C230.8125,52.5 230.8281,52.625 230.8281,53.0625 L230.8281,54.4844 C230.8281,54.9063 230.7969,55.0938 230.6875,55.25 C230.5156,55.4688 230.25,55.6094 229.9844,55.6094 C229.7656,55.6094 229.5313,55.5 229.3906,55.3594 C229.25,55.2344 229.2188,55.1094 229.1563,54.7031 C229.0625,54.2969 228.8906,54.0781 228.4063,53.7969 C227.9375,53.5469 227.3281,53.3906 226.75,53.3906 C225.0156,53.3906 223.7656,54.7031 223.7656,56.4844 L223.7656,57.5781 C223.7656,59.2813 225.0625,60.375 227.1094,60.375 C227.875,60.375 228.5625,60.25 228.9844,59.9844 C229.1719,59.8906 229.1719,59.8906 229.625,59.4063 C229.8125,59.2188 230.0156,59.1406 230.2344,59.1406 C230.7031,59.1406 231.0938,59.5313 231.0938,59.9844 C231.0938,60.375 230.7656,60.8281 230.1875,61.2344 C229.4375,61.7813 228.2813,62.0781 227.0625,62.0781 C224.1719,62.0781 222.0625,60.1875 222.0625,57.6094 L222.0625,56.4844 C222.0625,53.7656 224.0625,51.6875 226.6875,51.6875 C227.5625,51.6875 228.1563,51.8281 229.0938,52.2656 Z "/><text fill="#000000" font-family="sans-serif" font-size="12" lengthAdjust="spacingAndGlyphs" textLength="90" x="247.25" y="60.748">:ub1bL571C15</text><line style="stroke: #A80036; stroke-width: 1.5;" x1="164.5" x2="387.5" y1="72.5938" y2="72.5938"/></a><a href="http://www.w3.org/ns/ssn/ext/isMemberOf" target="_top" title="http://www.w3.org/ns/ssn/ext/isMemberOf" xlink:actuate="onRequest" xlink:href="http://www.w3.org/ns/ssn/ext/isMemberOf" xlink:show="new" xlink:title="http://www.w3.org/ns/ssn/ext/isMemberOf" xlink:type="simple"><text fill="#0000FF" font-family="sans-serif" font-size="11" lengthAdjust="spacingAndGlyphs" text-decoration="underline" textLength="73" x="169.5" y="86.8042">:isMemberOf</text></a><text fill="#000000" font-family="sans-serif" font-size="11" lengthAdjust="spacingAndGlyphs" textLength="4" x="246.5" y="86.8042">:</text><a href="http://www.w3.org/ns/ssn/ext/ObservationCollection" target="_top" title="http://www.w3.org/ns/ssn/ext/ObservationCollection" xlink:actuate="onRequest" xlink:href="http://www.w3.org/ns/ssn/ext/ObservationCollection" xlink:show="new" xlink:title="http://www.w3.org/ns/ssn/ext/ObservationCollection" xlink:type="simple"><text fill="#0000FF" font-family="sans-serif" font-size="11" lengthAdjust="spacingAndGlyphs" text-decoration="underline" textLength="128" x="254.5" y="86.8042">:ObservationCollection</text></a><line style="stroke: #A80036; stroke-width: 1.5;" x1="164.5" x2="387.5" y1="93.3984" y2="93.3984"/><!--MD5=[d39fc9acfb97eea5012d0a1ecfd76de8]
class :ub1bL307C26--><a href="ub1bL307C26" target="_top" title="ub1bL307C26" xlink:actuate="onRequest" xlink:href="ub1bL307C26" xlink:show="new" xlink:title="ub1bL307C26" xlink:type="simple"><rect fill="#FEFECE" filter="url(#f1a3gn6qoxn3f4)" height="48" id=":ub1bL307C26" style="stroke: #A80036; stroke-width: 1.5;" width="122" x="424" y="47.0938"/><ellipse cx="439" cy="63.0938" fill="#ADD1B2" rx="11" ry="11" style="stroke: #A80036; stroke-width: 1.0;"/><path d="M441.3438,58.7656 L441.5156,58.8438 C441.7344,58.5313 441.9375,58.4375 442.2344,58.4375 C442.5313,58.4375 442.8125,58.5781 442.9688,58.8438 C443.0625,59 443.0781,59.125 443.0781,59.5625 L443.0781,60.9844 C443.0781,61.4063 443.0469,61.5938 442.9375,61.75 C442.7656,61.9688 442.5,62.1094 442.2344,62.1094 C442.0156,62.1094 441.7813,62 441.6406,61.8594 C441.5,61.7344 441.4688,61.6094 441.4063,61.2031 C441.3125,60.7969 441.1406,60.5781 440.6563,60.2969 C440.1875,60.0469 439.5781,59.8906 439,59.8906 C437.2656,59.8906 436.0156,61.2031 436.0156,62.9844 L436.0156,64.0781 C436.0156,65.7813 437.3125,66.875 439.3594,66.875 C440.125,66.875 440.8125,66.75 441.2344,66.4844 C441.4219,66.3906 441.4219,66.3906 441.875,65.9063 C442.0625,65.7188 442.2656,65.6406 442.4844,65.6406 C442.9531,65.6406 443.3438,66.0313 443.3438,66.4844 C443.3438,66.875 443.0156,67.3281 442.4375,67.7344 C441.6875,68.2813 440.5313,68.5781 439.3125,68.5781 C436.4219,68.5781 434.3125,66.6875 434.3125,64.1094 L434.3125,62.9844 C434.3125,60.2656 436.3125,58.1875 438.9375,58.1875 C439.8125,58.1875 440.4063,58.3281 441.3438,58.7656 Z "/><text fill="#000000" font-family="sans-serif" font-size="12" lengthAdjust="spacingAndGlyphs" textLength="90" x="453" y="67.248">:ub1bL307C26</text><line style="stroke: #A80036; stroke-width: 1.5;" x1="425" x2="545" y1="79.0938" y2="79.0938"/><line style="stroke: #A80036; stroke-width: 1.5;" x1="425" x2="545" y1="87.0938" y2="87.0938"/></a><!--MD5=[ac45ecb4fe0054274f018135938a801d]
class :ub1bL554C23--><a href="ub1bL554C23" target="_top" title="ub1bL554C23" xlink:actuate="onRequest" xlink:href="ub1bL554C23" xlink:show="new" xlink:title="ub1bL554C23" xlink:type="simple"><rect fill="#FEFECE" filter="url(#f1a3gn6qoxn3f4)" height="48" id=":ub1bL554C23" style="stroke: #A80036; stroke-width: 1.5;" width="122" x="6" y="161.5938"/><ellipse cx="21" cy="177.5938" fill="#ADD1B2" rx="11" ry="11" style="stroke: #A80036; stroke-width: 1.0;"/><path d="M23.3438,173.2656 L23.5156,173.3438 C23.7344,173.0313 23.9375,172.9375 24.2344,172.9375 C24.5313,172.9375 24.8125,173.0781 24.9688,173.3438 C25.0625,173.5 25.0781,173.625 25.0781,174.0625 L25.0781,175.4844 C25.0781,175.9063 25.0469,176.0938 24.9375,176.25 C24.7656,176.4688 24.5,176.6094 24.2344,176.6094 C24.0156,176.6094 23.7813,176.5 23.6406,176.3594 C23.5,176.2344 23.4688,176.1094 23.4063,175.7031 C23.3125,175.2969 23.1406,175.0781 22.6563,174.7969 C22.1875,174.5469 21.5781,174.3906 21,174.3906 C19.2656,174.3906 18.0156,175.7031 18.0156,177.4844 L18.0156,178.5781 C18.0156,180.2813 19.3125,181.375 21.3594,181.375 C22.125,181.375 22.8125,181.25 23.2344,180.9844 C23.4219,180.8906 23.4219,180.8906 23.875,180.4063 C24.0625,180.2188 24.2656,180.1406 24.4844,180.1406 C24.9531,180.1406 25.3438,180.5313 25.3438,180.9844 C25.3438,181.375 25.0156,181.8281 24.4375,182.2344 C23.6875,182.7813 22.5313,183.0781 21.3125,183.0781 C18.4219,183.0781 16.3125,181.1875 16.3125,178.6094 L16.3125,177.4844 C16.3125,174.7656 18.3125,172.6875 20.9375,172.6875 C21.8125,172.6875 22.4063,172.8281 23.3438,173.2656 Z "/><text fill="#000000" font-family="sans-serif" font-size="12" lengthAdjust="spacingAndGlyphs" textLength="90" x="35" y="181.748">:ub1bL554C23</text><line style="stroke: #A80036; stroke-width: 1.5;" x1="7" x2="127" y1="193.5938" y2="193.5938"/><line style="stroke: #A80036; stroke-width: 1.5;" x1="7" x2="127" y1="201.5938" y2="201.5938"/></a><!--MD5=[0f25cf74e97785200e99d5888124f2b2]
class :ub1bL149C26--><a href="ub1bL149C26" target="_top" title="ub1bL149C26" xlink:actuate="onRequest" xlink:href="ub1bL149C26" xlink:show="new" xlink:title="ub1bL149C26" xlink:type="simple"><rect fill="#FEFECE" filter="url(#f1a3gn6qoxn3f4)" height="48" id=":ub1bL149C26" style="stroke: #A80036; stroke-width: 1.5;" width="122" x="163" y="161.5938"/><ellipse cx="178" cy="177.5938" fill="#ADD1B2" rx="11" ry="11" style="stroke: #A80036; stroke-width: 1.0;"/><path d="M180.3438,173.2656 L180.5156,173.3438 C180.7344,173.0313 180.9375,172.9375 181.2344,172.9375 C181.5313,172.9375 181.8125,173.0781 181.9688,173.3438 C182.0625,173.5 182.0781,173.625 182.0781,174.0625 L182.0781,175.4844 C182.0781,175.9063 182.0469,176.0938 181.9375,176.25 C181.7656,176.4688 181.5,176.6094 181.2344,176.6094 C181.0156,176.6094 180.7813,176.5 180.6406,176.3594 C180.5,176.2344 180.4688,176.1094 180.4063,175.7031 C180.3125,175.2969 180.1406,175.0781 179.6563,174.7969 C179.1875,174.5469 178.5781,174.3906 178,174.3906 C176.2656,174.3906 175.0156,175.7031 175.0156,177.4844 L175.0156,178.5781 C175.0156,180.2813 176.3125,181.375 178.3594,181.375 C179.125,181.375 179.8125,181.25 180.2344,180.9844 C180.4219,180.8906 180.4219,180.8906 180.875,180.4063 C181.0625,180.2188 181.2656,180.1406 181.4844,180.1406 C181.9531,180.1406 182.3438,180.5313 182.3438,180.9844 C182.3438,181.375 182.0156,181.8281 181.4375,182.2344 C180.6875,182.7813 179.5313,183.0781 178.3125,183.0781 C175.4219,183.0781 173.3125,181.1875 173.3125,178.6094 L173.3125,177.4844 C173.3125,174.7656 175.3125,172.6875 177.9375,172.6875 C178.8125,172.6875 179.4063,172.8281 180.3438,173.2656 Z "/><text fill="#000000" font-family="sans-serif" font-size="12" lengthAdjust="spacingAndGlyphs" textLength="90" x="192" y="181.748">:ub1bL149C26</text><line style="stroke: #A80036; stroke-width: 1.5;" x1="164" x2="284" y1="193.5938" y2="193.5938"/><line style="stroke: #A80036; stroke-width: 1.5;" x1="164" x2="284" y1="201.5938" y2="201.5938"/></a><!--MD5=[6be681d58cb9eb648eb2301dc577ad8b]
class dwc:Occurrence--><rect fill="#FEFECE" filter="url(#f1a3gn6qoxn3f4)" height="48" id="dwc:Occurrence" style="stroke: #A80036; stroke-width: 1.5;" width="132" x="1662" y="47.0938"/><ellipse cx="1677" cy="63.0938" fill="#ADD1B2" rx="11" ry="11" style="stroke: #A80036; stroke-width: 1.0;"/><path d="M1679.3438,58.7656 L1679.5156,58.8438 C1679.7344,58.5313 1679.9375,58.4375 1680.2344,58.4375 C1680.5313,58.4375 1680.8125,58.5781 1680.9688,58.8438 C1681.0625,59 1681.0781,59.125 1681.0781,59.5625 L1681.0781,60.9844 C1681.0781,61.4063 1681.0469,61.5938 1680.9375,61.75 C1680.7656,61.9688 1680.5,62.1094 1680.2344,62.1094 C1680.0156,62.1094 1679.7813,62 1679.6406,61.8594 C1679.5,61.7344 1679.4688,61.6094 1679.4063,61.2031 C1679.3125,60.7969 1679.1406,60.5781 1678.6563,60.2969 C1678.1875,60.0469 1677.5781,59.8906 1677,59.8906 C1675.2656,59.8906 1674.0156,61.2031 1674.0156,62.9844 L1674.0156,64.0781 C1674.0156,65.7813 1675.3125,66.875 1677.3594,66.875 C1678.125,66.875 1678.8125,66.75 1679.2344,66.4844 C1679.4219,66.3906 1679.4219,66.3906 1679.875,65.9063 C1680.0625,65.7188 1680.2656,65.6406 1680.4844,65.6406 C1680.9531,65.6406 1681.3438,66.0313 1681.3438,66.4844 C1681.3438,66.875 1681.0156,67.3281 1680.4375,67.7344 C1679.6875,68.2813 1678.5313,68.5781 1677.3125,68.5781 C1674.4219,68.5781 1672.3125,66.6875 1672.3125,64.1094 L1672.3125,62.9844 C1672.3125,60.2656 1674.3125,58.1875 1676.9375,58.1875 C1677.8125,58.1875 1678.4063,58.3281 1679.3438,58.7656 Z "/><text fill="#000000" font-family="sans-serif" font-size="12" lengthAdjust="spacingAndGlyphs" textLength="100" x="1691" y="67.248">dwc:Occurrence</text><line style="stroke: #A80036; stroke-width: 1.5;" x1="1663" x2="1793" y1="79.0938" y2="79.0938"/><line style="stroke: #A80036; stroke-width: 1.5;" x1="1663" x2="1793" y1="87.0938" y2="87.0938"/><!--MD5=[b868cf3775c856207f62f10252ac689d]
reverse link sosa:Platform to :FluxTower--><path d="M640,115.2387 C640,131.0138 640,148.2458 640,161.5868 " fill="none" id="sosa:Platform&lt;-:FluxTower" style="stroke: #A80036; stroke-width: 1.0;"/><polygon fill="none" points="633,115.1318,640,95.1318,647,115.1307,633,115.1318" style="stroke: #A80036; stroke-width: 1.0;"/><!--MD5=[275ba334fe22dfb021ff74c071397ab0]
reverse link prov:Activity to :SiteVisit--><path d="M811.341,112.2987 C801.193,128.8447 789.805,147.4128 781.111,161.5868 " fill="none" id="prov:Activity&lt;-:SiteVisit" style="stroke: #A80036; stroke-width: 1.0;"/><polygon fill="none" points="805.447,108.5197,821.87,95.1318,817.381,115.8397,805.447,108.5197" style="stroke: #A80036; stroke-width: 1.0;"/><!--MD5=[563ca3b286fc5313db7dffbb2b0328c9]
reverse link sosa:Sample to :SiteTaxon--><path d="M1114.55,106.8107 C1089.7,124.6198 1060.11,145.8207 1038.11,161.5868 " fill="none" id="sosa:Sample&lt;-:SiteTaxon" style="stroke: #A80036; stroke-width: 1.0;"/><polygon fill="none" points="1110.52,101.0908,1130.85,95.1318,1118.67,112.4708,1110.52,101.0908" style="stroke: #A80036; stroke-width: 1.0;"/><!--MD5=[c23c54f56d1ecb3574b631f735680183]
reverse link prov:Activity to :Survey--><path d="M853.722,113.6307 C860.636,129.8347 868.298,147.7917 874.184,161.5868 " fill="none" id="prov:Activity&lt;-:Survey" style="stroke: #A80036; stroke-width: 1.0;"/><polygon fill="none" points="847.24,116.2738,845.829,95.1318,860.117,110.7797,847.24,116.2738" style="stroke: #A80036; stroke-width: 1.0;"/><!--MD5=[a05182c24c0f2da3184069ea6995fffe]
reverse link owl:Thing to :EnvironmentalSystem--><path d="M1727.56,229.6178 C1726.8,243.1728 1725.98,257.6318 1725.32,269.2718 " fill="none" id="owl:Thing&lt;-:EnvironmentalSystem" style="stroke: #A80036; stroke-width: 1.0;"/><polygon fill="none" points="1720.58,229.1667,1728.7,209.5938,1734.56,229.9577,1720.58,229.1667" style="stroke: #A80036; stroke-width: 1.0;"/><!--MD5=[331f6ab8dfe00a12657b01b61bdd174c]
reverse link :EnvironmentalContinuant to :EnvironmentalSystem--><path d="M1858.23,219.2538 C1828.49,235.5007 1793.25,254.7538 1766.35,269.4558 " fill="none" id=":EnvironmentalContinuant&lt;-:EnvironmentalSystem" style="stroke: #A80036; stroke-width: 1.0;"/><polygon fill="none" points="1855,213.0408,1875.9,209.5938,1861.71,225.3268,1855,213.0408" style="stroke: #A80036; stroke-width: 1.0;"/><!--MD5=[f9754e33c03ec009aca8f871ad818b23]
reverse link sosa:Sample to :OrganismOccurence--><path d="M1237.64,101.8408 C1314.1,128.1698 1383.62,148.3818 1435.79,162.8538 " fill="none" id="sosa:Sample&lt;-:OrganismOccurence" style="stroke: #A80036; stroke-width: 1.0;"/><polygon fill="none" points="1235.17,108.3947,1218.59,95.2038,1239.78,95.1737,1235.17,108.3947" style="stroke: #A80036; stroke-width: 1.0;"/><!--MD5=[d41ed85ec00667454d9621565d82d6d1]
reverse link time:TemporalEntity to :OrganismOccurence--><path d="M1386.99,105.5317 C1416.69,123.5967 1452.62,145.4418 1479.17,161.5868 " fill="none" id="time:TemporalEntity&lt;-:OrganismOccurence" style="stroke: #A80036; stroke-width: 1.0;"/><polygon fill="none" points="1383.34,111.5038,1369.88,95.1318,1390.61,99.5417,1383.34,111.5038" style="stroke: #A80036; stroke-width: 1.0;"/><!--MD5=[19c1fa849aed3cc5802a7757a42ef5ee]
reverse link geosparql:SpatialObject to :OrganismOccurence--><path d="M1528.76,114.9697 C1526.08,130.8188 1523.15,148.1708 1520.89,161.5868 " fill="none" id="geosparql:SpatialObject&lt;-:OrganismOccurence" style="stroke: #A80036; stroke-width: 1.0;"/><polygon fill="none" points="1521.88,113.6868,1532.11,95.1318,1535.68,116.0177,1521.88,113.6868" style="stroke: #A80036; stroke-width: 1.0;"/><!--MD5=[c800b92bc71a73c1356b74aba10f7cff]
reverse link sosa:Sample to :SiteStratumTaxon--><path d="M1163,115.2387 C1163,131.0138 1163,148.2458 1163,161.5868 " fill="none" id="sosa:Sample&lt;-:SiteStratumTaxon" style="stroke: #A80036; stroke-width: 1.0;"/><polygon fill="none" points="1156,115.1318,1163,95.1318,1170,115.1307,1156,115.1318" style="stroke: #A80036; stroke-width: 1.0;"/><!--MD5=[c6ab8af9135bd6e784c73df634de44b2]
reverse link :EnvironmentalContinuant to :EnvironmentalZone--><path d="M1920.03,229.6178 C1920.67,243.1728 1921.35,257.6318 1921.9,269.2718 " fill="none" id=":EnvironmentalContinuant&lt;-:EnvironmentalZone" style="stroke: #A80036; stroke-width: 1.0;"/><polygon fill="none" points="1913.04,229.9018,1919.08,209.5938,1927.02,229.2418,1913.04,229.9018" style="stroke: #A80036; stroke-width: 1.0;"/><!--MD5=[909701d58657220eaef5f1b15ddec774]
reverse link owl:Thing to :EnvironmentalZone--><path d="M1789.47,219.2538 C1819.05,235.5007 1854.1,254.7538 1880.87,269.4558 " fill="none" id="owl:Thing&lt;-:EnvironmentalZone" style="stroke: #A80036; stroke-width: 1.0;"/><polygon fill="none" points="1786.04,225.3578,1771.88,209.5938,1792.78,213.0868,1786.04,225.3578" style="stroke: #A80036; stroke-width: 1.0;"/><!--MD5=[00eea72691b1165f8f067d3db328fbe4]
reverse link sosa:Observation to :TaxonAssignment--><path d="M2123,115.2387 C2123,131.0138 2123,148.2458 2123,161.5868 " fill="none" id="sosa:Observation&lt;-:TaxonAssignment" style="stroke: #A80036; stroke-width: 1.0;"/><polygon fill="none" points="2116,115.1318,2123,95.1318,2130,115.1307,2116,115.1318" style="stroke: #A80036; stroke-width: 1.0;"/><!--MD5=[094ffb1d677d3631456e9901c1475881]
reverse link :EcologicalCommunity to :Assemblage--><path d="M1724,445.6174 C1724,459.173 1724,473.6319 1724,485.2722 " fill="none" id=":EcologicalCommunity&lt;-:Assemblage" style="stroke: #A80036; stroke-width: 1.0;"/><polygon fill="none" points="1717,445.5943,1724,425.5938,1731,445.5942,1717,445.5943" style="stroke: #A80036; stroke-width: 1.0;"/><!--MD5=[44e5cb1da9a681ab886e39901222d532]
reverse link dct:Location to :Location--><path d="M2283,115.2387 C2283,131.0138 2283,148.2458 2283,161.5868 " fill="none" id="dct:Location&lt;-:Location" style="stroke: #A80036; stroke-width: 1.0;"/><polygon fill="none" points="2276,115.1318,2283,95.1318,2290,115.1307,2276,115.1318" style="stroke: #A80036; stroke-width: 1.0;"/><!--MD5=[f104df006a5560d7d0e10e6497496b78]
reverse link sosa:Sample to :SiteStratum--><path d="M1213.23,106.5537 C1239.27,124.4158 1270.37,145.7448 1293.46,161.5868 " fill="none" id="sosa:Sample&lt;-:SiteStratum" style="stroke: #A80036; stroke-width: 1.0;"/><polygon fill="none" points="1209.12,112.2167,1196.58,95.1318,1217.04,100.6728,1209.12,112.2167" style="stroke: #A80036; stroke-width: 1.0;"/><!--MD5=[4afdbcc2aaa9793b213da55f0ac47a35]
reverse link :EnvironmentalSystem to :EcologicalCommunity--><path d="M1724,337.6178 C1724,351.1728 1724,365.6318 1724,377.2718 " fill="none" id=":EnvironmentalSystem&lt;-:EcologicalCommunity" style="stroke: #A80036; stroke-width: 1.0;"/><polygon fill="none" points="1717,337.5938,1724,317.5938,1731,337.5938,1717,337.5938" style="stroke: #A80036; stroke-width: 1.0;"/><!--MD5=[35c720b0d78d702b7d9d281cea18e765]
reverse link skos:Concept to :Stratum--><path d="M2431,115.2387 C2431,131.0138 2431,148.2458 2431,161.5868 " fill="none" id="skos:Concept&lt;-:Stratum" style="stroke: #A80036; stroke-width: 1.0;"/><polygon fill="none" points="2424,115.1318,2431,95.1318,2438,115.1307,2424,115.1318" style="stroke: #A80036; stroke-width: 1.0;"/><!--MD5=[360ae85a8ddef6b242e05f837d25fa52]
reverse link sosa:FeatureOfInterest to :EnvironmentalContinuant--><path d="M1918,115.2387 C1918,131.0138 1918,148.2458 1918,161.5868 " fill="none" id="sosa:FeatureOfInterest&lt;-:EnvironmentalContinuant" style="stroke: #A80036; stroke-width: 1.0;"/><polygon fill="none" points="1911,115.1318,1918,95.1318,1925,115.1307,1911,115.1318" style="stroke: #A80036; stroke-width: 1.0;"/><!--MD5=[53ccb56f84498235ddbea6d9db34a729]
link dwc:Occurrence to :OrganismOccurence--><path d="M1684.79,95.1318 C1648.38,114.5448 1596.55,142.1818 1560.15,161.5868 " fill="none" id="dwc:Occurrence-:OrganismOccurence" style="stroke: #A80036; stroke-width: 1.0; stroke-dasharray: 7.0,7.0;"/><!--MD5=[03aab4a3829a5210bd9a3241c791627c]
link :ub1bL494C15 to :ub1bL571C15--><!--MD5=[60484dce3717a0d09e511098dfca3332]
link :ub1bL571C15 to :ub1bL307C26--><!--MD5=[ddf58d69129aeaa1c55641a8ec0f7264]
link :ub1bL494C15 to :ub1bL554C23--><!--MD5=[5d3446591b700a68636d4a7371a2cb9e]
link :ub1bL554C23 to :ub1bL149C26--><text fill="#888888" font-family="sans-serif" font-size="10" lengthAdjust="spacingAndGlyphs" textLength="67" x="1117" y="552.876">Generated by</text><a href="https://github.com/edmondchuc/ontogram" target="_top" title="https://github.com/edmondchuc/ontogram" xlink:actuate="onRequest" xlink:href="https://github.com/edmondchuc/ontogram" xlink:show="new" xlink:title="https://github.com/edmondchuc/ontogram" xlink:type="simple"><text fill="#0000FF" font-family="sans-serif" font-size="10" lengthAdjust="spacingAndGlyphs" text-decoration="underline" textLength="204" x="1187" y="552.876">https://github.com/edmondchuc/ontogram</text></a><!--MD5=[24b64acd35034214b0725bb9e1fbbcbf]
@startuml
title The PLOT ontology
"sosa:Platform" <|- - ":FluxTower"
"prov:Activity" <|- - ":SiteVisit"
"sosa:Sample" <|- - ":SiteTaxon"
"prov:Activity" <|- - ":Survey"
"owl:Thing" <|- - ":EnvironmentalSystem"
":EnvironmentalContinuant" <|- - ":EnvironmentalSystem"
"sosa:Sample" <|- - ":OrganismOccurence"
"time:TemporalEntity" <|- - ":OrganismOccurence"
"geosparql:SpatialObject" <|- - ":OrganismOccurence"
"sosa:Sample" <|- - ":SiteStratumTaxon"
":EnvironmentalContinuant" <|- - ":EnvironmentalZone"
"owl:Thing" <|- - ":EnvironmentalZone"
"sosa:Observation" <|- - ":TaxonAssignment"
":EcologicalCommunity" <|- - ":Assemblage"
"dct:Location" <|- - ":Location"
"sosa:Sample" <|- - ":SiteStratum"
":EnvironmentalSystem" <|- - ":EcologicalCommunity"
"skos:Concept" <|- - ":Stratum"
"sosa:FeatureOfInterest" <|- - ":EnvironmentalContinuant"
Class ":ub1bL494C15" [[ub1bL494C15]] {
}
Class ":FluxTower" [[http://linked.data.gov.au/def/plot/x/FluxTower]] {
}
Class ":ub1bL571C15" [[ub1bL571C15]] {
[[http://www.w3.org/ns/ssn/ext/isMemberOf :isMemberOf]] : [[http://www.w3.org/ns/ssn/ext/ObservationCollection :ObservationCollection]]
}
Class ":SiteVisit" [[http://linked.data.gov.au/def/plot/SiteVisit]] {
}
Class ":SiteTaxon" [[http://linked.data.gov.au/def/plot/SiteTaxon]] {
}
Class ":Survey" [[http://linked.data.gov.au/def/plot/x/Survey]] {
}
Class ":ub1bL307C26" [[ub1bL307C26]] {
}
Class ":EnvironmentalSystem" [[http://linked.data.gov.au/def/plot/x/EnvironmentalSystem]] {
}
Class ":OrganismOccurence" [[http://linked.data.gov.au/def/plot/OrganismOccurence]] {
}
Class ":SiteStratumTaxon" [[http://linked.data.gov.au/def/plot/SiteStratumTaxon]] {
}
Class ":EnvironmentalZone" [[http://linked.data.gov.au/def/plot/x/EnvironmentalZone]] {
}
Class ":ub1bL554C23" [[ub1bL554C23]] {
}
Class ":ub1bL149C26" [[ub1bL149C26]] {
}
Class ":TaxonAssignment" [[http://linked.data.gov.au/def/plot/x/TaxonAssignment]] {
}
Class ":Assemblage" [[http://linked.data.gov.au/def/plot/x/Assemblage]] {
}
Class ":Location" [[http://linked.data.gov.au/def/plot/Location]] {
}
Class ":SiteStratum" [[http://linked.data.gov.au/def/plot/SiteStratum]] {
}
Class ":EcologicalCommunity" [[http://linked.data.gov.au/def/plot/x/EcologicalCommunity]] {
}
Class ":Stratum" [[http://linked.data.gov.au/def/plot/Stratum]] {
}
Class ":EnvironmentalContinuant" [[http://linked.data.gov.au/def/plot/x/EnvironmentalContinuant]] {
}
"dwc:Occurrence" .. ":OrganismOccurence"
header
Creator: Simon J.D.Cox (simon.cox@csiro.au) 
endheader
center footer Generated by [[https://github.com/edmondchuc/ontogram https://github.com/edmondchuc/ontogram]]
@enduml

PlantUML version 1.2020.01beta5(Unknown compile time)
(GPL source distribution)
Java Runtime: Java(TM) SE Runtime Environment
JVM: Java HotSpot(TM) 64-Bit Server VM
Java Version: 1.7.0_25-b15
Operating System: Linux
Default Encoding: UTF-8
Language: en
Country: US
--></g></svg>